<svg width="76" height="76" fill="none" xmlns="http://www.w3.org/2000/svg"><g filter="url(#filter0_d_341_2995)"><rect x="8" y="4" width="60" height="60" rx="8" fill="#374EAC"/></g><path fill-rule="evenodd" clip-rule="evenodd" d="M26.885 21h23.077a2.893 2.893 0 012.884 2.885v17.307a2.893 2.893 0 01-2.884 2.885H30.963c-.764 0-1.497.304-2.038.844-1.817 1.817-4.922.53-4.921-2.04l.01-18.996A2.88 2.88 0 0126.885 21zm4.326 17.307h14.423c.793 0 1.442-.649 1.442-1.442 0-.793-.649-1.442-1.442-1.442H31.211c-.793 0-1.442.649-1.442 1.442 0 .793.649 1.442 1.442 1.442zm14.423-4.326H31.211c-.793 0-1.442-.65-1.442-1.443s.649-1.442 1.442-1.442h14.423c.793 0 1.442.65 1.442 1.442 0 .794-.649 1.443-1.442 1.443zm-14.423-4.328h14.423c.793 0 1.442-.648 1.442-1.442 0-.793-.649-1.442-1.442-1.442H31.211c-.793 0-1.442.649-1.442 1.442 0 .794.649 1.443 1.442 1.443z" fill="#fff"/><defs><filter id="filter0_d_341_2995" x="0" y="0" width="76" height="76" filterUnits="userSpaceOnUse" color-interpolation-filters="sRGB"><feFlood flood-opacity="0" result="BackgroundImageFix"/><feColorMatrix in="SourceAlpha" values="0 0 0 0 0 0 0 0 0 0 0 0 0 0 0 0 0 0 127 0" result="hardAlpha"/><feOffset dy="4"/><feGaussianBlur stdDeviation="4"/><feComposite in2="hardAlpha" operator="out"/><feColorMatrix values="0 0 0 0 0 0 0 0 0 0 0 0 0 0 0 0 0 0 0.1 0"/><feBlend in2="BackgroundImageFix" result="effect1_dropShadow_341_2995"/><feBlend in="SourceGraphic" in2="effect1_dropShadow_341_2995" result="shape"/></filter></defs></svg>