<svg><symbol id="elipse" viewBox="0 0 307 154" fill="none" xmlns="http://www.w3.org/2000/svg"><circle cx="153.5" cy=".5" r="153.5" fill="#96C0D0"/></symbol><symbol id="green-elipse" viewBox="0 0 115 115" fill="none" xmlns="http://www.w3.org/2000/svg"><circle cx="57.5" cy="57.5" r="57.5" fill="#A1D7A6"/></symbol><symbol id="white-elipse" viewBox="0 0 200 325" fill="none" xmlns="http://www.w3.org/2000/svg"><circle cx="35.5" cy="152.5" r="152.5" fill="#E6ECEC"/></symbol><symbol id="search-close" viewBox="0 0 13 11" fill="none" xmlns="http://www.w3.org/2000/svg"><path d="M12.537 1.038a1.077 1.077 0 00-.658-.212c-.247 0-.484.076-.658.212l-4.564 3.55L2.094 1.03a1.077 1.077 0 00-.658-.213c-.247 0-.484.077-.658.213-.364.284-.364.742 0 1.026L5.34 5.613.778 9.169c-.364.284-.364.742 0 1.026.364.283.952.283 1.316 0l4.563-3.557 4.564 3.557c.364.283.952.283 1.316 0 .364-.284.364-.742 0-1.026L7.973 5.613l4.564-3.556c.354-.277.354-.742 0-1.019z" fill="#374EAC"/></symbol><symbol id="booking" viewBox="0 0 38 40" xmlns="http://www.w3.org/2000/svg"><path d="M15 8.125l3.525 3.525 4.6-7.044-4.6 3.956L15 8.125zm3.75 19.837a4.605 4.605 0 110-9.21 4.605 4.605 0 010 9.21zm0-7.962a3.356 3.356 0 100 6.712 3.356 3.356 0 000-6.712z"/><path d="M25 40H12.531a1.25 1.25 0 01-1.25-1.25v-6.375c-.031-3 3.332-5.5 7.469-5.5 4.137 0 7.5 2.5 7.5 5.5v6.375A1.25 1.25 0 0125 40zm-6.25-11.875c-3.444 0-6.25 1.875-6.25 4.25v6.375H25v-6.375c0-2.344-2.806-4.25-6.25-4.25zm.312-11.875a7.981 7.981 0 01-7.812-8.125A7.98 7.98 0 0119.062 0a7.981 7.981 0 017.813 8.125 7.981 7.981 0 01-7.813 8.125zm0-15A6.732 6.732 0 0012.5 8.125 6.731 6.731 0 0019.062 15a6.73 6.73 0 006.563-6.875 6.731 6.731 0 00-6.563-6.875zM6.875 25.331a4.238 4.238 0 114.231-4.237 4.243 4.243 0 01-4.23 4.237zm0-7.206a2.988 2.988 0 10-.012 5.975 2.988 2.988 0 00.012-5.975z"/><path d="M10 36.25H1.25A1.213 1.213 0 010 35.056v-5.775c0-2.787 3.075-5.05 6.875-5.05 2.569 0 4.894 1.031 6.081 2.7l-1.018.719c-.938-1.319-2.926-2.169-5.063-2.169-3.094 0-5.625 1.7-5.625 3.8V35H10v1.25zm20.569-10.919a4.237 4.237 0 110-8.475 4.237 4.237 0 010 8.475zm0-7.218a2.987 2.987 0 102.987 2.98 2.987 2.987 0 00-2.987-2.968v-.012z"/><path d="M36.212 36.25H27.5V35h8.75v-5.72c0-2.062-2.6-3.8-5.681-3.8-2.138 0-4.125.85-5.056 2.169l-1.026-.719c1.188-1.669 3.513-2.7 6.082-2.7 3.806 0 6.931 2.263 6.931 5.05v5.775a1.25 1.25 0 01-1.288 1.194z"/></symbol></svg>