<svg width="135" height="38" fill="none" xmlns="http://www.w3.org/2000/svg"><path d="M11.133 26.823c4.61 0 7.244-2.558 8.75-5.18l-3.826-1.863c-.878 1.737-2.76 3.064-4.924 3.064-3.795 0-6.554-2.938-6.554-6.918s2.76-6.917 6.554-6.917c2.164 0 4.046 1.358 4.924 3.064l3.826-1.895c-1.474-2.622-4.14-5.149-8.75-5.149C4.861 5.03 0 9.451 0 15.926c0 6.475 4.86 10.897 11.133 10.897zm17.469 0c5.018 0 8.028-3.663 8.028-8.022 0-4.328-3.01-7.991-8.028-7.991-4.987 0-7.997 3.663-7.997 7.99 0 4.36 3.01 8.023 7.997 8.023zm0-3.569c-2.478 0-3.858-2.053-3.858-4.453 0-2.37 1.38-4.422 3.858-4.422 2.477 0 3.888 2.053 3.888 4.422 0 2.4-1.41 4.453-3.888 4.453zm24.327 3.19V11.19h-3.983v10.328c-.69.884-1.913 1.737-3.45 1.737-1.693 0-2.79-.695-2.79-2.81V11.19h-3.984v10.833c0 2.97 1.569 4.801 4.893 4.801 2.477 0 4.296-1.137 5.331-2.305v1.926h3.983zm7.075 0V16.37c.659-.98 2.415-1.738 3.732-1.738.439 0 .815.032 1.098.095V10.81c-1.882 0-3.764 1.106-4.83 2.464v-2.085h-3.983v15.256h3.983zm11.912.379c4.203 0 6.555-2.116 6.555-4.895 0-6.16-8.97-4.264-8.97-6.539 0-.852.941-1.516 2.384-1.516 1.85 0 3.575.79 4.485 1.77l1.6-2.749c-1.506-1.2-3.545-2.085-6.116-2.085-3.983 0-6.21 2.243-6.21 4.802 0 6 9 3.948 9 6.475 0 .947-.815 1.642-2.54 1.642-1.881 0-4.139-1.042-5.237-2.085l-1.725 2.811c1.6 1.485 4.14 2.37 6.775 2.37zm15.746 0c2.352 0 4.735-.726 6.24-2.116l-1.756-2.59c-.972.948-2.76 1.516-4.045 1.516-2.572 0-4.109-1.61-4.36-3.537H95v-.885c0-4.99-3.073-8.401-7.59-8.401-4.61 0-7.84 3.569-7.84 7.99 0 4.896 3.482 8.023 8.092 8.023zm3.48-9.444H83.68c.188-1.516 1.254-3.38 3.732-3.38 2.634 0 3.638 1.927 3.732 3.38z" fill="#374EAC"/><circle cx="115.676" cy="19" r="19" fill="#D7DF3B"/><path d="M118.509 22.752c-1.441 2.475-4.002 4.072-7.043 4.072a8.051 8.051 0 01-8.084-8.064c0-4.47 3.602-8.142 8.084-8.142 2.961 0 5.602 1.596 6.963 3.991l-2.481 1.677a5.088 5.088 0 00-4.482-2.635c-2.801 0-5.122 2.315-5.122 5.11 0 2.794 2.321 5.109 5.122 5.109 1.921 0 3.522-1.038 4.402-2.555l2.641 1.437zm13.286-3.992a5.1 5.1 0 00-5.122-5.109c-2.881 0-5.202 2.315-5.202 5.11 0 2.873 2.321 5.109 5.202 5.109 2.801 0 5.122-2.315 5.122-5.11zm2.882 0a8.051 8.051 0 01-8.084 8.064c-4.482 0-8.084-3.673-8.084-8.064 0-4.47 3.602-8.142 8.084-8.142 4.482 0 8.084 3.672 8.084 8.143z" fill="#374EAC"/></svg>