<svg width="40" height="40" fill="none" xmlns="http://www.w3.org/2000/svg"><path d="M39.375 23.75H.625V25h38.75v-1.25zM16.25 29.375H15v6.875h1.25v-6.875zm8.75 0h-1.25v6.6H25v-6.6z" fill="#000"/><path d="M28.75 40h-17.5A1.25 1.25 0 0110 38.75v-.625A3.125 3.125 0 0113.125 35h13.75A3.125 3.125 0 0130 38.125v.625A1.25 1.25 0 0128.75 40zm-15.625-3.75a1.875 1.875 0 00-1.875 1.875v.625h17.5v-.625a1.875 1.875 0 00-1.875-1.875h-13.75zM36.875 30H3.125A3.124 3.124 0 010 26.875V3.125A3.125 3.125 0 013.125 0h33.75A3.125 3.125 0 0140 3.125v23.75A3.124 3.124 0 0136.875 30zM3.125 1.25A1.875 1.875 0 001.25 3.125v23.75a1.875 1.875 0 001.875 1.875h33.75a1.875 1.875 0 001.875-1.875V3.125a1.875 1.875 0 00-1.875-1.875H3.125z" fill="#000"/><path d="M20 27.5a.625.625 0 100-1.25.625.625 0 000 1.25zm-4.375-14.375a.625.625 0 100-1.25.625.625 0 000 1.25zm8.75 0a.625.625 0 100-1.25.625.625 0 000 1.25zm-8.75 3.125a.625.625 0 100-1.25.625.625 0 000 1.25zm4.375 0A.625.625 0 1020 15a.625.625 0 000 1.25zm0-3.125a.625.625 0 100-1.25.625.625 0 000 1.25zm4.375 3.125a.625.625 0 100-1.25.625.625 0 000 1.25z" fill="#000"/><path d="M21.806 18.75H13.85a1.33 1.33 0 01-1.35-1.319V6.32A1.33 1.33 0 0113.85 5h12.3a1.331 1.331 0 011.35 1.32v7.062h-1.25V6.32s-.038-.069-.1-.069h-12.3c-.063 0-.1.038-.1.069v11.11c0 .032.037.07.1.07h7.956v1.25z" fill="#000"/><path d="M26.875 8.75H13.75V10h13.125V8.75zm-3.481 8.806l3.675 3.675 4.806-7.356-4.806 4.131-3.675-.45z" fill="#000"/></svg>