<svg width="86" height="85" fill="none" xmlns="http://www.w3.org/2000/svg"><ellipse opacity=".5" cx="60.966" cy="25" rx="24.907" ry="25" fill="#D7DF3B"/><path d="M38.672 24.063H10.547a1.172 1.172 0 010-2.344h28.125a1.172 1.172 0 110 2.343zm0 7.031H10.547a1.172 1.172 0 010-2.344h28.125a1.172 1.172 0 010 2.344zm0 7.031H10.547a1.172 1.172 0 010-2.344h28.125a1.172 1.172 0 010 2.344zM24.61 52.188H10.546a1.172 1.172 0 010-2.344h14.062a1.172 1.172 0 110 2.343zm22.347 14.988h-8.285a1.172 1.172 0 010-2.344h8.285a1.172 1.172 0 010 2.344zm-.75 4.043h-7.535a1.172 1.172 0 010-2.344h7.535a1.172 1.172 0 010 2.344zm-7.535-26.063H10.547a1.172 1.172 0 110-2.343h28.125a1.172 1.172 0 010 2.343z" fill="#9498A9"/><path d="M48.047 85a17.578 17.578 0 110-35.156 17.578 17.578 0 010 35.156zm0-32.813a15.234 15.234 0 100 30.47 15.234 15.234 0 000-30.47z" fill="#9498A9"/><path d="M49.219 76.96a9.457 9.457 0 110-18.913 1.172 1.172 0 110 2.344 7.113 7.113 0 000 14.226 1.172 1.172 0 010 2.344zm-21.094-1.335H5.859A5.86 5.86 0 010 69.765V15.86A5.86 5.86 0 015.86 10h31.98a5.86 5.86 0 014.242 1.816l5.52 5.79a5.86 5.86 0 011.617 4.042V47.5h-2.344V21.648c0-.903-.349-1.772-.973-2.425l-5.52-5.79a3.515 3.515 0 00-2.542-1.09H5.86a3.515 3.515 0 00-3.516 3.516v53.907a3.516 3.516 0 003.515 3.515h22.266v2.344z" fill="#9498A9"/></svg>