<svg width="113" height="85" fill="none" xmlns="http://www.w3.org/2000/svg"><circle opacity=".5" cx="75" cy="25" r="25" fill="#D7DF3B"/><g clip-path="url(#clip0_405_2022)" fill="#9498A9"><path d="M27.422 29.336l6.246 6.246 8.168-12.492-8.168 7.02-6.246-.774zm0 36.328l6.246 6.246 8.168-12.492-8.168 7.02-6.246-.774zM37.5 53.594a1.17 1.17 0 01-.832-.352l-7.031-7.031a1.172 1.172 0 111.664-1.652l7.03 7.03a1.172 1.172 0 01-.831 2.005z"/><path d="M30.469 53.594a1.171 1.171 0 01-.832-2.004l7.031-7.031a1.17 1.17 0 011.664 0 1.171 1.171 0 010 1.652l-7.031 7.031a1.171 1.171 0 01-.832.352zm33.984-22.266h-18.75a1.172 1.172 0 110-2.344h18.75a1.172 1.172 0 110 2.344zm0 18.75h-18.75a1.172 1.172 0 110-2.344h18.75a1.172 1.172 0 110 2.344zm0 18.75h-18.75a1.172 1.172 0 110-2.344h18.75a1.172 1.172 0 110 2.344z"/><path d="M69.246 85.059H27.55a6.457 6.457 0 01-6.456-6.516v-62.11A6.457 6.457 0 0127.55 10h34.875a6.479 6.479 0 014.687 2.004l6.223 6.516a6.446 6.446 0 011.781 4.464v56.25a5.86 5.86 0 01-5.86 5.86l-.01-.035zM27.551 12.344a4.111 4.111 0 00-4.113 4.113v62.11a4.113 4.113 0 004.113 4.09h41.66a3.515 3.515 0 003.516-3.516V22.89a4.043 4.043 0 00-1.172-2.836l-6.153-6.434a4.149 4.149 0 00-2.976-1.277H27.55z"/></g><defs><clipPath id="clip0_405_2022"><path fill="#fff" transform="translate(0 10)" d="M0 0h112.5v75H0z"/></clipPath></defs></svg>