<svg width="77" height="85" fill="none" xmlns="http://www.w3.org/2000/svg"><circle opacity=".5" cx="51.906" cy="25" r="25" fill="#D7DF3B"/><path d="M48.093 84.965H6.449A6.45 6.45 0 010 78.457V16.426A6.449 6.449 0 016.45 10h34.83a6.473 6.473 0 014.682 2.001l6.215 6.508a6.437 6.437 0 011.78 4.46v56.179A5.852 5.852 0 0148.103 85l-.011-.035zM6.449 12.34a4.11 4.11 0 00-4.108 4.108V78.48a4.108 4.108 0 004.108 4.085h41.608a3.511 3.511 0 003.512-3.512v-56.18a4.038 4.038 0 00-1.17-2.832l-6.145-6.425a4.141 4.141 0 00-2.973-1.276H6.449z" fill="#9498A9"/><path d="M17.24 42.772a8.778 8.778 0 118.779-8.779 8.801 8.801 0 01-8.778 8.779zm0-15.216a6.438 6.438 0 100 12.875 6.438 6.438 0 000-12.875z" fill="#9498A9"/><path d="M12.266 39.518l-1.849-1.428a8.777 8.777 0 0113.635-.223l-1.814 1.487a6.438 6.438 0 00-9.983.164h.011z" fill="#9498A9"/><path d="M17.323 37.06a3.885 3.885 0 110-7.77 3.885 3.885 0 010 7.77zm0-5.43a1.546 1.546 0 100 3.09 1.546 1.546 0 000-3.09zm-.083 38.166a8.778 8.778 0 118.779-8.778 8.79 8.79 0 01-8.778 8.778zm0-15.215a6.438 6.438 0 106.438 6.437 6.45 6.45 0 00-6.437-6.437z" fill="#9498A9"/><path d="M12.266 66.554l-1.849-1.451a8.778 8.778 0 0113.635-.222l-1.814 1.51a6.413 6.413 0 00-9.983.163h.011z" fill="#9498A9"/><path d="M17.323 64.085a3.885 3.885 0 110-7.77 3.885 3.885 0 010 7.77zm0-5.43a1.546 1.546 0 100 3.09 1.546 1.546 0 000-3.09zM30.9 33.993l6.238 6.239 8.157-12.489-8.157 7.011-6.239-.76zm-1.171 27.025l6.238 6.239 8.158-12.477-8.158 7.01-6.238-.772z" fill="#9498A9"/></svg>