<svg width="113" height="85" fill="none" xmlns="http://www.w3.org/2000/svg"><ellipse opacity=".5" cx="78.403" cy="25" rx="24.907" ry="25" fill="#D7DF3B"/><path d="M80.86 82.856a17.578 17.578 0 110-35.157 17.578 17.578 0 010 35.157zm0-32.813a15.235 15.235 0 100 30.47 15.235 15.235 0 000-30.47z" fill="#9498A9"/><path d="M76.617 74.148a1.7 1.7 0 01-.808-.21A1.652 1.652 0 0175 72.53V58.47a1.595 1.595 0 01.809-1.395 1.629 1.629 0 011.617 0l12.164 7.032a1.652 1.652 0 01.808 1.406 1.63 1.63 0 01-.82 1.406l-12.14 7.031a1.711 1.711 0 01-.82.2zm.727-14.402v11.531l9.984-5.765-9.984-5.766zM51.785 78.25a1.17 1.17 0 01-1.066-.691l-2.344-5.098a26.581 26.581 0 01-2.695-.27l-3.633 4.536a1.172 1.172 0 01-1.172.398 34.262 34.262 0 01-7.57-3.059 1.171 1.171 0 01-.598-1.171l.809-5.473a28.811 28.811 0 01-2.555-2.05l-5.45 1.827a1.171 1.171 0 01-1.253-.34 34.365 34.365 0 01-4.524-6.503 1.172 1.172 0 01.188-1.383l3.633-4.207a26.435 26.435 0 01-1.172-3.516l-5.45-1.406a1.171 1.171 0 01-.878-.973 34.946 34.946 0 01-.317-4.687c0-1.02 0-2.063.152-3.164a1.172 1.172 0 01.832-1.02l5.426-1.57a27.37 27.37 0 011.008-3.61l-3.855-4.101a1.171 1.171 0 01-.2-1.313 34.744 34.744 0 014.207-6.515 1.172 1.172 0 011.301-.399l5.461 1.63a28.109 28.109 0 012.66-2.345l-1.09-5.437a1.172 1.172 0 01.551-1.172 33.658 33.658 0 017.313-3.305 1.172 1.172 0 011.242.352l3.785 4.336c.993-.182 1.994-.31 3-.387l2.145-5.156a1.171 1.171 0 011.171-.727c2.775.083 5.53.5 8.204 1.242a1.172 1.172 0 01.843.973l.75 5.707c.774.328 1.524.668 2.227 1.043l4.605-3.21a1.172 1.172 0 011.325 0 34.607 34.607 0 016.433 5.683 1.172 1.172 0 01.188 1.265l-2.438 5.286c.399.562.75 1.113 1.078 1.652l5.625-.211a1.17 1.17 0 011.172.691 33.917 33.917 0 012.508 8.368 1.172 1.172 0 01-.527 1.171l-4.864 3.106v2.379l-2.343-.094v-1.113c0-.48 0-.961-.07-1.442v-.316a1.172 1.172 0 01.538-1.066l4.758-3a30.808 30.808 0 00-1.886-6.317l-5.532.188a1.173 1.173 0 01-1.066-.598 27.65 27.65 0 00-1.688-2.613 1.172 1.172 0 01-.117-1.172l2.344-5.192a31.157 31.157 0 00-4.817-4.242l-4.476 3.176a1.172 1.172 0 01-1.242.059 25.86 25.86 0 00-3.235-1.512 1.171 1.171 0 01-.726-.926l-.797-5.66a32.319 32.319 0 00-6.094-.938l-2.086 5.086a1.172 1.172 0 01-1.031.727 25.776 25.776 0 00-4.066.516 1.172 1.172 0 01-1.172-.387l-3.656-4.3a32.698 32.698 0 00-5.391 2.425l1.031 5.414a1.171 1.171 0 01-.469 1.172 25.898 25.898 0 00-3.457 2.976 1.172 1.172 0 01-1.172.305l-5.449-1.617a31.795 31.795 0 00-3.07 4.84l3.785 4.043a1.171 1.171 0 01.234 1.172 25.781 25.781 0 00-1.277 4.593 1.172 1.172 0 01-.832.914l-5.332 1.547c0 .739-.07 1.453-.07 2.157a30.434 30.434 0 00.199 3.515l5.414 1.36a1.172 1.172 0 01.855.878 25.322 25.322 0 001.477 4.547 1.171 1.171 0 01-.187 1.172l-3.61 4.137a31.558 31.558 0 003.317 4.77l5.355-1.805a1.172 1.172 0 011.172.258 25.685 25.685 0 003.375 2.707 1.17 1.17 0 01.516 1.171l-.774 5.45a31.31 31.31 0 005.602 2.261l3.574-4.453a1.173 1.173 0 011.113-.422c1.252.213 2.517.334 3.785.364a1.172 1.172 0 011.043.691l2.262 5.016a32.815 32.815 0 006.211-1.172l.586-5.684 2.344.246-.739 6.457a1.173 1.173 0 01-.808.996 33.879 33.879 0 01-8.309 1.547l-.035.012z" fill="#9498A9"/></svg>