<svg width="113" height="85" fill="none" xmlns="http://www.w3.org/2000/svg"><circle opacity=".5" cx="75" cy="25" r="25" fill="#D7DF3B"/><path d="M46.875 25.234l6.61 6.61 8.624-13.207-8.625 7.418-6.609-.82zm7.031 37.196a8.637 8.637 0 118.637-8.637 8.648 8.648 0 01-8.637 8.637zm0-14.93a6.293 6.293 0 106.293 6.293 6.305 6.305 0 00-6.293-6.293z" fill="#9498A9"/><path d="M65.625 85H42.246a2.343 2.343 0 01-2.344-2.344V70.703c-.058-5.625 6.246-10.312 14.004-10.312 7.758 0 14.063 4.687 14.063 10.312v11.953A2.343 2.343 0 0165.625 85zM53.906 62.734c-6.457 0-11.718 3.516-11.718 7.97v11.952h23.437V70.703c0-4.394-5.262-7.969-11.719-7.969zm.586-22.265a14.965 14.965 0 01-14.648-15.235A14.965 14.965 0 0154.492 10a14.965 14.965 0 0114.649 15.234A14.965 14.965 0 0154.492 40.47zm0-28.125a12.621 12.621 0 00-12.304 12.89 12.622 12.622 0 0012.304 12.891 12.621 12.621 0 0012.305-12.89 12.62 12.62 0 00-12.305-12.891zM31.64 57.496a7.945 7.945 0 117.934-7.945 7.957 7.957 0 01-7.933 7.945zm0-13.512a5.601 5.601 0 10-.023 11.203 5.601 5.601 0 00.024-11.203z" fill="#9498A9"/><path d="M37.5 77.969H21.094a2.272 2.272 0 01-2.344-2.238v-10.83c0-5.226 5.766-9.468 12.89-9.468 4.817 0 9.176 1.933 11.403 5.062l-1.91 1.348c-1.758-2.473-5.485-4.067-9.492-4.067-5.801 0-10.547 3.188-10.547 7.125v10.723H37.5v2.344zm38.566-20.473a7.946 7.946 0 110-15.891 7.946 7.946 0 010 15.891zm0-13.535a5.602 5.602 0 105.602 5.59 5.602 5.602 0 00-5.602-5.567v-.023z" fill="#9498A9"/><path d="M86.648 77.969H70.312v-2.344h16.406V64.902c0-3.867-4.874-7.125-10.652-7.125-4.008 0-7.734 1.594-9.48 4.067l-1.922-1.348c2.227-3.129 6.586-5.062 11.402-5.062 7.137 0 12.996 4.242 12.996 9.468v10.829a2.344 2.344 0 01-2.414 2.238z" fill="#9498A9"/></svg>