<svg width="41" height="38" fill="none" xmlns="http://www.w3.org/2000/svg"><circle cx="19" cy="19" r="18.5" fill="#D7DF3B" stroke="#fff"/><path d="M21.683 22.555c-1.364 2.344-3.79 3.857-6.672 3.857a7.627 7.627 0 01-7.658-7.639c0-4.235 3.412-7.714 7.658-7.714 2.806 0 5.308 1.513 6.597 3.782l-2.35 1.588a4.821 4.821 0 00-4.247-2.496c-2.654 0-4.853 2.193-4.853 4.84s2.2 4.84 4.853 4.84c1.82 0 3.336-.983 4.17-2.42l2.502 1.362zm12.587-3.782a4.832 4.832 0 00-4.853-4.84c-2.73 0-4.928 2.193-4.928 4.84 0 2.723 2.199 4.84 4.928 4.84 2.654 0 4.853-2.193 4.853-4.84zm2.73 0a7.627 7.627 0 01-7.659 7.639c-4.246 0-7.658-3.48-7.658-7.639 0-4.235 3.412-7.714 7.659-7.714 4.246 0 7.658 3.479 7.658 7.714z" fill="#374EAC"/><circle cx="35" cy="32" r="5.5" fill="#50AE67" stroke="#fff"/></svg>