<svg width="24" height="24" fill="none" xmlns="http://www.w3.org/2000/svg"><circle cx="12" cy="12" r="11.5" fill="#D7DF3B" stroke="#fff"/><path d="M13.64 14.172c-.834 1.433-2.317 2.358-4.078 2.358a4.661 4.661 0 01-4.68-4.669c0-2.588 2.085-4.714 4.68-4.714 1.715 0 3.244.925 4.032 2.311l-1.437.97a2.946 2.946 0 00-2.595-1.524c-1.621 0-2.965 1.34-2.965 2.957 0 1.618 1.344 2.958 2.965 2.958 1.112 0 2.04-.6 2.549-1.479l1.529.832zm7.691-2.311a2.953 2.953 0 00-2.965-2.957c-1.668 0-3.012 1.34-3.012 2.957 0 1.664 1.344 2.958 3.012 2.958 1.622 0 2.965-1.34 2.965-2.958zm1.669 0a4.661 4.661 0 01-4.68 4.669c-2.595 0-4.68-2.127-4.68-4.669 0-2.588 2.085-4.714 4.68-4.714 2.595 0 4.68 2.126 4.68 4.714z" fill="#374EAC"/></svg>