<svg width="29" height="25" fill="none" xmlns="http://www.w3.org/2000/svg"><path fill-rule="evenodd" clip-rule="evenodd" d="M2.885 0h23.077a2.893 2.893 0 012.884 2.885v17.307a2.893 2.893 0 01-2.884 2.885H6.963c-.764 0-1.497.304-2.038.844-1.817 1.817-4.923.53-4.921-2.04l.01-18.996A2.88 2.88 0 012.884 0zM7.21 17.308h14.423c.793 0 1.442-.65 1.442-1.443s-.649-1.442-1.442-1.442H7.211c-.793 0-1.442.649-1.442 1.442 0 .793.649 1.443 1.442 1.443zm14.423-4.327H7.211c-.793 0-1.442-.65-1.442-1.443s.649-1.442 1.442-1.442h14.423c.793 0 1.442.65 1.442 1.442 0 .794-.649 1.443-1.442 1.443zM7.211 8.654h14.423c.793 0 1.442-.65 1.442-1.443s-.649-1.442-1.442-1.442H7.211c-.793 0-1.442.649-1.442 1.442 0 .793.649 1.443 1.442 1.443z" fill="#fff"/></svg>