<svg width="364" height="265" fill="none" xmlns="http://www.w3.org/2000/svg"><g filter="url(#filter0_d_954_1802)"><rect x="45" y="113" width="78" height="45.207" rx="2.342" fill="#fff"/></g><path d="M49.987 120.748h1.241c.703 0 1.047-.358 1.047-.836 0-.464-.33-.737-.656-.753v-.03c.3-.07.536-.28.536-.653 0-.456-.33-.795-.994-.795h-1.174v3.067zm.556-.465v-.898h.612c.343 0 .556.21.556.484 0 .244-.168.414-.571.414h-.597zm0-1.298v-.846h.561c.327 0 .496.173.496.409 0 .27-.219.437-.508.437h-.55zm4.955.229c0-.991-.605-1.575-1.409-1.575-.805 0-1.409.584-1.409 1.575 0 .99.604 1.575 1.41 1.575.803 0 1.408-.583 1.408-1.575zm-.558 0c0 .698-.35 1.077-.85 1.077s-.851-.379-.851-1.077c0-.697.352-1.076.85-1.076.5 0 .85.379.85 1.076zm3.823 0c0-.991-.605-1.575-1.409-1.575-.805 0-1.409.584-1.409 1.575 0 .99.604 1.575 1.41 1.575.803 0 1.408-.583 1.408-1.575zm-.558 0c0 .698-.35 1.077-.85 1.077s-.851-.379-.851-1.077c0-.697.352-1.076.85-1.076.5 0 .85.379.85 1.076zm1.083 1.534h.556v-.914l.34-.401.915 1.315h.667l-1.196-1.691 1.186-1.376h-.678l-1.197 1.409h-.037v-1.409h-.556v3.067zm3.41-3.067h-.556v3.067h.555v-3.067zm3.12 0h-.552v2.09h-.027l-1.443-2.09h-.497v3.067h.555v-2.089h.026l1.444 2.089h.495v-3.067zm2.66.979h.566c-.094-.601-.615-1.021-1.294-1.021-.802 0-1.404.59-1.404 1.578 0 .971.575 1.572 1.42 1.572.76 0 1.303-.488 1.303-1.278v-.368h-1.244v.434h.707c-.01.437-.301.714-.762.714-.514 0-.866-.385-.866-1.08 0-.69.358-1.073.854-1.073.37 0 .621.198.72.522zm2.795-.136h.535c-.011-.518-.453-.885-1.106-.885-.643 0-1.127.363-1.125.905 0 .44.313.693.817.823l.349.09c.33.084.55.187.55.425 0 .262-.25.437-.611.437-.348 0-.617-.155-.64-.477h-.546c.022.609.476.952 1.19.952.735 0 1.162-.367 1.163-.907-.001-.532-.44-.774-.9-.884l-.288-.072c-.252-.059-.524-.166-.521-.422.001-.23.208-.4.555-.4.33 0 .55.155.578.415z" fill="#D5D9E9"/><rect x="49.685" y="124.712" width="24.126" height=".937" rx=".468" fill="#C6C9D3"/><rect x="49.685" y="127.522" width="11.243" height=".937" rx=".468" fill="#D5D9E9"/><rect x="78.496" y="124.712" width="11.243" height=".937" rx=".468" fill="#D5D9E9"/><rect x="97.469" y="124.712" width="16.162" height=".937" rx=".468" fill="#C6C9D3"/><rect x="78.496" y="127.522" width="14.288" height=".937" rx=".468" fill="#D5D9E9"/><rect x="97.469" y="127.522" width="12.883" height=".937" rx=".468" fill="#C6C9D3"/><path stroke="#D5D9E9" stroke-width=".468" d="M49.919 136.658h66.522m-66.522 4.684h66.522m-66.522 4.685h66.522m-66.522 4.919h66.522m-32.558-14.991v16.162"/><path d="M52.613 147.081l10.657-3.865 3.865 1.874 8.081-1.874 8.901-5.27 6.91 5.27h11.126l12.649-5.27" stroke="#374EAC" stroke-width=".468"/><circle cx="84" cy="138.18" r=".82" fill="#374EAC"/><circle cx="84" cy="147.315" r=".82" fill="#96C0D0"/><path d="M52.964 148.955l10.072-1.523 12.531 2.46 8.316-2.46 18.153 1.523 12.649-4.685" stroke="#96C0D0" stroke-width=".468"/><g filter="url(#filter1_d_954_1802)"><rect x="265" y="164" width="94.456" height="94" rx="8" fill="#fff"/></g><rect x="272.265" y="185.337" width="78.942" height="13.233" rx="2.053" stroke="#9498A9" stroke-width=".456"/><path d="M278.912 193.934c.993 0 1.553-.617 1.553-1.635 0-1.012-.56-1.623-1.508-1.623h-1.05v3.258h1.005zm-.611-.35v-2.558h.63c.764 0 1.152.484 1.152 1.273 0 .795-.388 1.285-1.196 1.285h-.586zm4.315-.649c0 .458-.35.668-.63.668-.312 0-.535-.229-.535-.585v-1.528h-.375v1.553c0 .624.331.923.789.923.369 0 .611-.197.725-.446h.026v.414h.375v-2.444h-.375v1.445zm1.114.999h.362v-.375h.045c.083.133.242.426.713.426.611 0 1.037-.49 1.037-1.266 0-.77-.426-1.26-1.044-1.26-.477 0-.623.292-.706.42h-.032v-1.203h-.375v3.258zm.369-1.222c0-.547.242-.916.7-.916.477 0 .713.401.713.916 0 .522-.242.936-.713.936-.452 0-.7-.382-.7-.936zm2.738-2.036h-.376v3.258h.376v-3.258zm.687 3.258h.376v-2.444h-.376v2.444zm.191-2.851a.262.262 0 00.268-.254.263.263 0 00-.268-.255.263.263 0 00-.267.255c0 .14.121.254.267.254zm1.248 1.381c0-.426.264-.668.624-.668.348 0 .56.227.56.611v1.527h.375v-1.553c0-.623-.332-.922-.827-.922-.369 0-.598.165-.713.413h-.032v-.382h-.362v2.444h.375v-1.47zm6.178-.77c-.121-.668-.656-1.063-1.311-1.063-.834 0-1.438.643-1.438 1.674s.604 1.674 1.438 1.674c.655 0 1.19-.395 1.311-1.063h-.395c-.095.452-.483.694-.916.694-.592 0-1.056-.459-1.056-1.305 0-.846.464-1.305 1.056-1.305.433 0 .821.242.916.694h.395zm.587 2.24h.375v-2.444h-.375v2.444zm.191-2.851a.262.262 0 00.267-.254.263.263 0 00-.267-.255.263.263 0 00-.268.255c0 .14.121.254.268.254zm1.934.407h-.521v-.585h-.376v.585h-.369v.319h.369v1.527c0 .426.344.63.662.63.14 0 .229-.026.28-.045l-.076-.337c-.032.006-.083.019-.166.019-.165 0-.324-.051-.324-.369v-1.425h.521v-.319zm.807 3.36c.339 0 .578-.179.719-.56l1.041-2.793-.411-.007-.674 1.948h-.026l-.674-1.948h-.408l.904 2.457-.07.191c-.137.372-.306.407-.579.337l-.096.331a.751.751 0 00.274.044zm4.916-2.488h-1.425v.35h1.425v-.35zm1.972-1.686v3.258h.369v-2.475h.032l1.018 2.475h.356l1.019-2.475h.031v2.475h.369v-3.258h-.47l-1.108 2.704h-.038l-1.107-2.704h-.471zm4.927 3.309c.662 0 1.108-.503 1.108-1.26 0-.764-.446-1.266-1.108-1.266-.661 0-1.107.502-1.107 1.266 0 .757.446 1.26 1.107 1.26zm0-.337c-.502 0-.731-.433-.731-.923 0-.49.229-.929.731-.929.503 0 .732.439.732.929 0 .49-.229.923-.732.923zm2.056-1.184c0-.426.264-.668.624-.668.348 0 .56.227.56.611v1.527h.375v-1.553c0-.623-.332-.922-.827-.922-.369 0-.598.165-.713.413h-.032v-.382h-.362v2.444h.375v-1.47zm4.517 1.515c.621 0 1.076-.459 1.076-1.082 0-.632-.439-1.095-1.038-1.095a.943.943 0 00-.566.185h-.019l.114-.961h1.362v-.35h-1.692l-.198 1.604.369.044c.136-.097.366-.167.567-.165.415.003.719.318.719.744 0 .419-.293.726-.694.726-.334 0-.6-.215-.63-.509h-.382c.024.496.452.859 1.012.859zm1.714.871h.375v-1.291h.032c.083.133.242.426.713.426.611 0 1.037-.49 1.037-1.266 0-.77-.426-1.26-1.043-1.26-.478 0-.624.292-.707.42h-.044v-.389h-.363v3.36zm.369-2.138c0-.547.242-.916.7-.916.477 0 .713.401.713.916 0 .522-.242.936-.713.936-.452 0-.7-.382-.7-.936zm2.361 1.222h.375v-1.527c0-.358.261-.611.554-.611.285 0 .484.186.484.464v1.674h.382v-1.591c0-.315.197-.547.54-.547.268 0 .497.141.497.503v1.635h.375v-1.635c0-.575-.308-.84-.744-.84-.35 0-.606.16-.732.413h-.026c-.12-.261-.334-.413-.655-.413-.318 0-.554.152-.655.413h-.032v-.382h-.363v2.444z" fill="#9498A9"/><path transform="scale(1.057 .93955) rotate(45 -84.907 492.552)" stroke="#9498A9" stroke-width=".456" d="M0-.228h2.747"/><path transform="scale(-1.057 .93955) rotate(45 -410.268 -292.94)" stroke="#9498A9" stroke-width=".456" d="M0-.228h2.747"/><path d="M275.479 175.085h.773c-.023-.85-.775-1.467-1.854-1.467-1.065 0-1.882.609-1.882 1.524 0 .739.529 1.172 1.382 1.403l.627.171c.568.15 1.006.337 1.006.809 0 .518-.495.861-1.177.861-.617 0-1.13-.275-1.177-.853h-.804c.052.961.796 1.555 1.986 1.555 1.247 0 1.966-.656 1.966-1.555 0-.957-.853-1.328-1.528-1.494l-.518-.135c-.415-.106-.967-.3-.965-.809 0-.451.413-.785 1.066-.785.609 0 1.042.285 1.099.775zm3.457 3.995c.869 0 1.483-.427 1.659-1.076l-.733-.132c-.14.376-.477.568-.918.568-.664 0-1.11-.43-1.131-1.198h2.832v-.275c0-1.439-.861-2.001-1.763-2.001-1.11 0-1.841.845-1.841 2.069 0 1.236.721 2.045 1.895 2.045zm-1.12-2.419c.031-.565.441-1.055 1.071-1.055.601 0 .995.446.998 1.055h-2.069zm4.464-2.971h-.775V179h.775v-5.31zm2.759 5.39c.869 0 1.483-.427 1.66-1.076l-.734-.132c-.14.376-.477.568-.918.568-.664 0-1.11-.43-1.13-1.198h2.831v-.275c0-1.439-.861-2.001-1.763-2.001-1.11 0-1.841.845-1.841 2.069 0 1.236.721 2.045 1.895 2.045zm-1.12-2.419c.031-.565.441-1.055 1.071-1.055.601 0 .996.446.998 1.055h-2.069zm5.366 2.419c.942 0 1.551-.565 1.636-1.34h-.754c-.099.43-.433.684-.876.684-.656 0-1.079-.547-1.079-1.415 0-.853.43-1.39 1.079-1.39.492 0 .793.311.876.685h.754c-.083-.804-.739-1.338-1.643-1.338-1.123 0-1.849.845-1.849 2.061 0 1.2.7 2.053 1.856 2.053zm4.324-4.062h-.816v-.954h-.776v.954h-.583v.622h.583v2.351c-.002.724.55 1.074 1.162 1.061a1.49 1.49 0 00.503-.083l-.14-.641c-.052.011-.148.034-.272.034-.252 0-.477-.083-.477-.531v-2.191h.816v-.622zm3.949 4.07c.658 0 1.029-.334 1.177-.632h.031V179h.757v-2.645c0-1.158-.912-1.389-1.545-1.389-.721 0-1.385.29-1.644 1.016l.729.166c.114-.283.404-.555.925-.555.501 0 .757.262.757.713v.018c0 .283-.29.278-1.006.361-.754.088-1.527.285-1.527 1.19 0 .783.589 1.213 1.346 1.213zm.168-.622c-.438 0-.754-.197-.754-.581 0-.415.368-.562.817-.622.251-.034.847-.101.959-.213v.514c0 .472-.376.902-1.022.902zm7.746-2.476c-.161-.62-.646-1.024-1.506-1.024-.9 0-1.538.474-1.538 1.179 0 .566.343.942 1.089 1.108l.674.147c.384.086.563.257.563.506 0 .308-.329.55-.838.55-.464 0-.762-.2-.855-.592l-.749.114c.129.706.715 1.102 1.61 1.102.962 0 1.628-.51 1.628-1.231 0-.563-.358-.91-1.089-1.079l-.633-.145c-.438-.104-.627-.251-.625-.521-.002-.306.33-.524.771-.524.482 0 .705.267.795.534l.703-.124zm2.647 3.09c.868 0 1.483-.427 1.659-1.076l-.734-.132c-.14.376-.477.568-.918.568-.663 0-1.109-.43-1.13-1.198h2.831v-.275c0-1.439-.861-2.001-1.763-2.001-1.11 0-1.841.845-1.841 2.069 0 1.236.721 2.045 1.896 2.045zm-1.12-2.419c.031-.565.44-1.055 1.07-1.055.602 0 .996.446.998 1.055h-2.068zm6.672-.671c-.16-.62-.645-1.024-1.506-1.024-.9 0-1.537.474-1.537 1.179 0 .566.342.942 1.089 1.108l.674.147c.383.086.562.257.562.506 0 .308-.329.55-.837.55-.464 0-.762-.2-.856-.592l-.749.114c.13.706.716 1.102 1.61 1.102.962 0 1.628-.51 1.628-1.231 0-.563-.358-.91-1.089-1.079l-.632-.145c-.439-.104-.628-.251-.625-.521-.003-.306.329-.524.77-.524.482 0 .705.267.796.534l.702-.124zm3.915 0c-.161-.62-.646-1.024-1.507-1.024-.899 0-1.537.474-1.537 1.179 0 .566.342.942 1.089 1.108l.674.147c.384.086.563.257.563.506 0 .308-.33.55-.838.55-.464 0-.762-.2-.855-.592l-.75.114c.13.706.716 1.102 1.61 1.102.962 0 1.628-.51 1.628-1.231 0-.563-.357-.91-1.088-1.079l-.633-.145c-.438-.104-.627-.251-.625-.521-.002-.306.329-.524.77-.524.482 0 .705.267.796.534l.703-.124zm.93 3.01h.775v-3.982h-.775V179zm.391-4.597c.267 0 .49-.207.49-.461s-.223-.464-.49-.464c-.269 0-.49.21-.49.464s.221.461.49.461zm3.104 4.677c1.123 0 1.857-.822 1.857-2.053 0-1.239-.734-2.061-1.857-2.061-1.122 0-1.856.822-1.856 2.061 0 1.231.734 2.053 1.856 2.053zm.003-.65c-.734 0-1.076-.641-1.076-1.406 0-.762.342-1.41 1.076-1.41.729 0 1.071.648 1.071 1.41 0 .765-.342 1.406-1.071 1.406zm3.494-1.795c0-.635.389-.998.928-.998.527 0 .846.345.846.923V179h.775v-2.533c0-.985-.542-1.501-1.356-1.501-.599 0-.991.277-1.175.7h-.049v-.648h-.744V179h.775v-2.365z" fill="#374EAC"/><path d="M274.477 207.799h.382c-.017-.492-.471-.859-1.101-.859-.623 0-1.113.363-1.113.91 0 .439.318.7.827.846l.401.115c.343.095.649.216.649.541 0 .356-.344.592-.796.592-.388 0-.731-.172-.763-.541h-.408c.039.534.471.897 1.171.897.751 0 1.178-.414 1.178-.942 0-.611-.579-.808-.917-.897l-.331-.089c-.241-.064-.63-.191-.63-.541 0-.312.287-.541.719-.541.395 0 .694.188.732.509zm2.087 0h-.522v-.585h-.375v.585h-.369v.318h.369v1.527c0 .427.344.63.662.63.14 0 .229-.025.28-.044l-.077-.337c-.031.006-.082.019-.165.019-.166 0-.325-.051-.325-.369v-1.426h.522v-.318zm1.284 2.501c.426 0 .649-.229.725-.388h.02v.331h.375v-1.61c0-.777-.592-.866-.904-.866-.369 0-.789.127-.98.573l.357.127c.082-.178.278-.369.636-.369.345 0 .516.183.516.496v.013c0 .182-.185.166-.63.223-.454.059-.949.159-.949.719 0 .477.369.751.834.751zm.057-.337c-.299 0-.515-.134-.515-.395 0-.286.261-.375.553-.414.16-.019.586-.063.65-.14v.344c0 .306-.242.605-.688.605zm1.748.28h.376v-1.547c0-.331.261-.572.617-.572.1 0 .204.019.229.025v-.382a3.806 3.806 0 00-.197-.006c-.293 0-.547.165-.637.407h-.025v-.369h-.363v2.444zm2.883-2.444h-.522v-.585h-.375v.585h-.369v.318h.369v1.527c0 .427.343.63.662.63.14 0 .229-.025.28-.044l-.077-.337c-.032.006-.083.019-.165.019-.166 0-.325-.051-.325-.369v-1.426h.522v-.318zm2.748 2.495c.47 0 .63-.293.712-.427h.045v.376h.363v-3.259h-.376v1.203h-.032c-.082-.127-.229-.42-.706-.42-.617 0-1.044.49-1.044 1.26 0 .777.427 1.267 1.038 1.267zm.05-.338c-.47 0-.712-.413-.712-.935 0-.516.235-.917.712-.917.459 0 .7.37.7.917 0 .553-.248.935-.7.935zm2.528.344c.427 0 .649-.229.726-.388h.019v.331h.375v-1.61c0-.777-.591-.866-.903-.866-.369 0-.789.127-.98.573l.356.127c.083-.178.279-.369.636-.369.346 0 .516.183.516.496v.013c0 .182-.185.166-.63.223-.453.059-.948.159-.948.719 0 .477.369.751.833.751zm.058-.337c-.299 0-.516-.134-.516-.395 0-.286.261-.375.554-.414.159-.019.585-.063.649-.14v.344c0 .306-.242.605-.687.605zm2.81-2.164h-.521v-.585h-.376v.585h-.369v.318h.369v1.527c0 .427.344.63.662.63.14 0 .229-.025.28-.044l-.076-.337c-.032.006-.083.019-.166.019-.165 0-.324-.051-.324-.369v-1.426h.521v-.318zm1.563 2.495c.497 0 .86-.249.974-.618l-.363-.102c-.095.255-.316.382-.611.382-.44 0-.744-.284-.762-.808h1.774v-.159c0-.91-.541-1.222-1.05-1.222-.662 0-1.101.522-1.101 1.273 0 .751.433 1.254 1.139 1.254zm-.762-1.47c.026-.381.295-.72.724-.72.408 0 .668.306.668.72h-1.392zm2.619 1.444a.287.287 0 10-.001-.573.287.287 0 00.001.573zm0-1.814a.286.286 0 100-.572.286.286 0 000 .572z" fill="#9498A9"/><path d="M326.4 210.045c.719 0 1.133-.61 1.133-1.674 0-1.056-.42-1.674-1.133-1.674-.713 0-1.133.618-1.133 1.674 0 1.064.414 1.674 1.133 1.674zm0-.35c-.474 0-.751-.476-.751-1.324 0-.846.28-1.33.751-1.33s.751.484.751 1.33c0 .848-.277 1.324-.751 1.324zm2.883-2.953h-.395l-.814.541v.401l.795-.529h.019V210h.395v-3.258zm3.501 0v2.329c0 .406-.194.624-.534.624-.31 0-.535-.182-.535-.459h-.388c0 .501.388.809.923.809.566 0 .929-.349.929-.974v-2.329h-.395zm1.854 3.315c.426 0 .649-.229.725-.388h.019V210h.376v-1.61c0-.776-.592-.865-.904-.865-.369 0-.789.127-.98.572l.356.128c.083-.179.279-.37.637-.37.345 0 .515.183.515.497v.013c0 .181-.184.165-.63.222-.453.059-.948.159-.948.719 0 .478.369.751.834.751zm.057-.337c-.299 0-.515-.134-.515-.395 0-.286.26-.375.553-.413.159-.019.586-.064.649-.14v.343c0 .306-.242.605-.687.605zm2.123-1.19c0-.426.265-.668.624-.668.349 0 .56.227.56.611V210h.376v-1.553c0-.623-.333-.922-.828-.922-.369 0-.598.165-.712.413h-.032v-.382h-.363V210h.375v-1.47zm3.499 1.47h2.056v-.35h-1.515v-.025l.732-.783c.56-.6.725-.88.725-1.241 0-.503-.407-.904-.98-.904-.571 0-1.005.388-1.005.961h.375c0-.371.241-.617.618-.617.353 0 .623.216.623.56 0 .301-.176.523-.553.935l-1.076 1.178V210zm3.776.045c.719 0 1.132-.61 1.132-1.674 0-1.056-.42-1.674-1.132-1.674-.713 0-1.133.618-1.133 1.674 0 1.064.413 1.674 1.133 1.674zm0-.35c-.475 0-.751-.476-.751-1.324 0-.846.28-1.33.751-1.33.47 0 .75.484.75 1.33 0 .848-.276 1.324-.75 1.324zm1.737.305h2.055v-.35h-1.514v-.025l.732-.783c.56-.6.725-.88.725-1.241 0-.503-.407-.904-.98-.904-.571 0-1.005.388-1.005.961h.375c0-.371.24-.617.617-.617.353 0 .624.216.624.56 0 .301-.177.523-.554.935l-1.075 1.178V210zm3.775.045c.719 0 1.133-.61 1.133-1.674 0-1.056-.42-1.674-1.133-1.674-.713 0-1.133.618-1.133 1.674 0 1.064.414 1.674 1.133 1.674zm0-.35c-.474 0-.751-.476-.751-1.324 0-.846.28-1.33.751-1.33s.751.484.751 1.33c0 .848-.277 1.324-.751 1.324zm-9.122 7.328h-.395l-.814.541v.401l.795-.528h.019v2.844h.395v-3.258zm3.259 3.258c.993 0 1.553-.617 1.553-1.635 0-1.012-.56-1.623-1.508-1.623h-1.05v3.258h1.005zm-.61-.35v-2.558h.63c.763 0 1.151.484 1.151 1.273 0 .795-.388 1.285-1.196 1.285h-.585zm3.493.408c.427 0 .649-.229.726-.388h.019v.33h.375v-1.61c0-.776-.592-.865-.903-.865-.369 0-.789.127-.98.573l.356.127c.083-.178.278-.369.636-.369.346 0 .516.183.516.496v.013c0 .181-.185.165-.63.223-.454.059-.948.159-.948.719 0 .477.369.751.833.751zm.058-.338c-.3 0-.516-.133-.516-.394 0-.286.261-.376.554-.414.159-.019.585-.063.649-.14v.344c0 .305-.242.604-.687.604zm1.902 1.197c.339 0 .577-.18.719-.56l1.04-2.794-.41-.006-.675 1.947h-.025l-.675-1.947h-.407l.904 2.456-.07.191c-.137.372-.306.407-.579.337l-.096.331a.741.741 0 00.274.045zm-14.763 9.34l.328-.923h1.317l.328.923h.414l-1.197-3.258h-.407l-1.196 3.258h.413zm.452-1.273l.522-1.47h.025l.522 1.47h-1.069zm4.083-1.171h-.407l-.675 1.948h-.025l-.675-1.948h-.407l.904 2.444h.382l.903-2.444zm1.14 2.501c.427 0 .65-.229.726-.388h.019v.331h.375v-1.61c0-.776-.591-.865-.903-.865-.369 0-.789.127-.98.572l.356.128c.083-.179.279-.369.637-.369.345 0 .515.182.515.496v.013c0 .181-.185.165-.63.222-.453.059-.948.159-.948.719 0 .478.369.751.833.751zm.058-.337c-.299 0-.516-.134-.516-.394 0-.287.261-.376.554-.414.159-.019.585-.064.649-.14v.344c0 .305-.242.604-.687.604zm1.748.28h.375v-2.444h-.375v2.444zm.191-2.851a.262.262 0 00.267-.254.263.263 0 00-.267-.255.263.263 0 00-.268.255c0 .14.121.254.268.254zm1.247-.407h-.375v3.258h.375v-3.258zm1.407 3.315c.426 0 .649-.229.726-.388h.019v.331h.375v-1.61c0-.776-.592-.865-.904-.865-.369 0-.789.127-.98.572l.357.128c.083-.179.278-.369.636-.369.345 0 .516.182.516.496v.013c0 .181-.185.165-.63.222-.454.059-.949.159-.949.719 0 .478.37.751.834.751zm.057-.337c-.299 0-.515-.134-.515-.394 0-.287.261-.376.554-.414.159-.019.585-.064.649-.14v.344c0 .305-.242.604-.688.604zm1.799.28h.363v-.375h.045c.082.133.241.426.712.426.611 0 1.038-.49 1.038-1.266 0-.77-.427-1.26-1.044-1.26-.477 0-.624.292-.706.42h-.032v-1.203h-.376v3.258zm.369-1.222c0-.547.242-.916.7-.916.478 0 .713.401.713.916 0 .522-.242.936-.713.936-.451 0-.7-.382-.7-.936zm2.738-2.036h-.375v3.258h.375v-3.258zm1.713 3.309c.496 0 .859-.248.973-.617l-.363-.102c-.095.254-.316.382-.61.382-.441 0-.745-.285-.763-.808h1.774v-.16c0-.91-.541-1.221-1.05-1.221-.661 0-1.101.521-1.101 1.272s.433 1.254 1.14 1.254zm-.763-1.47c.026-.38.295-.719.724-.719.408 0 .669.305.669.719h-1.393z" fill="#374EAC"/><path d="M273.701 220.281c.993 0 1.553-.617 1.553-1.635 0-1.012-.56-1.623-1.509-1.623h-1.05v3.258h1.006zm-.611-.35v-2.558h.63c.764 0 1.152.484 1.152 1.273 0 .795-.388 1.285-1.197 1.285h-.585zm4.315-.649c0 .459-.35.669-.63.669-.312 0-.535-.23-.535-.586v-1.527h-.375v1.553c0 .623.33.922.789.922.369 0 .611-.197.725-.445h.026v.413h.375v-2.443h-.375v1.444zm1.063.999h.375v-1.546c0-.331.261-.573.617-.573.101 0 .204.019.229.026v-.382a3.77 3.77 0 00-.197-.006c-.293 0-.547.165-.636.407h-.026v-.369h-.362v2.443zm2.386.058c.426 0 .649-.229.725-.388h.019v.33h.376v-1.61c0-.776-.592-.865-.904-.865-.369 0-.789.127-.98.573l.356.127c.083-.178.279-.369.637-.369.345 0 .515.183.515.496v.013c0 .181-.184.165-.63.223-.453.059-.948.159-.948.719 0 .477.369.751.834.751zm.057-.338c-.299 0-.516-.133-.516-.394 0-.286.261-.376.554-.414.159-.019.586-.063.649-.14v.344c0 .305-.242.604-.687.604zm2.811-2.163h-.522v-.586h-.376v.586h-.369v.318h.369v1.527c0 .427.344.63.662.63.14 0 .229-.025.28-.044l-.076-.338c-.032.007-.083.02-.166.02-.165 0-.324-.051-.324-.37v-1.425h.522v-.318zm.564 2.443h.376v-2.443h-.376v2.443zm.191-2.85a.263.263 0 00.268-.255.263.263 0 00-.268-.255.263.263 0 00-.267.255c0 .14.121.255.267.255zm1.865 2.901c.662 0 1.108-.502 1.108-1.26 0-.763-.446-1.266-1.108-1.266-.662 0-1.107.503-1.107 1.266 0 .758.445 1.26 1.107 1.26zm0-.337c-.502 0-.732-.433-.732-.923 0-.49.23-.929.732-.929.503 0 .732.439.732.929 0 .49-.229.923-.732.923zm2.056-1.184c0-.426.264-.668.624-.668.348 0 .56.228.56.611v1.527h.375v-1.552c0-.624-.332-.923-.827-.923-.369 0-.598.165-.713.414h-.032v-.382h-.362v2.443h.375v-1.47zm2.519 1.496a.287.287 0 00.286-.286.287.287 0 00-.286-.287.287.287 0 000 .573zm0-1.814a.287.287 0 10-.286-.286c0 .157.128.286.286.286zm-15.6 9.587c-.121-.668-.655-1.062-1.311-1.062-.833 0-1.438.642-1.438 1.673 0 1.031.605 1.674 1.438 1.674.656 0 1.19-.395 1.311-1.063h-.394c-.096.452-.484.694-.917.694-.591 0-1.056-.458-1.056-1.305 0-.846.465-1.304 1.056-1.304.433 0 .821.241.917.693h.394zm1.611 2.291c.497 0 .86-.248.974-.617l-.363-.102c-.095.255-.316.382-.611.382-.44 0-.744-.285-.762-.808h1.774v-.159c0-.91-.541-1.222-1.05-1.222-.662 0-1.101.522-1.101 1.273 0 .75.433 1.253 1.139 1.253zm-.762-1.47c.026-.38.295-.719.724-.719.408 0 .668.306.668.719h-1.392zm2.345 1.419h.376v-1.546c0-.331.261-.573.617-.573.1 0 .204.019.229.026v-.382a3.735 3.735 0 00-.197-.007c-.293 0-.547.166-.636.408h-.026v-.369h-.363v2.443zm2.883-2.443h-.522v-.586h-.375v.586h-.369v.318h.369v1.527c0 .426.344.63.662.63.14 0 .229-.025.28-.044l-.077-.338c-.031.007-.082.019-.165.019-.166 0-.325-.051-.325-.369v-1.425h.522v-.318zm.565 2.443h.375v-2.443h-.375v2.443zm.191-2.851a.262.262 0 00.267-.254.263.263 0 00-.267-.255.262.262 0 00-.267.255c0 .14.12.254.267.254zm1.96.408h-.547v-.249c0-.241.102-.369.35-.369.108 0 .172.026.21.039l.108-.325a.878.878 0 00-.356-.064c-.35 0-.688.21-.688.63v.338h-.394v.318h.394v2.125h.376v-2.125h.547v-.318zm.526 2.443h.376v-2.443h-.376v2.443zm.191-2.851a.262.262 0 00.268-.254.263.263 0 00-.268-.255.263.263 0 00-.267.255c0 .14.121.254.267.254zm1.865 2.902c.541 0 .898-.331.961-.763h-.375c-.07.267-.293.426-.586.426-.445 0-.732-.369-.732-.936 0-.553.293-.916.732-.916.331 0 .528.204.586.426h.375c-.063-.458-.452-.763-.967-.763-.662 0-1.101.522-1.101 1.266 0 .732.42 1.26 1.107 1.26zm2.229.007c.426 0 .649-.23.726-.389h.019v.331h.375v-1.61c0-.776-.592-.865-.904-.865-.369 0-.789.127-.98.573l.357.127c.083-.178.278-.369.636-.369.345 0 .516.183.516.496v.013c0 .181-.185.165-.63.223-.454.058-.949.159-.949.719 0 .477.37.751.834.751zm.057-.338c-.299 0-.515-.133-.515-.394 0-.287.261-.376.554-.414.159-.019.585-.064.649-.14v.344c0 .305-.242.604-.688.604zm2.811-2.163h-.522v-.586h-.375v.586h-.369v.318h.369v1.527c0 .426.344.63.662.63.14 0 .229-.025.28-.044l-.077-.338c-.031.007-.082.019-.165.019-.166 0-.325-.051-.325-.369v-1.425h.522v-.318zm1.563 2.494c.497 0 .859-.248.974-.617l-.363-.102c-.095.255-.316.382-.611.382-.44 0-.744-.285-.762-.808h1.774v-.159c0-.91-.541-1.222-1.05-1.222-.662 0-1.101.522-1.101 1.273 0 .75.433 1.253 1.139 1.253zm-.762-1.47c.026-.38.294-.719.724-.719.407 0 .668.306.668.719h-1.392zm2.619 1.445a.287.287 0 00.286-.287.287.287 0 00-.286-.286.287.287 0 00-.287.286c0 .158.129.287.287.287zm0-1.814a.287.287 0 00.286-.286.287.287 0 00-.286-.287.288.288 0 00-.287.287c0 .157.129.286.287.286z" fill="#9498A9"/><path d="M293.63 245.854h1.526c.926 0 1.344-.46 1.344-1.071 0-.616-.432-.964-.827-.986v-.039c.366-.093.671-.342.671-.84 0-.589-.408-1.046-1.256-1.046h-1.458v3.982zm.601-.515v-1.275h.888c.482 0 .784.311.784.69 0 .334-.228.585-.805.585h-.867zm0-1.744v-1.211h.82c.477 0 .704.25.704.581 0 .385-.315.63-.719.63h-.805zm4.193 2.32c.842 0 1.392-.617 1.392-1.54 0-.93-.55-1.546-1.392-1.546-.842 0-1.392.616-1.392 1.546 0 .923.55 1.54 1.392 1.54zm.002-.488c-.55 0-.807-.481-.807-1.054 0-.572.257-1.058.807-1.058.546 0 .803.486.803 1.058 0 .573-.257 1.054-.803 1.054zm3.297.488c.842 0 1.393-.617 1.393-1.54 0-.93-.551-1.546-1.393-1.546s-1.392.616-1.392 1.546c0 .923.55 1.54 1.392 1.54zm.002-.488c-.55 0-.807-.481-.807-1.054 0-.572.257-1.058.807-1.058.547 0 .803.486.803 1.058 0 .573-.256 1.054-.803 1.054zm2.039.427h.582v-1.059l.29-.29 1.015 1.349h.713l-1.291-1.705 1.21-1.281h-.697l-1.19 1.264h-.05v-2.26h-.582v3.982zm5.367.067c.494 0 .772-.251.883-.475h.023v.408h.568v-1.983c0-.869-.685-1.042-1.159-1.042-.541 0-1.039.218-1.233.762l.546.125c.086-.212.304-.417.695-.417.375 0 .567.197.567.535v.014c0 .212-.217.208-.754.27-.566.066-1.145.214-1.145.893 0 .587.441.91 1.009.91zm.126-.467c-.328 0-.566-.148-.566-.436 0-.311.277-.422.613-.466.189-.026.636-.076.719-.16v.385c0 .354-.282.677-.766.677zm4.829.461c.706 0 1.163-.424 1.227-1.006h-.565c-.074.323-.325.514-.658.514-.492 0-.809-.41-.809-1.062 0-.64.323-1.042.809-1.042.37 0 .595.233.658.513h.565c-.062-.603-.554-1.003-1.232-1.003-.842 0-1.387.634-1.387 1.546 0 .9.525 1.54 1.392 1.54zm3.107 0c.842 0 1.393-.617 1.393-1.54 0-.93-.551-1.546-1.393-1.546s-1.392.616-1.392 1.546c0 .923.55 1.54 1.392 1.54zm.002-.488c-.55 0-.807-.481-.807-1.054 0-.572.257-1.058.807-1.058.547 0 .803.486.803 1.058 0 .573-.256 1.054-.803 1.054zm3.932-.811c.001.507-.376.748-.702.748-.36 0-.609-.26-.609-.666v-1.83h-.581v1.9c0 .74.406 1.125.98 1.125.449 0 .754-.237.892-.556h.031v.517h.572v-2.986h-.583v1.748zm1.364 1.238h.581v-1.823c0-.391.302-.673.714-.673.121 0 .257.021.303.035v-.556a2.29 2.29 0 00-.247-.014c-.35 0-.649.198-.758.519h-.031v-.474h-.562v2.986zm4.34-2.257c-.121-.465-.484-.768-1.13-.768-.675 0-1.153.356-1.153.885 0 .423.257.705.817.83l.505.111c.288.064.422.192.422.379 0 .231-.247.412-.628.412-.348 0-.572-.15-.642-.443l-.562.085c.098.529.537.827 1.208.827.721 0 1.221-.383 1.221-.924 0-.422-.268-.682-.817-.809l-.474-.109c-.329-.077-.471-.188-.469-.391-.002-.229.247-.392.578-.392.361 0 .529.2.597.4l.527-.093zm1.985 2.318c.651 0 1.112-.321 1.244-.807l-.55-.099c-.105.282-.358.425-.689.425-.497 0-.832-.322-.847-.898h2.123v-.206c0-1.079-.646-1.501-1.322-1.501-.833 0-1.381.634-1.381 1.552 0 .927.541 1.534 1.422 1.534zm-.84-1.814c.023-.424.33-.792.803-.792.451 0 .746.335.748.792h-1.551z" fill="#374EAC"/><rect x="272.551" y="237.26" width="78.442" height="13.189" rx="6.595" stroke="#374EAC" stroke-width=".5"/><g filter="url(#filter2_d_954_1802)"><rect x="7" y="4" width="122" height="38.275" rx="6.674" fill="#fff"/></g><path d="M53.261 22.43c-.18-1.303-1.182-2.058-2.48-2.058-1.532 0-2.685 1.116-2.685 3.01 0 1.892 1.139 3.01 2.684 3.01 1.394 0 2.318-.9 2.481-2.02l-1.07-.005c-.135.686-.695 1.073-1.397 1.073-.95 0-1.63-.713-1.63-2.058 0-1.322.675-2.057 1.633-2.057.713 0 1.27.403 1.394 1.104h1.07zm2.804 3.968c1.288 0 2.106-.907 2.106-2.266 0-1.362-.819-2.272-2.106-2.272-1.288 0-2.106.91-2.106 2.272 0 1.36.818 2.266 2.106 2.266zm.005-.83c-.712 0-1.061-.635-1.061-1.439s.349-1.448 1.061-1.448c.702 0 1.05.644 1.05 1.448 0 .804-.348 1.44-1.05 1.44zm3.976-1.831c0-.635.383-1.002.93-1.002.535 0 .855.352.855.94v2.637h1.036v-2.798c.003-1.053-.598-1.654-1.505-1.654-.658 0-1.11.314-1.31.804H60v-.747h-.99v4.395h1.036v-2.575zm5.746 4.315c1.187 0 2.063-.543 2.063-1.668v-4.467h-1.022v.727h-.057c-.157-.318-.486-.784-1.262-.784-1.016 0-1.814.795-1.814 2.24 0 1.434.798 2.15 1.811 2.15.753 0 1.105-.404 1.265-.727h.052v.832c0 .647-.43.913-1.02.913-.623 0-.898-.294-1.024-.552l-.933.226c.19.615.822 1.11 1.94 1.11zm.008-2.615c-.684 0-1.044-.532-1.044-1.342 0-.799.355-1.385 1.044-1.385.667 0 1.033.552 1.033 1.385 0 .838-.372 1.342-1.033 1.342zm3.076.875h1.036v-2.584c0-.558.421-.953.99-.953.175 0 .392.032.481.06v-.952a2.483 2.483 0 00-.372-.029c-.504 0-.924.286-1.084.796h-.046v-.733h-1.005v4.395zm4.333.09c.69 0 1.102-.324 1.291-.693h.034v.604h.996V23.37c0-1.162-.947-1.511-1.785-1.511-.925 0-1.635.412-1.863 1.213l.967.137c.103-.3.395-.558.901-.558.481 0 .744.246.744.679v.017c0 .297-.312.312-1.087.395-.853.091-1.668.346-1.668 1.336 0 .864.632 1.322 1.47 1.322zm.27-.762c-.433 0-.742-.197-.742-.578 0-.398.347-.564.81-.63.272-.037.816-.105.95-.214v.518c0 .49-.395.904-1.019.904zm5.248-3.723h-.868v-1.053h-1.035v1.053H76.2v.801h.623v2.444c-.005.827.596 1.233 1.374 1.21.295-.008.498-.065.61-.102l-.175-.81a1.29 1.29 0 01-.303.04c-.26 0-.47-.092-.47-.51v-2.272h.868v-.801zm3.627 2.547c0 .67-.478 1.001-.936 1.001-.498 0-.83-.352-.83-.91v-2.638h-1.035v2.799c0 1.056.6 1.654 1.465 1.654.658 0 1.121-.347 1.322-.839h.046v.782h1.004v-4.396h-1.036v2.547zm3.097-4.012h-1.036v5.86h1.036v-5.86zm2.29 5.95c.69 0 1.101-.324 1.29-.693h.035v.604h.995V23.37c0-1.162-.947-1.511-1.785-1.511-.924 0-1.634.412-1.863 1.213l.967.137c.103-.3.395-.558.902-.558.48 0 .744.246.744.679v.017c0 .297-.312.312-1.088.395-.853.091-1.668.346-1.668 1.336 0 .864.632 1.322 1.47 1.322zm.269-.762c-.432 0-.742-.197-.742-.578 0-.398.347-.564.81-.63.272-.037.816-.105.95-.214v.518c0 .49-.395.904-1.018.904zm5.248-3.723h-.867v-1.053h-1.036v1.053h-.624v.801h.624v2.444c-.006.827.595 1.233 1.373 1.21.295-.008.498-.065.61-.102l-.175-.81a1.29 1.29 0 01-.303.04c-.26 0-.47-.092-.47-.51v-2.272h.868v-.801zm.826 4.395h1.036v-4.395h-1.036v4.395zm.52-5.019c.33 0 .599-.252.599-.56 0-.313-.27-.564-.598-.564-.332 0-.601.251-.601.563 0 .31.269.561.6.561zm3.458 5.105c1.288 0 2.106-.907 2.106-2.266 0-1.362-.818-2.272-2.106-2.272-1.288 0-2.106.91-2.106 2.272 0 1.36.818 2.266 2.106 2.266zm.006-.83c-.713 0-1.062-.635-1.062-1.439s.35-1.448 1.062-1.448c.7 0 1.05.644 1.05 1.448 0 .804-.35 1.44-1.05 1.44zm3.975-1.831c0-.635.384-1.002.93-1.002.535 0 .856.352.856.94v2.637h1.036v-2.798c.003-1.053-.598-1.654-1.506-1.654-.658 0-1.11.314-1.31.804h-.052v-.747h-.99v4.395h1.036v-2.575zm7.309-.658c-.144-.744-.739-1.22-1.769-1.22-1.059 0-1.78.522-1.777 1.334-.003.641.392 1.065 1.236 1.24l.75.157c.403.088.592.252.592.5 0 .301-.326.527-.818.527-.475 0-.784-.206-.873-.6l-1.01.096c.129.808.807 1.285 1.886 1.285 1.099 0 1.874-.57 1.877-1.402-.003-.627-.406-1.01-1.236-1.19l-.75-.16c-.446-.1-.624-.255-.621-.51-.003-.298.326-.504.758-.504.478 0 .73.26.81.55l.945-.103zm2.176-2.627h-1.108l.092 4.138h.921l.095-4.138zm-.556 5.923c.338 0 .627-.28.63-.63a.636.636 0 00-.63-.623.626.626 0 100 1.253z" fill="#37488F"/><path fill-rule="evenodd" clip-rule="evenodd" d="M20.4 21.944h13.99V37.49l-6.995-2.6-6.996 2.6V21.944z" fill="#F6694C"/><path fill-rule="evenodd" clip-rule="evenodd" d="M20.4 21.944h13.99V37.49l-6.995-2.6-6.996 2.6V21.944z" fill="url(#paint0_linear_954_1802)" fill-opacity=".4" style="mix-blend-mode:overlay"/><mask id="mask0_954_1802" style="mask-type:alpha" maskUnits="userSpaceOnUse" x="20" y="21" width="15" height="17"><path fill-rule="evenodd" clip-rule="evenodd" d="M20.4 21.944h13.99V37.49l-6.995-2.6-6.996 2.6V21.944z" fill="#fff"/><path fill-rule="evenodd" clip-rule="evenodd" d="M20.4 21.944h13.99V37.49l-6.995-2.6-6.996 2.6V21.944z" stroke="#fff"/></mask><g mask="url(#mask0_954_1802)"><g opacity=".2" filter="url(#filter3_f_954_1802)"><path fill="#fff" d="M18.845 32.048h19.433v.777H18.845z"/></g><g filter="url(#filter4_di_954_1802)"><circle cx="27.395" cy="20.776" r="10.826" fill="#000" fill-opacity=".01"/></g></g><circle cx="27.395" cy="19.611" r="10.826" fill="#FFC240"/><circle cx="27.395" cy="19.611" r="10.826" fill="url(#paint1_linear_954_1802)" fill-opacity=".3" style="mix-blend-mode:overlay"/><mask id="mask1_954_1802" style="mask-type:alpha" maskUnits="userSpaceOnUse" x="16" y="8" width="23" height="23"><circle cx="27.395" cy="19.611" r="10.826" fill="#fff"/><circle cx="27.395" cy="19.611" r="10.826" stroke="#fff"/></mask><g mask="url(#mask1_954_1802)"><path fill-rule="evenodd" clip-rule="evenodd" d="M41.649 5.69L10.605 37.98l2.847-40.763 28.197 8.474z" fill="url(#paint2_linear_954_1802)" style="mix-blend-mode:overlay" opacity=".3"/></g><g filter="url(#filter5_di_954_1802)"><path fill-rule="evenodd" clip-rule="evenodd" d="M27.395 28.27a8.661 8.661 0 100-17.322 8.661 8.661 0 000 17.322zm0-1.298a7.362 7.362 0 100-14.724 7.362 7.362 0 000 14.724z" fill="#000" fill-opacity=".2" style="mix-blend-mode:overlay"/></g><g filter="url(#filter6_di_954_1802)" fill-rule="evenodd" clip-rule="evenodd"><path d="M24.244 24.095l.092-.544.383-2.247c.02-.122.045-.244.06-.367a.145.145 0 00-.036-.106c-.535-.524-1.073-1.045-1.61-1.567l-.585-.569c-.095-.093-.145-.203-.1-.336.046-.138.151-.202.29-.222.971-.139 1.94-.281 2.912-.414.13-.017.197-.064.256-.182.444-.905.897-1.806 1.346-2.708.053-.107.12-.187.25-.19.109-.002.192.042.241.14.111.219.22.439.33.659.365.736.73 1.473 1.096 2.208a.104.104 0 00.066.05c.715.106 1.431.21 2.147.313l.908.134a.31.31 0 01.272.223c.04.126-.003.234-.095.324l-1.349 1.311c-.284.277-.567.553-.854.827-.04.038-.037.075-.03.118l.254 1.49.27 1.582a.271.271 0 01-.109.28c-.1.076-.204.079-.313.021l-1.205-.63c-.52-.273-1.042-.545-1.561-.82-.047-.025-.082-.023-.128.002l-2.737 1.438c-.17.09-.328.058-.414-.088-.025-.043-.035-.095-.047-.13z" fill="#FFEEB4"/><path d="M24.244 24.095l.092-.544.383-2.247c.02-.122.045-.244.06-.367a.145.145 0 00-.036-.106c-.535-.524-1.073-1.045-1.61-1.567l-.585-.569c-.095-.093-.145-.203-.1-.336.046-.138.151-.202.29-.222.971-.139 1.94-.281 2.912-.414.13-.017.197-.064.256-.182.444-.905.897-1.806 1.346-2.708.053-.107.12-.187.25-.19.109-.002.192.042.241.14.111.219.22.439.33.659.365.736.73 1.473 1.096 2.208a.104.104 0 00.066.05c.715.106 1.431.21 2.147.313l.908.134a.31.31 0 01.272.223c.04.126-.003.234-.095.324l-1.349 1.311c-.284.277-.567.553-.854.827-.04.038-.037.075-.03.118l.254 1.49.27 1.582a.271.271 0 01-.109.28c-.1.076-.204.079-.313.021l-1.205-.63c-.52-.273-1.042-.545-1.561-.82-.047-.025-.082-.023-.128.002l-2.737 1.438c-.17.09-.328.058-.414-.088-.025-.043-.035-.095-.047-.13z" fill="url(#paint3_linear_954_1802)" fill-opacity=".5" style="mix-blend-mode:overlay"/></g><defs><filter id="filter0_d_954_1802" x="41.151" y="111.076" width="85.697" height="52.904" filterUnits="userSpaceOnUse" color-interpolation-filters="sRGB"><feFlood flood-opacity="0" result="BackgroundImageFix"/><feColorMatrix in="SourceAlpha" values="0 0 0 0 0 0 0 0 0 0 0 0 0 0 0 0 0 0 127 0" result="hardAlpha"/><feOffset dy="1.924"/><feGaussianBlur stdDeviation="1.924"/><feComposite in2="hardAlpha" operator="out"/><feColorMatrix values="0 0 0 0 0 0 0 0 0 0 0 0 0 0 0 0 0 0 0.1 0"/><feBlend in2="BackgroundImageFix" result="effect1_dropShadow_954_1802"/><feBlend in="SourceGraphic" in2="effect1_dropShadow_954_1802" result="shape"/></filter><filter id="filter1_d_954_1802" x="260.67" y="161.835" width="103.116" height="102.66" filterUnits="userSpaceOnUse" color-interpolation-filters="sRGB"><feFlood flood-opacity="0" result="BackgroundImageFix"/><feColorMatrix in="SourceAlpha" values="0 0 0 0 0 0 0 0 0 0 0 0 0 0 0 0 0 0 127 0" result="hardAlpha"/><feOffset dy="2.165"/><feGaussianBlur stdDeviation="2.165"/><feComposite in2="hardAlpha" operator="out"/><feColorMatrix values="0 0 0 0 0 0 0 0 0 0 0 0 0 0 0 0 0 0 0.1 0"/><feBlend in2="BackgroundImageFix" result="effect1_dropShadow_954_1802"/><feBlend in="SourceGraphic" in2="effect1_dropShadow_954_1802" result="shape"/></filter><filter id="filter2_d_954_1802" x=".947" y=".973" width="134.107" height="50.381" filterUnits="userSpaceOnUse" color-interpolation-filters="sRGB"><feFlood flood-opacity="0" result="BackgroundImageFix"/><feColorMatrix in="SourceAlpha" values="0 0 0 0 0 0 0 0 0 0 0 0 0 0 0 0 0 0 127 0" result="hardAlpha"/><feOffset dy="3.027"/><feGaussianBlur stdDeviation="3.027"/><feColorMatrix values="0 0 0 0 0 0 0 0 0 0 0 0 0 0 0 0 0 0 0.1 0"/><feBlend in2="BackgroundImageFix" result="effect1_dropShadow_954_1802"/><feBlend in="SourceGraphic" in2="effect1_dropShadow_954_1802" result="shape"/></filter><filter id="filter3_f_954_1802" x="10.175" y="23.378" width="36.773" height="18.117" filterUnits="userSpaceOnUse" color-interpolation-filters="sRGB"><feFlood flood-opacity="0" result="BackgroundImageFix"/><feBlend in="SourceGraphic" in2="BackgroundImageFix" result="shape"/><feGaussianBlur stdDeviation="4.335" result="effect1_foregroundBlur_954_1802"/></filter><filter id="filter4_di_954_1802" x="10.19" y="3.57" width="34.411" height="34.411" filterUnits="userSpaceOnUse" color-interpolation-filters="sRGB"><feFlood flood-opacity="0" result="BackgroundImageFix"/><feColorMatrix in="SourceAlpha" values="0 0 0 0 0 0 0 0 0 0 0 0 0 0 0 0 0 0 127 0" result="hardAlpha"/><feOffset/><feGaussianBlur stdDeviation="3.19"/><feColorMatrix values="0 0 0 0 0 0 0 0 0 0 0 0 0 0 0 0 0 0 0.768144 0"/><feBlend in2="BackgroundImageFix" result="effect1_dropShadow_954_1802"/><feBlend in="SourceGraphic" in2="effect1_dropShadow_954_1802" result="shape"/><feColorMatrix in="SourceAlpha" values="0 0 0 0 0 0 0 0 0 0 0 0 0 0 0 0 0 0 127 0" result="hardAlpha"/><feOffset dy="1.595"/><feGaussianBlur stdDeviation=".797"/><feComposite in2="hardAlpha" operator="arithmetic" k2="-1" k3="1"/><feColorMatrix values="0 0 0 0 1 0 0 0 0 1 0 0 0 0 1 0 0 0 0.293733 0"/><feBlend in2="shape" result="effect2_innerShadow_954_1802"/></filter><filter id="filter5_di_954_1802" x="18.734" y="10.948" width="17.322" height="18.917" filterUnits="userSpaceOnUse" color-interpolation-filters="sRGB"><feFlood flood-opacity="0" result="BackgroundImageFix"/><feColorMatrix in="SourceAlpha" values="0 0 0 0 0 0 0 0 0 0 0 0 0 0 0 0 0 0 127 0" result="hardAlpha"/><feOffset dy="1.595"/><feColorMatrix values="0 0 0 0 1 0 0 0 0 1 0 0 0 0 1 0 0 0 0.138106 0"/><feBlend in2="BackgroundImageFix" result="effect1_dropShadow_954_1802"/><feBlend in="SourceGraphic" in2="effect1_dropShadow_954_1802" result="shape"/><feColorMatrix in="SourceAlpha" values="0 0 0 0 0 0 0 0 0 0 0 0 0 0 0 0 0 0 127 0" result="hardAlpha"/><feOffset dy="1.595"/><feGaussianBlur stdDeviation="2.392"/><feComposite in2="hardAlpha" operator="arithmetic" k2="-1" k3="1"/><feColorMatrix values="0 0 0 0 0.59468 0 0 0 0 0.361099 0 0 0 0 0.144787 0 0 0 1 0"/><feBlend in2="shape" result="effect2_innerShadow_954_1802"/></filter><filter id="filter6_di_954_1802" x="19.242" y="14.643" width="16.525" height="16.099" filterUnits="userSpaceOnUse" color-interpolation-filters="sRGB"><feFlood flood-opacity="0" result="BackgroundImageFix"/><feColorMatrix in="SourceAlpha" values="0 0 0 0 0 0 0 0 0 0 0 0 0 0 0 0 0 0 127 0" result="hardAlpha"/><feOffset dy="3.19"/><feGaussianBlur stdDeviation="1.595"/><feColorMatrix values="0 0 0 0 0.988235 0 0 0 0 0.708654 0 0 0 0 0.231373 0 0 0 1 0"/><feBlend in2="BackgroundImageFix" result="effect1_dropShadow_954_1802"/><feBlend in="SourceGraphic" in2="effect1_dropShadow_954_1802" result="shape"/><feColorMatrix in="SourceAlpha" values="0 0 0 0 0 0 0 0 0 0 0 0 0 0 0 0 0 0 127 0" result="hardAlpha"/><feOffset dy="1.595"/><feComposite in2="hardAlpha" operator="arithmetic" k2="-1" k3="1"/><feColorMatrix values="0 0 0 0 1 0 0 0 0 1 0 0 0 0 1 0 0 0 0.231148 0"/><feBlend in2="shape" result="effect2_innerShadow_954_1802"/></filter><linearGradient id="paint0_linear_954_1802" x1="20.399" y1="21.944" x2="20.399" y2="37.49" gradientUnits="userSpaceOnUse"><stop stop-color="#fff" stop-opacity=".5"/><stop offset="1" stop-opacity=".5"/></linearGradient><linearGradient id="paint1_linear_954_1802" x1="16.569" y1="8.784" x2="16.569" y2="30.437" gradientUnits="userSpaceOnUse"><stop stop-color="#fff" stop-opacity=".522"/><stop offset="1" stop-opacity=".5"/></linearGradient><linearGradient id="paint2_linear_954_1802" x1="23.137" y1="3.754" x2="10.228" y2="17.865" gradientUnits="userSpaceOnUse"><stop stop-color="#fff"/><stop offset="1" stop-color="#fff" stop-opacity=".01"/></linearGradient><linearGradient id="paint3_linear_954_1802" x1="22.431" y1="14.643" x2="22.431" y2="24.363" gradientUnits="userSpaceOnUse"><stop stop-color="#fff" stop-opacity=".309"/><stop offset="1" stop-opacity=".5"/></linearGradient></defs></svg>