<svg width="113" height="85" fill="none" xmlns="http://www.w3.org/2000/svg"><circle opacity=".5" cx="84" cy="25" r="25" fill="#D7DF3B"/><path d="M66.797 85H38.672a5.86 5.86 0 01-5.86-5.86V15.86a5.86 5.86 0 015.86-5.86h28.125a5.86 5.86 0 015.86 5.86v63.28a5.86 5.86 0 01-5.86 5.86zM38.672 12.344a3.515 3.515 0 00-3.516 3.515v63.282a3.515 3.515 0 003.516 3.515h28.125a3.515 3.515 0 003.516-3.515V15.859a3.516 3.516 0 00-3.516-3.515H38.672z" fill="#9498A9"/><path d="M52.734 51.906a12.891 12.891 0 110-25.782 12.891 12.891 0 010 25.782zm0-23.437a10.547 10.547 0 100 21.094 10.547 10.547 0 000-21.094z" fill="#9498A9"/><path d="M44.437 47.57l-1.84-1.453a12.891 12.891 0 0120.016-.316l-1.804 1.5a10.547 10.547 0 00-16.407.27h.035z" fill="#9498A9"/><path d="M52.734 43.54a5.355 5.355 0 115.356-5.356 5.367 5.367 0 01-5.356 5.355zm0-8.368a3.012 3.012 0 100 6.024 3.012 3.012 0 000-6.024zm18.75-15.797h-37.5v2.344h37.5v-2.344zm0 53.906h-37.5v2.344h37.5v-2.344zM43.36 68.594a1.172 1.172 0 01-1.172-1.172v-4.688a1.172 1.172 0 012.343 0v4.688a1.172 1.172 0 01-1.172 1.172z" fill="#9498A9"/><path d="M45.422 67.422a1.09 1.09 0 01-.563-.14l-4.113-2.239a1.171 1.171 0 111.113-2.05l4.114 2.238a1.172 1.172 0 01-.551 2.19z" fill="#9498A9"/><path d="M41.297 67.422a1.172 1.172 0 01-.55-2.191l4.112-2.239a1.172 1.172 0 111.114 2.051l-4.114 2.238a1.09 1.09 0 01-.562.14zm11.437 1.172a1.172 1.172 0 01-1.172-1.172v-4.688a1.172 1.172 0 012.344 0v4.688a1.172 1.172 0 01-1.172 1.172z" fill="#9498A9"/><path d="M54.797 67.422a1.09 1.09 0 01-.563-.14l-4.113-2.239a1.171 1.171 0 111.113-2.05l4.114 2.238a1.172 1.172 0 01-.551 2.19z" fill="#9498A9"/><path d="M50.672 67.422a1.172 1.172 0 01-.55-2.191l4.112-2.239a1.172 1.172 0 111.114 2.051l-4.114 2.238a1.09 1.09 0 01-.562.14zm11.438 1.172a1.172 1.172 0 01-1.172-1.172v-4.688a1.172 1.172 0 012.343 0v4.688a1.172 1.172 0 01-1.172 1.172z" fill="#9498A9"/><path d="M64.172 67.422a1.09 1.09 0 01-.563-.14l-4.113-2.239a1.171 1.171 0 111.113-2.05l4.114 2.238a1.172 1.172 0 01-.551 2.19z" fill="#9498A9"/><path d="M60.047 67.422a1.172 1.172 0 01-.55-2.191l4.112-2.239a1.172 1.172 0 111.114 2.051l-4.114 2.238a1.09 1.09 0 01-.562.14zM22.266 33.437a1.172 1.172 0 01-.832-.34L9.714 21.38a1.176 1.176 0 111.665-1.664l11.719 11.718a1.172 1.172 0 01-.832 2.004z" fill="#9498A9"/><path d="M22.266 33.438h-7.032a1.172 1.172 0 010-2.344h5.86v-5.86a1.172 1.172 0 112.343 0v7.032a1.172 1.172 0 01-1.171 1.172zM10.547 75.625a1.172 1.172 0 01-.832-2.004l11.719-11.719a1.176 1.176 0 111.664 1.664l-11.72 11.72a1.172 1.172 0 01-.831.339z" fill="#9498A9"/><path d="M22.266 70.938a1.172 1.172 0 01-1.172-1.172v-5.86h-5.86a1.172 1.172 0 110-2.343h7.032a1.172 1.172 0 011.172 1.171v7.032a1.172 1.172 0 01-1.172 1.171zm60.937-37.501a1.172 1.172 0 01-.832-2.003l11.719-11.72a1.177 1.177 0 111.664 1.665L84.035 33.098a1.172 1.172 0 01-.832.34z" fill="#9498A9"/><path d="M90.234 33.438h-7.03a1.172 1.172 0 01-1.173-1.172v-7.032a1.172 1.172 0 012.344 0v5.86h5.86a1.172 1.172 0 110 2.343zm4.688 42.187a1.172 1.172 0 01-.832-.34L82.371 63.566a1.177 1.177 0 011.664-1.664l11.72 11.719a1.172 1.172 0 01-.833 2.004z" fill="#9498A9"/><path d="M83.203 70.938a1.172 1.172 0 01-1.172-1.172v-7.032a1.172 1.172 0 011.172-1.172h7.031a1.172 1.172 0 010 2.344h-5.859v5.86a1.172 1.172 0 01-1.172 1.171z" fill="#9498A9"/></svg>