<svg width="110" height="85" fill="none" xmlns="http://www.w3.org/2000/svg"><circle opacity=".5" cx="85" cy="25" r="25" fill="#D7DF3B"/><path d="M23.276 64.31H2.586A2.586 2.586 0 010 61.724v-41.38a2.586 2.586 0 012.586-2.585h20.69v2.586H2.586v41.38h20.69v2.585z" fill="#9498A9"/><path d="M23.276 38.448H10.345a2.586 2.586 0 01-2.586-2.586v-7.759a2.586 2.586 0 012.586-2.586h12.93v2.587h-12.93v7.758h12.93v2.586zm-2.586 7.759H9.052a1.293 1.293 0 110-2.586H20.69a1.293 1.293 0 110 2.586zm-3.88 7.759H9.052a1.293 1.293 0 110-2.587h7.758a1.293 1.293 0 110 2.587zM98.276 85H67.24a2.586 2.586 0 01-2.586-2.586V72.069h2.586v10.345h31.035v-41.38H72.414v-2.586h25.862a2.588 2.588 0 012.586 2.586v41.38A2.586 2.586 0 0198.276 85z" fill="#9498A9"/><path d="M90.517 59.138H75a2.586 2.586 0 01-2.586-2.586v-7.759A2.586 2.586 0 0175 46.207h15.517a2.586 2.586 0 012.587 2.586v7.759a2.586 2.586 0 01-2.587 2.586zM75 48.793v7.759h15.517v-7.759H75zm16.81 18.104H73.707a1.293 1.293 0 110-2.587H91.81a1.293 1.293 0 110 2.587zm-7.758 7.758H73.707a1.293 1.293 0 010-2.586h10.345a1.293 1.293 0 010 2.586zm-16.811-5.172H28.448a2.586 2.586 0 01-2.586-2.586v-54.31A2.586 2.586 0 0128.448 10h38.793a2.586 2.586 0 012.587 2.586v54.31a2.586 2.586 0 01-2.587 2.587zM28.448 12.586v54.31h38.793v-54.31H28.448z" fill="#9498A9"/><path d="M59.483 38.448H36.207a2.586 2.586 0 01-2.586-2.586V20.345a2.586 2.586 0 012.586-2.586h23.276a2.586 2.586 0 012.586 2.586v15.517a2.586 2.586 0 01-2.586 2.586zM36.207 20.345v15.517h23.276V20.345H36.207zm24.569 25.862H34.914a1.293 1.293 0 110-2.586h25.862a1.293 1.293 0 110 2.586zm-12.931 7.681H34.914a1.293 1.293 0 010-2.586h12.93a1.293 1.293 0 110 2.586zM23.276 43.62H20.69v2.587h2.586V43.62z" fill="#9498A9"/></svg>