<svg><symbol id="chat-widget" viewBox="0 0 29 25" xmlns="http://www.w3.org/2000/svg"><path fill-rule="evenodd" clip-rule="evenodd" d="M2.885 0h23.077a2.893 2.893 0 012.884 2.885v17.307a2.893 2.893 0 01-2.884 2.885H6.963c-.764 0-1.497.304-2.038.844-1.817 1.817-4.923.53-4.921-2.04l.01-18.996A2.88 2.88 0 012.884 0zM7.21 17.308h14.423c.793 0 1.442-.65 1.442-1.443s-.649-1.442-1.442-1.442H7.211c-.793 0-1.442.649-1.442 1.442 0 .793.649 1.443 1.442 1.443zm14.423-4.327H7.211c-.793 0-1.442-.65-1.442-1.443s.649-1.442 1.442-1.442h14.423c.793 0 1.442.65 1.442 1.442 0 .794-.649 1.443-1.442 1.443zM7.211 8.654h14.423c.793 0 1.442-.65 1.442-1.443s-.649-1.442-1.442-1.442H7.211c-.793 0-1.442.649-1.442 1.442 0 .793.649 1.443 1.442 1.443z"/></symbol><symbol id="close-widget" viewBox="0 0 24 24" xmlns="http://www.w3.org/2000/svg"><path d="M22.666.532a1.75 1.75 0 00-2.48 0l-8.596 8.58L2.993.513a1.75 1.75 0 00-2.479 0 1.75 1.75 0 000 2.48l8.597 8.596-8.597 8.597a1.75 1.75 0 000 2.479 1.75 1.75 0 002.48 0l8.596-8.597 8.597 8.597a1.75 1.75 0 002.479 0 1.75 1.75 0 000-2.48l-8.597-8.596 8.597-8.597a1.762 1.762 0 000-2.461z"/></symbol><symbol id="underline" viewBox="0 0 71 2" fill="none" xmlns="http://www.w3.org/2000/svg"><path stroke="#D7DF3B" stroke-width="2" stroke-linecap="round" d="M1 1h69"/></symbol><symbol id="arrow-down" viewBox="0 0 24 24" xmlns="http://www.w3.org/2000/svg"><path d="M12.705 15l4.59-4.59A.996.996 0 1015.885 9l-3.89 3.88L8.115 9a.996.996 0 10-1.41 1.41l4.59 4.59c.38.39 1.02.39 1.41 0z"/></symbol><symbol id="elipse" viewBox="0 0 307 154" fill="none" xmlns="http://www.w3.org/2000/svg"><circle cx="153.5" cy=".5" r="153.5" fill="#96C0D0"/></symbol><symbol id="green-elipse" viewBox="0 0 115 115" fill="none" xmlns="http://www.w3.org/2000/svg"><circle cx="57.5" cy="57.5" r="57.5" fill="#A1D7A6"/></symbol><symbol id="white-elipse" viewBox="0 0 200 325" fill="none" xmlns="http://www.w3.org/2000/svg"><circle cx="35.5" cy="152.5" r="152.5" fill="#E6ECEC"/></symbol><symbol id="search-close" viewBox="0 0 13 11" xmlns="http://www.w3.org/2000/svg"><path d="M12.537 1.038a1.077 1.077 0 00-.658-.212c-.247 0-.484.076-.658.212l-4.564 3.55L2.094 1.03a1.077 1.077 0 00-.658-.213c-.247 0-.484.077-.658.213-.364.284-.364.742 0 1.026L5.34 5.613.778 9.169c-.364.284-.364.742 0 1.026.364.283.952.283 1.316 0l4.563-3.557 4.564 3.557c.364.283.952.283 1.316 0 .364-.284.364-.742 0-1.026L7.973 5.613l4.564-3.556c.354-.277.354-.742 0-1.019z" fill="#374EAC"/></symbol><symbol id="booking" viewBox="0 0 38 40" xmlns="http://www.w3.org/2000/svg"><path d="M15 8.125l3.525 3.525 4.6-7.044-4.6 3.956L15 8.125zm3.75 19.837a4.605 4.605 0 110-9.21 4.605 4.605 0 010 9.21zm0-7.962a3.356 3.356 0 100 6.712 3.356 3.356 0 000-6.712z"/><path d="M25 40H12.531a1.25 1.25 0 01-1.25-1.25v-6.375c-.031-3 3.332-5.5 7.469-5.5 4.137 0 7.5 2.5 7.5 5.5v6.375A1.25 1.25 0 0125 40zm-6.25-11.875c-3.444 0-6.25 1.875-6.25 4.25v6.375H25v-6.375c0-2.344-2.806-4.25-6.25-4.25zm.312-11.875a7.981 7.981 0 01-7.812-8.125A7.98 7.98 0 0119.062 0a7.981 7.981 0 017.813 8.125 7.981 7.981 0 01-7.813 8.125zm0-15A6.732 6.732 0 0012.5 8.125 6.731 6.731 0 0019.062 15a6.73 6.73 0 006.563-6.875 6.731 6.731 0 00-6.563-6.875zM6.875 25.331a4.238 4.238 0 114.231-4.237 4.243 4.243 0 01-4.23 4.237zm0-7.206a2.988 2.988 0 10-.012 5.975 2.988 2.988 0 00.012-5.975z"/><path d="M10 36.25H1.25A1.213 1.213 0 010 35.056v-5.775c0-2.787 3.075-5.05 6.875-5.05 2.569 0 4.894 1.031 6.081 2.7l-1.018.719c-.938-1.319-2.926-2.169-5.063-2.169-3.094 0-5.625 1.7-5.625 3.8V35H10v1.25zm20.569-10.919a4.237 4.237 0 110-8.475 4.237 4.237 0 010 8.475zm0-7.218a2.987 2.987 0 102.987 2.98 2.987 2.987 0 00-2.987-2.968v-.012z"/><path d="M36.212 36.25H27.5V35h8.75v-5.72c0-2.062-2.6-3.8-5.681-3.8-2.138 0-4.125.85-5.056 2.169l-1.026-.719c1.188-1.669 3.513-2.7 6.082-2.7 3.806 0 6.931 2.263 6.931 5.05v5.775a1.25 1.25 0 01-1.288 1.194z"/></symbol><symbol id="arrow-right" viewBox="0 0 24 24" fill="none" xmlns="http://www.w3.org/2000/svg"><path d="M5.209 13h11.17l-4.88 4.88c-.39.39-.39 1.03 0 1.42.39.39 1.02.39 1.41 0l6.59-6.59a.996.996 0 000-1.41l-6.58-6.6a.996.996 0 00-1.41 0 .996.996 0 000 1.41l4.87 4.89H5.209c-.55 0-1 .45-1 1s.45 1 1 1z" fill="#374EAC"/></symbol><symbol id="bot-icon" viewBox="0 0 41 38" fill="none" xmlns="http://www.w3.org/2000/svg"><circle cx="19" cy="19" r="18.5" fill="#D7DF3B" stroke="#fff"/><path d="M21.683 22.555c-1.364 2.344-3.79 3.857-6.672 3.857a7.627 7.627 0 01-7.658-7.639c0-4.235 3.412-7.714 7.658-7.714 2.806 0 5.308 1.513 6.597 3.782l-2.35 1.588a4.821 4.821 0 00-4.247-2.496c-2.654 0-4.853 2.193-4.853 4.84s2.2 4.84 4.853 4.84c1.82 0 3.336-.983 4.17-2.42l2.502 1.362zm12.587-3.782a4.832 4.832 0 00-4.853-4.84c-2.73 0-4.928 2.193-4.928 4.84 0 2.723 2.199 4.84 4.928 4.84 2.654 0 4.853-2.193 4.853-4.84zm2.73 0a7.627 7.627 0 01-7.659 7.639c-4.246 0-7.658-3.48-7.658-7.639 0-4.235 3.412-7.714 7.659-7.714 4.246 0 7.658 3.479 7.658 7.714z" fill="#374EAC"/><circle cx="35" cy="32" r="5.5" fill="#50AE67" stroke="#fff"/></symbol><symbol id="chat-user-icon" viewBox="0 0 24 24" fill="none" xmlns="http://www.w3.org/2000/svg"><circle cx="12" cy="12" r="11.5" fill="#D7DF3B" stroke="#fff"/><path d="M13.64 14.172c-.834 1.433-2.317 2.358-4.078 2.358a4.661 4.661 0 01-4.68-4.669c0-2.588 2.085-4.714 4.68-4.714 1.715 0 3.244.925 4.032 2.311l-1.437.97a2.946 2.946 0 00-2.595-1.524c-1.621 0-2.965 1.34-2.965 2.957 0 1.618 1.344 2.958 2.965 2.958 1.112 0 2.04-.6 2.549-1.479l1.529.832zm7.691-2.311a2.953 2.953 0 00-2.965-2.957c-1.668 0-3.012 1.34-3.012 2.957 0 1.664 1.344 2.958 3.012 2.958 1.622 0 2.965-1.34 2.965-2.958zm1.669 0a4.661 4.661 0 01-4.68 4.669c-2.595 0-4.68-2.127-4.68-4.669 0-2.588 2.085-4.714 4.68-4.714 2.595 0 4.68 2.126 4.68 4.714z" fill="#374EAC"/></symbol></svg>