<svg><symbol id="chat-widget" viewBox="0 0 29 25" xmlns="http://www.w3.org/2000/svg"><path fill-rule="evenodd" clip-rule="evenodd" d="M2.885 0h23.077a2.893 2.893 0 012.884 2.885v17.307a2.893 2.893 0 01-2.884 2.885H6.963c-.764 0-1.497.304-2.038.844-1.817 1.817-4.923.53-4.921-2.04l.01-18.996A2.88 2.88 0 012.884 0zM7.21 17.308h14.423c.793 0 1.442-.65 1.442-1.443s-.649-1.442-1.442-1.442H7.211c-.793 0-1.442.649-1.442 1.442 0 .793.649 1.443 1.442 1.443zm14.423-4.327H7.211c-.793 0-1.442-.65-1.442-1.443s.649-1.442 1.442-1.442h14.423c.793 0 1.442.65 1.442 1.442 0 .794-.649 1.443-1.442 1.443zM7.211 8.654h14.423c.793 0 1.442-.65 1.442-1.443s-.649-1.442-1.442-1.442H7.211c-.793 0-1.442.649-1.442 1.442 0 .793.649 1.443 1.442 1.443z"/></symbol><symbol id="close-widget" viewBox="0 0 24 24" xmlns="http://www.w3.org/2000/svg"><path d="M22.666.532a1.75 1.75 0 00-2.48 0l-8.596 8.58L2.993.513a1.75 1.75 0 00-2.479 0 1.75 1.75 0 000 2.48l8.597 8.596-8.597 8.597a1.75 1.75 0 000 2.479 1.75 1.75 0 002.48 0l8.596-8.597 8.597 8.597a1.75 1.75 0 002.479 0 1.75 1.75 0 000-2.48l-8.597-8.596 8.597-8.597a1.762 1.762 0 000-2.461z"/></symbol><symbol id="underline" viewBox="0 0 71 2" fill="none" xmlns="http://www.w3.org/2000/svg"><path stroke="#D7DF3B" stroke-width="2" stroke-linecap="round" d="M1 1h69"/></symbol><symbol id="arrow-down" viewBox="0 0 24 24" xmlns="http://www.w3.org/2000/svg"><path d="M12.705 15l4.59-4.59A.996.996 0 1015.885 9l-3.89 3.88L8.115 9a.996.996 0 10-1.41 1.41l4.59 4.59c.38.39 1.02.39 1.41 0z"/></symbol><symbol id="elipse" viewBox="0 0 307 154" fill="none" xmlns="http://www.w3.org/2000/svg"><circle cx="153.5" cy=".5" r="153.5" fill="#96C0D0"/></symbol><symbol id="green-elipse" viewBox="0 0 115 115" fill="none" xmlns="http://www.w3.org/2000/svg"><circle cx="57.5" cy="57.5" r="57.5" fill="#A1D7A6"/></symbol><symbol id="white-elipse" viewBox="0 0 200 325" fill="none" xmlns="http://www.w3.org/2000/svg"><circle cx="35.5" cy="152.5" r="152.5" fill="#E6ECEC"/></symbol><symbol id="plans-elipse" viewBox="0 0 276 276" fill="none" xmlns="http://www.w3.org/2000/svg"><circle cx="138" cy="138" r="138" fill="#E6ECEC"/></symbol><symbol id="search-close" viewBox="0 0 13 11" xmlns="http://www.w3.org/2000/svg"><path d="M12.537 1.038a1.077 1.077 0 00-.658-.212c-.247 0-.484.076-.658.212l-4.564 3.55L2.094 1.03a1.077 1.077 0 00-.658-.213c-.247 0-.484.077-.658.213-.364.284-.364.742 0 1.026L5.34 5.613.778 9.169c-.364.284-.364.742 0 1.026.364.283.952.283 1.316 0l4.563-3.557 4.564 3.557c.364.283.952.283 1.316 0 .364-.284.364-.742 0-1.026L7.973 5.613l4.564-3.556c.354-.277.354-.742 0-1.019z" fill="#374EAC"/></symbol><symbol id="booking" viewBox="0 0 38 40" xmlns="http://www.w3.org/2000/svg"><path d="M15 8.125l3.525 3.525 4.6-7.044-4.6 3.956L15 8.125zm3.75 19.837a4.605 4.605 0 110-9.21 4.605 4.605 0 010 9.21zm0-7.962a3.356 3.356 0 100 6.712 3.356 3.356 0 000-6.712z"/><path d="M25 40H12.531a1.25 1.25 0 01-1.25-1.25v-6.375c-.031-3 3.332-5.5 7.469-5.5 4.137 0 7.5 2.5 7.5 5.5v6.375A1.25 1.25 0 0125 40zm-6.25-11.875c-3.444 0-6.25 1.875-6.25 4.25v6.375H25v-6.375c0-2.344-2.806-4.25-6.25-4.25zm.312-11.875a7.981 7.981 0 01-7.812-8.125A7.98 7.98 0 0119.062 0a7.981 7.981 0 017.813 8.125 7.981 7.981 0 01-7.813 8.125zm0-15A6.732 6.732 0 0012.5 8.125 6.731 6.731 0 0019.062 15a6.73 6.73 0 006.563-6.875 6.731 6.731 0 00-6.563-6.875zM6.875 25.331a4.238 4.238 0 114.231-4.237 4.243 4.243 0 01-4.23 4.237zm0-7.206a2.988 2.988 0 10-.012 5.975 2.988 2.988 0 00.012-5.975z"/><path d="M10 36.25H1.25A1.213 1.213 0 010 35.056v-5.775c0-2.787 3.075-5.05 6.875-5.05 2.569 0 4.894 1.031 6.081 2.7l-1.018.719c-.938-1.319-2.926-2.169-5.063-2.169-3.094 0-5.625 1.7-5.625 3.8V35H10v1.25zm20.569-10.919a4.237 4.237 0 110-8.475 4.237 4.237 0 010 8.475zm0-7.218a2.987 2.987 0 102.987 2.98 2.987 2.987 0 00-2.987-2.968v-.012z"/><path d="M36.212 36.25H27.5V35h8.75v-5.72c0-2.062-2.6-3.8-5.681-3.8-2.138 0-4.125.85-5.056 2.169l-1.026-.719c1.188-1.669 3.513-2.7 6.082-2.7 3.806 0 6.931 2.263 6.931 5.05v5.775a1.25 1.25 0 01-1.288 1.194z"/></symbol><symbol id="arrow-right" viewBox="0 0 24 24" fill="none" xmlns="http://www.w3.org/2000/svg"><path d="M5.209 13h11.17l-4.88 4.88c-.39.39-.39 1.03 0 1.42.39.39 1.02.39 1.41 0l6.59-6.59a.996.996 0 000-1.41l-6.58-6.6a.996.996 0 00-1.41 0 .996.996 0 000 1.41l4.87 4.89H5.209c-.55 0-1 .45-1 1s.45 1 1 1z" fill="#374EAC"/></symbol><symbol id="bot-icon" viewBox="0 0 41 38" fill="none" xmlns="http://www.w3.org/2000/svg"><circle cx="19" cy="19" r="18.5" fill="#D7DF3B" stroke="#fff"/><path d="M21.683 22.555c-1.364 2.344-3.79 3.857-6.672 3.857a7.627 7.627 0 01-7.658-7.639c0-4.235 3.412-7.714 7.658-7.714 2.806 0 5.308 1.513 6.597 3.782l-2.35 1.588a4.821 4.821 0 00-4.247-2.496c-2.654 0-4.853 2.193-4.853 4.84s2.2 4.84 4.853 4.84c1.82 0 3.336-.983 4.17-2.42l2.502 1.362zm12.587-3.782a4.832 4.832 0 00-4.853-4.84c-2.73 0-4.928 2.193-4.928 4.84 0 2.723 2.199 4.84 4.928 4.84 2.654 0 4.853-2.193 4.853-4.84zm2.73 0a7.627 7.627 0 01-7.659 7.639c-4.246 0-7.658-3.48-7.658-7.639 0-4.235 3.412-7.714 7.659-7.714 4.246 0 7.658 3.479 7.658 7.714z" fill="#374EAC"/><circle cx="35" cy="32" r="5.5" fill="#50AE67" stroke="#fff"/></symbol><symbol id="chat-user-icon" viewBox="0 0 24 24" fill="none" xmlns="http://www.w3.org/2000/svg"><circle cx="12" cy="12" r="11.5" fill="#D7DF3B" stroke="#fff"/><path d="M13.64 14.172c-.834 1.433-2.317 2.358-4.078 2.358a4.661 4.661 0 01-4.68-4.669c0-2.588 2.085-4.714 4.68-4.714 1.715 0 3.244.925 4.032 2.311l-1.437.97a2.946 2.946 0 00-2.595-1.524c-1.621 0-2.965 1.34-2.965 2.957 0 1.618 1.344 2.958 2.965 2.958 1.112 0 2.04-.6 2.549-1.479l1.529.832zm7.691-2.311a2.953 2.953 0 00-2.965-2.957c-1.668 0-3.012 1.34-3.012 2.957 0 1.664 1.344 2.958 3.012 2.958 1.622 0 2.965-1.34 2.965-2.958zm1.669 0a4.661 4.661 0 01-4.68 4.669c-2.595 0-4.68-2.127-4.68-4.669 0-2.588 2.085-4.714 4.68-4.714 2.595 0 4.68 2.126 4.68 4.714z" fill="#374EAC"/></symbol><symbol id="facebook" viewBox="0 0 11 23" xmlns="http://www.w3.org/2000/svg"><path fill-rule="evenodd" clip-rule="evenodd" d="M7.315 23H2.437V11.498H0V7.537h2.437v-2.38C2.437 1.923 3.813 0 7.723 0h3.255v3.964H8.944c-1.523 0-1.623.554-1.623 1.588l-.007 1.984H11l-.431 3.963H7.314V23z"/></symbol><symbol id="twitter" viewBox="0 0 21 18" xmlns="http://www.w3.org/2000/svg"><path fill-rule="evenodd" clip-rule="evenodd" d="M18.526 2.846A4.51 4.51 0 0020.42.333a8.355 8.355 0 01-2.736 1.102A4.194 4.194 0 0014.539 0c-2.38 0-4.307 2.035-4.307 4.544 0 .356.036.703.11 1.034-3.58-.19-6.754-1.996-8.88-4.747a4.724 4.724 0 00-.583 2.285c0 1.576.76 2.967 1.917 3.783a4.154 4.154 0 01-1.953-.568v.056c0 2.202 1.484 4.04 3.458 4.455a4.01 4.01 0 01-1.137.16c-.277 0-.548-.027-.81-.08.548 1.804 2.139 3.12 4.025 3.155-1.476 1.219-3.333 1.944-5.351 1.944A8.31 8.31 0 010 15.959 11.748 11.748 0 006.604 18c7.926 0 12.257-6.924 12.257-12.929 0-.197-.002-.394-.01-.587A9.005 9.005 0 0021 2.13a8.256 8.256 0 01-2.474.715z"/></symbol><symbol id="instagram" viewBox="0 0 20 20" xmlns="http://www.w3.org/2000/svg"><path fill-rule="evenodd" clip-rule="evenodd" d="M16.135 0H3.865A3.87 3.87 0 000 3.865v12.27A3.87 3.87 0 003.865 20h12.27A3.87 3.87 0 0020 16.135V3.865A3.87 3.87 0 0016.135 0zm1.109 2.306l.442-.002v3.39l-3.38.01-.012-3.39 2.95-.008zM7.146 7.946A3.516 3.516 0 0110 6.48c1.175 0 2.214.581 2.854 1.468.417.578.667 1.286.667 2.053 0 1.94-1.58 3.52-3.521 3.52-1.94 0-3.52-1.58-3.52-3.52 0-.767.25-1.475.666-2.053zm10.905 8.189c0 1.057-.86 1.916-1.916 1.916H3.865a1.919 1.919 0 01-1.917-1.916V7.947h2.987A5.429 5.429 0 004.532 10 5.475 5.475 0 0010 15.47 5.475 5.475 0 0015.47 10a5.48 5.48 0 00-.404-2.053h2.986v8.188z"/></symbol><symbol id="linked-in" viewBox="0 0 20 20" xmlns="http://www.w3.org/2000/svg"><path fill-rule="evenodd" clip-rule="evenodd" d="M.504 6.413h3.899V20H.504V6.413zm1.85-1.7h-.028C.915 4.714 0 3.676 0 2.36 0 1.018.942 0 2.381 0c1.438 0 2.323 1.015 2.35 2.356 0 1.315-.912 2.358-2.377 2.358zM20 20h-4.42v-7.032c0-1.84-.692-3.095-2.212-3.095-1.163 0-1.81.847-2.11 1.665-.114.292-.096.7-.096 1.11V20h-4.38s.057-12.455 0-13.587h4.38v2.132c.258-.932 1.658-2.263 3.89-2.263 2.771 0 4.948 1.956 4.948 6.163V20z"/></symbol><symbol id="website-icon" viewBox="0 0 112 85" fill="none" xmlns="http://www.w3.org/2000/svg"><circle opacity=".5" cx="87" cy="25" r="25" fill="#D7DF3B"/><path d="M63.281 54.531H1.171v2.344h62.11v-2.344zM31.64 65.734h-2.343v11.72h2.344v-11.72zm15.235 0h-2.344v11.72h2.344v-11.72z" fill="#9498A9"/><path d="M53.906 85H21.094a2.343 2.343 0 01-2.344-2.344v-1.172a5.86 5.86 0 015.86-5.859h25.78a5.86 5.86 0 015.86 5.86v1.171A2.343 2.343 0 0153.906 85zM24.61 77.969a3.515 3.515 0 00-3.515 3.515v1.172h32.812v-1.172a3.515 3.515 0 00-3.515-3.515H24.609zM63.281 66.25H5.86A5.86 5.86 0 010 60.39V15.86A5.86 5.86 0 015.86 10h63.28A5.86 5.86 0 0175 15.86v17.578h-2.344v-17.58a3.515 3.515 0 00-3.515-3.515H5.859a3.515 3.515 0 00-3.515 3.515V60.39a3.516 3.516 0 003.515 3.515h57.422v2.344z" fill="#9498A9"/><path d="M37.5 61.563a1.172 1.172 0 100-2.344 1.172 1.172 0 000 2.343zm-2.344-17.579H14.063a2.344 2.344 0 01-2.344-2.343V26.406a2.344 2.344 0 012.344-2.343h21.093a2.343 2.343 0 012.344 2.343v15.235a2.343 2.343 0 01-2.344 2.343zM14.063 26.406v15.235h21.093V26.406H14.063zm72.656 30.469H72.656a2.343 2.343 0 01-2.344-2.344v-9.375a2.343 2.343 0 012.344-2.343H86.72a2.343 2.343 0 012.344 2.343v9.375a2.343 2.343 0 01-2.344 2.344zM72.656 45.156v9.375H86.72v-9.375H72.656zM62.11 26.406H43.36a1.172 1.172 0 110-2.343h18.75a1.172 1.172 0 010 2.343zm0 7.032H43.36a1.172 1.172 0 010-2.344h18.75a1.172 1.172 0 110 2.343zm-9.376 7.031H43.36a1.172 1.172 0 010-2.344h9.375a1.172 1.172 0 010 2.344zM87.89 63.906H71.485a1.172 1.172 0 110-2.343h16.407a1.172 1.172 0 010 2.343zm-9.374 7.032h-7.032a1.172 1.172 0 010-2.344h7.032a1.172 1.172 0 110 2.344z" fill="#9498A9"/><path d="M87.89 85H71.485a5.86 5.86 0 01-5.859-5.86v-37.5a5.86 5.86 0 015.86-5.859H87.89a5.86 5.86 0 015.859 5.86v37.5A5.86 5.86 0 0187.89 85zM71.485 38.125a3.516 3.516 0 00-3.515 3.516v37.5a3.515 3.515 0 003.515 3.515h16.407a3.516 3.516 0 003.515-3.515v-37.5a3.515 3.515 0 00-3.515-3.516H71.484z" fill="#9498A9"/></symbol><symbol id="contacts-icon" viewBox="0 0 113 85" fill="none" xmlns="http://www.w3.org/2000/svg"><circle opacity=".5" cx="84" cy="25" r="25" fill="#D7DF3B"/><path d="M66.797 85H38.672a5.86 5.86 0 01-5.86-5.86V15.86a5.86 5.86 0 015.86-5.86h28.125a5.86 5.86 0 015.86 5.86v63.28a5.86 5.86 0 01-5.86 5.86zM38.672 12.344a3.515 3.515 0 00-3.516 3.515v63.282a3.515 3.515 0 003.516 3.515h28.125a3.515 3.515 0 003.516-3.515V15.859a3.516 3.516 0 00-3.516-3.515H38.672z" fill="#9498A9"/><path d="M52.734 51.906a12.891 12.891 0 110-25.782 12.891 12.891 0 010 25.782zm0-23.437a10.547 10.547 0 100 21.094 10.547 10.547 0 000-21.094z" fill="#9498A9"/><path d="M44.437 47.57l-1.84-1.453a12.891 12.891 0 0120.016-.316l-1.804 1.5a10.547 10.547 0 00-16.407.27h.035z" fill="#9498A9"/><path d="M52.734 43.54a5.355 5.355 0 115.356-5.356 5.367 5.367 0 01-5.356 5.355zm0-8.368a3.012 3.012 0 100 6.024 3.012 3.012 0 000-6.024zm18.75-15.797h-37.5v2.344h37.5v-2.344zm0 53.906h-37.5v2.344h37.5v-2.344zM43.36 68.594a1.172 1.172 0 01-1.172-1.172v-4.688a1.172 1.172 0 012.343 0v4.688a1.172 1.172 0 01-1.172 1.172z" fill="#9498A9"/><path d="M45.422 67.422a1.09 1.09 0 01-.563-.14l-4.113-2.239a1.171 1.171 0 111.113-2.05l4.114 2.238a1.172 1.172 0 01-.551 2.19z" fill="#9498A9"/><path d="M41.297 67.422a1.172 1.172 0 01-.55-2.191l4.112-2.239a1.172 1.172 0 111.114 2.051l-4.114 2.238a1.09 1.09 0 01-.562.14zm11.437 1.172a1.172 1.172 0 01-1.172-1.172v-4.688a1.172 1.172 0 012.344 0v4.688a1.172 1.172 0 01-1.172 1.172z" fill="#9498A9"/><path d="M54.797 67.422a1.09 1.09 0 01-.563-.14l-4.113-2.239a1.171 1.171 0 111.113-2.05l4.114 2.238a1.172 1.172 0 01-.551 2.19z" fill="#9498A9"/><path d="M50.672 67.422a1.172 1.172 0 01-.55-2.191l4.112-2.239a1.172 1.172 0 111.114 2.051l-4.114 2.238a1.09 1.09 0 01-.562.14zm11.438 1.172a1.172 1.172 0 01-1.172-1.172v-4.688a1.172 1.172 0 012.343 0v4.688a1.172 1.172 0 01-1.172 1.172z" fill="#9498A9"/><path d="M64.172 67.422a1.09 1.09 0 01-.563-.14l-4.113-2.239a1.171 1.171 0 111.113-2.05l4.114 2.238a1.172 1.172 0 01-.551 2.19z" fill="#9498A9"/><path d="M60.047 67.422a1.172 1.172 0 01-.55-2.191l4.112-2.239a1.172 1.172 0 111.114 2.051l-4.114 2.238a1.09 1.09 0 01-.562.14zM22.266 33.437a1.172 1.172 0 01-.832-.34L9.714 21.38a1.176 1.176 0 111.665-1.664l11.719 11.718a1.172 1.172 0 01-.832 2.004z" fill="#9498A9"/><path d="M22.266 33.438h-7.032a1.172 1.172 0 010-2.344h5.86v-5.86a1.172 1.172 0 112.343 0v7.032a1.172 1.172 0 01-1.171 1.172zM10.547 75.625a1.172 1.172 0 01-.832-2.004l11.719-11.719a1.176 1.176 0 111.664 1.664l-11.72 11.72a1.172 1.172 0 01-.831.339z" fill="#9498A9"/><path d="M22.266 70.938a1.172 1.172 0 01-1.172-1.172v-5.86h-5.86a1.172 1.172 0 110-2.343h7.032a1.172 1.172 0 011.172 1.171v7.032a1.172 1.172 0 01-1.172 1.171zm60.937-37.501a1.172 1.172 0 01-.832-2.003l11.719-11.72a1.177 1.177 0 111.664 1.665L84.035 33.098a1.172 1.172 0 01-.832.34z" fill="#9498A9"/><path d="M90.234 33.438h-7.03a1.172 1.172 0 01-1.173-1.172v-7.032a1.172 1.172 0 012.344 0v5.86h5.86a1.172 1.172 0 110 2.343zm4.688 42.187a1.172 1.172 0 01-.832-.34L82.371 63.566a1.177 1.177 0 011.664-1.664l11.72 11.719a1.172 1.172 0 01-.833 2.004z" fill="#9498A9"/><path d="M83.203 70.938a1.172 1.172 0 01-1.172-1.172v-7.032a1.172 1.172 0 011.172-1.172h7.031a1.172 1.172 0 010 2.344h-5.859v5.86a1.172 1.172 0 01-1.172 1.171z" fill="#9498A9"/></symbol><symbol id="booking-icon" viewBox="0 0 113 85" fill="none" xmlns="http://www.w3.org/2000/svg"><circle opacity=".5" cx="75" cy="25" r="25" fill="#D7DF3B"/><path d="M46.875 25.234l6.61 6.61 8.624-13.207-8.625 7.418-6.609-.82zm7.031 37.196a8.637 8.637 0 118.637-8.637 8.648 8.648 0 01-8.637 8.637zm0-14.93a6.293 6.293 0 106.293 6.293 6.305 6.305 0 00-6.293-6.293z" fill="#9498A9"/><path d="M65.625 85H42.246a2.343 2.343 0 01-2.344-2.344V70.703c-.058-5.625 6.246-10.312 14.004-10.312 7.758 0 14.063 4.687 14.063 10.312v11.953A2.343 2.343 0 0165.625 85zM53.906 62.734c-6.457 0-11.718 3.516-11.718 7.97v11.952h23.437V70.703c0-4.394-5.262-7.969-11.719-7.969zm.586-22.265a14.965 14.965 0 01-14.648-15.235A14.965 14.965 0 0154.492 10a14.965 14.965 0 0114.649 15.234A14.965 14.965 0 0154.492 40.47zm0-28.125a12.621 12.621 0 00-12.304 12.89 12.622 12.622 0 0012.304 12.891 12.621 12.621 0 0012.305-12.89 12.62 12.62 0 00-12.305-12.891zM31.64 57.496a7.945 7.945 0 117.934-7.945 7.957 7.957 0 01-7.933 7.945zm0-13.512a5.601 5.601 0 10-.023 11.203 5.601 5.601 0 00.024-11.203z" fill="#9498A9"/><path d="M37.5 77.969H21.094a2.272 2.272 0 01-2.344-2.238v-10.83c0-5.226 5.766-9.468 12.89-9.468 4.817 0 9.176 1.933 11.403 5.062l-1.91 1.348c-1.758-2.473-5.485-4.067-9.492-4.067-5.801 0-10.547 3.188-10.547 7.125v10.723H37.5v2.344zm38.566-20.473a7.946 7.946 0 110-15.891 7.946 7.946 0 010 15.891zm0-13.535a5.602 5.602 0 105.602 5.59 5.602 5.602 0 00-5.602-5.567v-.023z" fill="#9498A9"/><path d="M86.648 77.969H70.312v-2.344h16.406V64.902c0-3.867-4.874-7.125-10.652-7.125-4.008 0-7.734 1.594-9.48 4.067l-1.922-1.348c2.227-3.129 6.586-5.062 11.402-5.062 7.137 0 12.996 4.242 12.996 9.468v10.829a2.344 2.344 0 01-2.414 2.238z" fill="#9498A9"/></symbol><symbol id="learning-icon" viewBox="0 0 113 85" fill="none" xmlns="http://www.w3.org/2000/svg"><circle opacity=".5" cx="81" cy="25" r="25" fill="#D7DF3B"/><path d="M92.578 54.531H19.922v2.344h72.656v-2.344zM49.219 66.25h-2.344v11.719h2.344V66.25zm16.406-.516h-2.344v11.72h2.344v-11.72z" fill="#9498A9"/><path d="M72.656 85H39.844a2.343 2.343 0 01-2.344-2.344v-1.172a5.86 5.86 0 015.86-5.859h25.78a5.86 5.86 0 015.86 5.86v1.171A2.343 2.343 0 0172.656 85zM43.36 77.969a3.515 3.515 0 00-3.515 3.515v1.172h32.812v-1.172a3.515 3.515 0 00-3.515-3.515H43.359zM87.89 66.25H24.61a5.86 5.86 0 01-5.86-5.86V15.86A5.86 5.86 0 0124.61 10h63.28a5.86 5.86 0 015.86 5.86v44.53a5.86 5.86 0 01-5.86 5.86zM24.61 12.344a3.515 3.515 0 00-3.516 3.515v44.532a3.515 3.515 0 003.515 3.515h63.282a3.515 3.515 0 003.515-3.515V15.859a3.515 3.515 0 00-3.515-3.515H24.609z" fill="#9498A9"/><path d="M56.25 61.563a1.172 1.172 0 100-2.344 1.172 1.172 0 000 2.343zm-.668-16.407a29.004 29.004 0 01-12.727-3.258 2.461 2.461 0 01-1.336-2.214v-7.418a1.172 1.172 0 012.344 0v7.418a.152.152 0 00.07.14 26.648 26.648 0 0011.649 2.989 26.637 26.637 0 0011.637-2.989.163.163 0 00.082-.14V31.48a1.172 1.172 0 112.343 0v8.261a2.473 2.473 0 01-1.347 2.215 28.993 28.993 0 01-12.715 3.2z" fill="#9498A9"/><path d="M36.832 41.64a1.172 1.172 0 01-1.172-1.171v-9.727a3.035 3.035 0 012.344-2.988L54.41 22.41a5.193 5.193 0 012.344 0l17.578 5.473a1.288 1.288 0 01.926 1.254 1.3 1.3 0 01-.985 1.265l-17.378 5.38a4.348 4.348 0 01-2.708.093l-16.183-4.781v9.375a1.172 1.172 0 01-1.172 1.172zm3.727-12.187l14.273 4.184c.433.115.891.094 1.313-.059l14.32-4.394-14.215-4.512a2.766 2.766 0 00-1.172 0l-14.52 4.781zm33.035.715h.117-.117zm.058-1.957h-.082.082z" fill="#9498A9"/></symbol><symbol id="assessments-icon" viewBox="0 0 113 85" fill="none" xmlns="http://www.w3.org/2000/svg"><circle opacity=".5" cx="75" cy="25" r="25" fill="#D7DF3B"/><g clip-path="url(#clip0_405_2022)" fill="#9498A9"><path d="M27.422 29.336l6.246 6.246 8.168-12.492-8.168 7.02-6.246-.774zm0 36.328l6.246 6.246 8.168-12.492-8.168 7.02-6.246-.774zM37.5 53.594a1.17 1.17 0 01-.832-.352l-7.031-7.031a1.172 1.172 0 111.664-1.652l7.03 7.03a1.172 1.172 0 01-.831 2.005z"/><path d="M30.469 53.594a1.171 1.171 0 01-.832-2.004l7.031-7.031a1.17 1.17 0 011.664 0 1.171 1.171 0 010 1.652l-7.031 7.031a1.171 1.171 0 01-.832.352zm33.984-22.266h-18.75a1.172 1.172 0 110-2.344h18.75a1.172 1.172 0 110 2.344zm0 18.75h-18.75a1.172 1.172 0 110-2.344h18.75a1.172 1.172 0 110 2.344zm0 18.75h-18.75a1.172 1.172 0 110-2.344h18.75a1.172 1.172 0 110 2.344z"/><path d="M69.246 85.059H27.55a6.457 6.457 0 01-6.456-6.516v-62.11A6.457 6.457 0 0127.55 10h34.875a6.479 6.479 0 014.687 2.004l6.223 6.516a6.446 6.446 0 011.781 4.464v56.25a5.86 5.86 0 01-5.86 5.86l-.01-.035zM27.551 12.344a4.111 4.111 0 00-4.113 4.113v62.11a4.113 4.113 0 004.113 4.09h41.66a3.515 3.515 0 003.516-3.516V22.89a4.043 4.043 0 00-1.172-2.836l-6.153-6.434a4.149 4.149 0 00-2.976-1.277H27.55z"/></g><defs><clipPath id="clip0_405_2022"><path fill="#fff" transform="translate(0 10)" d="M0 0h112.5v75H0z"/></clipPath></defs></symbol><symbol id="resource-icon" viewBox="0 0 113 85" fill="none" xmlns="http://www.w3.org/2000/svg"><ellipse opacity=".5" cx="81.694" cy="25" rx="24.907" ry="25" fill="#D7DF3B"/><g clip-path="url(#clip0_1172_1808)" fill="#9498A9"><path d="M78.585 58.188a9.967 9.967 0 01-5.553-1.691 10.023 10.023 0 01-3.68-4.502 10.066 10.066 0 012.166-10.932 9.982 9.982 0 015.117-2.745 9.958 9.958 0 015.774.57 10.002 10.002 0 014.485 3.695 10.058 10.058 0 011.684 5.573 10.062 10.062 0 01-2.93 7.09 9.987 9.987 0 01-7.063 2.941zm0-17.72a7.643 7.643 0 00-4.255 1.296 7.682 7.682 0 00-2.821 3.45 7.714 7.714 0 001.66 8.378 7.632 7.632 0 008.347 1.666 7.666 7.666 0 003.437-2.83A7.708 7.708 0 0084 42.72a7.644 7.644 0 00-5.415-2.251z"/><path d="M93.12 85H65.66a2.56 2.56 0 01-1.83-.722 2.58 2.58 0 01-.785-1.81V68.595c0-6.492 7.332-11.719 16.345-11.719 9.013 0 16.345 5.273 16.345 11.719v13.828a2.585 2.585 0 01-.769 1.84A2.569 2.569 0 0193.12 85zM79.39 59.219c-7.729 0-14.01 4.218-14.01 9.375v13.828c0 .094.117.187.28.187h27.46c.163 0 .28-.093.28-.187V68.594c0-5.156-6.28-9.375-14.01-9.375zm-27.565-8.285a9.315 9.315 0 01-5.189-1.58 9.368 9.368 0 01-3.44-4.208 9.408 9.408 0 012.025-10.217A9.308 9.308 0 0155.4 32.897a9.348 9.348 0 014.191 3.453 9.4 9.4 0 01-1.161 11.838 9.322 9.322 0 01-6.605 2.746zm0-16.325c-1.385 0-2.74.413-3.892 1.185a7.025 7.025 0 00-2.58 3.156 7.056 7.056 0 001.519 7.662 6.982 6.982 0 007.634 1.524 7.01 7.01 0 003.144-2.589 7.05 7.05 0 00-.871-8.878 6.992 6.992 0 00-4.954-2.06z"/><path d="M60.71 75.625H39.86c-.652.01-1.28-.24-1.749-.695a2.477 2.477 0 01-.75-1.73V60.46c0-6.023 6.807-10.92 15.178-10.92 7.215 0 13.31 3.515 14.827 8.566l-2.23.68c-1.168-3.997-6.503-6.903-12.597-6.903-7.087 0-12.843 3.844-12.843 8.578v12.738s0 .082.164.082h20.85v2.344zM27.343 43.563a8.616 8.616 0 01-4.8-1.462 8.664 8.664 0 01-3.182-3.892 8.703 8.703 0 011.873-9.45 8.609 8.609 0 019.415-1.88 8.646 8.646 0 013.877 3.194 8.694 8.694 0 011.456 4.818 8.7 8.7 0 01-2.534 6.128 8.635 8.635 0 01-6.105 2.544zm0-14.989a6.288 6.288 0 00-3.504 1.067 6.324 6.324 0 00-2.322 2.842 6.35 6.35 0 001.372 6.898 6.282 6.282 0 006.875 1.364 6.31 6.31 0 002.826-2.335 6.345 6.345 0 00-.794-7.986 6.293 6.293 0 00-4.453-1.85z"/><path d="M35.025 66.25H16.403a2.327 2.327 0 01-1.689-.665 2.343 2.343 0 01-.704-1.679V52.188c0-5.59 6.281-10.137 14.01-10.137 6.27 0 11.815 3.035 13.485 7.37l-2.172.856c-1.343-3.457-5.99-5.859-11.313-5.859-6.433 0-11.675 3.516-11.675 7.793v11.695h18.68v2.344z"/></g><defs><clipPath id="clip0_1172_1808"><path fill="#fff" transform="translate(0 10)" d="M0 0h112.08v75H0z"/></clipPath></defs></symbol><symbol id="accounting-icon" viewBox="0 0 86 85" fill="none" xmlns="http://www.w3.org/2000/svg"><ellipse opacity=".5" cx="60.966" cy="25" rx="24.907" ry="25" fill="#D7DF3B"/><path d="M38.672 24.063H10.547a1.172 1.172 0 010-2.344h28.125a1.172 1.172 0 110 2.343zm0 7.031H10.547a1.172 1.172 0 010-2.344h28.125a1.172 1.172 0 010 2.344zm0 7.031H10.547a1.172 1.172 0 010-2.344h28.125a1.172 1.172 0 010 2.344zM24.61 52.188H10.546a1.172 1.172 0 010-2.344h14.062a1.172 1.172 0 110 2.343zm22.347 14.988h-8.285a1.172 1.172 0 010-2.344h8.285a1.172 1.172 0 010 2.344zm-.75 4.043h-7.535a1.172 1.172 0 010-2.344h7.535a1.172 1.172 0 010 2.344zm-7.535-26.063H10.547a1.172 1.172 0 110-2.343h28.125a1.172 1.172 0 010 2.343z" fill="#9498A9"/><path d="M48.047 85a17.578 17.578 0 110-35.156 17.578 17.578 0 010 35.156zm0-32.813a15.234 15.234 0 100 30.47 15.234 15.234 0 000-30.47z" fill="#9498A9"/><path d="M49.219 76.96a9.457 9.457 0 110-18.913 1.172 1.172 0 110 2.344 7.113 7.113 0 000 14.226 1.172 1.172 0 010 2.344zm-21.094-1.335H5.859A5.86 5.86 0 010 69.765V15.86A5.86 5.86 0 015.86 10h31.98a5.86 5.86 0 014.242 1.816l5.52 5.79a5.86 5.86 0 011.617 4.042V47.5h-2.344V21.648c0-.903-.349-1.772-.973-2.425l-5.52-5.79a3.515 3.515 0 00-2.542-1.09H5.86a3.515 3.515 0 00-3.516 3.516v53.907a3.516 3.516 0 003.515 3.515h22.266v2.344z" fill="#9498A9"/></symbol><symbol id="marketing-icon" viewBox="0 0 88 85" fill="none" xmlns="http://www.w3.org/2000/svg"><ellipse opacity=".5" cx="62.403" cy="25" rx="24.907" ry="25" fill="#D7DF3B"/><path d="M20.484 72.332a5.127 5.127 0 00-5.121-5.121H5.121A5.127 5.127 0 000 72.33c0 1.492.642 2.837 1.663 3.774A5.108 5.108 0 000 79.878 5.127 5.127 0 005.121 85h10.242a5.127 5.127 0 005.121-5.12 5.107 5.107 0 00-1.663-3.774 5.108 5.108 0 001.663-3.773zm-2.695 7.546a2.429 2.429 0 01-2.426 2.426H5.12a2.429 2.429 0 01-2.426-2.426 2.429 2.429 0 012.426-2.425h10.242a2.428 2.428 0 012.426 2.425zM5.12 74.758a2.429 2.429 0 01-2.426-2.427 2.429 2.429 0 012.426-2.425h10.242a2.429 2.429 0 012.426 2.425 2.429 2.429 0 01-2.426 2.426H5.121zm39.639-9.973a5.127 5.127 0 00-5.121-5.121H29.396a5.127 5.127 0 00-5.121 5.12c0 1.493.641 2.837 1.663 3.774a5.108 5.108 0 000 7.547 5.109 5.109 0 00-1.663 3.773A5.127 5.127 0 0029.395 85h10.243a5.127 5.127 0 005.12-5.12 5.108 5.108 0 00-1.663-3.774 5.108 5.108 0 000-7.547 5.107 5.107 0 001.664-3.773zm-2.696 15.093a2.429 2.429 0 01-2.425 2.426H29.396a2.429 2.429 0 01-2.426-2.426 2.429 2.429 0 012.425-2.425h10.243a2.429 2.429 0 012.425 2.425zm0-7.546a2.429 2.429 0 01-2.425 2.425H29.396a2.429 2.429 0 01-2.426-2.425 2.429 2.429 0 012.425-2.426h10.243a2.429 2.429 0 012.425 2.426zM29.396 67.21a2.429 2.429 0 01-2.426-2.426 2.429 2.429 0 012.426-2.426h10.242a2.429 2.429 0 012.425 2.426 2.429 2.429 0 01-2.425 2.426H29.396zM69 64.785a5.108 5.108 0 00-1.663-3.773A5.109 5.109 0 0069 57.238a5.127 5.127 0 00-5.121-5.12H53.637a5.127 5.127 0 00-5.121 5.12c0 1.492.641 2.837 1.663 3.773a5.109 5.109 0 000 7.547 5.109 5.109 0 000 7.547 5.108 5.108 0 00-1.663 3.773 5.127 5.127 0 005.12 5.12H63.88a5.127 5.127 0 005.12-5.12 5.108 5.108 0 00-1.662-3.773 5.109 5.109 0 000-7.547A5.107 5.107 0 0069 64.785zm-17.79-7.547a2.428 2.428 0 012.426-2.426h10.242a2.429 2.429 0 012.426 2.426 2.429 2.429 0 01-2.426 2.426H53.637a2.428 2.428 0 01-2.426-2.426zm15.093 22.64a2.429 2.429 0 01-2.425 2.426H53.637a2.429 2.429 0 01-2.426-2.426 2.429 2.429 0 012.426-2.425h10.242a2.428 2.428 0 012.425 2.425zm0-7.546a2.429 2.429 0 01-2.425 2.425H53.637a2.429 2.429 0 01-2.426-2.425 2.429 2.429 0 012.426-2.426h10.242a2.428 2.428 0 012.425 2.426zM53.637 67.21a2.429 2.429 0 01-2.426-2.426 2.429 2.429 0 012.426-2.426h10.242a2.429 2.429 0 012.426 2.426 2.429 2.429 0 01-2.426 2.426H53.637zM1.348 56.91c.354 0 .702-.143.952-.394.251-.25.395-.599.395-.954s-.144-.703-.395-.953a1.358 1.358 0 00-.952-.395c-.355 0-.702.144-.953.395-.25.25-.395.598-.395.953s.144.702.395.954c.25.25.598.393.953.393z" fill="#9498A9"/><path d="M31.35 53.684l2.28 2.275a1.348 1.348 0 001.905-.002c3.822-3.82 21.34-21.344 25.81-25.814l2.385 2.385a1.347 1.347 0 002.272-.677l2.969-14.225a1.347 1.347 0 00-1.595-1.595l-14.225 2.97a1.348 1.348 0 00-.677 2.271l2.39 2.39a45939.883 45939.883 0 01-20.286 20.291l-10.81-10.809a1.348 1.348 0 00-1.905 0L3.826 51.18a1.348 1.348 0 001.906 1.906l17.084-17.084 10.808 10.81c.527.526 1.38.526 1.906 0a43231.76 43231.76 0 0022.192-22.198 1.348 1.348 0 000-1.906l-1.58-1.58 9.77-2.038-2.04 9.769-1.575-1.575a1.347 1.347 0 00-1.906 0c-1.425 1.427-20.044 20.05-25.81 25.816l-1.332-1.328-9.48-9.48a1.348 1.348 0 00-1.906 0L.395 63.76A1.348 1.348 0 002.3 65.665L22.816 45.15l8.533 8.534z" fill="#9498A9"/></symbol><symbol id="attendance-icon" viewBox="0 0 77 85" fill="none" xmlns="http://www.w3.org/2000/svg"><circle opacity=".5" cx="51.906" cy="25" r="25" fill="#D7DF3B"/><path d="M48.093 84.965H6.449A6.45 6.45 0 010 78.457V16.426A6.449 6.449 0 016.45 10h34.83a6.473 6.473 0 014.682 2.001l6.215 6.508a6.437 6.437 0 011.78 4.46v56.179A5.852 5.852 0 0148.103 85l-.011-.035zM6.449 12.34a4.11 4.11 0 00-4.108 4.108V78.48a4.108 4.108 0 004.108 4.085h41.608a3.511 3.511 0 003.512-3.512v-56.18a4.038 4.038 0 00-1.17-2.832l-6.145-6.425a4.141 4.141 0 00-2.973-1.276H6.449z" fill="#9498A9"/><path d="M17.24 42.772a8.778 8.778 0 118.779-8.779 8.801 8.801 0 01-8.778 8.779zm0-15.216a6.438 6.438 0 100 12.875 6.438 6.438 0 000-12.875z" fill="#9498A9"/><path d="M12.266 39.518l-1.849-1.428a8.777 8.777 0 0113.635-.223l-1.814 1.487a6.438 6.438 0 00-9.983.164h.011z" fill="#9498A9"/><path d="M17.323 37.06a3.885 3.885 0 110-7.77 3.885 3.885 0 010 7.77zm0-5.43a1.546 1.546 0 100 3.09 1.546 1.546 0 000-3.09zm-.083 38.166a8.778 8.778 0 118.779-8.778 8.79 8.79 0 01-8.778 8.778zm0-15.215a6.438 6.438 0 106.438 6.437 6.45 6.45 0 00-6.437-6.437z" fill="#9498A9"/><path d="M12.266 66.554l-1.849-1.451a8.778 8.778 0 0113.635-.222l-1.814 1.51a6.413 6.413 0 00-9.983.163h.011z" fill="#9498A9"/><path d="M17.323 64.085a3.885 3.885 0 110-7.77 3.885 3.885 0 010 7.77zm0-5.43a1.546 1.546 0 100 3.09 1.546 1.546 0 000-3.09zM30.9 33.993l6.238 6.239 8.157-12.489-8.157 7.011-6.239-.76zm-1.171 27.025l6.238 6.239 8.158-12.477-8.158 7.01-6.238-.772z" fill="#9498A9"/></symbol><symbol id="integrations-icon" viewBox="0 0 92 85" fill="none" xmlns="http://www.w3.org/2000/svg"><ellipse opacity=".5" cx="66.403" cy="25" rx="24.907" ry="25" fill="#D7DF3B"/><path d="M67.652 24.188h-7.54c-.323-3.572-3.334-6.38-6.989-6.38-3.654 0-6.665 2.808-6.988 6.38H31.082v-1.172A7.024 7.024 0 0024.064 16a7.024 7.024 0 00-7.016 7.016v1.172H9.536c-.744 0-1.348.604-1.348 1.348v7.513H7.016A7.024 7.024 0 000 40.065a7.024 7.024 0 007.016 7.016h1.172v15.963c0 .744.604 1.347 1.348 1.347h2.966a4.737 4.737 0 014.732 4.732 4.737 4.737 0 01-4.732 4.732H9.536c-.744 0-1.348.603-1.348 1.348v8.45c0 .744.604 1.347 1.348 1.347h58.116c.745 0 1.348-.603 1.348-1.348V25.536c0-.744-.603-1.348-1.348-1.348zm-20.197 2.696c.744 0 1.347-.604 1.347-1.348v-.712a4.326 4.326 0 014.321-4.321 4.326 4.326 0 014.321 4.32v.713c0 .744.604 1.348 1.348 1.348h7.513v10.695h-7.268a1.348 1.348 0 000 2.696h7.268v12.971h-7.513c-.744 0-1.348.604-1.348 1.348v4.327a4.326 4.326 0 01-4.32 4.321 4.326 4.326 0 01-4.322-4.32v-4.328c0-.744-.603-1.348-1.347-1.348h-7.513v-6.165h1.172a7.024 7.024 0 007.016-7.016 7.024 7.024 0 00-7.016-7.016h-1.172v-6.165h7.513zM7.016 44.386a4.326 4.326 0 01-4.32-4.32 4.326 4.326 0 014.32-4.322h2.52c.744 0 1.348-.603 1.348-1.347v-7.513h7.513c.744 0 1.347-.604 1.347-1.348v-2.52a4.326 4.326 0 014.321-4.32 4.326 4.326 0 014.321 4.32v2.52c0 .744.604 1.348 1.348 1.348h7.512v7.513c0 .744.604 1.347 1.348 1.347h2.52a4.326 4.326 0 014.32 4.321 4.326 4.326 0 01-4.32 4.321h-2.52c-.744 0-1.348.603-1.348 1.348v7.512H24.624V45.98a1.348 1.348 0 00-2.695 0v7.267H10.884v-7.512c0-.745-.604-1.348-1.348-1.348h-2.52zm3.868 32.164h1.618c4.096 0 7.428-3.331 7.428-7.427 0-4.095-3.332-7.427-7.428-7.427h-1.618v-5.754h26.362v7.515c0 .744.604 1.348 1.348 1.348h.797a4.323 4.323 0 014.319 4.318 4.323 4.323 0 01-4.319 4.319h-.797c-.744 0-1.348.603-1.348 1.347v7.516h-8.602v-7.268a1.348 1.348 0 10-2.695 0v7.268H10.884V76.55zm29.058 5.755v-6.19c3.61-.281 6.463-3.31 6.463-6.992s-2.852-6.71-6.463-6.992v-6.19h6.165v2.98a7.024 7.024 0 007.016 7.017 7.024 7.024 0 007.017-7.017v-2.98h6.165v15.967h-7.268a1.348 1.348 0 100 2.695h7.268v7.702H39.942z" fill="#9498A9"/><path d="M27.297 71.317a1.348 1.348 0 100-2.695 1.348 1.348 0 000 2.695zm26.673 3.286a1.348 1.348 0 100-2.695 1.348 1.348 0 000 2.695zm0-34.329a1.348 1.348 0 100-2.695 1.348 1.348 0 000 2.695zM23.277 42.26a1.348 1.348 0 100-2.696 1.348 1.348 0 000 2.695z" fill="#9498A9"/></symbol><symbol id="automation-icon" viewBox="0 0 113 85" fill="none" xmlns="http://www.w3.org/2000/svg"><ellipse opacity=".5" cx="78.403" cy="25" rx="24.907" ry="25" fill="#D7DF3B"/><path d="M80.86 82.856a17.578 17.578 0 110-35.157 17.578 17.578 0 010 35.157zm0-32.813a15.235 15.235 0 100 30.47 15.235 15.235 0 000-30.47z" fill="#9498A9"/><path d="M76.617 74.148a1.7 1.7 0 01-.808-.21A1.652 1.652 0 0175 72.53V58.47a1.595 1.595 0 01.809-1.395 1.629 1.629 0 011.617 0l12.164 7.032a1.652 1.652 0 01.808 1.406 1.63 1.63 0 01-.82 1.406l-12.14 7.031a1.711 1.711 0 01-.82.2zm.727-14.402v11.531l9.984-5.765-9.984-5.766zM51.785 78.25a1.17 1.17 0 01-1.066-.691l-2.344-5.098a26.581 26.581 0 01-2.695-.27l-3.633 4.536a1.172 1.172 0 01-1.172.398 34.262 34.262 0 01-7.57-3.059 1.171 1.171 0 01-.598-1.171l.809-5.473a28.811 28.811 0 01-2.555-2.05l-5.45 1.827a1.171 1.171 0 01-1.253-.34 34.365 34.365 0 01-4.524-6.503 1.172 1.172 0 01.188-1.383l3.633-4.207a26.435 26.435 0 01-1.172-3.516l-5.45-1.406a1.171 1.171 0 01-.878-.973 34.946 34.946 0 01-.317-4.687c0-1.02 0-2.063.152-3.164a1.172 1.172 0 01.832-1.02l5.426-1.57a27.37 27.37 0 011.008-3.61l-3.855-4.101a1.171 1.171 0 01-.2-1.313 34.744 34.744 0 014.207-6.515 1.172 1.172 0 011.301-.399l5.461 1.63a28.109 28.109 0 012.66-2.345l-1.09-5.437a1.172 1.172 0 01.551-1.172 33.658 33.658 0 017.313-3.305 1.172 1.172 0 011.242.352l3.785 4.336c.993-.182 1.994-.31 3-.387l2.145-5.156a1.171 1.171 0 011.171-.727c2.775.083 5.53.5 8.204 1.242a1.172 1.172 0 01.843.973l.75 5.707c.774.328 1.524.668 2.227 1.043l4.605-3.21a1.172 1.172 0 011.325 0 34.607 34.607 0 016.433 5.683 1.172 1.172 0 01.188 1.265l-2.438 5.286c.399.562.75 1.113 1.078 1.652l5.625-.211a1.17 1.17 0 011.172.691 33.917 33.917 0 012.508 8.368 1.172 1.172 0 01-.527 1.171l-4.864 3.106v2.379l-2.343-.094v-1.113c0-.48 0-.961-.07-1.442v-.316a1.172 1.172 0 01.538-1.066l4.758-3a30.808 30.808 0 00-1.886-6.317l-5.532.188a1.173 1.173 0 01-1.066-.598 27.65 27.65 0 00-1.688-2.613 1.172 1.172 0 01-.117-1.172l2.344-5.192a31.157 31.157 0 00-4.817-4.242l-4.476 3.176a1.172 1.172 0 01-1.242.059 25.86 25.86 0 00-3.235-1.512 1.171 1.171 0 01-.726-.926l-.797-5.66a32.319 32.319 0 00-6.094-.938l-2.086 5.086a1.172 1.172 0 01-1.031.727 25.776 25.776 0 00-4.066.516 1.172 1.172 0 01-1.172-.387l-3.656-4.3a32.698 32.698 0 00-5.391 2.425l1.031 5.414a1.171 1.171 0 01-.469 1.172 25.898 25.898 0 00-3.457 2.976 1.172 1.172 0 01-1.172.305l-5.449-1.617a31.795 31.795 0 00-3.07 4.84l3.785 4.043a1.171 1.171 0 01.234 1.172 25.781 25.781 0 00-1.277 4.593 1.172 1.172 0 01-.832.914l-5.332 1.547c0 .739-.07 1.453-.07 2.157a30.434 30.434 0 00.199 3.515l5.414 1.36a1.172 1.172 0 01.855.878 25.322 25.322 0 001.477 4.547 1.171 1.171 0 01-.187 1.172l-3.61 4.137a31.558 31.558 0 003.317 4.77l5.355-1.805a1.172 1.172 0 011.172.258 25.685 25.685 0 003.375 2.707 1.17 1.17 0 01.516 1.171l-.774 5.45a31.31 31.31 0 005.602 2.261l3.574-4.453a1.173 1.173 0 011.113-.422c1.252.213 2.517.334 3.785.364a1.172 1.172 0 011.043.691l2.262 5.016a32.815 32.815 0 006.211-1.172l.586-5.684 2.344.246-.739 6.457a1.173 1.173 0 01-.808.996 33.879 33.879 0 01-8.309 1.547l-.035.012z" fill="#9498A9"/></symbol><symbol id="documents-img" viewBox="0 0 110 85" fill="none" xmlns="http://www.w3.org/2000/svg"><circle opacity=".5" cx="85" cy="25" r="25" fill="#D7DF3B"/><path d="M23.276 64.31H2.586A2.586 2.586 0 010 61.724v-41.38a2.586 2.586 0 012.586-2.585h20.69v2.586H2.586v41.38h20.69v2.585z" fill="#9498A9"/><path d="M23.276 38.448H10.345a2.586 2.586 0 01-2.586-2.586v-7.759a2.586 2.586 0 012.586-2.586h12.93v2.587h-12.93v7.758h12.93v2.586zm-2.586 7.759H9.052a1.293 1.293 0 110-2.586H20.69a1.293 1.293 0 110 2.586zm-3.88 7.759H9.052a1.293 1.293 0 110-2.587h7.758a1.293 1.293 0 110 2.587zM98.276 85H67.24a2.586 2.586 0 01-2.586-2.586V72.069h2.586v10.345h31.035v-41.38H72.414v-2.586h25.862a2.588 2.588 0 012.586 2.586v41.38A2.586 2.586 0 0198.276 85z" fill="#9498A9"/><path d="M90.517 59.138H75a2.586 2.586 0 01-2.586-2.586v-7.759A2.586 2.586 0 0175 46.207h15.517a2.586 2.586 0 012.587 2.586v7.759a2.586 2.586 0 01-2.587 2.586zM75 48.793v7.759h15.517v-7.759H75zm16.81 18.104H73.707a1.293 1.293 0 110-2.587H91.81a1.293 1.293 0 110 2.587zm-7.758 7.758H73.707a1.293 1.293 0 010-2.586h10.345a1.293 1.293 0 010 2.586zm-16.811-5.172H28.448a2.586 2.586 0 01-2.586-2.586v-54.31A2.586 2.586 0 0128.448 10h38.793a2.586 2.586 0 012.587 2.586v54.31a2.586 2.586 0 01-2.587 2.587zM28.448 12.586v54.31h38.793v-54.31H28.448z" fill="#9498A9"/><path d="M59.483 38.448H36.207a2.586 2.586 0 01-2.586-2.586V20.345a2.586 2.586 0 012.586-2.586h23.276a2.586 2.586 0 012.586 2.586v15.517a2.586 2.586 0 01-2.586 2.586zM36.207 20.345v15.517h23.276V20.345H36.207zm24.569 25.862H34.914a1.293 1.293 0 110-2.586h25.862a1.293 1.293 0 110 2.586zm-12.931 7.681H34.914a1.293 1.293 0 010-2.586h12.93a1.293 1.293 0 110 2.586zM23.276 43.62H20.69v2.587h2.586V43.62z" fill="#9498A9"/></symbol><symbol id="puzzle-3" viewBox="0 0 133 136" fill="none" xmlns="http://www.w3.org/2000/svg"><g opacity=".5" filter="url(#filter0_d_1180_1804)"><path fill-rule="evenodd" clip-rule="evenodd" d="M98.26 4.206L8.457 30.726l8.84 29.933c8.266-2.44 16.946 2.281 19.387 10.547 2.441 8.266-2.28 16.946-10.546 19.387l8.84 29.933 29.933-8.84c2.441 8.266 11.121 12.988 19.387 10.547 8.266-2.441 12.988-11.121 10.547-19.387l29.933-8.84-8.84-29.933c-8.266 2.44-16.945-2.281-19.387-10.547-2.44-8.266 2.281-16.946 10.547-19.387l-8.84-29.933z" fill="#A1D7A6"/><g clip-path="url(#clip0_1180_1804)" fill="#fff"><path d="M58.18 42.88l5.125 2.789 2.829-9.432-3.852 5.966-4.102.678zm10.785 21.025a5.39 5.39 0 113.644-6.697 5.398 5.398 0 01-3.644 6.697zm-2.64-8.938a3.928 3.928 0 104.88 2.655 3.936 3.936 0 00-4.88-2.655z"/><path d="M79.971 75.346l-13.996 4.133a1.463 1.463 0 01-1.817-.989l-2.114-7.156c-1.03-3.357 1.916-7.278 6.56-8.65 4.645-1.371 9.248.32 10.243 3.688l2.113 7.156a1.463 1.463 0 01-.989 1.818zM69.02 64.088c-3.866 1.141-6.394 4.176-5.607 6.842l2.114 7.156 14.031-4.144-2.113-7.155c-.777-2.631-4.56-3.84-8.425-2.7zm-3.587-13.434a9.342 9.342 0 01-11.463-6.53 9.341 9.341 0 016.077-11.71 9.342 9.342 0 0111.463 6.53 9.341 9.341 0 01-6.077 11.71zm-4.972-16.837a7.878 7.878 0 00-5.087 9.892 7.878 7.878 0 009.645 5.542 7.878 7.878 0 005.087-9.892 7.878 7.878 0 00-9.645-5.542zm-5.698 31.071a4.96 4.96 0 113.345-6.159 4.967 4.967 0 01-3.345 6.16zM52.374 56.8a3.497 3.497 0 101.967 6.711 3.497 3.497 0 00-1.967-6.71z"/><path d="M61.89 76.109l-9.821 2.9a1.419 1.419 0 01-1.8-.925L48.357 71.6c-.925-3.129 1.777-6.688 6.043-7.947 2.883-.852 5.835-.465 7.72 1.014l-.904 1.145c-1.49-1.17-4.003-1.465-6.402-.756-3.473 1.025-5.75 3.773-5.054 6.13l1.895 6.42 9.822-2.901.415 1.403zm19.47-19.075a4.96 4.96 0 11-2.81-9.513 4.96 4.96 0 012.81 9.513zm-2.393-8.103a3.497 3.497 0 104.341 2.356 3.496 3.496 0 00-4.337-2.342l-.004-.014z"/><path d="M91.314 67.42l-9.78 2.888-.414-1.404 9.78-2.888.042-.012-1.896-6.42c-.684-2.315-4.178-3.403-7.637-2.382-2.4.709-4.348 2.322-4.957 4.11l-1.388-.466c.78-2.267 3.047-4.195 5.93-5.047 4.273-1.262 8.531.242 9.455 3.371l1.915 6.483a1.463 1.463 0 01-1.05 1.766z"/></g><path d="M63.097 90.17l2.422-.715 1.963 6.647 1.409-.416-1.964-6.647 2.423-.715-.352-1.19-6.253 1.847.352 1.19zm8.184-3.71l2.315 7.837 1.362-.402-1.593-5.396.072-.021 3.753 4.733 1.018-.301.583-6.001.072-.021 1.59 5.384 1.363-.403-2.315-7.837-1.737.513-.65 6.366-.092.028-4.003-4.992-1.738.513zm15.74-2.306l1.365-.403c-.417-1.317-1.823-1.92-3.492-1.428-1.645.486-2.608 1.777-2.195 3.161.332 1.125 1.323 1.536 2.711 1.488l.96-.034c.909-.035 1.545.064 1.729.671.194.671-.31 1.306-1.235 1.58-.888.262-1.695.067-1.995-.738l-1.397.412c.518 1.54 1.936 2.075 3.761 1.535 1.88-.554 2.693-1.814 2.289-3.197-.405-1.357-1.71-1.646-2.97-1.577l-.79.033c-.688.037-1.464-.029-1.65-.686-.17-.59.23-1.178 1.118-1.44.846-.25 1.52-.021 1.79.623z" fill="#fff"/></g><defs><clipPath id="clip0_1180_1804"><path fill="#fff" transform="rotate(-16.453 159.131 -73.818)" d="M0 0h70.226v46.817H0z"/></clipPath><filter id="filter0_d_1180_1804" x=".458" y=".206" width="132.321" height="134.671" filterUnits="userSpaceOnUse" color-interpolation-filters="sRGB"><feFlood flood-opacity="0" result="BackgroundImageFix"/><feColorMatrix in="SourceAlpha" values="0 0 0 0 0 0 0 0 0 0 0 0 0 0 0 0 0 0 127 0" result="hardAlpha"/><feOffset dy="4"/><feGaussianBlur stdDeviation="4"/><feComposite in2="hardAlpha" operator="out"/><feColorMatrix values="0 0 0 0 0 0 0 0 0 0 0 0 0 0 0 0 0 0 0.1 0"/><feBlend in2="BackgroundImageFix" result="effect1_dropShadow_1180_1804"/><feBlend in="SourceGraphic" in2="effect1_dropShadow_1180_1804" result="shape"/></filter></defs></symbol><symbol id="puzzle_composed" viewBox="0 0 615 462" fill="none" xmlns="http://www.w3.org/2000/svg"><g opacity=".5"><g filter="url(#filter0_d_1228_1803)"><path fill-rule="evenodd" clip-rule="evenodd" d="M307 300h-50c0-13.807-11.193-25-25-25s-25 11.193-25 25h-50v50c-13.807 0-25 11.193-25 25s11.193 25 25 25v50h150v-50c-13.807 0-25-11.193-25-25s11.193-25 25-25v-50z" fill="#A1D7A6"/><path d="M260.535 332.9h-8.197c-.35-3.882-3.623-6.935-7.595-6.935-3.973 0-7.246 3.053-7.596 6.935h-16.363v-1.274c0-4.205-3.421-7.626-7.626-7.626s-7.627 3.421-7.627 7.626v1.274h-8.166c-.809 0-1.465.656-1.465 1.465v8.166h-1.273c-4.206 0-7.627 3.421-7.627 7.627 0 4.205 3.421 7.626 7.626 7.626h1.274v17.351c0 .809.656 1.464 1.465 1.464h3.225a5.15 5.15 0 015.143 5.144 5.15 5.15 0 01-5.143 5.143h-3.225c-.809 0-1.465.656-1.465 1.465v9.184c0 .809.656 1.465 1.465 1.465h63.17c.809 0 1.465-.656 1.465-1.465v-63.17c0-.809-.656-1.465-1.465-1.465zm-21.954 2.93c.809 0 1.465-.656 1.465-1.465v-.774a4.702 4.702 0 014.697-4.697 4.702 4.702 0 014.696 4.697v.774c0 .809.656 1.465 1.465 1.465h8.166v11.626h-7.9a1.465 1.465 0 000 2.929h7.9v14.1h-8.166c-.808 0-1.464.656-1.464 1.465v4.704a4.702 4.702 0 01-4.697 4.696 4.702 4.702 0 01-4.697-4.696v-4.704c0-.809-.656-1.465-1.465-1.465h-8.166v-6.701h1.274c4.205 0 7.626-3.421 7.626-7.626 0-4.206-3.421-7.627-7.626-7.627h-1.274v-6.701h8.166zm-43.955 19.024a4.701 4.701 0 01-4.696-4.696 4.702 4.702 0 014.696-4.697h2.739c.809 0 1.465-.656 1.465-1.465v-8.166h8.166c.809 0 1.465-.656 1.465-1.465v-2.739a4.702 4.702 0 014.697-4.696 4.702 4.702 0 014.697 4.696v2.739c0 .809.656 1.465 1.464 1.465h8.166v8.166c0 .809.656 1.465 1.465 1.465h2.739a4.702 4.702 0 014.697 4.697 4.701 4.701 0 01-4.697 4.696h-2.739c-.809 0-1.465.656-1.465 1.465v8.166h-13.719v-7.9a1.464 1.464 0 00-2.93 0v7.9H198.83v-8.166c0-.809-.656-1.465-1.465-1.465h-2.739zm4.204 34.962h1.76c4.451 0 8.073-3.622 8.073-8.073 0-4.452-3.622-8.073-8.073-8.073h-1.76v-6.255h28.655v8.169c0 .809.656 1.465 1.465 1.465h.867a4.699 4.699 0 014.694 4.694 4.699 4.699 0 01-4.694 4.693h-.867c-.809 0-1.465.656-1.465 1.465v8.169h-9.35v-7.9a1.464 1.464 0 00-2.929 0v7.9H198.83v-6.254zm31.585 6.254v-6.727c3.925-.306 7.025-3.598 7.025-7.6 0-4.003-3.1-7.294-7.025-7.601v-6.727h6.701v3.239c0 4.205 3.421 7.626 7.627 7.626 4.205 0 7.626-3.421 7.626-7.626v-3.239h6.701v17.355h-7.9a1.464 1.464 0 000 2.929h7.9v8.371h-28.655z" fill="#fff"/><path d="M216.67 384.127a1.464 1.464 0 10.001-2.929 1.464 1.464 0 00-.001 2.929zm28.993 3.572a1.464 1.464 0 100-2.929 1.464 1.464 0 000 2.929zm0-37.314a1.464 1.464 0 100-2.929 1.464 1.464 0 000 2.929zm-33.362 2.158a1.465 1.465 0 100-2.93 1.465 1.465 0 000 2.93zM213.398 422l1.08-3.228h4.922l1.087 3.228h2.531l-4.615-13.091h-2.928L210.867 422h2.531zm1.719-5.133l1.771-5.273h.102l1.771 5.273h-3.644zM226.542 422h2.372v-4.423h2.505c3.024 0 4.647-1.816 4.647-4.334 0-2.499-1.604-4.334-4.615-4.334h-4.909V422zm2.372-6.373v-4.736h2.173c1.777 0 2.563.958 2.563 2.352 0 1.393-.786 2.384-2.55 2.384h-2.186zm13.384-6.718h-2.372V422h2.372v-13.091z" fill="#fff"/></g><g filter="url(#filter1_d_1228_1803)"><path fill-rule="evenodd" clip-rule="evenodd" d="M557 300c0 13.807-11.193 25-25 25s-25-11.193-25-25h-50v50c-13.807 0-25 11.193-25 25s11.193 25 25 25v50h150V300h-50z" fill="#A1D7A6"/><path d="M559.121 410.606a17.58 17.58 0 01-16.24-10.844 17.555 17.555 0 013.81-19.144 17.586 17.586 0 0127.046 2.662 17.562 17.562 0 01-2.186 22.181 17.587 17.587 0 01-12.43 5.145zm0-32.791c-3.013 0-5.958.893-8.464 2.566a15.222 15.222 0 005.492 27.59 15.242 15.242 0 0015.639-6.473 15.22 15.22 0 00-1.895-19.224 15.238 15.238 0 00-10.772-4.459z" fill="#fff"/><path d="M554.879 401.904a1.696 1.696 0 01-.809-.21 1.65 1.65 0 01-.808-1.406v-14.053a1.6 1.6 0 01.808-1.394 1.64 1.64 0 011.618 0l12.164 7.027a1.65 1.65 0 01.808 1.405 1.625 1.625 0 01-.82 1.406l-12.141 7.026a1.697 1.697 0 01-.82.199zm.726-14.392v11.523l9.985-5.762-9.985-5.761zm-25.558 18.491a1.179 1.179 0 01-1.067-.691l-2.343-5.094a26.776 26.776 0 01-2.696-.269l-3.632 4.532a1.171 1.171 0 01-1.172.398 34.329 34.329 0 01-7.571-3.056 1.174 1.174 0 01-.597-1.172l.808-5.469a28.88 28.88 0 01-2.554-2.049l-5.45 1.827a1.175 1.175 0 01-1.253-.34 34.333 34.333 0 01-4.524-6.499 1.17 1.17 0 01.188-1.382l3.632-4.205a26.313 26.313 0 01-1.171-3.513l-5.45-1.405a1.178 1.178 0 01-.879-.972 34.96 34.96 0 01-.316-4.685c0-1.019 0-2.061.152-3.162a1.171 1.171 0 01.832-1.019l5.426-1.569a27.175 27.175 0 011.008-3.607l-3.855-4.099a1.166 1.166 0 01-.2-1.311 34.734 34.734 0 014.207-6.512 1.176 1.176 0 011.301-.398l5.461 1.628a28.161 28.161 0 012.66-2.342l-1.09-5.434a1.177 1.177 0 01.551-1.171 33.657 33.657 0 017.313-3.303 1.18 1.18 0 01.674-.011c.22.063.418.189.568.362l3.785 4.334a28.545 28.545 0 013-.387l2.145-5.153a1.168 1.168 0 011.171-.726c2.775.083 5.529.5 8.204 1.242a1.17 1.17 0 01.843.972l.75 5.703c.774.328 1.524.667 2.227 1.042l4.605-3.209a1.176 1.176 0 011.325 0 34.578 34.578 0 016.433 5.68 1.165 1.165 0 01.188 1.265l-2.438 5.282c.399.562.75 1.112 1.078 1.651l5.625-.211a1.173 1.173 0 011.172.691 33.894 33.894 0 012.508 8.362 1.166 1.166 0 01-.527 1.171l-4.864 3.103v2.378l-2.343-.094v-1.113c0-.48 0-.96-.071-1.44v-.316a1.171 1.171 0 01.539-1.066l4.758-2.998a30.757 30.757 0 00-1.887-6.312l-5.531.187a1.168 1.168 0 01-1.066-.597 27.566 27.566 0 00-1.688-2.612 1.164 1.164 0 01-.117-1.171l2.344-5.188a31.077 31.077 0 00-4.817-4.239l-4.476 3.173a1.164 1.164 0 01-1.242.059 25.987 25.987 0 00-3.235-1.511 1.166 1.166 0 01-.726-.925l-.797-5.656a32.268 32.268 0 00-6.094-.937l-2.086 5.082a1.17 1.17 0 01-1.031.726 25.777 25.777 0 00-4.067.516 1.171 1.171 0 01-1.171-.387l-3.657-4.298a32.666 32.666 0 00-5.39 2.425l1.031 5.41a1.169 1.169 0 01-.469 1.171 25.984 25.984 0 00-3.457 2.975 1.18 1.18 0 01-1.172.304l-5.449-1.616a31.715 31.715 0 00-3.07 4.837l3.785 4.04a1.166 1.166 0 01.234 1.171 25.84 25.84 0 00-1.277 4.591 1.17 1.17 0 01-.832.913l-5.332 1.546c0 .738-.07 1.452-.07 2.155a30.318 30.318 0 00.199 3.513l5.414 1.359a1.17 1.17 0 01.855.878 25.28 25.28 0 001.477 4.544 1.168 1.168 0 01-.188 1.171l-3.609 4.134a31.622 31.622 0 003.316 4.767l5.356-1.804a1.17 1.17 0 011.172.258c1.047.995 2.176 1.9 3.375 2.705a1.175 1.175 0 01.515 1.171l-.773 5.446a31.309 31.309 0 005.602 2.26l3.574-4.45a1.172 1.172 0 011.113-.422c1.251.212 2.516.334 3.785.363a1.177 1.177 0 011.043.691l2.262 5.013a32.875 32.875 0 006.211-1.171l.586-5.68 2.344.246-.739 6.452a1.167 1.167 0 01-.808.996 33.91 33.91 0 01-8.309 1.546l-.035.011zM522.093 432l1.08-3.228h4.922l1.087 3.228h2.531l-4.615-13.091h-2.928L519.562 432h2.531zm1.719-5.133l1.771-5.273h.102l1.771 5.273h-3.644zM535.237 432h8.565v-1.988h-6.193v-3.573h5.701v-1.988h-5.701v-3.554h6.142v-1.988h-8.514V432z" fill="#fff"/></g><g filter="url(#filter2_d_1228_1803)"><path fill-rule="evenodd" clip-rule="evenodd" d="M108 300h50v50c-13.807 0-25 11.193-25 25s11.193 25 25 25v50H8V300h50c0-13.807 11.193-25 25-25s25 11.193 25 25z" fill="#96C0D0"/><path d="M46.276 386.31h-20.69A2.586 2.586 0 0123 383.724v-41.379a2.587 2.587 0 012.586-2.586h20.69v2.586h-20.69v41.379h20.69v2.586z" fill="#fff"/><path d="M46.276 360.448H33.345a2.586 2.586 0 01-2.586-2.586v-7.758a2.587 2.587 0 012.586-2.587h12.931v2.587H33.345v7.758h12.931v2.586zm-2.586 7.759H32.052a1.291 1.291 0 01-1.293-1.293 1.295 1.295 0 011.293-1.293H43.69a1.295 1.295 0 011.293 1.293 1.291 1.291 0 01-1.293 1.293zm-3.88 7.759h-7.758a1.295 1.295 0 01-1.293-1.294 1.295 1.295 0 011.293-1.293h7.758a1.295 1.295 0 011.294 1.293 1.295 1.295 0 01-1.294 1.294zM121.276 407H90.242a2.587 2.587 0 01-2.587-2.586v-10.345h2.587v10.345h31.034v-41.38H95.414v-2.586h25.862a2.587 2.587 0 012.586 2.586v41.38a2.584 2.584 0 01-2.586 2.586z" fill="#fff"/><path d="M113.518 381.138H98a2.587 2.587 0 01-2.586-2.586v-7.759A2.587 2.587 0 0198 368.207h15.518a2.586 2.586 0 012.586 2.586v7.759a2.585 2.585 0 01-2.586 2.586zM98 370.793v7.759h15.518v-7.759H98zm16.811 18.104H96.707a1.295 1.295 0 01-1.293-1.294 1.293 1.293 0 011.293-1.293h18.104a1.295 1.295 0 011.293 1.293 1.298 1.298 0 01-1.293 1.294zm-7.759 7.758H96.707a1.291 1.291 0 01-.914-2.207 1.29 1.29 0 01.914-.379h10.345c.343 0 .672.136.914.379a1.29 1.29 0 010 1.828 1.29 1.29 0 01-.914.379zm-16.81-5.172H51.448a2.587 2.587 0 01-2.586-2.586v-54.311A2.587 2.587 0 0151.45 332h38.793a2.586 2.586 0 012.586 2.586v54.311a2.586 2.586 0 01-2.586 2.586zm-38.794-56.897v54.311h38.794v-54.311H51.448z" fill="#fff"/><path d="M82.483 360.448H59.207a2.586 2.586 0 01-2.586-2.586v-15.517a2.587 2.587 0 012.586-2.586h23.276a2.586 2.586 0 012.586 2.586v15.517a2.587 2.587 0 01-2.586 2.586zm-23.276-18.103v15.517h23.276v-15.517H59.207zm24.569 25.862H57.914a1.291 1.291 0 01-1.293-1.293 1.295 1.295 0 011.293-1.293h25.862a1.294 1.294 0 011.293 1.293 1.291 1.291 0 01-1.293 1.293zm-12.931 7.681H57.914a1.291 1.291 0 01-.915-2.207c.243-.243.572-.379.915-.379h12.93a1.291 1.291 0 01.915 2.207 1.291 1.291 0 01-.914.379zm-24.569-10.267h-2.587v2.586h2.587v-2.586zM36.905 416c3.988 0 6.353-2.467 6.353-6.558 0-4.078-2.365-6.533-6.264-6.533H32.47V416h4.436zm-2.065-2.052v-8.987h2.02c2.66 0 4.046 1.483 4.046 4.481 0 3.01-1.387 4.506-4.116 4.506h-1.95zm12.472-11.039V416h2.275v-9.013h.122l3.618 8.975h1.7l3.618-8.956h.121V416h2.276v-13.091H58.14l-3.886 9.486H54.1l-3.886-9.486h-2.902zm25.227 3.599h2.281c-.044-2.212-1.93-3.778-4.717-3.778-2.748 0-4.813 1.547-4.807 3.861 0 1.879 1.336 2.959 3.49 3.516l1.49.383c1.412.358 2.346.799 2.352 1.815-.006 1.119-1.067 1.867-2.614 1.867-1.483 0-2.634-.665-2.73-2.039h-2.333c.096 2.601 2.033 4.065 5.082 4.065 3.138 0 4.96-1.566 4.966-3.873-.006-2.27-1.879-3.305-3.847-3.772l-1.228-.307c-1.074-.255-2.237-.709-2.224-1.802.006-.984.888-1.707 2.371-1.707 1.413 0 2.346.659 2.468 1.771z" fill="#fff"/></g><g filter="url(#filter3_d_1228_1803)"><path fill-rule="evenodd" clip-rule="evenodd" d="M207 153h-50v50c13.807 0 25 11.193 25 25s-11.193 25-25 25v50h50c0-13.807 11.193-25 25-25s25 11.193 25 25h50v-50c13.807 0 25-11.193 25-25s-11.193-25-25-25v-50h-50c0-13.807-11.193-25-25-25s-25 11.193-25 25z" fill="#fff"/><path d="M216.802 254.897h4.046V266h2.352v-11.103h4.046v-1.988h-10.444v1.988zm17.452 11.295c1.157 0 2.442-.358 3.356-1.151l.837.959h2.506l-1.918-2.244c.64-.856 1.138-2.128 1.138-3.924h-1.988a4.82 4.82 0 01-.549 2.282l-2.391-2.8.825-.607c1.093-.793 1.738-1.745 1.738-2.985 0-1.598-1.259-2.973-3.324-2.973-2.071 0-3.432 1.375-3.432 3.235 0 1.169.588 2.122 1.342 3.055-1.457 1.004-2.454 1.943-2.454 3.484 0 2.084 1.636 3.669 4.314 3.669zm2.097-2.595c-.62.447-1.33.69-2.027.69-1.284 0-2.115-.831-2.115-1.867 0-.453.345-1.137 1.214-1.777l.211-.153 2.717 3.107zm-2.289-5.696c-.549-.677-.946-1.285-.946-1.885 0-.71.563-1.368 1.4-1.368.825 0 1.33.613 1.33 1.176 0 .665-.358 1.131-1.042 1.572l-.742.505zM245.861 266l1.08-3.228h4.922L252.95 266h2.531l-4.615-13.091h-2.927L243.33 266h2.531zm1.72-5.133l1.77-5.273h.102l1.771 5.273h-3.643zm11.511-13.902h-41.643a6.441 6.441 0 01-4.581-1.91 6.465 6.465 0 01-1.394-2.112 6.473 6.473 0 01-.474-2.486v-62.031a6.45 6.45 0 016.449-6.426h34.832a6.479 6.479 0 014.681 2.001l6.215 6.508a6.437 6.437 0 011.779 4.459v56.18a5.85 5.85 0 01-5.852 5.852l-.012-.035zm-41.643-72.624a4.102 4.102 0 00-2.905 1.203 4.107 4.107 0 00-1.203 2.905v62.032a4.11 4.11 0 004.108 4.085h41.608c.932 0 1.825-.37 2.483-1.029a3.508 3.508 0 001.029-2.483v-56.179a4.041 4.041 0 00-1.171-2.833l-6.144-6.425a4.14 4.14 0 00-2.973-1.276h-34.832z" fill="#9498A9"/><path d="M228.24 204.772a8.771 8.771 0 01-4.876-1.48 8.771 8.771 0 01-1.331-13.506 8.771 8.771 0 0113.506 1.331 8.771 8.771 0 011.48 4.876 8.805 8.805 0 01-8.779 8.779zm0-15.216a6.44 6.44 0 00-5.947 3.974 6.442 6.442 0 001.396 7.015 6.442 6.442 0 009.904-.975 6.433 6.433 0 00-.801-8.128 6.433 6.433 0 00-4.552-1.886z" fill="#9498A9"/><path d="M223.266 201.518l-1.849-1.428a8.784 8.784 0 0110.555-2.569 8.786 8.786 0 013.08 2.346l-1.814 1.487a6.433 6.433 0 00-5.031-2.292 6.428 6.428 0 00-4.952 2.456h.011z" fill="#9498A9"/><path d="M228.322 199.06a3.888 3.888 0 01-3.811-4.644 3.886 3.886 0 113.811 4.644zm0-5.431a1.544 1.544 0 00-1.515 1.847 1.538 1.538 0 001.214 1.213 1.543 1.543 0 001.846-1.515 1.545 1.545 0 00-1.545-1.545zm-.082 38.167a8.77 8.77 0 01-8.109-5.418 8.771 8.771 0 011.902-9.567 8.786 8.786 0 019.567-1.903 8.781 8.781 0 015.419 8.11 8.794 8.794 0 01-8.779 8.778zm0-15.215a6.44 6.44 0 00-5.947 3.974 6.44 6.44 0 001.396 7.015 6.435 6.435 0 009.904-.975 6.444 6.444 0 001.085-3.577 6.45 6.45 0 00-6.438-6.437z" fill="#9498A9"/><path d="M223.266 228.554l-1.849-1.451a8.776 8.776 0 0113.635-.222l-1.814 1.509a6.413 6.413 0 00-9.983.164h.011z" fill="#9498A9"/><path d="M228.322 226.085a3.888 3.888 0 01-3.811-4.644 3.886 3.886 0 113.811 4.644zm0-5.431a1.545 1.545 0 10.002 3.089 1.545 1.545 0 00-.002-3.089zm13.577-24.661l6.239 6.239 8.157-12.489-8.157 7.011-6.239-.761zm-1.17 27.025l6.238 6.239 8.158-12.477-8.158 7.011-6.238-.773z" fill="#9498A9"/></g><g filter="url(#filter4_d_1228_1803)"><path fill-rule="evenodd" clip-rule="evenodd" d="M507 152h-50v50c13.807 0 25 11.193 25 25s-11.193 25-25 25v50h50c0 13.807 11.193 25 25 25s25-11.193 25-25h50V152h-50c0-13.807-11.193-25-25-25s-25 11.193-25 25z" fill="#E6ECEC"/><g clip-path="url(#clip0_1228_1803)" fill="#9498A9"><path d="M561.585 227.188a9.972 9.972 0 01-5.553-1.691 10.02 10.02 0 01-3.68-4.502 10.059 10.059 0 012.166-10.932 9.98 9.98 0 015.117-2.745 9.952 9.952 0 015.774.571 10.003 10.003 0 014.485 3.694 10.06 10.06 0 011.684 5.573 10.064 10.064 0 01-2.93 7.09 9.99 9.99 0 01-7.063 2.942zm0-17.719a7.642 7.642 0 00-4.255 1.295 7.68 7.68 0 00-2.821 3.45 7.71 7.71 0 001.66 8.378 7.64 7.64 0 0011.784-1.165 7.71 7.71 0 00-.953-9.707 7.645 7.645 0 00-5.415-2.251z"/><path d="M576.12 254h-27.459a2.561 2.561 0 01-2.402-1.548 2.585 2.585 0 01-.214-.983v-13.875c0-6.492 7.332-11.719 16.345-11.719 9.014 0 16.345 5.273 16.345 11.719v13.828a2.564 2.564 0 01-.768 1.84 2.559 2.559 0 01-1.847.738zm-13.73-25.781c-7.728 0-14.01 4.218-14.01 9.375v13.828c0 .094.117.187.281.187h27.459c.164 0 .28-.093.28-.187v-13.828c0-5.157-6.281-9.375-14.01-9.375zm-27.565-8.285a9.317 9.317 0 01-5.189-1.58 9.374 9.374 0 01-3.44-4.208 9.4 9.4 0 012.025-10.217 9.321 9.321 0 0110.179-2.032 9.349 9.349 0 014.191 3.453 9.395 9.395 0 011.574 5.209 9.395 9.395 0 01-2.735 6.629 9.324 9.324 0 01-6.605 2.746zm0-16.325a6.99 6.99 0 00-3.891 1.185 7.05 7.05 0 00-1.062 10.818 6.983 6.983 0 007.634 1.525 7.02 7.02 0 003.144-2.59 7.047 7.047 0 001.18-3.906 7.046 7.046 0 00-2.051-4.972 6.993 6.993 0 00-4.954-2.06z"/><path d="M543.71 244.625h-20.851a2.46 2.46 0 01-1.748-.695 2.479 2.479 0 01-.751-1.731v-12.738c0-6.024 6.807-10.922 15.178-10.922 7.215 0 13.309 3.516 14.827 8.566l-2.23.68c-1.167-3.996-6.503-6.902-12.597-6.902-7.087 0-12.843 3.844-12.843 8.578v12.738s0 .082.164.082h20.851v2.344zm-33.367-32.062a8.617 8.617 0 01-4.8-1.462 8.67 8.67 0 01-3.182-3.892 8.694 8.694 0 011.873-9.45 8.615 8.615 0 019.415-1.88 8.649 8.649 0 013.878 3.194 8.696 8.696 0 011.456 4.818 8.7 8.7 0 01-2.534 6.128 8.638 8.638 0 01-6.106 2.544zm0-14.989a6.289 6.289 0 00-3.504 1.068 6.318 6.318 0 00-2.322 2.841 6.35 6.35 0 001.372 6.898 6.281 6.281 0 006.875 1.364 6.307 6.307 0 002.827-2.335 6.353 6.353 0 001.057-3.519 6.338 6.338 0 00-1.851-4.467 6.29 6.29 0 00-4.454-1.85z"/><path d="M518.025 235.25h-18.621a2.33 2.33 0 01-2.211-1.433 2.353 2.353 0 01-.183-.911v-11.718c0-5.59 6.281-10.137 14.01-10.137 6.27 0 11.815 3.035 13.485 7.371l-2.172.855c-1.342-3.457-5.989-5.859-11.313-5.859-6.433 0-11.675 3.516-11.675 7.793v11.695h18.68v2.344z"/></g><path d="M498.379 269h8.565v-1.988h-6.194v-3.573h5.702v-1.988h-5.702v-3.554h6.143v-1.988h-8.514V269zm12.733 0h2.372v-4.794h2.416l2.57 4.794h2.646l-2.832-5.19c1.541-.62 2.353-1.937 2.353-3.714 0-2.499-1.611-4.187-4.615-4.187h-4.91V269zm2.372-6.763v-4.346h2.173c1.771 0 2.563.811 2.563 2.205 0 1.393-.792 2.141-2.55 2.141h-2.186zM524.62 269h2.371v-4.423h2.506c3.023 0 4.647-1.816 4.647-4.334 0-2.499-1.605-4.334-4.615-4.334h-4.909V269zm2.371-6.373v-4.736h2.173c1.777 0 2.563.958 2.563 2.352 0 1.393-.786 2.384-2.55 2.384h-2.186z" fill="#9498A9"/></g><g filter="url(#filter5_d_1228_1803)"><path fill-rule="evenodd" clip-rule="evenodd" d="M8 4h150v50c13.807 0 25 11.193 25 25s-11.193 25-25 25v50h-50c0-13.807-11.193-25-25-25s-25 11.193-25 25H8V4z" fill="#fff"/><path d="M96.281 72.531h-62.11v2.344h62.11v-2.344zM64.64 83.734h-2.343v11.72h2.344v-11.72zm15.235 0h-2.344v11.72h2.344v-11.72z" fill="#9498A9"/><path d="M86.906 103H54.094a2.345 2.345 0 01-2.344-2.344v-1.172a5.86 5.86 0 015.86-5.859h25.78a5.86 5.86 0 015.86 5.86v1.171A2.345 2.345 0 0186.906 103zM57.61 95.969a3.515 3.515 0 00-3.515 3.515v1.172h32.812v-1.172a3.515 3.515 0 00-3.515-3.515H57.609zM96.281 84.25H38.86A5.86 5.86 0 0133 78.39V33.86A5.86 5.86 0 0138.86 28h63.281A5.859 5.859 0 01108 33.86v17.578h-2.344v-17.58a3.516 3.516 0 00-3.515-3.515H38.859a3.515 3.515 0 00-3.515 3.515V78.39a3.515 3.515 0 003.515 3.515h57.422v2.344z" fill="#9498A9"/><path d="M70.5 79.563a1.172 1.172 0 100-2.344 1.172 1.172 0 000 2.344zm-2.344-17.579H47.062a2.344 2.344 0 01-2.343-2.343V44.406a2.344 2.344 0 012.343-2.343h21.094a2.343 2.343 0 012.344 2.343v15.235a2.343 2.343 0 01-2.344 2.343zM47.062 44.406v15.235h21.094V44.406H47.062zm72.657 30.469h-14.063a2.345 2.345 0 01-2.344-2.344v-9.375a2.342 2.342 0 012.344-2.343h14.063a2.345 2.345 0 012.343 2.343v9.375a2.341 2.341 0 01-2.343 2.344zm-14.063-11.719v9.375h14.063v-9.375h-14.063zM95.11 44.406H76.36a1.172 1.172 0 110-2.343h18.75a1.172 1.172 0 010 2.343zm0 7.032H76.36a1.172 1.172 0 010-2.344h18.75a1.172 1.172 0 110 2.343zm-9.376 7.031H76.36a1.172 1.172 0 010-2.344h9.375a1.172 1.172 0 010 2.344zm35.157 23.437h-16.407a1.172 1.172 0 010-2.344h16.407a1.172 1.172 0 010 2.344zm-9.375 7.032h-7.032a1.172 1.172 0 010-2.344h7.032a1.172 1.172 0 010 2.344z" fill="#9498A9"/><path d="M120.891 103h-16.407a5.858 5.858 0 01-5.859-5.86v-37.5a5.86 5.86 0 015.859-5.859h16.407a5.86 5.86 0 015.859 5.86v37.5a5.86 5.86 0 01-5.859 5.859zm-16.407-46.875a3.518 3.518 0 00-3.515 3.516v37.5a3.516 3.516 0 003.515 3.515h16.407a3.517 3.517 0 003.515-3.515v-37.5a3.516 3.516 0 00-3.515-3.516h-16.407zm7.023 57.201c-.403-2.908-2.64-4.596-5.542-4.596-3.42 0-5.996 2.493-5.996 6.725 0 4.225 2.544 6.724 5.996 6.724 3.113 0 5.178-2.014 5.542-4.513l-2.391-.013c-.3 1.535-1.553 2.397-3.119 2.397-2.122 0-3.643-1.591-3.643-4.595 0-2.954 1.508-4.596 3.649-4.596 1.592 0 2.839.901 3.113 2.467h2.391zm3.972-4.417V122h2.275v-9.013h.122l3.618 8.975h1.7l3.618-8.956h.121V122h2.276v-13.091h-2.902l-3.887 9.486h-.153l-3.886-9.486h-2.902zm25.227 3.599h2.281c-.044-2.212-1.93-3.778-4.717-3.778-2.748 0-4.813 1.547-4.807 3.861 0 1.879 1.336 2.959 3.49 3.516l1.49.383c1.412.358 2.346.799 2.352 1.815-.006 1.119-1.067 1.867-2.614 1.867-1.483 0-2.634-.665-2.73-2.039h-2.333c.096 2.601 2.033 4.065 5.082 4.065 3.138 0 4.96-1.566 4.966-3.873-.006-2.27-1.879-3.305-3.848-3.772l-1.227-.307c-1.074-.255-2.237-.709-2.224-1.802.006-.984.888-1.707 2.371-1.707 1.413 0 2.346.659 2.468 1.771z" fill="#9498A9"/></g><g filter="url(#filter6_d_1228_1803)"><path fill-rule="evenodd" clip-rule="evenodd" d="M307 4H157v50c13.807 0 25 11.193 25 25s-11.193 25-25 25v50h50c0-13.807 11.193-25 25-25s25 11.193 25 25h50v-50c13.807 0 25-11.193 25-25s-11.193-25-25-25V4z" fill="#E6ECEC"/><path d="M248.797 100h-28.125a5.859 5.859 0 01-5.86-5.86V30.86a5.86 5.86 0 015.86-5.86h28.125a5.859 5.859 0 015.859 5.86v63.28a5.858 5.858 0 01-5.859 5.86zm-28.125-72.656a3.514 3.514 0 00-3.516 3.515v63.282a3.517 3.517 0 003.516 3.515h28.125a3.517 3.517 0 003.515-3.515V30.859a3.516 3.516 0 00-3.515-3.515h-28.125z" fill="#9498A9"/><path d="M234.734 66.906a12.89 12.89 0 11.001-25.78 12.89 12.89 0 01-.001 25.78zm0-23.437a10.544 10.544 0 00-9.744 6.51 10.549 10.549 0 0013.78 13.78 10.545 10.545 0 00-4.036-20.29z" fill="#9498A9"/><path d="M226.437 62.57l-1.839-1.453a12.891 12.891 0 0120.015-.316l-1.804 1.5a10.554 10.554 0 00-8.268-3.784 10.544 10.544 0 00-8.139 4.053h.035z" fill="#9498A9"/><path d="M234.734 58.54a5.355 5.355 0 115.356-5.356 5.366 5.366 0 01-5.356 5.355zm0-8.368a3.012 3.012 0 100 6.024 3.012 3.012 0 000-6.024zm18.75-15.797h-37.5v2.344h37.5v-2.344zm0 53.906h-37.5v2.344h37.5v-2.344zm-28.125-4.687a1.172 1.172 0 01-1.171-1.172v-4.688a1.17 1.17 0 112.343 0v4.688a1.17 1.17 0 01-1.172 1.172z" fill="#9498A9"/><path d="M227.422 82.422a1.086 1.086 0 01-.562-.14l-4.114-2.239a1.167 1.167 0 01-.707-1.173 1.166 1.166 0 01.452-.832 1.168 1.168 0 011.369-.046l4.113 2.239a1.174 1.174 0 01.154 1.935c-.201.16-.448.25-.705.256z" fill="#9498A9"/><path d="M223.297 82.422a1.173 1.173 0 01-1.051-1.633 1.17 1.17 0 01.5-.558l4.113-2.239a1.18 1.18 0 01.933-.165 1.168 1.168 0 01.888 1.043 1.17 1.17 0 01-.707 1.173l-4.114 2.238a1.086 1.086 0 01-.562.14zm11.437 1.172a1.172 1.172 0 01-1.172-1.172v-4.688a1.172 1.172 0 012.344 0v4.688a1.17 1.17 0 01-1.172 1.172z" fill="#9498A9"/><path d="M236.797 82.422a1.086 1.086 0 01-.562-.14l-4.114-2.239a1.167 1.167 0 01-.707-1.173 1.166 1.166 0 01.452-.832 1.168 1.168 0 011.369-.046l4.113 2.239a1.174 1.174 0 01.154 1.935c-.201.16-.448.25-.705.256z" fill="#9498A9"/><path d="M232.672 82.422a1.173 1.173 0 01-1.051-1.633 1.17 1.17 0 01.5-.558l4.113-2.239a1.18 1.18 0 01.933-.165 1.168 1.168 0 01.888 1.043 1.17 1.17 0 01-.707 1.173l-4.114 2.238a1.086 1.086 0 01-.562.14zm11.437 1.172a1.172 1.172 0 01-1.171-1.172v-4.688a1.17 1.17 0 112.343 0v4.688a1.17 1.17 0 01-1.172 1.172z" fill="#9498A9"/><path d="M246.172 82.422a1.086 1.086 0 01-.562-.14l-4.114-2.239a1.167 1.167 0 01-.707-1.173 1.166 1.166 0 01.452-.832 1.168 1.168 0 011.369-.046l4.113 2.239a1.174 1.174 0 01.154 1.935c-.201.16-.448.25-.705.256z" fill="#9498A9"/><path d="M242.047 82.422a1.173 1.173 0 01-1.051-1.633 1.17 1.17 0 01.5-.558l4.113-2.239a1.18 1.18 0 01.933-.165 1.168 1.168 0 01.888 1.043 1.17 1.17 0 01-.707 1.173l-4.114 2.238a1.086 1.086 0 01-.562.14zm-37.781-33.984a1.167 1.167 0 01-.832-.34l-11.719-11.72a1.176 1.176 0 111.664-1.663l11.719 11.719a1.175 1.175 0 010 1.664 1.178 1.178 0 01-.832.34z" fill="#9498A9"/><path d="M204.266 48.438h-7.032a1.172 1.172 0 010-2.344h5.86v-5.86a1.17 1.17 0 112.344 0v7.032a1.172 1.172 0 01-1.172 1.172zm-11.719 42.187a1.174 1.174 0 01-1.089-1.623c.06-.142.147-.272.257-.38l11.719-11.72a1.176 1.176 0 111.664 1.664l-11.719 11.72a1.174 1.174 0 01-.832.339z" fill="#9498A9"/><path d="M204.266 85.938a1.173 1.173 0 01-1.172-1.172v-5.86h-5.86a1.172 1.172 0 010-2.344h7.032a1.172 1.172 0 011.172 1.172v7.032a1.172 1.172 0 01-1.172 1.171zm60.937-37.5a1.174 1.174 0 01-1.179-1.172 1.164 1.164 0 01.347-.832l11.719-11.72a1.175 1.175 0 012.009.833c0 .312-.124.611-.345.832l-11.719 11.719a1.164 1.164 0 01-.832.34z" fill="#9498A9"/><path d="M272.234 48.438h-7.031a1.173 1.173 0 01-1.172-1.172v-7.032a1.175 1.175 0 011.172-1.172 1.173 1.173 0 011.172 1.172v5.86h5.859a1.173 1.173 0 110 2.343zm4.688 42.187a1.174 1.174 0 01-.832-.34l-11.719-11.719a1.176 1.176 0 111.664-1.664l11.719 11.72a1.16 1.16 0 01.346.831 1.163 1.163 0 01-.346.832 1.185 1.185 0 01-.832.34z" fill="#9498A9"/><path d="M265.203 85.938a1.173 1.173 0 01-1.172-1.172v-7.032a1.175 1.175 0 011.172-1.171h7.031a1.173 1.173 0 010 2.343h-5.859v5.86a1.17 1.17 0 01-1.172 1.171zm-17.705 25.388c-.402-2.908-2.64-4.596-5.542-4.596-3.419 0-5.995 2.493-5.995 6.725 0 4.225 2.544 6.724 5.995 6.724 3.113 0 5.178-2.014 5.542-4.513l-2.39-.013c-.301 1.535-1.554 2.397-3.12 2.397-2.122 0-3.643-1.591-3.643-4.595 0-2.954 1.508-4.596 3.65-4.596 1.591 0 2.838.901 3.113 2.467h2.39zM251.47 120h2.371v-4.794h2.417l2.569 4.794h2.646l-2.831-5.19c1.54-.62 2.352-1.937 2.352-3.714 0-2.499-1.611-4.187-4.615-4.187h-4.909V120zm2.371-6.763v-4.346h2.174c1.77 0 2.563.811 2.563 2.205 0 1.393-.793 2.141-2.551 2.141h-2.186zm11.136-6.328V120h2.276v-9.013h.121l3.618 8.975h1.7l3.618-8.956h.121V120h2.276v-13.091h-2.902l-3.886 9.486h-.154l-3.886-9.486h-2.902z" fill="#9498A9"/></g><g filter="url(#filter7_d_1228_1803)"><path fill-rule="evenodd" clip-rule="evenodd" d="M83 278c-13.807 0-25 11.193-25 25H8V153h50c0-13.807 11.193-25 25-25s25 11.193 25 25h50v50c13.807 0 25 11.193 25 25s-11.193 25-25 25v50h-50c0-13.807-11.193-25-25-25z" fill="#E6ECEC"/><g clip-path="url(#clip1_1228_1803)" fill="#9498A9"><path d="M65.422 195.336l6.246 6.246 8.168-12.492-8.168 7.019-6.246-.773zm0 36.328l6.246 6.246 8.168-12.492-8.168 7.019-6.246-.773zm10.078-12.07a1.167 1.167 0 01-.832-.352l-7.031-7.031a1.173 1.173 0 111.664-1.652l7.031 7.031a1.17 1.17 0 01-.832 2.004z"/><path d="M68.469 219.594a1.173 1.173 0 01-.832-2.004l7.031-7.031a1.178 1.178 0 01.832-.347 1.181 1.181 0 01.832.347 1.17 1.17 0 010 1.652l-7.031 7.031a1.163 1.163 0 01-.832.352zm33.984-22.266h-18.75a1.17 1.17 0 01-.829-2c.22-.22.518-.344.83-.344h18.749a1.173 1.173 0 010 2.344zm0 18.75h-18.75a1.17 1.17 0 01-.829-2c.22-.22.518-.344.83-.344h18.749a1.173 1.173 0 010 2.344zm0 18.75h-18.75a1.17 1.17 0 01-.829-2c.22-.22.518-.344.83-.344h18.749a1.173 1.173 0 010 2.344z"/><path d="M107.246 251.059H65.551a6.46 6.46 0 01-5.982-4.027 6.457 6.457 0 01-.475-2.489v-62.109A6.457 6.457 0 0165.551 176h34.875a6.476 6.476 0 014.688 2.004l6.222 6.516a6.44 6.44 0 011.781 4.464v56.25a5.86 5.86 0 01-5.859 5.86l-.012-.035zm-41.695-72.715a4.107 4.107 0 00-3.8 2.539 4.114 4.114 0 00-.313 1.574v62.109a4.116 4.116 0 004.113 4.09h41.66a3.515 3.515 0 003.516-3.515v-56.25a4.043 4.043 0 00-1.172-2.836l-6.152-6.434a4.141 4.141 0 00-2.977-1.277H65.551z"/></g><path d="M101.319 264.455c0-4.232-2.583-6.725-6.015-6.725-3.44 0-6.015 2.493-6.015 6.725 0 4.225 2.576 6.724 6.015 6.724 3.432 0 6.015-2.493 6.015-6.724zm-2.385 0c0 2.978-1.495 4.595-3.63 4.595-2.129 0-3.631-1.617-3.631-4.595 0-2.979 1.502-4.596 3.63-4.596 2.136 0 3.631 1.617 3.631 4.596zM106.34 271l1.08-3.228h4.922l1.086 3.228h2.532l-4.616-13.091h-2.927L103.807 271h2.532zm1.719-5.133l1.771-5.273h.102l1.77 5.273h-3.643zm18.328-4.359h2.282c-.045-2.212-1.93-3.778-4.717-3.778-2.749 0-4.813 1.547-4.807 3.861 0 1.879 1.336 2.959 3.49 3.516l1.489.383c1.413.358 2.346.799 2.353 1.815-.007 1.119-1.068 1.867-2.615 1.867-1.483 0-2.633-.665-2.729-2.039H118.8c.096 2.601 2.033 4.065 5.082 4.065 3.138 0 4.96-1.566 4.966-3.873-.006-2.27-1.879-3.305-3.848-3.772l-1.227-.307c-1.074-.255-2.237-.709-2.225-1.802.007-.984.889-1.707 2.372-1.707 1.413 0 2.346.659 2.467 1.771z" fill="#9498A9"/></g><g filter="url(#filter8_d_1228_1803)"><path fill-rule="evenodd" clip-rule="evenodd" d="M307 450h150v-50c-13.807 0-25-11.193-25-25s11.193-25 25-25v-50h-50c0 13.807-11.193 25-25 25s-25-11.193-25-25h-50v50c-13.807 0-25 11.193-25 25s11.193 25 25 25v50z" fill="#fff"/><path d="M367.484 393.332a5.126 5.126 0 00-5.121-5.121h-10.242a5.126 5.126 0 00-5.121 5.121 5.11 5.11 0 001.663 3.773 5.11 5.11 0 00-1.663 3.773 5.126 5.126 0 005.121 5.121h10.242a5.126 5.126 0 005.121-5.121 5.11 5.11 0 00-1.663-3.773 5.11 5.11 0 001.663-3.773zm-2.695 7.546a2.429 2.429 0 01-2.426 2.426h-10.242a2.428 2.428 0 01-2.426-2.426 2.428 2.428 0 012.426-2.425h10.242a2.428 2.428 0 012.426 2.425zm-12.668-5.121a2.428 2.428 0 01-2.426-2.426 2.428 2.428 0 012.426-2.425h10.242a2.428 2.428 0 012.426 2.425 2.428 2.428 0 01-2.426 2.426h-10.242zm39.638-9.972a5.126 5.126 0 00-5.121-5.121h-10.242a5.126 5.126 0 00-5.121 5.121 5.11 5.11 0 001.663 3.773 5.111 5.111 0 000 7.547 5.11 5.11 0 00-1.663 3.773 5.126 5.126 0 005.121 5.121h10.242a5.126 5.126 0 005.121-5.121 5.11 5.11 0 00-1.663-3.773 5.11 5.11 0 000-7.547 5.107 5.107 0 001.663-3.773zm-2.695 15.093a2.429 2.429 0 01-2.426 2.426h-10.242a2.428 2.428 0 01-2.426-2.426 2.428 2.428 0 012.426-2.425h10.242a2.429 2.429 0 012.426 2.425zm0-7.546a2.429 2.429 0 01-2.426 2.425h-10.242a2.428 2.428 0 01-2.426-2.425 2.428 2.428 0 012.426-2.426h10.242a2.429 2.429 0 012.426 2.426zm-12.668-5.121a2.429 2.429 0 01-2.426-2.426 2.428 2.428 0 012.426-2.426h10.242a2.429 2.429 0 012.426 2.426 2.43 2.43 0 01-2.426 2.426h-10.242zM416 385.785a5.105 5.105 0 00-1.664-3.773 5.108 5.108 0 001.664-3.774 5.127 5.127 0 00-5.121-5.121h-10.242a5.127 5.127 0 00-5.121 5.121c0 1.492.641 2.837 1.663 3.773a5.108 5.108 0 00-1.663 3.774c0 1.492.641 2.836 1.663 3.773a5.105 5.105 0 00-1.663 3.773c0 1.492.641 2.837 1.663 3.774a5.105 5.105 0 00-1.663 3.773 5.126 5.126 0 005.121 5.121h10.242a5.127 5.127 0 005.121-5.121 5.105 5.105 0 00-1.664-3.773 5.108 5.108 0 000-7.547 5.105 5.105 0 001.664-3.773zm-17.789-7.547a2.429 2.429 0 012.426-2.426h10.242a2.43 2.43 0 012.426 2.426 2.429 2.429 0 01-2.426 2.426h-10.242a2.428 2.428 0 01-2.426-2.426zm15.093 22.64a2.428 2.428 0 01-2.425 2.426h-10.243a2.428 2.428 0 01-2.425-2.426 2.428 2.428 0 012.425-2.425h10.243a2.428 2.428 0 012.425 2.425zm0-7.546a2.428 2.428 0 01-2.425 2.425h-10.243a2.428 2.428 0 01-2.425-2.425 2.428 2.428 0 012.425-2.426h10.243a2.428 2.428 0 012.425 2.426zm-12.667-5.121a2.429 2.429 0 01-2.426-2.426 2.428 2.428 0 012.426-2.426h10.242a2.428 2.428 0 012.425 2.426 2.429 2.429 0 01-2.425 2.426h-10.242zm-52.289-10.302c.354 0 .702-.143.952-.393.251-.251.395-.599.395-.954s-.144-.702-.395-.953a1.354 1.354 0 00-.952-.395c-.355 0-.702.144-.953.395a1.357 1.357 0 00-.395.953c0 .355.144.702.395.954.251.25.598.393.953.393z" fill="#9498A9"/><path d="M378.349 374.684l2.281 2.275a1.348 1.348 0 001.905-.002l25.809-25.814 2.385 2.385a1.349 1.349 0 002.273-.677l2.968-14.225a1.347 1.347 0 00-1.594-1.595L400.151 340a1.346 1.346 0 00-.677 2.272l2.389 2.39c-7.892 7.897-15.316 15.326-20.285 20.292l-10.81-10.81a1.345 1.345 0 00-1.906 0l-18.036 18.036a1.348 1.348 0 001.906 1.906l17.083-17.084 10.809 10.81a1.348 1.348 0 001.906 0c5.129-5.124 13.424-13.424 22.192-22.198a1.348 1.348 0 000-1.906l-1.58-1.579 9.769-2.039-2.039 9.769-1.575-1.575a1.348 1.348 0 00-1.906 0L381.58 374.1l-1.331-1.328-9.481-9.48a1.346 1.346 0 00-1.906 0l-21.467 21.468a1.345 1.345 0 00.953 2.3c.344 0 .689-.132.953-.395l20.514-20.514 8.534 8.533zm-19.015 43.225V431h2.276v-9.013h.121l3.618 8.975h1.7l3.618-8.956h.122V431h2.275v-13.091h-2.902l-3.886 9.486h-.154l-3.886-9.486h-2.902zm18.112 0V431h2.276v-9.013h.121l3.618 8.975h1.701l3.618-8.956h.121V431h2.276v-13.091h-2.902l-3.887 9.486h-.153l-3.887-9.486h-2.902zm25.227 3.599h2.282c-.044-2.212-1.93-3.778-4.717-3.778-2.749 0-4.813 1.547-4.807 3.861 0 1.879 1.336 2.959 3.49 3.516l1.49.383c1.412.358 2.345.799 2.352 1.815-.007 1.119-1.068 1.867-2.615 1.867-1.482 0-2.633-.665-2.729-2.039h-2.333c.096 2.601 2.033 4.065 5.082 4.065 3.138 0 4.96-1.566 4.966-3.873-.006-2.27-1.879-3.305-3.848-3.772l-1.227-.307c-1.074-.255-2.237-.709-2.224-1.802.006-.984.888-1.707 2.371-1.707 1.413 0 2.346.659 2.467 1.771z" fill="#9498A9"/></g><g filter="url(#filter9_d_1228_1803)"><path fill-rule="evenodd" clip-rule="evenodd" d="M382 178c13.807 0 25-11.193 25-25h50v50c13.807 0 25 11.193 25 25s-11.193 25-25 25v50h-50c0 13.807-11.193 25-25 25s-25-11.193-25-25h-50v-50c13.807 0 25-11.193 25-25s-11.193-25-25-25v-50h50c0 13.807 11.193 25 25 25z" fill="#96C0D0"/><path d="M407.672 207.062h-28.125a1.172 1.172 0 110-2.343h28.125a1.172 1.172 0 110 2.343zm0 7.032h-28.125a1.172 1.172 0 110-2.344h28.125a1.172 1.172 0 110 2.344zm0 7.031h-28.125a1.172 1.172 0 110-2.344h28.125c.311 0 .609.124.829.343a1.176 1.176 0 010 1.658c-.22.22-.518.343-.829.343zm-14.063 14.063h-14.062a1.173 1.173 0 010-2.344h14.062a1.172 1.172 0 110 2.344zm22.348 14.988h-8.285a1.172 1.172 0 110-2.344h8.285a1.172 1.172 0 110 2.344zm-.75 4.043h-7.535a1.172 1.172 0 110-2.344h7.535a1.172 1.172 0 110 2.344zm-7.535-26.063h-28.125a1.172 1.172 0 110-2.344h28.125a1.173 1.173 0 010 2.344z" fill="#fff"/><path d="M417.047 268a17.582 17.582 0 01-16.24-10.851 17.582 17.582 0 013.81-19.157 17.582 17.582 0 0127.046 2.664 17.582 17.582 0 01-2.187 22.195A17.574 17.574 0 01417.047 268zm0-32.812a15.234 15.234 0 10-.002 30.468 15.234 15.234 0 00.002-30.468z" fill="#fff"/><path d="M418.219 259.961a9.454 9.454 0 01-9.457-9.457 9.454 9.454 0 019.457-9.457 1.173 1.173 0 010 2.344 7.112 7.112 0 100 14.226 1.172 1.172 0 010 2.344zm-21.094-1.336h-22.266a5.858 5.858 0 01-5.859-5.859v-53.907a5.858 5.858 0 015.859-5.859h31.981a5.864 5.864 0 014.242 1.816l5.52 5.789a5.863 5.863 0 011.617 4.043V230.5h-2.344v-25.852c0-.903-.349-1.772-.973-2.425l-5.519-5.789a3.5 3.5 0 00-2.543-1.09h-31.981c-.932 0-1.826.37-2.486 1.029a3.518 3.518 0 00-1.029 2.486v53.907c0 .932.37 1.826 1.029 2.486a3.518 3.518 0 002.486 1.029h22.266v2.344zM349.159 280l1.08-3.228h4.922l1.086 3.228h2.532l-4.615-13.091h-2.928L346.627 280h2.532zm1.719-5.133l1.771-5.273h.102l1.771 5.273h-3.644zm11.425-7.958V280h2.275v-9.013h.122l3.618 8.975h1.7l3.618-8.956h.121V280h2.276v-13.091h-2.902l-3.886 9.486h-.154l-3.886-9.486h-2.902zm25.227 3.599h2.282c-.045-2.212-1.931-3.778-4.718-3.778-2.748 0-4.813 1.547-4.806 3.861 0 1.879 1.336 2.959 3.49 3.516l1.489.383c1.413.358 2.346.799 2.352 1.815-.006 1.119-1.067 1.867-2.614 1.867-1.483 0-2.634-.665-2.73-2.039h-2.333c.096 2.601 2.033 4.065 5.082 4.065 3.139 0 4.96-1.566 4.967-3.873-.007-2.27-1.88-3.305-3.848-3.772l-1.228-.307c-1.073-.255-2.237-.709-2.224-1.802.006-.984.888-1.707 2.371-1.707 1.413 0 2.346.659 2.468 1.771z" fill="#fff"/></g><g filter="url(#filter10_d_1228_1803)"><path fill-rule="evenodd" clip-rule="evenodd" d="M457 4H307v50c13.807 0 25 11.193 25 25s-11.193 25-25 25v50h50c0 13.807 11.193 25 25 25s25-11.193 25-25h50v-50c-13.807 0-25-11.193-25-25s11.193-25 25-25V4z" fill="#A1D7A6"/><path d="M377.875 45.234l6.609 6.61 8.625-13.207-8.625 7.418-6.609-.82zm7.031 37.196a8.635 8.635 0 01-8.471-10.322 8.642 8.642 0 016.786-6.786 8.636 8.636 0 0110.322 8.471 8.648 8.648 0 01-8.637 8.637zm0-14.93a6.294 6.294 0 106.293 6.293 6.306 6.306 0 00-6.293-6.293z" fill="#fff"/><path d="M396.625 105h-23.379a2.343 2.343 0 01-2.344-2.344V90.703c-.058-5.625 6.246-10.312 14.004-10.312 7.758 0 14.063 4.687 14.063 10.312v11.953a2.344 2.344 0 01-2.344 2.344zm-11.719-22.266c-6.457 0-11.719 3.516-11.719 7.97v11.952h23.438V90.703c0-4.394-5.262-7.969-11.719-7.969zm.586-22.265a14.965 14.965 0 01-14.648-15.235A14.965 14.965 0 01385.492 30a14.962 14.962 0 0114.649 15.234 14.966 14.966 0 01-14.649 15.235zm0-28.125a12.622 12.622 0 00-12.304 12.89 12.62 12.62 0 0012.304 12.891 12.62 12.62 0 0012.305-12.89 12.62 12.62 0 00-12.305-12.891zm-22.851 45.152a7.947 7.947 0 01-7.806-9.488 7.942 7.942 0 016.24-6.249 7.946 7.946 0 019.499 7.792 7.956 7.956 0 01-7.933 7.945zm0-13.512a5.603 5.603 0 00-5.507 6.692 5.605 5.605 0 007.644 4.083 5.598 5.598 0 003.452-5.185 5.603 5.603 0 00-5.589-5.59z" fill="#fff"/><path d="M368.5 97.969h-16.406a2.274 2.274 0 01-2.344-2.238v-10.83c0-5.226 5.766-9.468 12.891-9.468 4.816 0 9.175 1.933 11.402 5.062l-1.91 1.348c-1.758-2.473-5.485-4.067-9.492-4.067-5.801 0-10.547 3.188-10.547 7.125v10.723H368.5v2.344zm38.566-20.473a7.947 7.947 0 01-7.792-9.495 7.942 7.942 0 0110.833-5.79 7.944 7.944 0 01-3.041 15.285zm0-13.535a5.603 5.603 0 00-5.493 6.699 5.6 5.6 0 004.408 4.398 5.6 5.6 0 006.687-5.507 5.602 5.602 0 00-5.602-5.567v-.023z" fill="#fff"/><path d="M417.648 97.969h-16.336v-2.344h16.407V84.902c0-3.867-4.875-7.125-10.653-7.125-4.007 0-7.734 1.594-9.48 4.067l-1.922-1.348c2.227-3.129 6.586-5.062 11.402-5.062 7.137 0 12.996 4.242 12.996 9.468v10.829a2.344 2.344 0 01-2.414 2.238zm-53.674 21.928h4.046V131h2.352v-11.103h4.046v-1.988h-10.444v1.988zm14.258-1.988V131h2.275v-9.013h.122l3.618 8.975h1.7l3.618-8.956h.121V131h2.276v-13.091h-2.902l-3.887 9.486h-.153l-3.886-9.486h-2.902zm25.226 3.599h2.282c-.044-2.212-1.93-3.778-4.717-3.778-2.748 0-4.813 1.547-4.807 3.861 0 1.879 1.336 2.959 3.49 3.516l1.49.383c1.412.358 2.346.799 2.352 1.815-.006 1.119-1.068 1.867-2.614 1.867-1.483 0-2.634-.665-2.73-2.039h-2.333c.096 2.601 2.033 4.065 5.082 4.065 3.138 0 4.96-1.566 4.966-3.873-.006-2.27-1.879-3.305-3.848-3.772l-1.227-.307c-1.074-.255-2.237-.709-2.224-1.802.006-.984.888-1.707 2.371-1.707 1.413 0 2.346.659 2.467 1.771z" fill="#fff"/></g><g filter="url(#filter11_d_1228_1803)"><path fill-rule="evenodd" clip-rule="evenodd" d="M457 4h150v150h-50c0-13.807-11.193-25-25-25s-25 11.193-25 25h-50v-50c-13.807 0-25-11.193-25-25s11.193-25 25-25V4z" fill="#96C0D0"/><path d="M558.578 76.531h-72.656v2.344h72.656v-2.344zM515.219 88.25h-2.344v11.719h2.344V88.25zm16.406-.516h-2.344v11.72h2.344v-11.72z" fill="#fff"/><path d="M538.656 107h-32.812a2.347 2.347 0 01-1.658-.686 2.347 2.347 0 01-.686-1.658v-1.172a5.858 5.858 0 015.859-5.859h25.782a5.859 5.859 0 015.859 5.859v1.172c0 .622-.247 1.218-.686 1.658a2.347 2.347 0 01-1.658.686zm-29.297-7.031c-.932 0-1.826.37-2.486 1.029a3.518 3.518 0 00-1.029 2.486v1.172h32.812v-1.172c0-.932-.37-1.826-1.029-2.486a3.519 3.519 0 00-2.486-1.03h-25.782zm44.532-11.719h-63.282a5.861 5.861 0 01-5.859-5.86V37.86a5.858 5.858 0 015.859-5.86h63.282a5.859 5.859 0 015.859 5.86v44.53a5.868 5.868 0 01-1.716 4.144 5.858 5.858 0 01-4.143 1.716zm-63.282-53.906a3.517 3.517 0 00-3.515 3.515v44.532a3.516 3.516 0 003.515 3.515h63.282a3.517 3.517 0 003.515-3.515V37.859a3.516 3.516 0 00-3.515-3.515h-63.282z" fill="#fff"/><path d="M522.25 83.563a1.172 1.172 0 100-2.345 1.172 1.172 0 000 2.344zm-.668-16.407a29.003 29.003 0 01-12.726-3.258 2.458 2.458 0 01-1.336-2.214v-7.418a1.17 1.17 0 112.343 0v7.418a.158.158 0 00.016.08.146.146 0 00.055.06 26.646 26.646 0 0011.648 2.989 26.638 26.638 0 0011.637-2.989.168.168 0 00.06-.06.165.165 0 00.022-.08V53.48a1.17 1.17 0 012-.83c.22.22.344.519.344.83v8.261a2.477 2.477 0 01-1.348 2.215 28.992 28.992 0 01-12.715 3.2z" fill="#fff"/><path d="M502.832 63.64a1.173 1.173 0 01-1.172-1.171v-9.727a3.033 3.033 0 012.344-2.988l16.406-5.344a5.194 5.194 0 012.344 0l17.578 5.473a1.292 1.292 0 01.926 1.254 1.304 1.304 0 01-.985 1.266l-17.379 5.378a4.348 4.348 0 01-2.707.094l-16.183-4.781v9.375a1.172 1.172 0 01-1.172 1.172zm3.726-12.187l14.274 4.184a2.19 2.19 0 001.312-.059l14.321-4.394-14.215-4.512a2.767 2.767 0 00-1.172 0l-14.52 4.781zm33.035.715h.118-.118zm.059-1.957h-.082.082zM544.393 124h8.137v-1.988h-5.766v-11.103h-2.371V124zm11.995-13.091V124h2.275v-9.013h.122l3.618 8.975h1.7l3.618-8.956h.121V124h2.276v-13.091h-2.902l-3.886 9.486h-.154l-3.886-9.486h-2.902zm25.227 3.599h2.282c-.045-2.212-1.931-3.778-4.718-3.778-2.748 0-4.813 1.547-4.806 3.861 0 1.879 1.335 2.959 3.49 3.516l1.489.383c1.413.358 2.346.799 2.352 1.815-.006 1.119-1.067 1.867-2.614 1.867-1.483 0-2.634-.665-2.73-2.039h-2.333c.096 2.601 2.033 4.065 5.082 4.065 3.139 0 4.96-1.566 4.967-3.873-.007-2.27-1.88-3.305-3.848-3.772l-1.228-.307c-1.073-.255-2.237-.709-2.224-1.802.006-.984.888-1.707 2.371-1.707 1.413 0 2.346.659 2.468 1.771z" fill="#fff"/></g></g><defs><filter id="filter0_d_1228_1803" x="124" y="271" width="191" height="191" filterUnits="userSpaceOnUse" color-interpolation-filters="sRGB"><feFlood flood-opacity="0" result="BackgroundImageFix"/><feColorMatrix in="SourceAlpha" values="0 0 0 0 0 0 0 0 0 0 0 0 0 0 0 0 0 0 127 0" result="hardAlpha"/><feOffset dy="4"/><feGaussianBlur stdDeviation="4"/><feComposite in2="hardAlpha" operator="out"/><feColorMatrix values="0 0 0 0 0 0 0 0 0 0 0 0 0 0 0 0 0 0 0.1 0"/><feBlend in2="BackgroundImageFix" result="effect1_dropShadow_1228_1803"/><feBlend in="SourceGraphic" in2="effect1_dropShadow_1228_1803" result="shape"/></filter><filter id="filter1_d_1228_1803" x="424" y="296" width="191" height="166" filterUnits="userSpaceOnUse" color-interpolation-filters="sRGB"><feFlood flood-opacity="0" result="BackgroundImageFix"/><feColorMatrix in="SourceAlpha" values="0 0 0 0 0 0 0 0 0 0 0 0 0 0 0 0 0 0 127 0" result="hardAlpha"/><feOffset dy="4"/><feGaussianBlur stdDeviation="4"/><feComposite in2="hardAlpha" operator="out"/><feColorMatrix values="0 0 0 0 0 0 0 0 0 0 0 0 0 0 0 0 0 0 0.1 0"/><feBlend in2="BackgroundImageFix" result="effect1_dropShadow_1228_1803"/><feBlend in="SourceGraphic" in2="effect1_dropShadow_1228_1803" result="shape"/></filter><filter id="filter2_d_1228_1803" x="0" y="271" width="166" height="191" filterUnits="userSpaceOnUse" color-interpolation-filters="sRGB"><feFlood flood-opacity="0" result="BackgroundImageFix"/><feColorMatrix in="SourceAlpha" values="0 0 0 0 0 0 0 0 0 0 0 0 0 0 0 0 0 0 127 0" result="hardAlpha"/><feOffset dy="4"/><feGaussianBlur stdDeviation="4"/><feComposite in2="hardAlpha" operator="out"/><feColorMatrix values="0 0 0 0 0 0 0 0 0 0 0 0 0 0 0 0 0 0 0.1 0"/><feBlend in2="BackgroundImageFix" result="effect1_dropShadow_1228_1803"/><feBlend in="SourceGraphic" in2="effect1_dropShadow_1228_1803" result="shape"/></filter><filter id="filter3_d_1228_1803" x="149" y="124" width="191" height="191" filterUnits="userSpaceOnUse" color-interpolation-filters="sRGB"><feFlood flood-opacity="0" result="BackgroundImageFix"/><feColorMatrix in="SourceAlpha" values="0 0 0 0 0 0 0 0 0 0 0 0 0 0 0 0 0 0 127 0" result="hardAlpha"/><feOffset dy="4"/><feGaussianBlur stdDeviation="4"/><feComposite in2="hardAlpha" operator="out"/><feColorMatrix values="0 0 0 0 0 0 0 0 0 0 0 0 0 0 0 0 0 0 0.1 0"/><feBlend in2="BackgroundImageFix" result="effect1_dropShadow_1228_1803"/><feBlend in="SourceGraphic" in2="effect1_dropShadow_1228_1803" result="shape"/></filter><filter id="filter4_d_1228_1803" x="449" y="123" width="166" height="216" filterUnits="userSpaceOnUse" color-interpolation-filters="sRGB"><feFlood flood-opacity="0" result="BackgroundImageFix"/><feColorMatrix in="SourceAlpha" values="0 0 0 0 0 0 0 0 0 0 0 0 0 0 0 0 0 0 127 0" result="hardAlpha"/><feOffset dy="4"/><feGaussianBlur stdDeviation="4"/><feComposite in2="hardAlpha" operator="out"/><feColorMatrix values="0 0 0 0 0 0 0 0 0 0 0 0 0 0 0 0 0 0 0.1 0"/><feBlend in2="BackgroundImageFix" result="effect1_dropShadow_1228_1803"/><feBlend in="SourceGraphic" in2="effect1_dropShadow_1228_1803" result="shape"/></filter><filter id="filter5_d_1228_1803" x="0" y="0" width="191" height="166" filterUnits="userSpaceOnUse" color-interpolation-filters="sRGB"><feFlood flood-opacity="0" result="BackgroundImageFix"/><feColorMatrix in="SourceAlpha" values="0 0 0 0 0 0 0 0 0 0 0 0 0 0 0 0 0 0 127 0" result="hardAlpha"/><feOffset dy="4"/><feGaussianBlur stdDeviation="4"/><feComposite in2="hardAlpha" operator="out"/><feColorMatrix values="0 0 0 0 0 0 0 0 0 0 0 0 0 0 0 0 0 0 0.1 0"/><feBlend in2="BackgroundImageFix" result="effect1_dropShadow_1228_1803"/><feBlend in="SourceGraphic" in2="effect1_dropShadow_1228_1803" result="shape"/></filter><filter id="filter6_d_1228_1803" x="149" y="0" width="191" height="166" filterUnits="userSpaceOnUse" color-interpolation-filters="sRGB"><feFlood flood-opacity="0" result="BackgroundImageFix"/><feColorMatrix in="SourceAlpha" values="0 0 0 0 0 0 0 0 0 0 0 0 0 0 0 0 0 0 127 0" result="hardAlpha"/><feOffset dy="4"/><feGaussianBlur stdDeviation="4"/><feComposite in2="hardAlpha" operator="out"/><feColorMatrix values="0 0 0 0 0 0 0 0 0 0 0 0 0 0 0 0 0 0 0.1 0"/><feBlend in2="BackgroundImageFix" result="effect1_dropShadow_1228_1803"/><feBlend in="SourceGraphic" in2="effect1_dropShadow_1228_1803" result="shape"/></filter><filter id="filter7_d_1228_1803" x="0" y="124" width="191" height="191" filterUnits="userSpaceOnUse" color-interpolation-filters="sRGB"><feFlood flood-opacity="0" result="BackgroundImageFix"/><feColorMatrix in="SourceAlpha" values="0 0 0 0 0 0 0 0 0 0 0 0 0 0 0 0 0 0 127 0" result="hardAlpha"/><feOffset dy="4"/><feGaussianBlur stdDeviation="4"/><feComposite in2="hardAlpha" operator="out"/><feColorMatrix values="0 0 0 0 0 0 0 0 0 0 0 0 0 0 0 0 0 0 0.1 0"/><feBlend in2="BackgroundImageFix" result="effect1_dropShadow_1228_1803"/><feBlend in="SourceGraphic" in2="effect1_dropShadow_1228_1803" result="shape"/></filter><filter id="filter8_d_1228_1803" x="274" y="296" width="191" height="166" filterUnits="userSpaceOnUse" color-interpolation-filters="sRGB"><feFlood flood-opacity="0" result="BackgroundImageFix"/><feColorMatrix in="SourceAlpha" values="0 0 0 0 0 0 0 0 0 0 0 0 0 0 0 0 0 0 127 0" result="hardAlpha"/><feOffset dy="4"/><feGaussianBlur stdDeviation="4"/><feComposite in2="hardAlpha" operator="out"/><feColorMatrix values="0 0 0 0 0 0 0 0 0 0 0 0 0 0 0 0 0 0 0.1 0"/><feBlend in2="BackgroundImageFix" result="effect1_dropShadow_1228_1803"/><feBlend in="SourceGraphic" in2="effect1_dropShadow_1228_1803" result="shape"/></filter><filter id="filter9_d_1228_1803" x="299" y="149" width="191" height="191" filterUnits="userSpaceOnUse" color-interpolation-filters="sRGB"><feFlood flood-opacity="0" result="BackgroundImageFix"/><feColorMatrix in="SourceAlpha" values="0 0 0 0 0 0 0 0 0 0 0 0 0 0 0 0 0 0 127 0" result="hardAlpha"/><feOffset dy="4"/><feGaussianBlur stdDeviation="4"/><feComposite in2="hardAlpha" operator="out"/><feColorMatrix values="0 0 0 0 0 0 0 0 0 0 0 0 0 0 0 0 0 0 0.1 0"/><feBlend in2="BackgroundImageFix" result="effect1_dropShadow_1228_1803"/><feBlend in="SourceGraphic" in2="effect1_dropShadow_1228_1803" result="shape"/></filter><filter id="filter10_d_1228_1803" x="299" y="0" width="166" height="191" filterUnits="userSpaceOnUse" color-interpolation-filters="sRGB"><feFlood flood-opacity="0" result="BackgroundImageFix"/><feColorMatrix in="SourceAlpha" values="0 0 0 0 0 0 0 0 0 0 0 0 0 0 0 0 0 0 127 0" result="hardAlpha"/><feOffset dy="4"/><feGaussianBlur stdDeviation="4"/><feComposite in2="hardAlpha" operator="out"/><feColorMatrix values="0 0 0 0 0 0 0 0 0 0 0 0 0 0 0 0 0 0 0.1 0"/><feBlend in2="BackgroundImageFix" result="effect1_dropShadow_1228_1803"/><feBlend in="SourceGraphic" in2="effect1_dropShadow_1228_1803" result="shape"/></filter><filter id="filter11_d_1228_1803" x="424" y="0" width="191" height="166" filterUnits="userSpaceOnUse" color-interpolation-filters="sRGB"><feFlood flood-opacity="0" result="BackgroundImageFix"/><feColorMatrix in="SourceAlpha" values="0 0 0 0 0 0 0 0 0 0 0 0 0 0 0 0 0 0 127 0" result="hardAlpha"/><feOffset dy="4"/><feGaussianBlur stdDeviation="4"/><feComposite in2="hardAlpha" operator="out"/><feColorMatrix values="0 0 0 0 0 0 0 0 0 0 0 0 0 0 0 0 0 0 0.1 0"/><feBlend in2="BackgroundImageFix" result="effect1_dropShadow_1228_1803"/><feBlend in="SourceGraphic" in2="effect1_dropShadow_1228_1803" result="shape"/></filter><clipPath id="clip0_1228_1803"><path fill="#fff" transform="translate(483 179)" d="M0 0h112.08v75H0z"/></clipPath><clipPath id="clip1_1228_1803"><path fill="#fff" transform="translate(38 176)" d="M0 0h112.5v75H0z"/></clipPath></defs></symbol></svg>