<svg width="92" height="85" fill="none" xmlns="http://www.w3.org/2000/svg"><ellipse opacity=".5" cx="66.403" cy="25" rx="24.907" ry="25" fill="#D7DF3B"/><path d="M67.652 24.188h-7.54c-.323-3.572-3.334-6.38-6.989-6.38-3.654 0-6.665 2.808-6.988 6.38H31.082v-1.172A7.024 7.024 0 0024.064 16a7.024 7.024 0 00-7.016 7.016v1.172H9.536c-.744 0-1.348.604-1.348 1.348v7.513H7.016A7.024 7.024 0 000 40.065a7.024 7.024 0 007.016 7.016h1.172v15.963c0 .744.604 1.347 1.348 1.347h2.966a4.737 4.737 0 014.732 4.732 4.737 4.737 0 01-4.732 4.732H9.536c-.744 0-1.348.603-1.348 1.348v8.45c0 .744.604 1.347 1.348 1.347h58.116c.745 0 1.348-.603 1.348-1.348V25.536c0-.744-.603-1.348-1.348-1.348zm-20.197 2.696c.744 0 1.347-.604 1.347-1.348v-.712a4.326 4.326 0 014.321-4.321 4.326 4.326 0 014.321 4.32v.713c0 .744.604 1.348 1.348 1.348h7.513v10.695h-7.268a1.348 1.348 0 000 2.696h7.268v12.971h-7.513c-.744 0-1.348.604-1.348 1.348v4.327a4.326 4.326 0 01-4.32 4.321 4.326 4.326 0 01-4.322-4.32v-4.328c0-.744-.603-1.348-1.347-1.348h-7.513v-6.165h1.172a7.024 7.024 0 007.016-7.016 7.024 7.024 0 00-7.016-7.016h-1.172v-6.165h7.513zM7.016 44.386a4.326 4.326 0 01-4.32-4.32 4.326 4.326 0 014.32-4.322h2.52c.744 0 1.348-.603 1.348-1.347v-7.513h7.513c.744 0 1.347-.604 1.347-1.348v-2.52a4.326 4.326 0 014.321-4.32 4.326 4.326 0 014.321 4.32v2.52c0 .744.604 1.348 1.348 1.348h7.512v7.513c0 .744.604 1.347 1.348 1.347h2.52a4.326 4.326 0 014.32 4.321 4.326 4.326 0 01-4.32 4.321h-2.52c-.744 0-1.348.603-1.348 1.348v7.512H24.624V45.98a1.348 1.348 0 00-2.695 0v7.267H10.884v-7.512c0-.745-.604-1.348-1.348-1.348h-2.52zm3.868 32.164h1.618c4.096 0 7.428-3.331 7.428-7.427 0-4.095-3.332-7.427-7.428-7.427h-1.618v-5.754h26.362v7.515c0 .744.604 1.348 1.348 1.348h.797a4.323 4.323 0 014.319 4.318 4.323 4.323 0 01-4.319 4.319h-.797c-.744 0-1.348.603-1.348 1.347v7.516h-8.602v-7.268a1.348 1.348 0 10-2.695 0v7.268H10.884V76.55zm29.058 5.755v-6.19c3.61-.281 6.463-3.31 6.463-6.992s-2.852-6.71-6.463-6.992v-6.19h6.165v2.98a7.024 7.024 0 007.016 7.017 7.024 7.024 0 007.017-7.017v-2.98h6.165v15.967h-7.268a1.348 1.348 0 100 2.695h7.268v7.702H39.942z" fill="#9498A9"/><path d="M27.297 71.317a1.348 1.348 0 100-2.695 1.348 1.348 0 000 2.695zm26.673 3.286a1.348 1.348 0 100-2.695 1.348 1.348 0 000 2.695zm0-34.329a1.348 1.348 0 100-2.695 1.348 1.348 0 000 2.695zM23.277 42.26a1.348 1.348 0 100-2.696 1.348 1.348 0 000 2.695z" fill="#9498A9"/></svg>