<svg width="40" height="40" fill="none" xmlns="http://www.w3.org/2000/svg"><path d="M39.219 4.747h-4.372a4.073 4.073 0 00-4.051-3.7 4.073 4.073 0 00-4.05 3.7h-8.728v-.68A4.072 4.072 0 0013.951 0a4.072 4.072 0 00-4.068 4.067v.68H5.528a.781.781 0 00-.781.781v4.355h-.68A4.072 4.072 0 000 13.951a4.072 4.072 0 004.067 4.067h.68v9.254c0 .431.35.781.781.781h1.72a2.746 2.746 0 012.743 2.743 2.746 2.746 0 01-2.743 2.743h-1.72a.781.781 0 00-.781.781v4.899c0 .431.35.781.781.781h33.69c.432 0 .782-.35.782-.781V5.529a.781.781 0 00-.781-.782zm-11.71 1.562c.432 0 .782-.35.782-.78v-.414a2.508 2.508 0 012.505-2.505 2.508 2.508 0 012.505 2.505v.413c0 .432.35.781.781.781h4.355v6.2h-4.213a.781.781 0 100 1.563h4.214v7.52h-4.356a.781.781 0 00-.78.781v2.509a2.508 2.508 0 01-2.506 2.505 2.508 2.508 0 01-2.505-2.505v-2.509a.781.781 0 00-.781-.78h-4.355v-3.575h.68a4.072 4.072 0 004.066-4.067 4.072 4.072 0 00-4.067-4.068h-.68V6.31h4.356zM4.068 16.456a2.508 2.508 0 01-2.505-2.505 2.508 2.508 0 012.505-2.505h1.461a.78.78 0 00.781-.781V6.309h4.356a.78.78 0 00.78-.78V4.066a2.508 2.508 0 012.506-2.505 2.508 2.508 0 012.505 2.505v1.461c0 .432.35.781.781.781h4.355v4.356c0 .431.35.78.781.78h1.461a2.508 2.508 0 012.505 2.506 2.508 2.508 0 01-2.505 2.505h-1.46a.781.781 0 00-.782.781v4.355h-7.317V17.38a.781.781 0 00-1.562 0v4.213H6.309v-4.355a.781.781 0 00-.78-.781H4.066zM6.31 35.102h.939a4.31 4.31 0 004.305-4.306 4.31 4.31 0 00-4.305-4.305H6.31v-3.336h15.283v4.356c0 .432.35.782.781.782h.462a2.506 2.506 0 012.504 2.503 2.506 2.506 0 01-2.503 2.503h-.463a.781.781 0 00-.78.782v4.356h-4.988v-4.213a.781.781 0 00-1.562 0v4.214H6.309v-3.336zm16.846 3.336V34.85a4.071 4.071 0 003.746-4.054 4.071 4.071 0 00-3.746-4.053v-3.588h3.574v1.727a4.072 4.072 0 004.067 4.067 4.072 4.072 0 004.068-4.067v-1.727h3.574v9.255h-4.214a.781.781 0 100 1.563h4.214v4.465H23.154z" fill="#161D3C"/><path d="M15.824 32.068a.781.781 0 100-1.563.781.781 0 000 1.563zm15.463 1.905a.781.781 0 100-1.563.781.781 0 000 1.563zm0-19.901a.781.781 0 100-1.563.781.781 0 000 1.563zm-17.793 1.151a.781.781 0 100-1.563.781.781 0 000 1.563z" fill="#161D3C"/></svg>