<svg width="40" height="40" fill="none" xmlns="http://www.w3.org/2000/svg"><path d="M39.375 23.75H.625V25h38.75v-1.25zM16.25 30H15v6.25h1.25V30zm8.75-.275h-1.25v6.25H25v-6.25z" fill="#161D3C"/><path d="M28.75 40h-17.5A1.25 1.25 0 0110 38.75v-.625A3.125 3.125 0 0113.125 35h13.75A3.125 3.125 0 0130 38.125v.625A1.25 1.25 0 0128.75 40zm-15.625-3.75a1.875 1.875 0 00-1.875 1.875v.625h17.5v-.625a1.875 1.875 0 00-1.875-1.875h-13.75zM36.875 30H3.125A3.124 3.124 0 010 26.875V3.125A3.125 3.125 0 013.125 0h33.75A3.125 3.125 0 0140 3.125v23.75A3.124 3.124 0 0136.875 30zM3.125 1.25A1.875 1.875 0 001.25 3.125v23.75a1.875 1.875 0 001.875 1.875h33.75a1.875 1.875 0 001.875-1.875V3.125a1.875 1.875 0 00-1.875-1.875H3.125z" fill="#161D3C"/><path d="M20 27.5a.625.625 0 100-1.25.625.625 0 000 1.25zm-.356-8.75a15.468 15.468 0 01-6.788-1.738 1.312 1.312 0 01-.712-1.18v-3.957a.625.625 0 011.25 0v3.956a.081.081 0 00.037.075 14.211 14.211 0 006.213 1.594 14.204 14.204 0 006.206-1.594.087.087 0 00.044-.075v-4.375a.625.625 0 011.25 0v4.407a1.318 1.318 0 01-.72 1.18 15.462 15.462 0 01-6.78 1.707z" fill="#161D3C"/><path d="M9.644 16.875a.625.625 0 01-.625-.625v-5.187a1.619 1.619 0 011.25-1.594l8.75-2.85a2.769 2.769 0 011.25 0l9.375 2.919a.687.687 0 01.493.668.694.694 0 01-.525.675l-9.268 2.87c-.464.17-.97.187-1.444.05l-8.631-2.55v5a.625.625 0 01-.625.624zm1.987-6.5l7.613 2.231c.23.062.475.05.7-.03l7.637-2.345L20 7.825a1.475 1.475 0 00-.625 0l-7.744 2.55zm17.619.381h.062-.062zm.031-1.043h-.044.044z" fill="#161D3C"/></svg>