<svg width="113" height="85" fill="none" xmlns="http://www.w3.org/2000/svg"><circle opacity=".5" cx="81" cy="25" r="25" fill="#D7DF3B"/><path d="M92.578 54.531H19.922v2.344h72.656v-2.344zM49.219 66.25h-2.344v11.719h2.344V66.25zm16.406-.516h-2.344v11.72h2.344v-11.72z" fill="#9498A9"/><path d="M72.656 85H39.844a2.343 2.343 0 01-2.344-2.344v-1.172a5.86 5.86 0 015.86-5.859h25.78a5.86 5.86 0 015.86 5.86v1.171A2.343 2.343 0 0172.656 85zM43.36 77.969a3.515 3.515 0 00-3.515 3.515v1.172h32.812v-1.172a3.515 3.515 0 00-3.515-3.515H43.359zM87.89 66.25H24.61a5.86 5.86 0 01-5.86-5.86V15.86A5.86 5.86 0 0124.61 10h63.28a5.86 5.86 0 015.86 5.86v44.53a5.86 5.86 0 01-5.86 5.86zM24.61 12.344a3.515 3.515 0 00-3.516 3.515v44.532a3.515 3.515 0 003.515 3.515h63.282a3.515 3.515 0 003.515-3.515V15.859a3.515 3.515 0 00-3.515-3.515H24.609z" fill="#9498A9"/><path d="M56.25 61.563a1.172 1.172 0 100-2.344 1.172 1.172 0 000 2.343zm-.668-16.407a29.004 29.004 0 01-12.727-3.258 2.461 2.461 0 01-1.336-2.214v-7.418a1.172 1.172 0 012.344 0v7.418a.152.152 0 00.07.14 26.648 26.648 0 0011.649 2.989 26.637 26.637 0 0011.637-2.989.163.163 0 00.082-.14V31.48a1.172 1.172 0 112.343 0v8.261a2.473 2.473 0 01-1.347 2.215 28.993 28.993 0 01-12.715 3.2z" fill="#9498A9"/><path d="M36.832 41.64a1.172 1.172 0 01-1.172-1.171v-9.727a3.035 3.035 0 012.344-2.988L54.41 22.41a5.193 5.193 0 012.344 0l17.578 5.473a1.288 1.288 0 01.926 1.254 1.3 1.3 0 01-.985 1.265l-17.378 5.38a4.348 4.348 0 01-2.708.093l-16.183-4.781v9.375a1.172 1.172 0 01-1.172 1.172zm3.727-12.187l14.273 4.184c.433.115.891.094 1.313-.059l14.32-4.394-14.215-4.512a2.766 2.766 0 00-1.172 0l-14.52 4.781zm33.035.715h.117-.117zm.058-1.957h-.082.082z" fill="#9498A9"/></svg>