<svg width="88" height="85" fill="none" xmlns="http://www.w3.org/2000/svg"><ellipse opacity=".5" cx="62.403" cy="25" rx="24.907" ry="25" fill="#D7DF3B"/><path d="M20.484 72.332a5.127 5.127 0 00-5.121-5.121H5.121A5.127 5.127 0 000 72.33c0 1.492.642 2.837 1.663 3.774A5.108 5.108 0 000 79.878 5.127 5.127 0 005.121 85h10.242a5.127 5.127 0 005.121-5.12 5.107 5.107 0 00-1.663-3.774 5.108 5.108 0 001.663-3.773zm-2.695 7.546a2.429 2.429 0 01-2.426 2.426H5.12a2.429 2.429 0 01-2.426-2.426 2.429 2.429 0 012.426-2.425h10.242a2.428 2.428 0 012.426 2.425zM5.12 74.758a2.429 2.429 0 01-2.426-2.427 2.429 2.429 0 012.426-2.425h10.242a2.429 2.429 0 012.426 2.425 2.429 2.429 0 01-2.426 2.426H5.121zm39.639-9.973a5.127 5.127 0 00-5.121-5.121H29.396a5.127 5.127 0 00-5.121 5.12c0 1.493.641 2.837 1.663 3.774a5.108 5.108 0 000 7.547 5.109 5.109 0 00-1.663 3.773A5.127 5.127 0 0029.395 85h10.243a5.127 5.127 0 005.12-5.12 5.108 5.108 0 00-1.663-3.774 5.108 5.108 0 000-7.547 5.107 5.107 0 001.664-3.773zm-2.696 15.093a2.429 2.429 0 01-2.425 2.426H29.396a2.429 2.429 0 01-2.426-2.426 2.429 2.429 0 012.425-2.425h10.243a2.429 2.429 0 012.425 2.425zm0-7.546a2.429 2.429 0 01-2.425 2.425H29.396a2.429 2.429 0 01-2.426-2.425 2.429 2.429 0 012.425-2.426h10.243a2.429 2.429 0 012.425 2.426zM29.396 67.21a2.429 2.429 0 01-2.426-2.426 2.429 2.429 0 012.426-2.426h10.242a2.429 2.429 0 012.425 2.426 2.429 2.429 0 01-2.425 2.426H29.396zM69 64.785a5.108 5.108 0 00-1.663-3.773A5.109 5.109 0 0069 57.238a5.127 5.127 0 00-5.121-5.12H53.637a5.127 5.127 0 00-5.121 5.12c0 1.492.641 2.837 1.663 3.773a5.109 5.109 0 000 7.547 5.109 5.109 0 000 7.547 5.108 5.108 0 00-1.663 3.773 5.127 5.127 0 005.12 5.12H63.88a5.127 5.127 0 005.12-5.12 5.108 5.108 0 00-1.662-3.773 5.109 5.109 0 000-7.547A5.107 5.107 0 0069 64.785zm-17.79-7.547a2.428 2.428 0 012.426-2.426h10.242a2.429 2.429 0 012.426 2.426 2.429 2.429 0 01-2.426 2.426H53.637a2.428 2.428 0 01-2.426-2.426zm15.093 22.64a2.429 2.429 0 01-2.425 2.426H53.637a2.429 2.429 0 01-2.426-2.426 2.429 2.429 0 012.426-2.425h10.242a2.428 2.428 0 012.425 2.425zm0-7.546a2.429 2.429 0 01-2.425 2.425H53.637a2.429 2.429 0 01-2.426-2.425 2.429 2.429 0 012.426-2.426h10.242a2.428 2.428 0 012.425 2.426zM53.637 67.21a2.429 2.429 0 01-2.426-2.426 2.429 2.429 0 012.426-2.426h10.242a2.429 2.429 0 012.426 2.426 2.429 2.429 0 01-2.426 2.426H53.637zM1.348 56.91c.354 0 .702-.143.952-.394.251-.25.395-.599.395-.954s-.144-.703-.395-.953a1.358 1.358 0 00-.952-.395c-.355 0-.702.144-.953.395-.25.25-.395.598-.395.953s.144.702.395.954c.25.25.598.393.953.393z" fill="#9498A9"/><path d="M31.35 53.684l2.28 2.275a1.348 1.348 0 001.905-.002c3.822-3.82 21.34-21.344 25.81-25.814l2.385 2.385a1.347 1.347 0 002.272-.677l2.969-14.225a1.347 1.347 0 00-1.595-1.595l-14.225 2.97a1.348 1.348 0 00-.677 2.271l2.39 2.39a45939.883 45939.883 0 01-20.286 20.291l-10.81-10.809a1.348 1.348 0 00-1.905 0L3.826 51.18a1.348 1.348 0 001.906 1.906l17.084-17.084 10.808 10.81c.527.526 1.38.526 1.906 0a43231.76 43231.76 0 0022.192-22.198 1.348 1.348 0 000-1.906l-1.58-1.58 9.77-2.038-2.04 9.769-1.575-1.575a1.347 1.347 0 00-1.906 0c-1.425 1.427-20.044 20.05-25.81 25.816l-1.332-1.328-9.48-9.48a1.348 1.348 0 00-1.906 0L.395 63.76A1.348 1.348 0 002.3 65.665L22.816 45.15l8.533 8.534z" fill="#9498A9"/></svg>