<svg width="133" height="136" fill="none" xmlns="http://www.w3.org/2000/svg"><g filter="url(#filter0_d_1188_1820)"><path fill-rule="evenodd" clip-rule="evenodd" d="M98.26 4.205L8.457 30.725l8.84 29.934c8.266-2.441 16.946 2.281 19.387 10.547 2.441 8.266-2.28 16.945-10.546 19.387l8.84 29.933 29.933-8.84c2.441 8.266 11.121 12.988 19.387 10.547 8.266-2.441 12.988-11.121 10.547-19.387l29.933-8.84-8.84-29.933c-8.266 2.44-16.945-2.281-19.387-10.547-2.44-8.266 2.281-16.946 10.547-19.387l-8.84-29.934z" fill="#A1D7A6"/><g clip-path="url(#clip0_1188_1820)" fill="#fff"><path d="M58.18 42.88l5.125 2.789 2.828-9.432-3.852 5.966-4.102.677zm10.785 21.025a5.392 5.392 0 113.644-6.697 5.4 5.4 0 01-3.644 6.697zm-2.64-8.938a3.928 3.928 0 104.88 2.655 3.935 3.935 0 00-4.88-2.655z"/><path d="M79.971 75.346l-13.996 4.133a1.463 1.463 0 01-1.818-.989l-2.113-7.156c-1.03-3.357 1.916-7.278 6.56-8.65 4.645-1.371 9.248.32 10.243 3.688l2.113 7.156a1.463 1.463 0 01-.989 1.817zM69.019 64.088c-3.866 1.141-6.394 4.176-5.607 6.842l2.113 7.156 14.032-4.144-2.114-7.156c-.777-2.63-4.559-3.84-8.424-2.698zm-3.586-13.434a9.341 9.341 0 01-11.463-6.53 9.342 9.342 0 016.076-11.71 9.342 9.342 0 0111.463 6.53 9.342 9.342 0 01-6.076 11.71zm-4.972-16.837a7.879 7.879 0 00-5.088 9.892 7.878 7.878 0 009.646 5.542 7.879 7.879 0 005.087-9.893 7.879 7.879 0 00-9.645-5.541zm-5.698 31.071a4.96 4.96 0 113.345-6.16 4.967 4.967 0 01-3.345 6.16zM52.374 56.8a3.496 3.496 0 101.967 6.71 3.496 3.496 0 00-1.967-6.71z"/><path d="M61.89 76.109l-9.822 2.9a1.419 1.419 0 01-1.798-.925L48.355 71.6c-.924-3.129 1.778-6.688 6.043-7.947 2.884-.852 5.835-.465 7.722 1.014l-.906 1.145c-1.49-1.17-4.002-1.465-6.401-.756-3.473 1.025-5.75 3.773-5.055 6.13l1.896 6.42 9.822-2.901.414 1.403zm19.47-19.075a4.96 4.96 0 11-2.81-9.515 4.96 4.96 0 012.81 9.515zm-2.394-8.103a3.497 3.497 0 104.342 2.356 3.497 3.497 0 00-4.338-2.342l-.004-.014z"/><path d="M91.314 67.42l-9.78 2.887-.414-1.403 9.78-2.888.042-.012-1.896-6.42c-.684-2.315-4.178-3.403-7.637-2.382-2.4.709-4.349 2.322-4.957 4.11l-1.388-.466c.78-2.267 3.047-4.195 5.93-5.047 4.273-1.262 8.531.242 9.455 3.371l1.915 6.482a1.463 1.463 0 01-1.05 1.767z"/></g><path d="M63.097 90.17l2.422-.715 1.963 6.647 1.409-.416-1.964-6.647 2.423-.715-.352-1.19-6.253 1.847.352 1.19zm8.184-3.71l2.315 7.837 1.362-.403-1.593-5.395.072-.022 3.753 4.733 1.018-.3.583-6.001.072-.022 1.59 5.385 1.363-.403-2.315-7.837-1.737.513-.65 6.366-.092.027-4.003-4.991-1.738.513zm15.74-2.306l1.365-.403c-.417-1.317-1.823-1.92-3.492-1.428-1.645.486-2.608 1.777-2.195 3.161.332 1.125 1.323 1.536 2.711 1.488l.96-.034c.909-.035 1.545.064 1.729.671.194.67-.31 1.306-1.235 1.58-.888.262-1.695.067-1.995-.738l-1.397.412c.518 1.54 1.936 2.074 3.761 1.535 1.88-.555 2.693-1.814 2.289-3.197-.405-1.357-1.71-1.646-2.97-1.577l-.79.033c-.688.037-1.464-.03-1.65-.686-.17-.59.23-1.179 1.118-1.44.846-.25 1.52-.021 1.79.623z" fill="#fff"/></g><defs><clipPath id="clip0_1188_1820"><path fill="#fff" transform="rotate(-16.453 159.13 -73.818)" d="M0 0h70.226v46.817H0z"/></clipPath><filter id="filter0_d_1188_1820" x=".458" y=".205" width="132.321" height="134.671" filterUnits="userSpaceOnUse" color-interpolation-filters="sRGB"><feFlood flood-opacity="0" result="BackgroundImageFix"/><feColorMatrix in="SourceAlpha" values="0 0 0 0 0 0 0 0 0 0 0 0 0 0 0 0 0 0 127 0" result="hardAlpha"/><feOffset dy="4"/><feGaussianBlur stdDeviation="4"/><feComposite in2="hardAlpha" operator="out"/><feColorMatrix values="0 0 0 0 0 0 0 0 0 0 0 0 0 0 0 0 0 0 0.1 0"/><feBlend in2="BackgroundImageFix" result="effect1_dropShadow_1188_1820"/><feBlend in="SourceGraphic" in2="effect1_dropShadow_1188_1820" result="shape"/></filter></defs></svg>