<svg width="615" height="462" fill="none" xmlns="http://www.w3.org/2000/svg"><g opacity=".5"><g filter="url(#filter0_d_1228_1803)"><path fill-rule="evenodd" clip-rule="evenodd" d="M307 300h-50c0-13.807-11.193-25-25-25s-25 11.193-25 25h-50v50c-13.807 0-25 11.193-25 25s11.193 25 25 25v50h150v-50c-13.807 0-25-11.193-25-25s11.193-25 25-25v-50z" fill="#A1D7A6"/><path d="M260.535 332.9h-8.197c-.35-3.882-3.623-6.935-7.595-6.935-3.973 0-7.246 3.053-7.596 6.935h-16.363v-1.274c0-4.205-3.421-7.626-7.626-7.626s-7.627 3.421-7.627 7.626v1.274h-8.166c-.809 0-1.465.656-1.465 1.465v8.166h-1.273c-4.206 0-7.627 3.421-7.627 7.627 0 4.205 3.421 7.626 7.626 7.626h1.274v17.351c0 .809.656 1.464 1.465 1.464h3.225a5.15 5.15 0 015.143 5.144 5.15 5.15 0 01-5.143 5.143h-3.225c-.809 0-1.465.656-1.465 1.465v9.184c0 .809.656 1.465 1.465 1.465h63.17c.809 0 1.465-.656 1.465-1.465v-63.17c0-.809-.656-1.465-1.465-1.465zm-21.954 2.93c.809 0 1.465-.656 1.465-1.465v-.774a4.702 4.702 0 014.697-4.697 4.702 4.702 0 014.696 4.697v.774c0 .809.656 1.465 1.465 1.465h8.166v11.626h-7.9a1.465 1.465 0 000 2.929h7.9v14.1h-8.166c-.808 0-1.464.656-1.464 1.465v4.704a4.702 4.702 0 01-4.697 4.696 4.702 4.702 0 01-4.697-4.696v-4.704c0-.809-.656-1.465-1.465-1.465h-8.166v-6.701h1.274c4.205 0 7.626-3.421 7.626-7.626 0-4.206-3.421-7.627-7.626-7.627h-1.274v-6.701h8.166zm-43.955 19.024a4.701 4.701 0 01-4.696-4.696 4.702 4.702 0 014.696-4.697h2.739c.809 0 1.465-.656 1.465-1.465v-8.166h8.166c.809 0 1.465-.656 1.465-1.465v-2.739a4.702 4.702 0 014.697-4.696 4.702 4.702 0 014.697 4.696v2.739c0 .809.656 1.465 1.464 1.465h8.166v8.166c0 .809.656 1.465 1.465 1.465h2.739a4.702 4.702 0 014.697 4.697 4.701 4.701 0 01-4.697 4.696h-2.739c-.809 0-1.465.656-1.465 1.465v8.166h-13.719v-7.9a1.464 1.464 0 00-2.93 0v7.9H198.83v-8.166c0-.809-.656-1.465-1.465-1.465h-2.739zm4.204 34.962h1.76c4.451 0 8.073-3.622 8.073-8.073 0-4.452-3.622-8.073-8.073-8.073h-1.76v-6.255h28.655v8.169c0 .809.656 1.465 1.465 1.465h.867a4.699 4.699 0 014.694 4.694 4.699 4.699 0 01-4.694 4.693h-.867c-.809 0-1.465.656-1.465 1.465v8.169h-9.35v-7.9a1.464 1.464 0 00-2.929 0v7.9H198.83v-6.254zm31.585 6.254v-6.727c3.925-.306 7.025-3.598 7.025-7.6 0-4.003-3.1-7.294-7.025-7.601v-6.727h6.701v3.239c0 4.205 3.421 7.626 7.627 7.626 4.205 0 7.626-3.421 7.626-7.626v-3.239h6.701v17.355h-7.9a1.464 1.464 0 000 2.929h7.9v8.371h-28.655z" fill="#fff"/><path d="M216.67 384.127a1.464 1.464 0 10.001-2.929 1.464 1.464 0 00-.001 2.929zm28.993 3.572a1.464 1.464 0 100-2.929 1.464 1.464 0 000 2.929zm0-37.314a1.464 1.464 0 100-2.929 1.464 1.464 0 000 2.929zm-33.362 2.158a1.465 1.465 0 100-2.93 1.465 1.465 0 000 2.93zM213.398 422l1.08-3.228h4.922l1.087 3.228h2.531l-4.615-13.091h-2.928L210.867 422h2.531zm1.719-5.133l1.771-5.273h.102l1.771 5.273h-3.644zM226.542 422h2.372v-4.423h2.505c3.024 0 4.647-1.816 4.647-4.334 0-2.499-1.604-4.334-4.615-4.334h-4.909V422zm2.372-6.373v-4.736h2.173c1.777 0 2.563.958 2.563 2.352 0 1.393-.786 2.384-2.55 2.384h-2.186zm13.384-6.718h-2.372V422h2.372v-13.091z" fill="#fff"/></g><g filter="url(#filter1_d_1228_1803)"><path fill-rule="evenodd" clip-rule="evenodd" d="M557 300c0 13.807-11.193 25-25 25s-25-11.193-25-25h-50v50c-13.807 0-25 11.193-25 25s11.193 25 25 25v50h150V300h-50z" fill="#A1D7A6"/><path d="M559.121 410.606a17.58 17.58 0 01-16.24-10.844 17.555 17.555 0 013.81-19.144 17.586 17.586 0 0127.046 2.662 17.562 17.562 0 01-2.186 22.181 17.587 17.587 0 01-12.43 5.145zm0-32.791c-3.013 0-5.958.893-8.464 2.566a15.222 15.222 0 005.492 27.59 15.242 15.242 0 0015.639-6.473 15.22 15.22 0 00-1.895-19.224 15.238 15.238 0 00-10.772-4.459z" fill="#fff"/><path d="M554.879 401.904a1.696 1.696 0 01-.809-.21 1.65 1.65 0 01-.808-1.406v-14.053a1.6 1.6 0 01.808-1.394 1.64 1.64 0 011.618 0l12.164 7.027a1.65 1.65 0 01.808 1.405 1.625 1.625 0 01-.82 1.406l-12.141 7.026a1.697 1.697 0 01-.82.199zm.726-14.392v11.523l9.985-5.762-9.985-5.761zm-25.558 18.491a1.179 1.179 0 01-1.067-.691l-2.343-5.094a26.776 26.776 0 01-2.696-.269l-3.632 4.532a1.171 1.171 0 01-1.172.398 34.329 34.329 0 01-7.571-3.056 1.174 1.174 0 01-.597-1.172l.808-5.469a28.88 28.88 0 01-2.554-2.049l-5.45 1.827a1.175 1.175 0 01-1.253-.34 34.333 34.333 0 01-4.524-6.499 1.17 1.17 0 01.188-1.382l3.632-4.205a26.313 26.313 0 01-1.171-3.513l-5.45-1.405a1.178 1.178 0 01-.879-.972 34.96 34.96 0 01-.316-4.685c0-1.019 0-2.061.152-3.162a1.171 1.171 0 01.832-1.019l5.426-1.569a27.175 27.175 0 011.008-3.607l-3.855-4.099a1.166 1.166 0 01-.2-1.311 34.734 34.734 0 014.207-6.512 1.176 1.176 0 011.301-.398l5.461 1.628a28.161 28.161 0 012.66-2.342l-1.09-5.434a1.177 1.177 0 01.551-1.171 33.657 33.657 0 017.313-3.303 1.18 1.18 0 01.674-.011c.22.063.418.189.568.362l3.785 4.334a28.545 28.545 0 013-.387l2.145-5.153a1.168 1.168 0 011.171-.726c2.775.083 5.529.5 8.204 1.242a1.17 1.17 0 01.843.972l.75 5.703c.774.328 1.524.667 2.227 1.042l4.605-3.209a1.176 1.176 0 011.325 0 34.578 34.578 0 016.433 5.68 1.165 1.165 0 01.188 1.265l-2.438 5.282c.399.562.75 1.112 1.078 1.651l5.625-.211a1.173 1.173 0 011.172.691 33.894 33.894 0 012.508 8.362 1.166 1.166 0 01-.527 1.171l-4.864 3.103v2.378l-2.343-.094v-1.113c0-.48 0-.96-.071-1.44v-.316a1.171 1.171 0 01.539-1.066l4.758-2.998a30.757 30.757 0 00-1.887-6.312l-5.531.187a1.168 1.168 0 01-1.066-.597 27.566 27.566 0 00-1.688-2.612 1.164 1.164 0 01-.117-1.171l2.344-5.188a31.077 31.077 0 00-4.817-4.239l-4.476 3.173a1.164 1.164 0 01-1.242.059 25.987 25.987 0 00-3.235-1.511 1.166 1.166 0 01-.726-.925l-.797-5.656a32.268 32.268 0 00-6.094-.937l-2.086 5.082a1.17 1.17 0 01-1.031.726 25.777 25.777 0 00-4.067.516 1.171 1.171 0 01-1.171-.387l-3.657-4.298a32.666 32.666 0 00-5.39 2.425l1.031 5.41a1.169 1.169 0 01-.469 1.171 25.984 25.984 0 00-3.457 2.975 1.18 1.18 0 01-1.172.304l-5.449-1.616a31.715 31.715 0 00-3.07 4.837l3.785 4.04a1.166 1.166 0 01.234 1.171 25.84 25.84 0 00-1.277 4.591 1.17 1.17 0 01-.832.913l-5.332 1.546c0 .738-.07 1.452-.07 2.155a30.318 30.318 0 00.199 3.513l5.414 1.359a1.17 1.17 0 01.855.878 25.28 25.28 0 001.477 4.544 1.168 1.168 0 01-.188 1.171l-3.609 4.134a31.622 31.622 0 003.316 4.767l5.356-1.804a1.17 1.17 0 011.172.258c1.047.995 2.176 1.9 3.375 2.705a1.175 1.175 0 01.515 1.171l-.773 5.446a31.309 31.309 0 005.602 2.26l3.574-4.45a1.172 1.172 0 011.113-.422c1.251.212 2.516.334 3.785.363a1.177 1.177 0 011.043.691l2.262 5.013a32.875 32.875 0 006.211-1.171l.586-5.68 2.344.246-.739 6.452a1.167 1.167 0 01-.808.996 33.91 33.91 0 01-8.309 1.546l-.035.011zM522.093 432l1.08-3.228h4.922l1.087 3.228h2.531l-4.615-13.091h-2.928L519.562 432h2.531zm1.719-5.133l1.771-5.273h.102l1.771 5.273h-3.644zM535.237 432h8.565v-1.988h-6.193v-3.573h5.701v-1.988h-5.701v-3.554h6.142v-1.988h-8.514V432z" fill="#fff"/></g><g filter="url(#filter2_d_1228_1803)"><path fill-rule="evenodd" clip-rule="evenodd" d="M108 300h50v50c-13.807 0-25 11.193-25 25s11.193 25 25 25v50H8V300h50c0-13.807 11.193-25 25-25s25 11.193 25 25z" fill="#96C0D0"/><path d="M46.276 386.31h-20.69A2.586 2.586 0 0123 383.724v-41.379a2.587 2.587 0 012.586-2.586h20.69v2.586h-20.69v41.379h20.69v2.586z" fill="#fff"/><path d="M46.276 360.448H33.345a2.586 2.586 0 01-2.586-2.586v-7.758a2.587 2.587 0 012.586-2.587h12.931v2.587H33.345v7.758h12.931v2.586zm-2.586 7.759H32.052a1.291 1.291 0 01-1.293-1.293 1.295 1.295 0 011.293-1.293H43.69a1.295 1.295 0 011.293 1.293 1.291 1.291 0 01-1.293 1.293zm-3.88 7.759h-7.758a1.295 1.295 0 01-1.293-1.294 1.295 1.295 0 011.293-1.293h7.758a1.295 1.295 0 011.294 1.293 1.295 1.295 0 01-1.294 1.294zM121.276 407H90.242a2.587 2.587 0 01-2.587-2.586v-10.345h2.587v10.345h31.034v-41.38H95.414v-2.586h25.862a2.587 2.587 0 012.586 2.586v41.38a2.584 2.584 0 01-2.586 2.586z" fill="#fff"/><path d="M113.518 381.138H98a2.587 2.587 0 01-2.586-2.586v-7.759A2.587 2.587 0 0198 368.207h15.518a2.586 2.586 0 012.586 2.586v7.759a2.585 2.585 0 01-2.586 2.586zM98 370.793v7.759h15.518v-7.759H98zm16.811 18.104H96.707a1.295 1.295 0 01-1.293-1.294 1.293 1.293 0 011.293-1.293h18.104a1.295 1.295 0 011.293 1.293 1.298 1.298 0 01-1.293 1.294zm-7.759 7.758H96.707a1.291 1.291 0 01-.914-2.207 1.29 1.29 0 01.914-.379h10.345c.343 0 .672.136.914.379a1.29 1.29 0 010 1.828 1.29 1.29 0 01-.914.379zm-16.81-5.172H51.448a2.587 2.587 0 01-2.586-2.586v-54.311A2.587 2.587 0 0151.45 332h38.793a2.586 2.586 0 012.586 2.586v54.311a2.586 2.586 0 01-2.586 2.586zm-38.794-56.897v54.311h38.794v-54.311H51.448z" fill="#fff"/><path d="M82.483 360.448H59.207a2.586 2.586 0 01-2.586-2.586v-15.517a2.587 2.587 0 012.586-2.586h23.276a2.586 2.586 0 012.586 2.586v15.517a2.587 2.587 0 01-2.586 2.586zm-23.276-18.103v15.517h23.276v-15.517H59.207zm24.569 25.862H57.914a1.291 1.291 0 01-1.293-1.293 1.295 1.295 0 011.293-1.293h25.862a1.294 1.294 0 011.293 1.293 1.291 1.291 0 01-1.293 1.293zm-12.931 7.681H57.914a1.291 1.291 0 01-.915-2.207c.243-.243.572-.379.915-.379h12.93a1.291 1.291 0 01.915 2.207 1.291 1.291 0 01-.914.379zm-24.569-10.267h-2.587v2.586h2.587v-2.586zM36.905 416c3.988 0 6.353-2.467 6.353-6.558 0-4.078-2.365-6.533-6.264-6.533H32.47V416h4.436zm-2.065-2.052v-8.987h2.02c2.66 0 4.046 1.483 4.046 4.481 0 3.01-1.387 4.506-4.116 4.506h-1.95zm12.472-11.039V416h2.275v-9.013h.122l3.618 8.975h1.7l3.618-8.956h.121V416h2.276v-13.091H58.14l-3.886 9.486H54.1l-3.886-9.486h-2.902zm25.227 3.599h2.281c-.044-2.212-1.93-3.778-4.717-3.778-2.748 0-4.813 1.547-4.807 3.861 0 1.879 1.336 2.959 3.49 3.516l1.49.383c1.412.358 2.346.799 2.352 1.815-.006 1.119-1.067 1.867-2.614 1.867-1.483 0-2.634-.665-2.73-2.039h-2.333c.096 2.601 2.033 4.065 5.082 4.065 3.138 0 4.96-1.566 4.966-3.873-.006-2.27-1.879-3.305-3.847-3.772l-1.228-.307c-1.074-.255-2.237-.709-2.224-1.802.006-.984.888-1.707 2.371-1.707 1.413 0 2.346.659 2.468 1.771z" fill="#fff"/></g><g filter="url(#filter3_d_1228_1803)"><path fill-rule="evenodd" clip-rule="evenodd" d="M207 153h-50v50c13.807 0 25 11.193 25 25s-11.193 25-25 25v50h50c0-13.807 11.193-25 25-25s25 11.193 25 25h50v-50c13.807 0 25-11.193 25-25s-11.193-25-25-25v-50h-50c0-13.807-11.193-25-25-25s-25 11.193-25 25z" fill="#fff"/><path d="M216.802 254.897h4.046V266h2.352v-11.103h4.046v-1.988h-10.444v1.988zm17.452 11.295c1.157 0 2.442-.358 3.356-1.151l.837.959h2.506l-1.918-2.244c.64-.856 1.138-2.128 1.138-3.924h-1.988a4.82 4.82 0 01-.549 2.282l-2.391-2.8.825-.607c1.093-.793 1.738-1.745 1.738-2.985 0-1.598-1.259-2.973-3.324-2.973-2.071 0-3.432 1.375-3.432 3.235 0 1.169.588 2.122 1.342 3.055-1.457 1.004-2.454 1.943-2.454 3.484 0 2.084 1.636 3.669 4.314 3.669zm2.097-2.595c-.62.447-1.33.69-2.027.69-1.284 0-2.115-.831-2.115-1.867 0-.453.345-1.137 1.214-1.777l.211-.153 2.717 3.107zm-2.289-5.696c-.549-.677-.946-1.285-.946-1.885 0-.71.563-1.368 1.4-1.368.825 0 1.33.613 1.33 1.176 0 .665-.358 1.131-1.042 1.572l-.742.505zM245.861 266l1.08-3.228h4.922L252.95 266h2.531l-4.615-13.091h-2.927L243.33 266h2.531zm1.72-5.133l1.77-5.273h.102l1.771 5.273h-3.643zm11.511-13.902h-41.643a6.441 6.441 0 01-4.581-1.91 6.465 6.465 0 01-1.394-2.112 6.473 6.473 0 01-.474-2.486v-62.031a6.45 6.45 0 016.449-6.426h34.832a6.479 6.479 0 014.681 2.001l6.215 6.508a6.437 6.437 0 011.779 4.459v56.18a5.85 5.85 0 01-5.852 5.852l-.012-.035zm-41.643-72.624a4.102 4.102 0 00-2.905 1.203 4.107 4.107 0 00-1.203 2.905v62.032a4.11 4.11 0 004.108 4.085h41.608c.932 0 1.825-.37 2.483-1.029a3.508 3.508 0 001.029-2.483v-56.179a4.041 4.041 0 00-1.171-2.833l-6.144-6.425a4.14 4.14 0 00-2.973-1.276h-34.832z" fill="#9498A9"/><path d="M228.24 204.772a8.771 8.771 0 01-4.876-1.48 8.771 8.771 0 01-1.331-13.506 8.771 8.771 0 0113.506 1.331 8.771 8.771 0 011.48 4.876 8.805 8.805 0 01-8.779 8.779zm0-15.216a6.44 6.44 0 00-5.947 3.974 6.442 6.442 0 001.396 7.015 6.442 6.442 0 009.904-.975 6.433 6.433 0 00-.801-8.128 6.433 6.433 0 00-4.552-1.886z" fill="#9498A9"/><path d="M223.266 201.518l-1.849-1.428a8.784 8.784 0 0110.555-2.569 8.786 8.786 0 013.08 2.346l-1.814 1.487a6.433 6.433 0 00-5.031-2.292 6.428 6.428 0 00-4.952 2.456h.011z" fill="#9498A9"/><path d="M228.322 199.06a3.888 3.888 0 01-3.811-4.644 3.886 3.886 0 113.811 4.644zm0-5.431a1.544 1.544 0 00-1.515 1.847 1.538 1.538 0 001.214 1.213 1.543 1.543 0 001.846-1.515 1.545 1.545 0 00-1.545-1.545zm-.082 38.167a8.77 8.77 0 01-8.109-5.418 8.771 8.771 0 011.902-9.567 8.786 8.786 0 019.567-1.903 8.781 8.781 0 015.419 8.11 8.794 8.794 0 01-8.779 8.778zm0-15.215a6.44 6.44 0 00-5.947 3.974 6.44 6.44 0 001.396 7.015 6.435 6.435 0 009.904-.975 6.444 6.444 0 001.085-3.577 6.45 6.45 0 00-6.438-6.437z" fill="#9498A9"/><path d="M223.266 228.554l-1.849-1.451a8.776 8.776 0 0113.635-.222l-1.814 1.509a6.413 6.413 0 00-9.983.164h.011z" fill="#9498A9"/><path d="M228.322 226.085a3.888 3.888 0 01-3.811-4.644 3.886 3.886 0 113.811 4.644zm0-5.431a1.545 1.545 0 10.002 3.089 1.545 1.545 0 00-.002-3.089zm13.577-24.661l6.239 6.239 8.157-12.489-8.157 7.011-6.239-.761zm-1.17 27.025l6.238 6.239 8.158-12.477-8.158 7.011-6.238-.773z" fill="#9498A9"/></g><g filter="url(#filter4_d_1228_1803)"><path fill-rule="evenodd" clip-rule="evenodd" d="M507 152h-50v50c13.807 0 25 11.193 25 25s-11.193 25-25 25v50h50c0 13.807 11.193 25 25 25s25-11.193 25-25h50V152h-50c0-13.807-11.193-25-25-25s-25 11.193-25 25z" fill="#E6ECEC"/><g clip-path="url(#clip0_1228_1803)" fill="#9498A9"><path d="M561.585 227.188a9.972 9.972 0 01-5.553-1.691 10.02 10.02 0 01-3.68-4.502 10.059 10.059 0 012.166-10.932 9.98 9.98 0 015.117-2.745 9.952 9.952 0 015.774.571 10.003 10.003 0 014.485 3.694 10.06 10.06 0 011.684 5.573 10.064 10.064 0 01-2.93 7.09 9.99 9.99 0 01-7.063 2.942zm0-17.719a7.642 7.642 0 00-4.255 1.295 7.68 7.68 0 00-2.821 3.45 7.71 7.71 0 001.66 8.378 7.64 7.64 0 0011.784-1.165 7.71 7.71 0 00-.953-9.707 7.645 7.645 0 00-5.415-2.251z"/><path d="M576.12 254h-27.459a2.561 2.561 0 01-2.402-1.548 2.585 2.585 0 01-.214-.983v-13.875c0-6.492 7.332-11.719 16.345-11.719 9.014 0 16.345 5.273 16.345 11.719v13.828a2.564 2.564 0 01-.768 1.84 2.559 2.559 0 01-1.847.738zm-13.73-25.781c-7.728 0-14.01 4.218-14.01 9.375v13.828c0 .094.117.187.281.187h27.459c.164 0 .28-.093.28-.187v-13.828c0-5.157-6.281-9.375-14.01-9.375zm-27.565-8.285a9.317 9.317 0 01-5.189-1.58 9.374 9.374 0 01-3.44-4.208 9.4 9.4 0 012.025-10.217 9.321 9.321 0 0110.179-2.032 9.349 9.349 0 014.191 3.453 9.395 9.395 0 011.574 5.209 9.395 9.395 0 01-2.735 6.629 9.324 9.324 0 01-6.605 2.746zm0-16.325a6.99 6.99 0 00-3.891 1.185 7.05 7.05 0 00-1.062 10.818 6.983 6.983 0 007.634 1.525 7.02 7.02 0 003.144-2.59 7.047 7.047 0 001.18-3.906 7.046 7.046 0 00-2.051-4.972 6.993 6.993 0 00-4.954-2.06z"/><path d="M543.71 244.625h-20.851a2.46 2.46 0 01-1.748-.695 2.479 2.479 0 01-.751-1.731v-12.738c0-6.024 6.807-10.922 15.178-10.922 7.215 0 13.309 3.516 14.827 8.566l-2.23.68c-1.167-3.996-6.503-6.902-12.597-6.902-7.087 0-12.843 3.844-12.843 8.578v12.738s0 .082.164.082h20.851v2.344zm-33.367-32.062a8.617 8.617 0 01-4.8-1.462 8.67 8.67 0 01-3.182-3.892 8.694 8.694 0 011.873-9.45 8.615 8.615 0 019.415-1.88 8.649 8.649 0 013.878 3.194 8.696 8.696 0 011.456 4.818 8.7 8.7 0 01-2.534 6.128 8.638 8.638 0 01-6.106 2.544zm0-14.989a6.289 6.289 0 00-3.504 1.068 6.318 6.318 0 00-2.322 2.841 6.35 6.35 0 001.372 6.898 6.281 6.281 0 006.875 1.364 6.307 6.307 0 002.827-2.335 6.353 6.353 0 001.057-3.519 6.338 6.338 0 00-1.851-4.467 6.29 6.29 0 00-4.454-1.85z"/><path d="M518.025 235.25h-18.621a2.33 2.33 0 01-2.211-1.433 2.353 2.353 0 01-.183-.911v-11.718c0-5.59 6.281-10.137 14.01-10.137 6.27 0 11.815 3.035 13.485 7.371l-2.172.855c-1.342-3.457-5.989-5.859-11.313-5.859-6.433 0-11.675 3.516-11.675 7.793v11.695h18.68v2.344z"/></g><path d="M498.379 269h8.565v-1.988h-6.194v-3.573h5.702v-1.988h-5.702v-3.554h6.143v-1.988h-8.514V269zm12.733 0h2.372v-4.794h2.416l2.57 4.794h2.646l-2.832-5.19c1.541-.62 2.353-1.937 2.353-3.714 0-2.499-1.611-4.187-4.615-4.187h-4.91V269zm2.372-6.763v-4.346h2.173c1.771 0 2.563.811 2.563 2.205 0 1.393-.792 2.141-2.55 2.141h-2.186zM524.62 269h2.371v-4.423h2.506c3.023 0 4.647-1.816 4.647-4.334 0-2.499-1.605-4.334-4.615-4.334h-4.909V269zm2.371-6.373v-4.736h2.173c1.777 0 2.563.958 2.563 2.352 0 1.393-.786 2.384-2.55 2.384h-2.186z" fill="#9498A9"/></g><g filter="url(#filter5_d_1228_1803)"><path fill-rule="evenodd" clip-rule="evenodd" d="M8 4h150v50c13.807 0 25 11.193 25 25s-11.193 25-25 25v50h-50c0-13.807-11.193-25-25-25s-25 11.193-25 25H8V4z" fill="#fff"/><path d="M96.281 72.531h-62.11v2.344h62.11v-2.344zM64.64 83.734h-2.343v11.72h2.344v-11.72zm15.235 0h-2.344v11.72h2.344v-11.72z" fill="#9498A9"/><path d="M86.906 103H54.094a2.345 2.345 0 01-2.344-2.344v-1.172a5.86 5.86 0 015.86-5.859h25.78a5.86 5.86 0 015.86 5.86v1.171A2.345 2.345 0 0186.906 103zM57.61 95.969a3.515 3.515 0 00-3.515 3.515v1.172h32.812v-1.172a3.515 3.515 0 00-3.515-3.515H57.609zM96.281 84.25H38.86A5.86 5.86 0 0133 78.39V33.86A5.86 5.86 0 0138.86 28h63.281A5.859 5.859 0 01108 33.86v17.578h-2.344v-17.58a3.516 3.516 0 00-3.515-3.515H38.859a3.515 3.515 0 00-3.515 3.515V78.39a3.515 3.515 0 003.515 3.515h57.422v2.344z" fill="#9498A9"/><path d="M70.5 79.563a1.172 1.172 0 100-2.344 1.172 1.172 0 000 2.344zm-2.344-17.579H47.062a2.344 2.344 0 01-2.343-2.343V44.406a2.344 2.344 0 012.343-2.343h21.094a2.343 2.343 0 012.344 2.343v15.235a2.343 2.343 0 01-2.344 2.343zM47.062 44.406v15.235h21.094V44.406H47.062zm72.657 30.469h-14.063a2.345 2.345 0 01-2.344-2.344v-9.375a2.342 2.342 0 012.344-2.343h14.063a2.345 2.345 0 012.343 2.343v9.375a2.341 2.341 0 01-2.343 2.344zm-14.063-11.719v9.375h14.063v-9.375h-14.063zM95.11 44.406H76.36a1.172 1.172 0 110-2.343h18.75a1.172 1.172 0 010 2.343zm0 7.032H76.36a1.172 1.172 0 010-2.344h18.75a1.172 1.172 0 110 2.343zm-9.376 7.031H76.36a1.172 1.172 0 010-2.344h9.375a1.172 1.172 0 010 2.344zm35.157 23.437h-16.407a1.172 1.172 0 010-2.344h16.407a1.172 1.172 0 010 2.344zm-9.375 7.032h-7.032a1.172 1.172 0 010-2.344h7.032a1.172 1.172 0 010 2.344z" fill="#9498A9"/><path d="M120.891 103h-16.407a5.858 5.858 0 01-5.859-5.86v-37.5a5.86 5.86 0 015.859-5.859h16.407a5.86 5.86 0 015.859 5.86v37.5a5.86 5.86 0 01-5.859 5.859zm-16.407-46.875a3.518 3.518 0 00-3.515 3.516v37.5a3.516 3.516 0 003.515 3.515h16.407a3.517 3.517 0 003.515-3.515v-37.5a3.516 3.516 0 00-3.515-3.516h-16.407zm7.023 57.201c-.403-2.908-2.64-4.596-5.542-4.596-3.42 0-5.996 2.493-5.996 6.725 0 4.225 2.544 6.724 5.996 6.724 3.113 0 5.178-2.014 5.542-4.513l-2.391-.013c-.3 1.535-1.553 2.397-3.119 2.397-2.122 0-3.643-1.591-3.643-4.595 0-2.954 1.508-4.596 3.649-4.596 1.592 0 2.839.901 3.113 2.467h2.391zm3.972-4.417V122h2.275v-9.013h.122l3.618 8.975h1.7l3.618-8.956h.121V122h2.276v-13.091h-2.902l-3.887 9.486h-.153l-3.886-9.486h-2.902zm25.227 3.599h2.281c-.044-2.212-1.93-3.778-4.717-3.778-2.748 0-4.813 1.547-4.807 3.861 0 1.879 1.336 2.959 3.49 3.516l1.49.383c1.412.358 2.346.799 2.352 1.815-.006 1.119-1.067 1.867-2.614 1.867-1.483 0-2.634-.665-2.73-2.039h-2.333c.096 2.601 2.033 4.065 5.082 4.065 3.138 0 4.96-1.566 4.966-3.873-.006-2.27-1.879-3.305-3.848-3.772l-1.227-.307c-1.074-.255-2.237-.709-2.224-1.802.006-.984.888-1.707 2.371-1.707 1.413 0 2.346.659 2.468 1.771z" fill="#9498A9"/></g><g filter="url(#filter6_d_1228_1803)"><path fill-rule="evenodd" clip-rule="evenodd" d="M307 4H157v50c13.807 0 25 11.193 25 25s-11.193 25-25 25v50h50c0-13.807 11.193-25 25-25s25 11.193 25 25h50v-50c13.807 0 25-11.193 25-25s-11.193-25-25-25V4z" fill="#E6ECEC"/><path d="M248.797 100h-28.125a5.859 5.859 0 01-5.86-5.86V30.86a5.86 5.86 0 015.86-5.86h28.125a5.859 5.859 0 015.859 5.86v63.28a5.858 5.858 0 01-5.859 5.86zm-28.125-72.656a3.514 3.514 0 00-3.516 3.515v63.282a3.517 3.517 0 003.516 3.515h28.125a3.517 3.517 0 003.515-3.515V30.859a3.516 3.516 0 00-3.515-3.515h-28.125z" fill="#9498A9"/><path d="M234.734 66.906a12.89 12.89 0 11.001-25.78 12.89 12.89 0 01-.001 25.78zm0-23.437a10.544 10.544 0 00-9.744 6.51 10.549 10.549 0 0013.78 13.78 10.545 10.545 0 00-4.036-20.29z" fill="#9498A9"/><path d="M226.437 62.57l-1.839-1.453a12.891 12.891 0 0120.015-.316l-1.804 1.5a10.554 10.554 0 00-8.268-3.784 10.544 10.544 0 00-8.139 4.053h.035z" fill="#9498A9"/><path d="M234.734 58.54a5.355 5.355 0 115.356-5.356 5.366 5.366 0 01-5.356 5.355zm0-8.368a3.012 3.012 0 100 6.024 3.012 3.012 0 000-6.024zm18.75-15.797h-37.5v2.344h37.5v-2.344zm0 53.906h-37.5v2.344h37.5v-2.344zm-28.125-4.687a1.172 1.172 0 01-1.171-1.172v-4.688a1.17 1.17 0 112.343 0v4.688a1.17 1.17 0 01-1.172 1.172z" fill="#9498A9"/><path d="M227.422 82.422a1.086 1.086 0 01-.562-.14l-4.114-2.239a1.167 1.167 0 01-.707-1.173 1.166 1.166 0 01.452-.832 1.168 1.168 0 011.369-.046l4.113 2.239a1.174 1.174 0 01.154 1.935c-.201.16-.448.25-.705.256z" fill="#9498A9"/><path d="M223.297 82.422a1.173 1.173 0 01-1.051-1.633 1.17 1.17 0 01.5-.558l4.113-2.239a1.18 1.18 0 01.933-.165 1.168 1.168 0 01.888 1.043 1.17 1.17 0 01-.707 1.173l-4.114 2.238a1.086 1.086 0 01-.562.14zm11.437 1.172a1.172 1.172 0 01-1.172-1.172v-4.688a1.172 1.172 0 012.344 0v4.688a1.17 1.17 0 01-1.172 1.172z" fill="#9498A9"/><path d="M236.797 82.422a1.086 1.086 0 01-.562-.14l-4.114-2.239a1.167 1.167 0 01-.707-1.173 1.166 1.166 0 01.452-.832 1.168 1.168 0 011.369-.046l4.113 2.239a1.174 1.174 0 01.154 1.935c-.201.16-.448.25-.705.256z" fill="#9498A9"/><path d="M232.672 82.422a1.173 1.173 0 01-1.051-1.633 1.17 1.17 0 01.5-.558l4.113-2.239a1.18 1.18 0 01.933-.165 1.168 1.168 0 01.888 1.043 1.17 1.17 0 01-.707 1.173l-4.114 2.238a1.086 1.086 0 01-.562.14zm11.437 1.172a1.172 1.172 0 01-1.171-1.172v-4.688a1.17 1.17 0 112.343 0v4.688a1.17 1.17 0 01-1.172 1.172z" fill="#9498A9"/><path d="M246.172 82.422a1.086 1.086 0 01-.562-.14l-4.114-2.239a1.167 1.167 0 01-.707-1.173 1.166 1.166 0 01.452-.832 1.168 1.168 0 011.369-.046l4.113 2.239a1.174 1.174 0 01.154 1.935c-.201.16-.448.25-.705.256z" fill="#9498A9"/><path d="M242.047 82.422a1.173 1.173 0 01-1.051-1.633 1.17 1.17 0 01.5-.558l4.113-2.239a1.18 1.18 0 01.933-.165 1.168 1.168 0 01.888 1.043 1.17 1.17 0 01-.707 1.173l-4.114 2.238a1.086 1.086 0 01-.562.14zm-37.781-33.984a1.167 1.167 0 01-.832-.34l-11.719-11.72a1.176 1.176 0 111.664-1.663l11.719 11.719a1.175 1.175 0 010 1.664 1.178 1.178 0 01-.832.34z" fill="#9498A9"/><path d="M204.266 48.438h-7.032a1.172 1.172 0 010-2.344h5.86v-5.86a1.17 1.17 0 112.344 0v7.032a1.172 1.172 0 01-1.172 1.172zm-11.719 42.187a1.174 1.174 0 01-1.089-1.623c.06-.142.147-.272.257-.38l11.719-11.72a1.176 1.176 0 111.664 1.664l-11.719 11.72a1.174 1.174 0 01-.832.339z" fill="#9498A9"/><path d="M204.266 85.938a1.173 1.173 0 01-1.172-1.172v-5.86h-5.86a1.172 1.172 0 010-2.344h7.032a1.172 1.172 0 011.172 1.172v7.032a1.172 1.172 0 01-1.172 1.171zm60.937-37.5a1.174 1.174 0 01-1.179-1.172 1.164 1.164 0 01.347-.832l11.719-11.72a1.175 1.175 0 012.009.833c0 .312-.124.611-.345.832l-11.719 11.719a1.164 1.164 0 01-.832.34z" fill="#9498A9"/><path d="M272.234 48.438h-7.031a1.173 1.173 0 01-1.172-1.172v-7.032a1.175 1.175 0 011.172-1.172 1.173 1.173 0 011.172 1.172v5.86h5.859a1.173 1.173 0 110 2.343zm4.688 42.187a1.174 1.174 0 01-.832-.34l-11.719-11.719a1.176 1.176 0 111.664-1.664l11.719 11.72a1.16 1.16 0 01.346.831 1.163 1.163 0 01-.346.832 1.185 1.185 0 01-.832.34z" fill="#9498A9"/><path d="M265.203 85.938a1.173 1.173 0 01-1.172-1.172v-7.032a1.175 1.175 0 011.172-1.171h7.031a1.173 1.173 0 010 2.343h-5.859v5.86a1.17 1.17 0 01-1.172 1.171zm-17.705 25.388c-.402-2.908-2.64-4.596-5.542-4.596-3.419 0-5.995 2.493-5.995 6.725 0 4.225 2.544 6.724 5.995 6.724 3.113 0 5.178-2.014 5.542-4.513l-2.39-.013c-.301 1.535-1.554 2.397-3.12 2.397-2.122 0-3.643-1.591-3.643-4.595 0-2.954 1.508-4.596 3.65-4.596 1.591 0 2.838.901 3.113 2.467h2.39zM251.47 120h2.371v-4.794h2.417l2.569 4.794h2.646l-2.831-5.19c1.54-.62 2.352-1.937 2.352-3.714 0-2.499-1.611-4.187-4.615-4.187h-4.909V120zm2.371-6.763v-4.346h2.174c1.77 0 2.563.811 2.563 2.205 0 1.393-.793 2.141-2.551 2.141h-2.186zm11.136-6.328V120h2.276v-9.013h.121l3.618 8.975h1.7l3.618-8.956h.121V120h2.276v-13.091h-2.902l-3.886 9.486h-.154l-3.886-9.486h-2.902z" fill="#9498A9"/></g><g filter="url(#filter7_d_1228_1803)"><path fill-rule="evenodd" clip-rule="evenodd" d="M83 278c-13.807 0-25 11.193-25 25H8V153h50c0-13.807 11.193-25 25-25s25 11.193 25 25h50v50c13.807 0 25 11.193 25 25s-11.193 25-25 25v50h-50c0-13.807-11.193-25-25-25z" fill="#E6ECEC"/><g clip-path="url(#clip1_1228_1803)" fill="#9498A9"><path d="M65.422 195.336l6.246 6.246 8.168-12.492-8.168 7.019-6.246-.773zm0 36.328l6.246 6.246 8.168-12.492-8.168 7.019-6.246-.773zm10.078-12.07a1.167 1.167 0 01-.832-.352l-7.031-7.031a1.173 1.173 0 111.664-1.652l7.031 7.031a1.17 1.17 0 01-.832 2.004z"/><path d="M68.469 219.594a1.173 1.173 0 01-.832-2.004l7.031-7.031a1.178 1.178 0 01.832-.347 1.181 1.181 0 01.832.347 1.17 1.17 0 010 1.652l-7.031 7.031a1.163 1.163 0 01-.832.352zm33.984-22.266h-18.75a1.17 1.17 0 01-.829-2c.22-.22.518-.344.83-.344h18.749a1.173 1.173 0 010 2.344zm0 18.75h-18.75a1.17 1.17 0 01-.829-2c.22-.22.518-.344.83-.344h18.749a1.173 1.173 0 010 2.344zm0 18.75h-18.75a1.17 1.17 0 01-.829-2c.22-.22.518-.344.83-.344h18.749a1.173 1.173 0 010 2.344z"/><path d="M107.246 251.059H65.551a6.46 6.46 0 01-5.982-4.027 6.457 6.457 0 01-.475-2.489v-62.109A6.457 6.457 0 0165.551 176h34.875a6.476 6.476 0 014.688 2.004l6.222 6.516a6.44 6.44 0 011.781 4.464v56.25a5.86 5.86 0 01-5.859 5.86l-.012-.035zm-41.695-72.715a4.107 4.107 0 00-3.8 2.539 4.114 4.114 0 00-.313 1.574v62.109a4.116 4.116 0 004.113 4.09h41.66a3.515 3.515 0 003.516-3.515v-56.25a4.043 4.043 0 00-1.172-2.836l-6.152-6.434a4.141 4.141 0 00-2.977-1.277H65.551z"/></g><path d="M101.319 264.455c0-4.232-2.583-6.725-6.015-6.725-3.44 0-6.015 2.493-6.015 6.725 0 4.225 2.576 6.724 6.015 6.724 3.432 0 6.015-2.493 6.015-6.724zm-2.385 0c0 2.978-1.495 4.595-3.63 4.595-2.129 0-3.631-1.617-3.631-4.595 0-2.979 1.502-4.596 3.63-4.596 2.136 0 3.631 1.617 3.631 4.596zM106.34 271l1.08-3.228h4.922l1.086 3.228h2.532l-4.616-13.091h-2.927L103.807 271h2.532zm1.719-5.133l1.771-5.273h.102l1.77 5.273h-3.643zm18.328-4.359h2.282c-.045-2.212-1.93-3.778-4.717-3.778-2.749 0-4.813 1.547-4.807 3.861 0 1.879 1.336 2.959 3.49 3.516l1.489.383c1.413.358 2.346.799 2.353 1.815-.007 1.119-1.068 1.867-2.615 1.867-1.483 0-2.633-.665-2.729-2.039H118.8c.096 2.601 2.033 4.065 5.082 4.065 3.138 0 4.96-1.566 4.966-3.873-.006-2.27-1.879-3.305-3.848-3.772l-1.227-.307c-1.074-.255-2.237-.709-2.225-1.802.007-.984.889-1.707 2.372-1.707 1.413 0 2.346.659 2.467 1.771z" fill="#9498A9"/></g><g filter="url(#filter8_d_1228_1803)"><path fill-rule="evenodd" clip-rule="evenodd" d="M307 450h150v-50c-13.807 0-25-11.193-25-25s11.193-25 25-25v-50h-50c0 13.807-11.193 25-25 25s-25-11.193-25-25h-50v50c-13.807 0-25 11.193-25 25s11.193 25 25 25v50z" fill="#fff"/><path d="M367.484 393.332a5.126 5.126 0 00-5.121-5.121h-10.242a5.126 5.126 0 00-5.121 5.121 5.11 5.11 0 001.663 3.773 5.11 5.11 0 00-1.663 3.773 5.126 5.126 0 005.121 5.121h10.242a5.126 5.126 0 005.121-5.121 5.11 5.11 0 00-1.663-3.773 5.11 5.11 0 001.663-3.773zm-2.695 7.546a2.429 2.429 0 01-2.426 2.426h-10.242a2.428 2.428 0 01-2.426-2.426 2.428 2.428 0 012.426-2.425h10.242a2.428 2.428 0 012.426 2.425zm-12.668-5.121a2.428 2.428 0 01-2.426-2.426 2.428 2.428 0 012.426-2.425h10.242a2.428 2.428 0 012.426 2.425 2.428 2.428 0 01-2.426 2.426h-10.242zm39.638-9.972a5.126 5.126 0 00-5.121-5.121h-10.242a5.126 5.126 0 00-5.121 5.121 5.11 5.11 0 001.663 3.773 5.111 5.111 0 000 7.547 5.11 5.11 0 00-1.663 3.773 5.126 5.126 0 005.121 5.121h10.242a5.126 5.126 0 005.121-5.121 5.11 5.11 0 00-1.663-3.773 5.11 5.11 0 000-7.547 5.107 5.107 0 001.663-3.773zm-2.695 15.093a2.429 2.429 0 01-2.426 2.426h-10.242a2.428 2.428 0 01-2.426-2.426 2.428 2.428 0 012.426-2.425h10.242a2.429 2.429 0 012.426 2.425zm0-7.546a2.429 2.429 0 01-2.426 2.425h-10.242a2.428 2.428 0 01-2.426-2.425 2.428 2.428 0 012.426-2.426h10.242a2.429 2.429 0 012.426 2.426zm-12.668-5.121a2.429 2.429 0 01-2.426-2.426 2.428 2.428 0 012.426-2.426h10.242a2.429 2.429 0 012.426 2.426 2.43 2.43 0 01-2.426 2.426h-10.242zM416 385.785a5.105 5.105 0 00-1.664-3.773 5.108 5.108 0 001.664-3.774 5.127 5.127 0 00-5.121-5.121h-10.242a5.127 5.127 0 00-5.121 5.121c0 1.492.641 2.837 1.663 3.773a5.108 5.108 0 00-1.663 3.774c0 1.492.641 2.836 1.663 3.773a5.105 5.105 0 00-1.663 3.773c0 1.492.641 2.837 1.663 3.774a5.105 5.105 0 00-1.663 3.773 5.126 5.126 0 005.121 5.121h10.242a5.127 5.127 0 005.121-5.121 5.105 5.105 0 00-1.664-3.773 5.108 5.108 0 000-7.547 5.105 5.105 0 001.664-3.773zm-17.789-7.547a2.429 2.429 0 012.426-2.426h10.242a2.43 2.43 0 012.426 2.426 2.429 2.429 0 01-2.426 2.426h-10.242a2.428 2.428 0 01-2.426-2.426zm15.093 22.64a2.428 2.428 0 01-2.425 2.426h-10.243a2.428 2.428 0 01-2.425-2.426 2.428 2.428 0 012.425-2.425h10.243a2.428 2.428 0 012.425 2.425zm0-7.546a2.428 2.428 0 01-2.425 2.425h-10.243a2.428 2.428 0 01-2.425-2.425 2.428 2.428 0 012.425-2.426h10.243a2.428 2.428 0 012.425 2.426zm-12.667-5.121a2.429 2.429 0 01-2.426-2.426 2.428 2.428 0 012.426-2.426h10.242a2.428 2.428 0 012.425 2.426 2.429 2.429 0 01-2.425 2.426h-10.242zm-52.289-10.302c.354 0 .702-.143.952-.393.251-.251.395-.599.395-.954s-.144-.702-.395-.953a1.354 1.354 0 00-.952-.395c-.355 0-.702.144-.953.395a1.357 1.357 0 00-.395.953c0 .355.144.702.395.954.251.25.598.393.953.393z" fill="#9498A9"/><path d="M378.349 374.684l2.281 2.275a1.348 1.348 0 001.905-.002l25.809-25.814 2.385 2.385a1.349 1.349 0 002.273-.677l2.968-14.225a1.347 1.347 0 00-1.594-1.595L400.151 340a1.346 1.346 0 00-.677 2.272l2.389 2.39c-7.892 7.897-15.316 15.326-20.285 20.292l-10.81-10.81a1.345 1.345 0 00-1.906 0l-18.036 18.036a1.348 1.348 0 001.906 1.906l17.083-17.084 10.809 10.81a1.348 1.348 0 001.906 0c5.129-5.124 13.424-13.424 22.192-22.198a1.348 1.348 0 000-1.906l-1.58-1.579 9.769-2.039-2.039 9.769-1.575-1.575a1.348 1.348 0 00-1.906 0L381.58 374.1l-1.331-1.328-9.481-9.48a1.346 1.346 0 00-1.906 0l-21.467 21.468a1.345 1.345 0 00.953 2.3c.344 0 .689-.132.953-.395l20.514-20.514 8.534 8.533zm-19.015 43.225V431h2.276v-9.013h.121l3.618 8.975h1.7l3.618-8.956h.122V431h2.275v-13.091h-2.902l-3.886 9.486h-.154l-3.886-9.486h-2.902zm18.112 0V431h2.276v-9.013h.121l3.618 8.975h1.701l3.618-8.956h.121V431h2.276v-13.091h-2.902l-3.887 9.486h-.153l-3.887-9.486h-2.902zm25.227 3.599h2.282c-.044-2.212-1.93-3.778-4.717-3.778-2.749 0-4.813 1.547-4.807 3.861 0 1.879 1.336 2.959 3.49 3.516l1.49.383c1.412.358 2.345.799 2.352 1.815-.007 1.119-1.068 1.867-2.615 1.867-1.482 0-2.633-.665-2.729-2.039h-2.333c.096 2.601 2.033 4.065 5.082 4.065 3.138 0 4.96-1.566 4.966-3.873-.006-2.27-1.879-3.305-3.848-3.772l-1.227-.307c-1.074-.255-2.237-.709-2.224-1.802.006-.984.888-1.707 2.371-1.707 1.413 0 2.346.659 2.467 1.771z" fill="#9498A9"/></g><g filter="url(#filter9_d_1228_1803)"><path fill-rule="evenodd" clip-rule="evenodd" d="M382 178c13.807 0 25-11.193 25-25h50v50c13.807 0 25 11.193 25 25s-11.193 25-25 25v50h-50c0 13.807-11.193 25-25 25s-25-11.193-25-25h-50v-50c13.807 0 25-11.193 25-25s-11.193-25-25-25v-50h50c0 13.807 11.193 25 25 25z" fill="#96C0D0"/><path d="M407.672 207.062h-28.125a1.172 1.172 0 110-2.343h28.125a1.172 1.172 0 110 2.343zm0 7.032h-28.125a1.172 1.172 0 110-2.344h28.125a1.172 1.172 0 110 2.344zm0 7.031h-28.125a1.172 1.172 0 110-2.344h28.125c.311 0 .609.124.829.343a1.176 1.176 0 010 1.658c-.22.22-.518.343-.829.343zm-14.063 14.063h-14.062a1.173 1.173 0 010-2.344h14.062a1.172 1.172 0 110 2.344zm22.348 14.988h-8.285a1.172 1.172 0 110-2.344h8.285a1.172 1.172 0 110 2.344zm-.75 4.043h-7.535a1.172 1.172 0 110-2.344h7.535a1.172 1.172 0 110 2.344zm-7.535-26.063h-28.125a1.172 1.172 0 110-2.344h28.125a1.173 1.173 0 010 2.344z" fill="#fff"/><path d="M417.047 268a17.582 17.582 0 01-16.24-10.851 17.582 17.582 0 013.81-19.157 17.582 17.582 0 0127.046 2.664 17.582 17.582 0 01-2.187 22.195A17.574 17.574 0 01417.047 268zm0-32.812a15.234 15.234 0 10-.002 30.468 15.234 15.234 0 00.002-30.468z" fill="#fff"/><path d="M418.219 259.961a9.454 9.454 0 01-9.457-9.457 9.454 9.454 0 019.457-9.457 1.173 1.173 0 010 2.344 7.112 7.112 0 100 14.226 1.172 1.172 0 010 2.344zm-21.094-1.336h-22.266a5.858 5.858 0 01-5.859-5.859v-53.907a5.858 5.858 0 015.859-5.859h31.981a5.864 5.864 0 014.242 1.816l5.52 5.789a5.863 5.863 0 011.617 4.043V230.5h-2.344v-25.852c0-.903-.349-1.772-.973-2.425l-5.519-5.789a3.5 3.5 0 00-2.543-1.09h-31.981c-.932 0-1.826.37-2.486 1.029a3.518 3.518 0 00-1.029 2.486v53.907c0 .932.37 1.826 1.029 2.486a3.518 3.518 0 002.486 1.029h22.266v2.344zM349.159 280l1.08-3.228h4.922l1.086 3.228h2.532l-4.615-13.091h-2.928L346.627 280h2.532zm1.719-5.133l1.771-5.273h.102l1.771 5.273h-3.644zm11.425-7.958V280h2.275v-9.013h.122l3.618 8.975h1.7l3.618-8.956h.121V280h2.276v-13.091h-2.902l-3.886 9.486h-.154l-3.886-9.486h-2.902zm25.227 3.599h2.282c-.045-2.212-1.931-3.778-4.718-3.778-2.748 0-4.813 1.547-4.806 3.861 0 1.879 1.336 2.959 3.49 3.516l1.489.383c1.413.358 2.346.799 2.352 1.815-.006 1.119-1.067 1.867-2.614 1.867-1.483 0-2.634-.665-2.73-2.039h-2.333c.096 2.601 2.033 4.065 5.082 4.065 3.139 0 4.96-1.566 4.967-3.873-.007-2.27-1.88-3.305-3.848-3.772l-1.228-.307c-1.073-.255-2.237-.709-2.224-1.802.006-.984.888-1.707 2.371-1.707 1.413 0 2.346.659 2.468 1.771z" fill="#fff"/></g><g filter="url(#filter10_d_1228_1803)"><path fill-rule="evenodd" clip-rule="evenodd" d="M457 4H307v50c13.807 0 25 11.193 25 25s-11.193 25-25 25v50h50c0 13.807 11.193 25 25 25s25-11.193 25-25h50v-50c-13.807 0-25-11.193-25-25s11.193-25 25-25V4z" fill="#A1D7A6"/><path d="M377.875 45.234l6.609 6.61 8.625-13.207-8.625 7.418-6.609-.82zm7.031 37.196a8.635 8.635 0 01-8.471-10.322 8.642 8.642 0 016.786-6.786 8.636 8.636 0 0110.322 8.471 8.648 8.648 0 01-8.637 8.637zm0-14.93a6.294 6.294 0 106.293 6.293 6.306 6.306 0 00-6.293-6.293z" fill="#fff"/><path d="M396.625 105h-23.379a2.343 2.343 0 01-2.344-2.344V90.703c-.058-5.625 6.246-10.312 14.004-10.312 7.758 0 14.063 4.687 14.063 10.312v11.953a2.344 2.344 0 01-2.344 2.344zm-11.719-22.266c-6.457 0-11.719 3.516-11.719 7.97v11.952h23.438V90.703c0-4.394-5.262-7.969-11.719-7.969zm.586-22.265a14.965 14.965 0 01-14.648-15.235A14.965 14.965 0 01385.492 30a14.962 14.962 0 0114.649 15.234 14.966 14.966 0 01-14.649 15.235zm0-28.125a12.622 12.622 0 00-12.304 12.89 12.62 12.62 0 0012.304 12.891 12.62 12.62 0 0012.305-12.89 12.62 12.62 0 00-12.305-12.891zm-22.851 45.152a7.947 7.947 0 01-7.806-9.488 7.942 7.942 0 016.24-6.249 7.946 7.946 0 019.499 7.792 7.956 7.956 0 01-7.933 7.945zm0-13.512a5.603 5.603 0 00-5.507 6.692 5.605 5.605 0 007.644 4.083 5.598 5.598 0 003.452-5.185 5.603 5.603 0 00-5.589-5.59z" fill="#fff"/><path d="M368.5 97.969h-16.406a2.274 2.274 0 01-2.344-2.238v-10.83c0-5.226 5.766-9.468 12.891-9.468 4.816 0 9.175 1.933 11.402 5.062l-1.91 1.348c-1.758-2.473-5.485-4.067-9.492-4.067-5.801 0-10.547 3.188-10.547 7.125v10.723H368.5v2.344zm38.566-20.473a7.947 7.947 0 01-7.792-9.495 7.942 7.942 0 0110.833-5.79 7.944 7.944 0 01-3.041 15.285zm0-13.535a5.603 5.603 0 00-5.493 6.699 5.6 5.6 0 004.408 4.398 5.6 5.6 0 006.687-5.507 5.602 5.602 0 00-5.602-5.567v-.023z" fill="#fff"/><path d="M417.648 97.969h-16.336v-2.344h16.407V84.902c0-3.867-4.875-7.125-10.653-7.125-4.007 0-7.734 1.594-9.48 4.067l-1.922-1.348c2.227-3.129 6.586-5.062 11.402-5.062 7.137 0 12.996 4.242 12.996 9.468v10.829a2.344 2.344 0 01-2.414 2.238zm-53.674 21.928h4.046V131h2.352v-11.103h4.046v-1.988h-10.444v1.988zm14.258-1.988V131h2.275v-9.013h.122l3.618 8.975h1.7l3.618-8.956h.121V131h2.276v-13.091h-2.902l-3.887 9.486h-.153l-3.886-9.486h-2.902zm25.226 3.599h2.282c-.044-2.212-1.93-3.778-4.717-3.778-2.748 0-4.813 1.547-4.807 3.861 0 1.879 1.336 2.959 3.49 3.516l1.49.383c1.412.358 2.346.799 2.352 1.815-.006 1.119-1.068 1.867-2.614 1.867-1.483 0-2.634-.665-2.73-2.039h-2.333c.096 2.601 2.033 4.065 5.082 4.065 3.138 0 4.96-1.566 4.966-3.873-.006-2.27-1.879-3.305-3.848-3.772l-1.227-.307c-1.074-.255-2.237-.709-2.224-1.802.006-.984.888-1.707 2.371-1.707 1.413 0 2.346.659 2.467 1.771z" fill="#fff"/></g><g filter="url(#filter11_d_1228_1803)"><path fill-rule="evenodd" clip-rule="evenodd" d="M457 4h150v150h-50c0-13.807-11.193-25-25-25s-25 11.193-25 25h-50v-50c-13.807 0-25-11.193-25-25s11.193-25 25-25V4z" fill="#96C0D0"/><path d="M558.578 76.531h-72.656v2.344h72.656v-2.344zM515.219 88.25h-2.344v11.719h2.344V88.25zm16.406-.516h-2.344v11.72h2.344v-11.72z" fill="#fff"/><path d="M538.656 107h-32.812a2.347 2.347 0 01-1.658-.686 2.347 2.347 0 01-.686-1.658v-1.172a5.858 5.858 0 015.859-5.859h25.782a5.859 5.859 0 015.859 5.859v1.172c0 .622-.247 1.218-.686 1.658a2.347 2.347 0 01-1.658.686zm-29.297-7.031c-.932 0-1.826.37-2.486 1.029a3.518 3.518 0 00-1.029 2.486v1.172h32.812v-1.172c0-.932-.37-1.826-1.029-2.486a3.519 3.519 0 00-2.486-1.03h-25.782zm44.532-11.719h-63.282a5.861 5.861 0 01-5.859-5.86V37.86a5.858 5.858 0 015.859-5.86h63.282a5.859 5.859 0 015.859 5.86v44.53a5.868 5.868 0 01-1.716 4.144 5.858 5.858 0 01-4.143 1.716zm-63.282-53.906a3.517 3.517 0 00-3.515 3.515v44.532a3.516 3.516 0 003.515 3.515h63.282a3.517 3.517 0 003.515-3.515V37.859a3.516 3.516 0 00-3.515-3.515h-63.282z" fill="#fff"/><path d="M522.25 83.563a1.172 1.172 0 100-2.345 1.172 1.172 0 000 2.344zm-.668-16.407a29.003 29.003 0 01-12.726-3.258 2.458 2.458 0 01-1.336-2.214v-7.418a1.17 1.17 0 112.343 0v7.418a.158.158 0 00.016.08.146.146 0 00.055.06 26.646 26.646 0 0011.648 2.989 26.638 26.638 0 0011.637-2.989.168.168 0 00.06-.06.165.165 0 00.022-.08V53.48a1.17 1.17 0 012-.83c.22.22.344.519.344.83v8.261a2.477 2.477 0 01-1.348 2.215 28.992 28.992 0 01-12.715 3.2z" fill="#fff"/><path d="M502.832 63.64a1.173 1.173 0 01-1.172-1.171v-9.727a3.033 3.033 0 012.344-2.988l16.406-5.344a5.194 5.194 0 012.344 0l17.578 5.473a1.292 1.292 0 01.926 1.254 1.304 1.304 0 01-.985 1.266l-17.379 5.378a4.348 4.348 0 01-2.707.094l-16.183-4.781v9.375a1.172 1.172 0 01-1.172 1.172zm3.726-12.187l14.274 4.184a2.19 2.19 0 001.312-.059l14.321-4.394-14.215-4.512a2.767 2.767 0 00-1.172 0l-14.52 4.781zm33.035.715h.118-.118zm.059-1.957h-.082.082zM544.393 124h8.137v-1.988h-5.766v-11.103h-2.371V124zm11.995-13.091V124h2.275v-9.013h.122l3.618 8.975h1.7l3.618-8.956h.121V124h2.276v-13.091h-2.902l-3.886 9.486h-.154l-3.886-9.486h-2.902zm25.227 3.599h2.282c-.045-2.212-1.931-3.778-4.718-3.778-2.748 0-4.813 1.547-4.806 3.861 0 1.879 1.335 2.959 3.49 3.516l1.489.383c1.413.358 2.346.799 2.352 1.815-.006 1.119-1.067 1.867-2.614 1.867-1.483 0-2.634-.665-2.73-2.039h-2.333c.096 2.601 2.033 4.065 5.082 4.065 3.139 0 4.96-1.566 4.967-3.873-.007-2.27-1.88-3.305-3.848-3.772l-1.228-.307c-1.073-.255-2.237-.709-2.224-1.802.006-.984.888-1.707 2.371-1.707 1.413 0 2.346.659 2.468 1.771z" fill="#fff"/></g></g><defs><filter id="filter0_d_1228_1803" x="124" y="271" width="191" height="191" filterUnits="userSpaceOnUse" color-interpolation-filters="sRGB"><feFlood flood-opacity="0" result="BackgroundImageFix"/><feColorMatrix in="SourceAlpha" values="0 0 0 0 0 0 0 0 0 0 0 0 0 0 0 0 0 0 127 0" result="hardAlpha"/><feOffset dy="4"/><feGaussianBlur stdDeviation="4"/><feComposite in2="hardAlpha" operator="out"/><feColorMatrix values="0 0 0 0 0 0 0 0 0 0 0 0 0 0 0 0 0 0 0.1 0"/><feBlend in2="BackgroundImageFix" result="effect1_dropShadow_1228_1803"/><feBlend in="SourceGraphic" in2="effect1_dropShadow_1228_1803" result="shape"/></filter><filter id="filter1_d_1228_1803" x="424" y="296" width="191" height="166" filterUnits="userSpaceOnUse" color-interpolation-filters="sRGB"><feFlood flood-opacity="0" result="BackgroundImageFix"/><feColorMatrix in="SourceAlpha" values="0 0 0 0 0 0 0 0 0 0 0 0 0 0 0 0 0 0 127 0" result="hardAlpha"/><feOffset dy="4"/><feGaussianBlur stdDeviation="4"/><feComposite in2="hardAlpha" operator="out"/><feColorMatrix values="0 0 0 0 0 0 0 0 0 0 0 0 0 0 0 0 0 0 0.1 0"/><feBlend in2="BackgroundImageFix" result="effect1_dropShadow_1228_1803"/><feBlend in="SourceGraphic" in2="effect1_dropShadow_1228_1803" result="shape"/></filter><filter id="filter2_d_1228_1803" x="0" y="271" width="166" height="191" filterUnits="userSpaceOnUse" color-interpolation-filters="sRGB"><feFlood flood-opacity="0" result="BackgroundImageFix"/><feColorMatrix in="SourceAlpha" values="0 0 0 0 0 0 0 0 0 0 0 0 0 0 0 0 0 0 127 0" result="hardAlpha"/><feOffset dy="4"/><feGaussianBlur stdDeviation="4"/><feComposite in2="hardAlpha" operator="out"/><feColorMatrix values="0 0 0 0 0 0 0 0 0 0 0 0 0 0 0 0 0 0 0.1 0"/><feBlend in2="BackgroundImageFix" result="effect1_dropShadow_1228_1803"/><feBlend in="SourceGraphic" in2="effect1_dropShadow_1228_1803" result="shape"/></filter><filter id="filter3_d_1228_1803" x="149" y="124" width="191" height="191" filterUnits="userSpaceOnUse" color-interpolation-filters="sRGB"><feFlood flood-opacity="0" result="BackgroundImageFix"/><feColorMatrix in="SourceAlpha" values="0 0 0 0 0 0 0 0 0 0 0 0 0 0 0 0 0 0 127 0" result="hardAlpha"/><feOffset dy="4"/><feGaussianBlur stdDeviation="4"/><feComposite in2="hardAlpha" operator="out"/><feColorMatrix values="0 0 0 0 0 0 0 0 0 0 0 0 0 0 0 0 0 0 0.1 0"/><feBlend in2="BackgroundImageFix" result="effect1_dropShadow_1228_1803"/><feBlend in="SourceGraphic" in2="effect1_dropShadow_1228_1803" result="shape"/></filter><filter id="filter4_d_1228_1803" x="449" y="123" width="166" height="216" filterUnits="userSpaceOnUse" color-interpolation-filters="sRGB"><feFlood flood-opacity="0" result="BackgroundImageFix"/><feColorMatrix in="SourceAlpha" values="0 0 0 0 0 0 0 0 0 0 0 0 0 0 0 0 0 0 127 0" result="hardAlpha"/><feOffset dy="4"/><feGaussianBlur stdDeviation="4"/><feComposite in2="hardAlpha" operator="out"/><feColorMatrix values="0 0 0 0 0 0 0 0 0 0 0 0 0 0 0 0 0 0 0.1 0"/><feBlend in2="BackgroundImageFix" result="effect1_dropShadow_1228_1803"/><feBlend in="SourceGraphic" in2="effect1_dropShadow_1228_1803" result="shape"/></filter><filter id="filter5_d_1228_1803" x="0" y="0" width="191" height="166" filterUnits="userSpaceOnUse" color-interpolation-filters="sRGB"><feFlood flood-opacity="0" result="BackgroundImageFix"/><feColorMatrix in="SourceAlpha" values="0 0 0 0 0 0 0 0 0 0 0 0 0 0 0 0 0 0 127 0" result="hardAlpha"/><feOffset dy="4"/><feGaussianBlur stdDeviation="4"/><feComposite in2="hardAlpha" operator="out"/><feColorMatrix values="0 0 0 0 0 0 0 0 0 0 0 0 0 0 0 0 0 0 0.1 0"/><feBlend in2="BackgroundImageFix" result="effect1_dropShadow_1228_1803"/><feBlend in="SourceGraphic" in2="effect1_dropShadow_1228_1803" result="shape"/></filter><filter id="filter6_d_1228_1803" x="149" y="0" width="191" height="166" filterUnits="userSpaceOnUse" color-interpolation-filters="sRGB"><feFlood flood-opacity="0" result="BackgroundImageFix"/><feColorMatrix in="SourceAlpha" values="0 0 0 0 0 0 0 0 0 0 0 0 0 0 0 0 0 0 127 0" result="hardAlpha"/><feOffset dy="4"/><feGaussianBlur stdDeviation="4"/><feComposite in2="hardAlpha" operator="out"/><feColorMatrix values="0 0 0 0 0 0 0 0 0 0 0 0 0 0 0 0 0 0 0.1 0"/><feBlend in2="BackgroundImageFix" result="effect1_dropShadow_1228_1803"/><feBlend in="SourceGraphic" in2="effect1_dropShadow_1228_1803" result="shape"/></filter><filter id="filter7_d_1228_1803" x="0" y="124" width="191" height="191" filterUnits="userSpaceOnUse" color-interpolation-filters="sRGB"><feFlood flood-opacity="0" result="BackgroundImageFix"/><feColorMatrix in="SourceAlpha" values="0 0 0 0 0 0 0 0 0 0 0 0 0 0 0 0 0 0 127 0" result="hardAlpha"/><feOffset dy="4"/><feGaussianBlur stdDeviation="4"/><feComposite in2="hardAlpha" operator="out"/><feColorMatrix values="0 0 0 0 0 0 0 0 0 0 0 0 0 0 0 0 0 0 0.1 0"/><feBlend in2="BackgroundImageFix" result="effect1_dropShadow_1228_1803"/><feBlend in="SourceGraphic" in2="effect1_dropShadow_1228_1803" result="shape"/></filter><filter id="filter8_d_1228_1803" x="274" y="296" width="191" height="166" filterUnits="userSpaceOnUse" color-interpolation-filters="sRGB"><feFlood flood-opacity="0" result="BackgroundImageFix"/><feColorMatrix in="SourceAlpha" values="0 0 0 0 0 0 0 0 0 0 0 0 0 0 0 0 0 0 127 0" result="hardAlpha"/><feOffset dy="4"/><feGaussianBlur stdDeviation="4"/><feComposite in2="hardAlpha" operator="out"/><feColorMatrix values="0 0 0 0 0 0 0 0 0 0 0 0 0 0 0 0 0 0 0.1 0"/><feBlend in2="BackgroundImageFix" result="effect1_dropShadow_1228_1803"/><feBlend in="SourceGraphic" in2="effect1_dropShadow_1228_1803" result="shape"/></filter><filter id="filter9_d_1228_1803" x="299" y="149" width="191" height="191" filterUnits="userSpaceOnUse" color-interpolation-filters="sRGB"><feFlood flood-opacity="0" result="BackgroundImageFix"/><feColorMatrix in="SourceAlpha" values="0 0 0 0 0 0 0 0 0 0 0 0 0 0 0 0 0 0 127 0" result="hardAlpha"/><feOffset dy="4"/><feGaussianBlur stdDeviation="4"/><feComposite in2="hardAlpha" operator="out"/><feColorMatrix values="0 0 0 0 0 0 0 0 0 0 0 0 0 0 0 0 0 0 0.1 0"/><feBlend in2="BackgroundImageFix" result="effect1_dropShadow_1228_1803"/><feBlend in="SourceGraphic" in2="effect1_dropShadow_1228_1803" result="shape"/></filter><filter id="filter10_d_1228_1803" x="299" y="0" width="166" height="191" filterUnits="userSpaceOnUse" color-interpolation-filters="sRGB"><feFlood flood-opacity="0" result="BackgroundImageFix"/><feColorMatrix in="SourceAlpha" values="0 0 0 0 0 0 0 0 0 0 0 0 0 0 0 0 0 0 127 0" result="hardAlpha"/><feOffset dy="4"/><feGaussianBlur stdDeviation="4"/><feComposite in2="hardAlpha" operator="out"/><feColorMatrix values="0 0 0 0 0 0 0 0 0 0 0 0 0 0 0 0 0 0 0.1 0"/><feBlend in2="BackgroundImageFix" result="effect1_dropShadow_1228_1803"/><feBlend in="SourceGraphic" in2="effect1_dropShadow_1228_1803" result="shape"/></filter><filter id="filter11_d_1228_1803" x="424" y="0" width="191" height="166" filterUnits="userSpaceOnUse" color-interpolation-filters="sRGB"><feFlood flood-opacity="0" result="BackgroundImageFix"/><feColorMatrix in="SourceAlpha" values="0 0 0 0 0 0 0 0 0 0 0 0 0 0 0 0 0 0 127 0" result="hardAlpha"/><feOffset dy="4"/><feGaussianBlur stdDeviation="4"/><feComposite in2="hardAlpha" operator="out"/><feColorMatrix values="0 0 0 0 0 0 0 0 0 0 0 0 0 0 0 0 0 0 0.1 0"/><feBlend in2="BackgroundImageFix" result="effect1_dropShadow_1228_1803"/><feBlend in="SourceGraphic" in2="effect1_dropShadow_1228_1803" result="shape"/></filter><clipPath id="clip0_1228_1803"><path fill="#fff" transform="translate(483 179)" d="M0 0h112.08v75H0z"/></clipPath><clipPath id="clip1_1228_1803"><path fill="#fff" transform="translate(38 176)" d="M0 0h112.5v75H0z"/></clipPath></defs></svg>