<svg width="113" height="85" fill="none" xmlns="http://www.w3.org/2000/svg"><ellipse opacity=".5" cx="81.694" cy="25" rx="24.907" ry="25" fill="#D7DF3B"/><g clip-path="url(#clip0_1172_1808)" fill="#9498A9"><path d="M78.585 58.188a9.967 9.967 0 01-5.553-1.691 10.023 10.023 0 01-3.68-4.502 10.066 10.066 0 012.166-10.932 9.982 9.982 0 015.117-2.745 9.958 9.958 0 015.774.57 10.002 10.002 0 014.485 3.695 10.058 10.058 0 011.684 5.573 10.062 10.062 0 01-2.93 7.09 9.987 9.987 0 01-7.063 2.941zm0-17.72a7.643 7.643 0 00-4.255 1.296 7.682 7.682 0 00-2.821 3.45 7.714 7.714 0 001.66 8.378 7.632 7.632 0 008.347 1.666 7.666 7.666 0 003.437-2.83A7.708 7.708 0 0084 42.72a7.644 7.644 0 00-5.415-2.251z"/><path d="M93.12 85H65.66a2.56 2.56 0 01-1.83-.722 2.58 2.58 0 01-.785-1.81V68.595c0-6.492 7.332-11.719 16.345-11.719 9.013 0 16.345 5.273 16.345 11.719v13.828a2.585 2.585 0 01-.769 1.84A2.569 2.569 0 0193.12 85zM79.39 59.219c-7.729 0-14.01 4.218-14.01 9.375v13.828c0 .094.117.187.28.187h27.46c.163 0 .28-.093.28-.187V68.594c0-5.156-6.28-9.375-14.01-9.375zm-27.565-8.285a9.315 9.315 0 01-5.189-1.58 9.368 9.368 0 01-3.44-4.208 9.408 9.408 0 012.025-10.217A9.308 9.308 0 0155.4 32.897a9.348 9.348 0 014.191 3.453 9.4 9.4 0 01-1.161 11.838 9.322 9.322 0 01-6.605 2.746zm0-16.325c-1.385 0-2.74.413-3.892 1.185a7.025 7.025 0 00-2.58 3.156 7.056 7.056 0 001.519 7.662 6.982 6.982 0 007.634 1.524 7.01 7.01 0 003.144-2.589 7.05 7.05 0 00-.871-8.878 6.992 6.992 0 00-4.954-2.06z"/><path d="M60.71 75.625H39.86c-.652.01-1.28-.24-1.749-.695a2.477 2.477 0 01-.75-1.73V60.46c0-6.023 6.807-10.92 15.178-10.92 7.215 0 13.31 3.515 14.827 8.566l-2.23.68c-1.168-3.997-6.503-6.903-12.597-6.903-7.087 0-12.843 3.844-12.843 8.578v12.738s0 .082.164.082h20.85v2.344zM27.343 43.563a8.616 8.616 0 01-4.8-1.462 8.664 8.664 0 01-3.182-3.892 8.703 8.703 0 011.873-9.45 8.609 8.609 0 019.415-1.88 8.646 8.646 0 013.877 3.194 8.694 8.694 0 011.456 4.818 8.7 8.7 0 01-2.534 6.128 8.635 8.635 0 01-6.105 2.544zm0-14.989a6.288 6.288 0 00-3.504 1.067 6.324 6.324 0 00-2.322 2.842 6.35 6.35 0 001.372 6.898 6.282 6.282 0 006.875 1.364 6.31 6.31 0 002.826-2.335 6.345 6.345 0 00-.794-7.986 6.293 6.293 0 00-4.453-1.85z"/><path d="M35.025 66.25H16.403a2.327 2.327 0 01-1.689-.665 2.343 2.343 0 01-.704-1.679V52.188c0-5.59 6.281-10.137 14.01-10.137 6.27 0 11.815 3.035 13.485 7.37l-2.172.856c-1.343-3.457-5.99-5.859-11.313-5.859-6.433 0-11.675 3.516-11.675 7.793v11.695h18.68v2.344z"/></g><defs><clipPath id="clip0_1172_1808"><path fill="#fff" transform="translate(0 10)" d="M0 0h112.08v75H0z"/></clipPath></defs></svg>