<svg width="914" height="323" fill="none" xmlns="http://www.w3.org/2000/svg"><path d="M631.202 125.627c.076.995.136 1.994.178 2.998l-.999.043a82.206 82.206 0 01.037.993l.999-.031a86.2 86.2 0 01.043 3.003l-1-.003c-.001.329-.004.658-.009.986l1 .014a87.96 87.96 0 01-.094 3.004l-.999-.048c-.016.329-.034.657-.053.985l.998.06a84.522 84.522 0 01-.232 2.995l-.995-.094c-.031.328-.064.655-.099.982l.995.106c-.107.998-.23 1.992-.37 2.98l-.99-.14c-.046.327-.094.652-.144.978l.989.151a84.946 84.946 0 01-.507 2.959l-.982-.185c-.061.324-.125.647-.189.97l.98.197c-.198.983-.412 1.96-.643 2.932l-.973-.231c-.076.321-.154.641-.234.96l.97.243a85.167 85.167 0 01-.778 2.898l-.961-.276c-.091.317-.184.634-.279.949l.958.288c-.288.96-.592 1.913-.911 2.859l-.948-.321c-.105.313-.213.625-.322.936l.943.331a85.196 85.196 0 01-1.043 2.813l-.931-.364c-.12.308-.242.614-.366.92l.927.375a87.246 87.246 0 01-1.172 2.762l-.914-.407c-.134.302-.27.602-.408.902l.909.417c-.418.91-.851 1.812-1.299 2.705l-.894-.449c-.148.295-.297.589-.449.883l.889.458c-.459.89-.934 1.771-1.423 2.642l-.872-.489c-.161.288-.324.575-.489.86l.866.5a86.588 86.588 0 01-1.542 2.573l-.849-.529c-.175.28-.351.559-.528.837l.842.539a85.233 85.233 0 01-1.66 2.5l-.823-.567c-.187.271-.376.542-.566.811l.817.577a86.337 86.337 0 01-1.774 2.421l-.796-.604c-.2.263-.401.524-.603.784l.79.614c-.615.79-1.242 1.57-1.883 2.338l-.768-.641a91.05 91.05 0 01-.638.756l.761.649a88.435 88.435 0 01-1.988 2.249l-.738-.675c-.223.243-.447.485-.672.726l.73.683a86.705 86.705 0 01-2.089 2.155l-.706-.708c-.234.233-.469.464-.705.694l.698.717a88.532 88.532 0 01-2.186 2.057l-.673-.74c-.244.221-.489.442-.735.661l.664.747a86.242 86.242 0 01-2.278 1.954l-.638-.77c-.254.211-.509.42-.766.627l.629.778a88.167 88.167 0 01-2.365 1.846l-.602-.798c-.263.198-.528.395-.794.591l.593.805a89.373 89.373 0 01-2.448 1.736l-.564-.826c-.273.186-.546.371-.821.554l.555.832a87.38 87.38 0 01-2.526 1.621l-.525-.851c-.281.173-.562.345-.845.515l.515.857a86.648 86.648 0 01-2.597 1.501l-.486-.874c-.288.16-.577.318-.868.475l.475.88c-.879.475-1.767.935-2.664 1.38l-.444-.896c-.296.146-.592.291-.89.434l.434.901c-.9.433-1.809.851-2.726 1.254l-.402-.916c-.302.133-.604.264-.908.393l.391.92c-.919.391-1.846.766-2.782 1.125l-.358-.933c-.308.118-.616.235-.926.35l.348.937a87.72 87.72 0 01-2.831.995l-.315-.95a73.8 73.8 0 01-.941.306l.304.953a86.6 86.6 0 01-2.875.861l-.27-.962c-.317.089-.635.176-.954.261l.259.966c-.964.258-1.935.501-2.913.726l-.225-.974c-.32.074-.641.146-.963.217l.213.977c-.975.213-1.957.41-2.944.59l-.18-.984c-.323.059-.647.116-.972.172l.168.986c-.984.167-1.974.319-2.97.453l-.134-.991c-.325.044-.651.086-.978.126l.123.993c-.992.122-1.988.227-2.99.316l-.088-.996c-.327.028-.654.056-.982.081l.077.997c-.995.076-1.994.136-2.998.179l-.043-1-.277.012-.219.008-.3.011-.197.006.031 1a86.185 86.185 0 01-3.003.041l.003-1a80.697 80.697 0 01-.985-.008l-.015 1a87.951 87.951 0 01-3.004-.096l.049-.999a80.12 80.12 0 01-.985-.054l-.06.998a84.577 84.577 0 01-2.996-.234l.095-.995a79.588 79.588 0 01-.982-.1l-.106.995a85.655 85.655 0 01-2.98-.373l.141-.99a79.247 79.247 0 01-.977-.145l-.153.988a84.962 84.962 0 01-2.959-.51l.188-.983a79.092 79.092 0 01-.97-.19l-.199.98a83.931 83.931 0 01-2.931-.648l.233-.972a96.076 96.076 0 01-.96-.236l-.244.969a85.17 85.17 0 01-2.897-.783l.278-.961a79.267 79.267 0 01-.949-.281l-.289.958a86.39 86.39 0 01-2.857-.918l.323-.947a73.648 73.648 0 01-.935-.325l-.333.943a84.373 84.373 0 01-2.811-1.05l.366-.931c-.307-.12-.613-.243-.919-.367l-.377.926a87.256 87.256 0 01-2.759-1.18l.41-.913a66.888 66.888 0 01-.901-.41l-.42.908a85.004 85.004 0 01-2.701-1.307l.451-.892c-.294-.149-.588-.3-.88-.452l-.462.887a89.34 89.34 0 01-2.638-1.43l.492-.871a73.032 73.032 0 01-.858-.492l-.502.865a88.842 88.842 0 01-2.569-1.551l.531-.847c-.279-.176-.557-.353-.835-.531l-.541.841a88.738 88.738 0 01-2.495-1.668l.57-.822c-.271-.188-.54-.378-.809-.569l-.58.815a87.782 87.782 0 01-2.415-1.781l.607-.795c-.262-.2-.523-.402-.782-.605l-.617.787a88.164 88.164 0 01-2.331-1.89l.643-.766a91.031 91.031 0 01-.753-.641l-.652.759a88.434 88.434 0 01-2.242-1.996l.678-.736a76.924 76.924 0 01-.724-.674l-.686.728a88.512 88.512 0 01-2.148-2.097l.711-.704a76.9 76.9 0 01-.692-.707l-.719.696a88.52 88.52 0 01-2.049-2.193l.742-.67c-.221-.245-.44-.491-.658-.738l-.75.661a86.515 86.515 0 01-1.947-2.284l.773-.636a65.23 65.23 0 01-.624-.767l-.78.626a88.251 88.251 0 01-1.839-2.372l.801-.599a90.616 90.616 0 01-.589-.795l-.807.589a85.79 85.79 0 01-1.728-2.453l.827-.562a69.172 69.172 0 01-.551-.822l-.834.552a88.123 88.123 0 01-1.613-2.53l.853-.523a90.582 90.582 0 01-.513-.846l-.858.512a83.42 83.42 0 01-1.494-2.602l.875-.482a91.028 91.028 0 01-.473-.87l-.881.473c-.472-.88-.93-1.77-1.372-2.668l.897-.442c-.146-.296-.29-.593-.432-.891l-.902.432a85.11 85.11 0 01-1.247-2.729l.916-.4a73.05 73.05 0 01-.39-.909l-.921.389a86.432 86.432 0 01-1.12-2.784l.935-.357a73.479 73.479 0 01-.348-.927l-.938.346a84.586 84.586 0 01-.989-2.833l.95-.313a79.24 79.24 0 01-.304-.941l-.954.302a86.647 86.647 0 01-.856-2.877l.963-.268a103.22 103.22 0 01-.26-.954l-.966.257a87.277 87.277 0 01-.723-2.914l.975-.223a78.926 78.926 0 01-.216-.964l-.977.212a86.608 86.608 0 01-.587-2.945l.984-.179a98.352 98.352 0 01-.171-.972l-.985.167a87.768 87.768 0 01-.452-2.97l.992-.134a76.756 76.756 0 01-.126-.978l-.993.122a88.703 88.703 0 01-.314-2.99l.996-.087a79.542 79.542 0 01-.081-.982l-.997.076a87.07 87.07 0 01-.178-2.998l.999-.042-.02-.497-.017-.497-.999.031a88.67 88.67 0 01-.043-3.003l1 .003c.001-.329.004-.657.009-.985l-1-.014c.014-1.006.046-2.008.094-3.005l.999.048c.016-.328.034-.657.053-.984l-.998-.06c.06-1.003.137-2.002.232-2.996l.995.094c.031-.328.064-.655.099-.982l-.995-.106c.107-.998.23-1.992.37-2.98l.99.14c.046-.326.094-.652.144-.977l-.989-.152c.152-.992.321-1.978.507-2.959l.982.186c.062-.324.125-.648.19-.97l-.981-.198c.198-.983.412-1.96.643-2.931l.973.231a74.8 74.8 0 01.234-.961l-.97-.243c.243-.972.502-1.938.778-2.898l.961.276c.091-.317.184-.633.279-.949l-.958-.287c.288-.96.592-1.913.911-2.859l.948.32c.106-.312.213-.624.322-.935l-.943-.332c.332-.945.679-1.883 1.043-2.813l.931.364c.121-.308.242-.614.366-.92l-.927-.374c.375-.93.766-1.85 1.172-2.763l.914.407c.134-.301.27-.602.408-.902l-.909-.417c.418-.91.851-1.812 1.299-2.705l.894.449c.148-.295.297-.59.449-.882l-.889-.459c.459-.89.934-1.77 1.423-2.642l.872.49c.161-.288.324-.575.489-.861l-.866-.5a86.618 86.618 0 011.542-2.573l.849.529c.175-.28.351-.56.528-.837l-.842-.539a87.167 87.167 0 011.66-2.5l.823.568c.187-.272.376-.543.566-.812l-.817-.577a87.702 87.702 0 011.774-2.421l.796.604c.2-.262.401-.524.603-.784l-.79-.614a86.59 86.59 0 011.883-2.337l.768.64c.211-.253.424-.505.638-.756l-.761-.649c.65-.761 1.313-1.51 1.988-2.249l.738.675c.223-.243.447-.485.672-.725l-.73-.684a88.674 88.674 0 012.089-2.155l.706.708c.234-.233.469-.464.705-.694l-.698-.716a88.797 88.797 0 012.186-2.057l.673.74c.244-.222.489-.442.735-.661l-.664-.748a88.562 88.562 0 012.278-1.954l.638.77c.254-.21.509-.42.766-.627l-.629-.777a86.792 86.792 0 012.365-1.847l.602.799c.263-.199.528-.396.794-.591l-.593-.806a88.503 88.503 0 012.448-1.736l.564.826c.273-.186.546-.37.821-.553l-.555-.833a86.521 86.521 0 012.526-1.62l.525.85c.281-.173.562-.344.845-.514l-.515-.857a86.453 86.453 0 012.597-1.502l.486.874a75.3 75.3 0 01.868-.475l-.475-.88a86.14 86.14 0 012.664-1.38l.444.897c.296-.147.592-.292.89-.435l-.434-.9c.9-.434 1.809-.852 2.726-1.255l.402.916c.302-.133.605-.263.908-.392l-.391-.92a83.315 83.315 0 012.782-1.126l.358.933c.308-.118.617-.234.926-.35l-.348-.937c.936-.347 1.88-.679 2.832-.994l.314.949a73.8 73.8 0 01.941-.306l-.304-.953a86.6 86.6 0 012.875-.861l.27.963c.317-.09.635-.176.954-.262l-.259-.966c.964-.258 1.935-.5 2.913-.726l.225.974c.32-.074.641-.146.963-.216l-.213-.977c.975-.214 1.957-.41 2.944-.59l.18.983c.323-.059.647-.116.972-.172l-.168-.985a86.396 86.396 0 012.97-.454l.134.991c.325-.044.651-.086.978-.126l-.123-.992a87.186 87.186 0 012.99-.316l.088.996c.327-.03.654-.056.982-.081l-.077-.998a87.726 87.726 0 012.998-.178l.043.999a82.2 82.2 0 01.993-.037l-.031-1a87.957 87.957 0 013.003-.041l-.003 1c.329 0 .657.004.985.008l.015-1a87.19 87.19 0 013.004.096l-.049.999c.329.016.657.034.985.054l.06-.998c1.003.06 2.002.139 2.996.234l-.095.995c.328.032.655.065.982.1l.106-.994c.999.107 1.992.231 2.98.372l-.141.99c.326.047.652.095.977.145l.153-.988c.992.153 1.978.324 2.959.51l-.188.983c.324.062.647.125.97.19l.199-.98c.983.2 1.96.416 2.931.648l-.233.973c.321.077.641.155.96.236l.244-.97c.972.245 1.938.506 2.897.784l-.278.96c.317.092.633.186.949.28l.289-.956c.959.29 1.912.596 2.857.918l-.323.946c.313.107.624.215.935.325l.334-.943c.944.334 1.881.684 2.81 1.05l-.366.93c.307.122.613.244.919.369l.377-.926c.927.377 1.847.77 2.759 1.18l-.41.912c.302.135.602.272.901.41l.42-.908c.909.42 1.809.857 2.701 1.307l-.451.893c.294.149.588.3.88.451l.462-.887c.888.462 1.767.94 2.638 1.43l-.492.871c.287.163.573.327.858.492l.502-.865c.866.503 1.723 1.02 2.569 1.552l-.531.846c.279.176.557.353.835.531l.541-.84a86.89 86.89 0 012.495 1.668l-.57.821c.271.188.54.378.809.57l.58-.816c.815.58 1.621 1.174 2.415 1.782l-.607.794c.262.2.523.402.782.605l.617-.787a87 87 0 012.331 1.89l-.643.766c.252.212.503.426.753.64l.652-.757a87.09 87.09 0 012.242 1.996l-.678.735c.243.223.484.448.724.674l.686-.727a87.213 87.213 0 012.148 2.096l-.711.704c.232.234.463.47.692.707l.719-.695a88.7 88.7 0 012.049 2.193l-.742.67c.221.244.44.49.658.738l.75-.662a86.56 86.56 0 011.947 2.285l-.773.635c.21.255.418.51.625.768l.779-.627c.626.78 1.239 1.57 1.839 2.372l-.801.599c.198.264.394.53.589.796l.807-.59a85.79 85.79 0 011.728 2.453l-.827.562c.185.273.369.547.551.822l.834-.552a89.408 89.408 0 011.613 2.53l-.853.523c.173.281.343.563.513.847l.858-.513a84.354 84.354 0 011.494 2.602l-.875.483c.159.288.317.578.473.87l.881-.474c.472.88.93 1.77 1.372 2.669l-.897.442c.146.295.29.592.432.89l.902-.431c.431.9.847 1.81 1.247 2.729l-.916.4c.132.302.262.605.39.909l.921-.39c.389.92.762 1.849 1.12 2.785l-.935.357c.118.307.234.616.348.926l.938-.346c.346.937.675 1.881.989 2.833l-.95.313c.104.313.205.627.305.941l.953-.302c.301.952.587 1.911.856 2.877l-.963.269c.089.317.175.635.26.953l.966-.257c.257.965.498 1.936.723 2.914l-.975.224c.074.32.146.642.216.964l.977-.213c.212.976.408 1.958.587 2.946l-.984.178c.059.323.116.648.171.972l.985-.167c.167.985.318 1.975.452 2.971l-.992.133c.044.325.086.651.126.978l.993-.122c.121.991.226 1.988.314 2.99l-.996.088c.029.326.056.654.081.981l.997-.076z" stroke="#627ADF" stroke-width="2" stroke-dasharray="1 3"/><circle cx="422.016" cy="247.312" r="36.338" transform="rotate(177.893 422.016 247.312)" stroke="#627ADF" stroke-width="2" stroke-dasharray="1 3"/><circle cx="197.588" cy="207.759" r="19.877" transform="rotate(177.893 197.588 207.759)" stroke="#5D79EE" stroke-width="2" stroke-dasharray="1 3"/><circle cx="789.158" cy="122.791" r="106.597" transform="rotate(-2.107 789.158 122.791)" stroke="#4D67D3" stroke-opacity=".5" stroke-width="2"/><circle cx="789.158" cy="122.791" r="97.764" transform="rotate(-2.107 789.158 122.791)" stroke="#4D67D3" stroke-opacity=".5" stroke-width="2" stroke-dasharray="2 5"/><path stroke="#4D67D3" stroke-opacity=".5" d="M627.395 109.091l54.343-8.025"/><path stroke="#5E79E7" stroke-dasharray="1 4" d="M448.885 220.591l32.268-29.788"/><path stroke="#5D79EE" stroke-dasharray="1 3" d="M217.12 211.773l167.356 27.993"/><path stroke="url(#paint0_linear_1001_1804)" stroke-dasharray="1 3" d="M12.969 224.496l163.77-14.863"/><defs><linearGradient id="paint0_linear_1001_1804" x1="181.269" y1="209.327" x2="-10.269" y2="230.1" gradientUnits="userSpaceOnUse"><stop stop-color="#5D79EE"/><stop offset="1" stop-color="#5D79EE" stop-opacity="0"/></linearGradient></defs></svg>