<svg width="112" height="85" fill="none" xmlns="http://www.w3.org/2000/svg"><circle opacity=".5" cx="87" cy="25" r="25" fill="#D7DF3B"/><path d="M63.281 54.531H1.171v2.344h62.11v-2.344zM31.64 65.734h-2.343v11.72h2.344v-11.72zm15.235 0h-2.344v11.72h2.344v-11.72z" fill="#9498A9"/><path d="M53.906 85H21.094a2.343 2.343 0 01-2.344-2.344v-1.172a5.86 5.86 0 015.86-5.859h25.78a5.86 5.86 0 015.86 5.86v1.171A2.343 2.343 0 0153.906 85zM24.61 77.969a3.515 3.515 0 00-3.515 3.515v1.172h32.812v-1.172a3.515 3.515 0 00-3.515-3.515H24.609zM63.281 66.25H5.86A5.86 5.86 0 010 60.39V15.86A5.86 5.86 0 015.86 10h63.28A5.86 5.86 0 0175 15.86v17.578h-2.344v-17.58a3.515 3.515 0 00-3.515-3.515H5.859a3.515 3.515 0 00-3.515 3.515V60.39a3.516 3.516 0 003.515 3.515h57.422v2.344z" fill="#9498A9"/><path d="M37.5 61.563a1.172 1.172 0 100-2.344 1.172 1.172 0 000 2.343zm-2.344-17.579H14.063a2.344 2.344 0 01-2.344-2.343V26.406a2.344 2.344 0 012.344-2.343h21.093a2.343 2.343 0 012.344 2.343v15.235a2.343 2.343 0 01-2.344 2.343zM14.063 26.406v15.235h21.093V26.406H14.063zm72.656 30.469H72.656a2.343 2.343 0 01-2.344-2.344v-9.375a2.343 2.343 0 012.344-2.343H86.72a2.343 2.343 0 012.344 2.343v9.375a2.343 2.343 0 01-2.344 2.344zM72.656 45.156v9.375H86.72v-9.375H72.656zM62.11 26.406H43.36a1.172 1.172 0 110-2.343h18.75a1.172 1.172 0 010 2.343zm0 7.032H43.36a1.172 1.172 0 010-2.344h18.75a1.172 1.172 0 110 2.343zm-9.376 7.031H43.36a1.172 1.172 0 010-2.344h9.375a1.172 1.172 0 010 2.344zM87.89 63.906H71.485a1.172 1.172 0 110-2.343h16.407a1.172 1.172 0 010 2.343zm-9.374 7.032h-7.032a1.172 1.172 0 010-2.344h7.032a1.172 1.172 0 110 2.344z" fill="#9498A9"/><path d="M87.89 85H71.485a5.86 5.86 0 01-5.859-5.86v-37.5a5.86 5.86 0 015.86-5.859H87.89a5.86 5.86 0 015.859 5.86v37.5A5.86 5.86 0 0187.89 85zM71.485 38.125a3.516 3.516 0 00-3.515 3.516v37.5a3.515 3.515 0 003.515 3.515h16.407a3.516 3.516 0 003.515-3.515v-37.5a3.515 3.515 0 00-3.515-3.516H71.484z" fill="#9498A9"/></svg>