<svg width="86" height="85" viewBox="0 0 86 85" fill="none" xmlns="http://www.w3.org/2000/svg">
<ellipse opacity="0.5" cx="60.9656" cy="25" rx="24.9067" ry="25" fill="#D7DF3B"/>
<path d="M38.6719 24.0625H10.5469C10.2361 24.0625 9.938 23.939 9.71823 23.7193C9.49846 23.4995 9.375 23.2014 9.375 22.8906C9.375 22.5798 9.49846 22.2818 9.71823 22.062C9.938 21.8422 10.2361 21.7188 10.5469 21.7188H38.6719C38.9827 21.7188 39.2807 21.8422 39.5005 22.062C39.7203 22.2818 39.8438 22.5798 39.8438 22.8906C39.8438 23.2014 39.7203 23.4995 39.5005 23.7193C39.2807 23.939 38.9827 24.0625 38.6719 24.0625Z" fill="#9498A9"/>
<path d="M38.6719 31.0938H10.5469C10.2361 31.0938 9.938 30.9703 9.71823 30.7505C9.49846 30.5307 9.375 30.2327 9.375 29.9219C9.375 29.6111 9.49846 29.313 9.71823 29.0932C9.938 28.8735 10.2361 28.75 10.5469 28.75H38.6719C38.9827 28.75 39.2807 28.8735 39.5005 29.0932C39.7203 29.313 39.8438 29.6111 39.8438 29.9219C39.8438 30.2327 39.7203 30.5307 39.5005 30.7505C39.2807 30.9703 38.9827 31.0938 38.6719 31.0938Z" fill="#9498A9"/>
<path d="M38.6719 38.125H10.5469C10.2361 38.125 9.938 38.0015 9.71823 37.7818C9.49846 37.562 9.375 37.2639 9.375 36.9531C9.375 36.6423 9.49846 36.3443 9.71823 36.1245C9.938 35.9047 10.2361 35.7812 10.5469 35.7812H38.6719C38.9827 35.7812 39.2807 35.9047 39.5005 36.1245C39.7203 36.3443 39.8438 36.6423 39.8438 36.9531C39.8438 37.2639 39.7203 37.562 39.5005 37.7818C39.2807 38.0015 38.9827 38.125 38.6719 38.125Z" fill="#9498A9"/>
<path d="M24.6094 52.1875H10.5469C10.2361 52.1875 9.938 52.064 9.71823 51.8443C9.49846 51.6245 9.375 51.3264 9.375 51.0156C9.375 50.7048 9.49846 50.4068 9.71823 50.187C9.938 49.9672 10.2361 49.8438 10.5469 49.8438H24.6094C24.9202 49.8438 25.2182 49.9672 25.438 50.187C25.6578 50.4068 25.7812 50.7048 25.7812 51.0156C25.7812 51.3264 25.6578 51.6245 25.438 51.8443C25.2182 52.064 24.9202 52.1875 24.6094 52.1875Z" fill="#9498A9"/>
<path d="M46.957 67.1758H38.6719C38.3611 67.1758 38.063 67.0523 37.8432 66.8325C37.6235 66.6128 37.5 66.3147 37.5 66.0039C37.5 65.6931 37.6235 65.395 37.8432 65.1753C38.063 64.9555 38.3611 64.832 38.6719 64.832H46.957C47.2678 64.832 47.5659 64.9555 47.7857 65.1753C48.0054 65.395 48.1289 65.6931 48.1289 66.0039C48.1289 66.3147 48.0054 66.6128 47.7857 66.8325C47.5659 67.0523 47.2678 67.1758 46.957 67.1758Z" fill="#9498A9"/>
<path d="M46.207 71.2188H38.6719C38.3611 71.2188 38.063 71.0953 37.8432 70.8755C37.6235 70.6557 37.5 70.3577 37.5 70.0469C37.5 69.7361 37.6235 69.438 37.8432 69.2182C38.063 68.9985 38.3611 68.875 38.6719 68.875H46.207C46.5178 68.875 46.8159 68.9985 47.0357 69.2182C47.2554 69.438 47.3789 69.7361 47.3789 70.0469C47.3789 70.3577 47.2554 70.6557 47.0357 70.8755C46.8159 71.0953 46.5178 71.2188 46.207 71.2188Z" fill="#9498A9"/>
<path d="M38.6719 45.1562H10.5469C10.2361 45.1562 9.938 45.0328 9.71823 44.813C9.49846 44.5932 9.375 44.2952 9.375 43.9844C9.375 43.6736 9.49846 43.3755 9.71823 43.1557C9.938 42.936 10.2361 42.8125 10.5469 42.8125H38.6719C38.9827 42.8125 39.2807 42.936 39.5005 43.1557C39.7203 43.3755 39.8438 43.6736 39.8438 43.9844C39.8438 44.2952 39.7203 44.5932 39.5005 44.813C39.2807 45.0328 38.9827 45.1562 38.6719 45.1562Z" fill="#9498A9"/>
<path d="M48.0469 85C44.5703 85 41.1717 83.9691 38.281 82.0376C35.3903 80.1061 33.1373 77.3607 31.8068 74.1487C30.4764 70.9368 30.1283 67.4024 30.8065 63.9926C31.4848 60.5827 33.1589 57.4506 35.6173 54.9923C38.0756 52.5339 41.2077 50.8598 44.6176 50.1815C48.0274 49.5033 51.5618 49.8514 54.7737 51.1818C57.9857 52.5123 60.7311 54.7653 62.6626 57.656C64.5941 60.5467 65.625 63.9453 65.625 67.4219C65.625 72.0839 63.773 76.555 60.4765 79.8515C57.18 83.148 52.7089 85 48.0469 85ZM48.0469 52.1875C45.0338 52.1875 42.0884 53.081 39.5831 54.755C37.0778 56.4289 35.1252 58.8082 33.9722 61.5919C32.8191 64.3757 32.5174 67.4388 33.1052 70.394C33.6931 73.3491 35.144 76.0636 37.2746 78.1942C39.4051 80.3248 42.1196 81.7757 45.0748 82.3635C48.03 82.9514 51.0931 82.6497 53.8768 81.4966C56.6605 80.3436 59.0398 78.3909 60.7138 75.8856C62.3878 73.3804 63.2813 70.435 63.2813 67.4219C63.2813 65.4213 62.8872 63.4403 62.1216 61.5919C61.356 59.7436 60.2339 58.0642 58.8192 56.6496C57.4046 55.2349 55.7251 54.1128 53.8768 53.3472C52.0285 52.5816 50.0475 52.1875 48.0469 52.1875Z" fill="#9498A9"/>
<path d="M49.2186 76.9609C46.7105 76.9609 44.305 75.9646 42.5315 74.191C40.758 72.4175 39.7616 70.0121 39.7616 67.5039C39.7616 64.9957 40.758 62.5903 42.5315 60.8168C44.305 59.0432 46.7105 58.0469 49.2186 58.0469C49.5294 58.0469 49.8275 58.1703 50.0473 58.3901C50.267 58.6099 50.3905 58.9079 50.3905 59.2188C50.3905 59.5296 50.267 59.8276 50.0473 60.0474C49.8275 60.2672 49.5294 60.3906 49.2186 60.3906C47.3321 60.3906 45.5228 61.1401 44.1888 62.4741C42.8548 63.8081 42.1053 65.6173 42.1053 67.5039C42.1053 69.3905 42.8548 71.1998 44.1888 72.5338C45.5228 73.8678 47.3321 74.6172 49.2186 74.6172C49.5294 74.6172 49.8275 74.7407 50.0473 74.9604C50.267 75.1802 50.3905 75.4783 50.3905 75.7891C50.3905 76.0999 50.267 76.3979 50.0473 76.6177C49.8275 76.8375 49.5294 76.9609 49.2186 76.9609Z" fill="#9498A9"/>
<path d="M28.125 75.625H5.85938C4.30537 75.625 2.81502 75.0077 1.71617 73.9088C0.617325 72.81 0 71.3196 0 69.7656V15.8594C0 14.3054 0.617325 12.815 1.71617 11.7162C2.81502 10.6173 4.30537 10 5.85938 10H37.8398C38.6331 9.99985 39.4181 10.1608 40.1473 10.473C40.8765 10.7852 41.5347 11.2423 42.082 11.8164L47.6016 17.6055C48.64 18.6953 49.2191 20.1431 49.2188 21.6484V47.5H46.875V21.6484C46.8745 20.7449 46.5262 19.8762 45.9023 19.2227L40.3828 13.4336C40.0547 13.0894 39.6601 12.8153 39.223 12.628C38.7859 12.4407 38.3154 12.344 37.8398 12.3438H5.85938C4.92697 12.3438 4.03276 12.7141 3.37345 13.3735C2.71414 14.0328 2.34375 14.927 2.34375 15.8594V69.7656C2.34375 70.698 2.71414 71.5922 3.37345 72.2515C4.03276 72.9109 4.92697 73.2812 5.85938 73.2812H28.125V75.625Z" fill="#9498A9"/>
</svg>
