<svg width="113" height="85" viewBox="0 0 113 85" fill="none" xmlns="http://www.w3.org/2000/svg">
<circle opacity="0.5" cx="75" cy="25" r="25" fill="#D7DF3B"/>
<g clip-path="url(#clip0_405_2022)">
<path d="M27.422 29.3359L33.6681 35.582L41.8361 23.0898L33.6681 30.1094L27.422 29.3359Z" fill="#9498A9"/>
<path d="M27.422 65.6641L33.6681 71.9102L41.8361 59.418L33.6681 66.4375L27.422 65.6641Z" fill="#9498A9"/>
<path d="M37.4999 53.5937C37.3448 53.5931 37.1915 53.5617 37.0486 53.5013C36.9058 53.441 36.7764 53.3529 36.6679 53.2421L29.6366 46.2109C29.4183 45.9913 29.2958 45.6943 29.2958 45.3847C29.2958 45.0751 29.4183 44.7781 29.6366 44.5586C29.7456 44.4487 29.8752 44.3615 30.018 44.302C30.1608 44.2425 30.3139 44.2119 30.4686 44.2119C30.6233 44.2119 30.7765 44.2425 30.9193 44.302C31.0621 44.3615 31.1917 44.4487 31.3007 44.5586L38.3319 51.5898C38.4972 51.7537 38.6099 51.9631 38.6557 52.1913C38.7015 52.4196 38.6783 52.6562 38.589 52.8712C38.4997 53.0862 38.3485 53.2697 38.1545 53.3984C37.9605 53.5271 37.7327 53.5951 37.4999 53.5937Z" fill="#9498A9"/>
<path d="M30.4687 53.5937C30.236 53.5951 30.0081 53.5271 29.8141 53.3984C29.6201 53.2697 29.4689 53.0862 29.3796 52.8712C29.2904 52.6562 29.2671 52.4196 29.3129 52.1913C29.3587 51.9631 29.4714 51.7537 29.6367 51.5898L36.668 44.5586C36.7769 44.4487 36.9065 44.3615 37.0493 44.302C37.1921 44.2425 37.3453 44.2119 37.5 44.2119C37.6547 44.2119 37.8079 44.2425 37.9507 44.302C38.0935 44.3615 38.2231 44.4487 38.332 44.5586C38.5503 44.7781 38.6728 45.0751 38.6728 45.3847C38.6728 45.6943 38.5503 45.9913 38.332 46.2109L31.3008 53.2421C31.1922 53.3529 31.0628 53.441 30.92 53.5013C30.7772 53.5617 30.6238 53.5931 30.4687 53.5937Z" fill="#9498A9"/>
<path d="M64.4531 31.3281H45.7031C45.3923 31.3281 45.0943 31.2047 44.8745 30.9849C44.6547 30.7651 44.5312 30.4671 44.5312 30.1562C44.5312 29.8454 44.6547 29.5474 44.8745 29.3276C45.0943 29.1078 45.3923 28.9844 45.7031 28.9844H64.4531C64.7639 28.9844 65.062 29.1078 65.2818 29.3276C65.5015 29.5474 65.625 29.8454 65.625 30.1562C65.625 30.4671 65.5015 30.7651 65.2818 30.9849C65.062 31.2047 64.7639 31.3281 64.4531 31.3281Z" fill="#9498A9"/>
<path d="M64.4531 50.0781H45.7031C45.3923 50.0781 45.0943 49.9547 44.8745 49.7349C44.6547 49.5151 44.5312 49.2171 44.5312 48.9062C44.5312 48.5954 44.6547 48.2974 44.8745 48.0776C45.0943 47.8578 45.3923 47.7344 45.7031 47.7344H64.4531C64.7639 47.7344 65.062 47.8578 65.2818 48.0776C65.5015 48.2974 65.625 48.5954 65.625 48.9062C65.625 49.2171 65.5015 49.5151 65.2818 49.7349C65.062 49.9547 64.7639 50.0781 64.4531 50.0781Z" fill="#9498A9"/>
<path d="M64.4531 68.8281H45.7031C45.3923 68.8281 45.0943 68.7047 44.8745 68.4849C44.6547 68.2651 44.5312 67.9671 44.5312 67.6562C44.5312 67.3454 44.6547 67.0474 44.8745 66.8276C45.0943 66.6078 45.3923 66.4844 45.7031 66.4844H64.4531C64.7639 66.4844 65.062 66.6078 65.2818 66.8276C65.5015 67.0474 65.625 67.3454 65.625 67.6562C65.625 67.9671 65.5015 68.2651 65.2818 68.4849C65.062 68.7047 64.7639 68.8281 64.4531 68.8281Z" fill="#9498A9"/>
<path d="M69.2462 85.0586H52.8399H27.5509C26.698 85.0586 25.8535 84.8897 25.0663 84.5615C24.279 84.2334 23.5646 83.7525 22.9642 83.1467C22.3638 82.5409 21.8895 81.8221 21.5684 81.032C21.2474 80.2418 21.0861 79.3958 21.0938 78.543V16.4336C21.1 14.7251 21.7831 13.0888 22.9933 11.8829C24.2036 10.6771 25.8424 9.99999 27.5509 10H62.4259C63.3021 9.99977 64.1693 10.1772 64.9749 10.5217C65.7806 10.8661 66.5081 11.3703 67.1134 12.0039L73.336 18.5195C74.4833 19.7224 75.1215 21.3221 75.1173 22.9844V79.2344C75.1173 80.7884 74.4999 82.2787 73.4011 83.3776C72.3022 84.4764 70.8119 85.0938 69.2579 85.0938L69.2462 85.0586ZM27.5509 12.3438C27.0107 12.3438 26.4758 12.4501 25.9768 12.6569C25.4777 12.8636 25.0243 13.1665 24.6423 13.5485C24.2604 13.9305 23.9574 14.3839 23.7507 14.8829C23.544 15.382 23.4376 15.9169 23.4376 16.457V78.5664C23.4438 79.6533 23.8799 80.6935 24.6506 81.4598C25.4213 82.2261 26.464 82.6563 27.5509 82.6562H52.8048H69.211C70.1434 82.6562 71.0376 82.2859 71.6969 81.6265C72.3562 80.9672 72.7266 80.073 72.7266 79.1406V22.8906C72.7239 21.828 72.3029 20.8093 71.5548 20.0547L65.4024 13.6211C65.0173 13.2194 64.5553 12.8994 64.044 12.6799C63.5326 12.4605 62.9823 12.3461 62.4259 12.3438H27.5509Z" fill="#9498A9"/>
</g>
<defs>
<clipPath id="clip0_405_2022">
<rect width="112.5" height="75" fill="white" transform="translate(0 10)"/>
</clipPath>
</defs>
</svg>
