<svg width="77" height="85" viewBox="0 0 77 85" fill="none" xmlns="http://www.w3.org/2000/svg">
<circle opacity="0.5" cx="51.9064" cy="25" r="25" fill="#D7DF3B"/>
<path d="M48.0925 84.9649H31.7067H6.44924C5.5974 84.9649 4.75399 84.7962 3.96773 84.4685C3.18147 84.1407 2.46792 83.6604 1.86831 83.0554C1.2687 82.4503 0.794894 81.7325 0.474265 80.9433C0.153637 80.1541 -0.00746438 79.3092 0.000265547 78.4574V16.4256C0.0064591 14.7192 0.688635 13.0849 1.89738 11.8806C3.10613 10.6762 4.74291 9.99999 6.44924 10H41.2807C42.1558 9.99977 43.0219 10.177 43.8266 10.521C44.6313 10.865 45.3578 11.3686 45.9623 12.0014L52.1772 18.5089C53.3231 19.7103 53.9605 21.3079 53.9563 22.9682V79.1479C53.9563 80.7 53.3397 82.1885 52.2422 83.286C51.1447 84.3834 49.6563 85 48.1042 85L48.0925 84.9649ZM6.44924 12.3408C5.90975 12.3408 5.37554 12.4471 4.87712 12.6535C4.37869 12.86 3.92581 13.1626 3.54434 13.5441C3.16286 13.9255 2.86026 14.3784 2.6538 14.8769C2.44735 15.3753 2.34109 15.9095 2.34109 16.449V78.4808C2.34727 79.5663 2.78282 80.6052 3.55258 81.3706C4.32234 82.136 5.36373 82.5656 6.44924 82.5655H31.6716H48.0574C48.9886 82.5655 49.8817 82.1956 50.5402 81.5371C51.1987 80.8786 51.5686 79.9855 51.5686 79.0543V22.8745C51.5658 21.8133 51.1454 20.7958 50.3982 20.0421L44.2535 13.6166C43.8689 13.2154 43.4075 12.8957 42.8968 12.6766C42.3861 12.4574 41.8365 12.3432 41.2807 12.3408H6.44924Z" fill="#9498A9"/>
<path d="M17.2406 42.7715C15.5044 42.7715 13.8073 42.2567 12.3637 41.2921C10.9202 40.3276 9.79505 38.9566 9.13066 37.3527C8.46627 35.7487 8.29243 33.9837 8.63114 32.2809C8.96984 30.5781 9.80587 29.014 11.0335 27.7864C12.2611 26.5587 13.8253 25.7227 15.528 25.384C17.2308 25.0453 18.9958 25.2191 20.5998 25.8835C22.2038 26.5479 23.5747 27.673 24.5393 29.1166C25.5038 30.5601 26.0186 32.2573 26.0186 33.9934C26.0125 36.3196 25.0857 38.5488 23.4408 40.1937C21.7959 41.8385 19.5668 42.7653 17.2406 42.7715ZM17.2406 27.5562C15.9674 27.5562 14.7228 27.9337 13.6642 28.641C12.6056 29.3484 11.7805 30.3537 11.2933 31.53C10.8061 32.7062 10.6786 34.0006 10.927 35.2493C11.1754 36.498 11.7885 37.645 12.6887 38.5453C13.589 39.4455 14.736 40.0586 15.9847 40.307C17.2334 40.5554 18.5277 40.4279 19.704 39.9407C20.8802 39.4535 21.8856 38.6284 22.5929 37.5698C23.3003 36.5112 23.6778 35.2666 23.6778 33.9934C23.6778 32.2862 22.9996 30.6488 21.7924 29.4416C20.5852 28.2344 18.9478 27.5562 17.2406 27.5562Z" fill="#9498A9"/>
<path d="M12.2663 39.5176L10.4171 38.0897C11.2234 37.0614 12.2491 36.226 13.4194 35.6447C14.5898 35.0633 15.8751 34.7505 17.1817 34.7292C18.4883 34.7079 19.7832 34.9786 20.9718 35.5215C22.1605 36.0644 23.2129 36.8659 24.0523 37.8674L22.2382 39.3538C21.6225 38.6222 20.8515 38.037 19.9813 37.6406C19.1111 37.2443 18.1635 37.0468 17.2075 37.0624C16.2514 37.0781 15.3108 37.3066 14.4541 37.7313C13.5973 38.156 12.846 38.7662 12.2546 39.5176H12.2663Z" fill="#9498A9"/>
<path d="M17.3225 37.0599C16.5539 37.0599 15.8027 36.832 15.1637 36.405C14.5246 35.978 14.0266 35.3712 13.7325 34.6611C13.4384 33.9511 13.3614 33.1698 13.5114 32.416C13.6613 31.6623 14.0314 30.9699 14.5748 30.4264C15.1183 29.883 15.8106 29.5129 16.5644 29.363C17.3182 29.2131 18.0995 29.29 18.8095 29.5841C19.5195 29.8782 20.1264 30.3763 20.5534 31.0153C20.9803 31.6543 21.2082 32.4056 21.2082 33.1741C21.2082 33.6844 21.1077 34.1897 20.9125 34.6611C20.7172 35.1326 20.431 35.5609 20.0701 35.9218C19.7093 36.2826 19.2809 36.5688 18.8095 36.7641C18.3381 36.9594 17.8328 37.0599 17.3225 37.0599ZM17.3225 31.6292C17.0169 31.6292 16.7182 31.7198 16.4641 31.8895C16.2101 32.0593 16.0121 32.3006 15.8951 32.5829C15.7782 32.8652 15.7476 33.1758 15.8072 33.4755C15.8668 33.7752 16.014 34.0505 16.23 34.2665C16.4461 34.4826 16.7214 34.6297 17.0211 34.6894C17.3208 34.749 17.6314 34.7184 17.9137 34.6014C18.196 34.4845 18.4373 34.2865 18.607 34.0324C18.7768 33.7784 18.8674 33.4797 18.8674 33.1741C18.8674 32.7644 18.7046 32.3714 18.4149 32.0817C18.1252 31.7919 17.7322 31.6292 17.3225 31.6292Z" fill="#9498A9"/>
<path d="M17.2406 69.7964C15.5044 69.7964 13.8073 69.2816 12.3637 68.317C10.9202 67.3525 9.79505 65.9815 9.13066 64.3776C8.46627 62.7736 8.29243 61.0086 8.63114 59.3058C8.96984 57.603 9.80587 56.0389 11.0335 54.8113C12.2611 53.5836 13.8253 52.7476 15.528 52.4089C17.2308 52.0702 18.9958 52.244 20.5998 52.9084C22.2038 53.5728 23.5747 54.6979 24.5393 56.1415C25.5038 57.585 26.0186 59.2822 26.0186 61.0183C26.0155 63.3455 25.0897 65.5764 23.4442 67.2219C21.7986 68.8675 19.5677 69.7933 17.2406 69.7964ZM17.2406 54.5811C15.9674 54.5811 14.7228 54.9586 13.6642 55.6659C12.6056 56.3733 11.7805 57.3786 11.2933 58.5549C10.8061 59.7311 10.6786 61.0255 10.927 62.2742C11.1754 63.5229 11.7885 64.6699 12.6887 65.5702C13.589 66.4704 14.736 67.0835 15.9847 67.3319C17.2334 67.5803 18.5277 67.4528 19.704 66.9656C20.8802 66.4784 21.8856 65.6533 22.5929 64.5947C23.3003 63.5361 23.6778 62.2915 23.6778 61.0183C23.6747 59.312 22.9955 57.6765 21.789 56.4699C20.5824 55.2634 18.9469 54.5842 17.2406 54.5811Z" fill="#9498A9"/>
<path d="M12.2663 66.5542L10.4171 65.1029C11.2234 64.0746 12.2491 63.2392 13.4194 62.6578C14.5898 62.0764 15.8751 61.7637 17.1817 61.7424C18.4883 61.7211 19.7832 61.9917 20.9718 62.5347C22.1605 63.0776 23.2129 63.879 24.0523 64.8805L22.2382 66.3904C21.6249 65.6549 20.8547 65.0662 19.9841 64.6673C19.1135 64.2684 18.1647 64.0696 17.2072 64.0853C16.2498 64.101 15.308 64.3309 14.4509 64.7581C13.5939 65.1854 12.8435 65.7991 12.2546 66.5542H12.2663Z" fill="#9498A9"/>
<path d="M17.3225 64.0848C16.5539 64.0848 15.8027 63.8569 15.1637 63.4299C14.5246 63.0029 14.0266 62.396 13.7325 61.686C13.4384 60.976 13.3614 60.1947 13.5114 59.4409C13.6613 58.6872 14.0314 57.9948 14.5748 57.4513C15.1183 56.9079 15.8106 56.5378 16.5644 56.3879C17.3182 56.238 18.0995 56.3149 18.8095 56.609C19.5195 56.9031 20.1264 57.4012 20.5534 58.0402C20.9803 58.6792 21.2082 59.4305 21.2082 60.199C21.2082 61.2296 20.7988 62.2179 20.0701 62.9467C19.3414 63.6754 18.353 64.0848 17.3225 64.0848ZM17.3225 58.6541C17.0169 58.6541 16.7182 58.7447 16.4641 58.9144C16.2101 59.0842 16.0121 59.3255 15.8951 59.6078C15.7782 59.8901 15.7476 60.2007 15.8072 60.5004C15.8668 60.8001 16.014 61.0754 16.23 61.2914C16.4461 61.5075 16.7214 61.6546 17.0211 61.7143C17.3208 61.7739 17.6314 61.7433 17.9137 61.6263C18.196 61.5094 18.4373 61.3114 18.607 61.0573C18.7768 60.8033 18.8674 60.5046 18.8674 60.199C18.8674 59.7893 18.7046 59.3963 18.4149 59.1066C18.1252 58.8168 17.7322 58.6541 17.3225 58.6541Z" fill="#9498A9"/>
<path d="M30.8992 33.9934L37.1375 40.2317L45.2953 27.7434L37.1375 34.7542L30.8992 33.9934Z" fill="#9498A9"/>
<path d="M29.7288 61.0183L35.9671 67.2566L44.1249 54.78L35.9671 61.7908L29.7288 61.0183Z" fill="#9498A9"/>
</svg>
