<svg width="113" height="85" viewBox="0 0 113 85" fill="none" xmlns="http://www.w3.org/2000/svg">
<ellipse opacity="0.5" cx="78.4031" cy="25" rx="24.9067" ry="25" fill="#D7DF3B"/>
<path d="M80.8594 82.8555C77.3828 82.8555 73.9842 81.8245 71.0935 79.893C68.2028 77.9615 65.9498 75.2162 64.6193 72.0042C63.2889 68.7922 62.9408 65.2579 63.619 61.848C64.2973 58.4382 65.9714 55.3061 68.4298 52.8477C70.8881 50.3894 74.0202 48.7152 77.4301 48.037C80.8399 47.3587 84.3743 47.7068 87.5862 49.0373C90.7982 50.3677 93.5435 52.6208 95.4751 55.5115C97.4066 58.4022 98.4375 61.8007 98.4375 65.2773C98.4375 69.9394 96.5855 74.4104 93.289 77.707C89.9925 81.0035 85.5214 82.8555 80.8594 82.8555ZM80.8594 50.043C77.8463 50.043 74.9009 50.9365 72.3956 52.6104C69.8903 54.2844 67.9377 56.6637 66.7847 59.4474C65.6316 62.2311 65.3299 65.2943 65.9177 68.2494C66.5056 71.2046 67.9565 73.9191 70.0871 76.0497C72.2176 78.1802 74.9321 79.6312 77.8873 80.219C80.8425 80.8068 83.9056 80.5051 86.6893 79.3521C89.473 78.199 91.8523 76.2464 93.5263 73.7411C95.2003 71.2358 96.0938 68.2904 96.0938 65.2773C96.0938 61.2369 94.4887 57.362 91.6317 54.505C88.7747 51.648 84.8998 50.043 80.8594 50.043Z" fill="#9498A9"/>
<path d="M76.6172 74.1485C76.3343 74.1466 76.0564 74.074 75.8086 73.9375C75.5643 73.7924 75.3615 73.5868 75.2199 73.3404C75.0782 73.0941 75.0025 72.8154 75 72.5313V58.4688C74.9987 58.1854 75.0729 57.9069 75.215 57.6617C75.3571 57.4166 75.562 57.2138 75.8086 57.0742C76.0548 56.9334 76.3336 56.8594 76.6172 56.8594C76.9008 56.8594 77.1796 56.9334 77.4258 57.0742L89.5899 64.1055C89.8342 64.2506 90.037 64.4562 90.1786 64.7026C90.3202 64.9489 90.396 65.2276 90.3985 65.5117C90.3971 65.7975 90.3206 66.0779 90.1766 66.3247C90.0326 66.5715 89.8262 66.7761 89.5781 66.918L77.4375 73.9492C77.185 74.0831 76.903 74.1516 76.6172 74.1485ZM77.3438 59.7461V71.2774L87.3281 65.5117L77.3438 59.7461Z" fill="#9498A9"/>
<path d="M51.785 78.25C51.5596 78.2496 51.3391 78.1841 51.15 78.0614C50.9608 77.9388 50.8111 77.7642 50.7186 77.5586L48.3749 72.461C47.4724 72.417 46.5728 72.327 45.6796 72.1914L42.0468 76.7266C41.9081 76.8958 41.7248 77.0227 41.5177 77.0931C41.3106 77.1636 41.0879 77.1746 40.8749 77.125C38.2386 76.4109 35.6971 75.384 33.3046 74.0664C33.0991 73.9533 32.9323 73.7812 32.8258 73.5723C32.7192 73.3633 32.6778 73.1273 32.7069 72.8946L33.5155 67.4219C32.6257 66.7873 31.7728 66.1026 30.9608 65.3711L25.5116 67.1992C25.2924 67.2726 25.0564 67.2795 24.8332 67.219C24.6101 67.1585 24.4099 67.0334 24.2577 66.8594C22.5042 64.873 20.9863 62.6906 19.7343 60.3555C19.6131 60.1354 19.566 59.8821 19.5997 59.6331C19.6335 59.3842 19.7464 59.1526 19.9218 58.9727L23.5546 54.7657C23.0822 53.6226 22.6906 52.4479 22.3827 51.25L16.9335 49.8438C16.7067 49.7877 16.5019 49.6652 16.3453 49.4918C16.1887 49.3185 16.0874 49.1024 16.0546 48.8711C15.8441 47.3175 15.7384 45.7514 15.7382 44.1836C15.7382 43.1641 15.7382 42.1211 15.8905 41.0196C15.9112 40.7859 16.0016 40.5637 16.1499 40.382C16.2982 40.2002 16.4977 40.0672 16.7225 40L22.1483 38.4297C22.4008 37.2048 22.7375 35.9988 23.1561 34.8203L19.3007 30.7188C19.1386 30.5458 19.0328 30.3278 18.9973 30.0935C18.9617 29.8591 18.998 29.6195 19.1014 29.4063C20.2562 27.0842 21.6674 24.8987 23.3085 22.8907C23.4569 22.6972 23.662 22.5548 23.8951 22.4834C24.1283 22.4119 24.3779 22.415 24.6093 22.4922L30.0702 24.1211C30.9067 23.2847 31.7952 22.5019 32.7304 21.7774L31.6405 16.3399C31.607 16.112 31.6414 15.8794 31.7393 15.671C31.8373 15.4625 31.9945 15.2876 32.1913 15.168C34.4883 13.7788 36.9432 12.6693 39.5038 11.8633C39.7225 11.7938 39.9568 11.7901 40.1777 11.8526C40.3985 11.9151 40.5961 12.0411 40.746 12.2149L44.5311 16.5508C45.5236 16.3692 46.525 16.2401 47.5311 16.1641L49.6757 11.0078C49.7691 10.7784 49.9329 10.5845 50.1434 10.454C50.354 10.3234 50.6005 10.263 50.8475 10.2813C53.6219 10.3644 56.3761 10.7815 59.0507 11.5235C59.2709 11.5855 59.4682 11.7107 59.6181 11.8835C59.768 12.0564 59.8641 12.2693 59.8944 12.4961L60.6444 18.2032C61.4179 18.5313 62.1679 18.8711 62.871 19.2461L67.4765 16.0352C67.6714 15.9017 67.9022 15.8302 68.1386 15.8302C68.3749 15.8302 68.6057 15.9017 68.8007 16.0352C71.1728 17.6553 73.3339 19.5646 75.2343 21.7188C75.3848 21.8889 75.4827 22.099 75.516 22.3237C75.5493 22.5484 75.5165 22.778 75.4218 22.9844L72.9843 28.2696C73.3827 28.8321 73.7343 29.3828 74.0624 29.9219L79.6874 29.711C79.9304 29.6899 80.1739 29.7452 80.3839 29.8692C80.594 29.9931 80.7602 30.1795 80.8593 30.4024C82.0524 33.0717 82.8953 35.8841 83.3671 38.7696C83.4029 38.995 83.372 39.226 83.2784 39.4342C83.1847 39.6424 83.0322 39.8187 82.8397 39.9414L77.9765 43.0469C77.9765 43.4453 77.9765 43.8555 77.9765 44.2188C77.9765 44.5821 77.9765 44.7578 77.9765 45.0157V45.4258L75.6327 45.3321C75.6327 45.1797 75.6327 45.0157 75.6327 44.8633C75.6327 44.711 75.6327 44.4414 75.6327 44.2188C75.6327 43.7383 75.6327 43.2578 75.5624 42.7774V42.461C75.5483 42.2512 75.591 42.0415 75.6858 41.8539C75.7806 41.6663 75.9242 41.5076 76.1015 41.3946L80.8593 38.3946C80.4581 36.2277 79.8255 34.1101 78.9725 32.0782L73.4413 32.2657C73.2258 32.2738 73.0121 32.2223 72.824 32.1169C72.6358 32.0114 72.4804 31.8561 72.3749 31.668C71.8619 30.7659 71.2985 29.8935 70.6874 29.0547C70.5662 28.8871 70.4915 28.6904 70.4709 28.4846C70.4503 28.2787 70.4846 28.0711 70.5702 27.8828L72.914 22.6914C71.4588 21.1153 69.8448 19.6937 68.0975 18.4492L63.621 21.625C63.4403 21.7504 63.228 21.8223 63.0083 21.8327C62.7886 21.843 62.5705 21.7914 62.3788 21.6836C61.3368 21.1058 60.2561 20.6007 59.1444 20.1719C58.9524 20.0954 58.7841 19.9694 58.6565 19.8068C58.5289 19.6442 58.4466 19.4508 58.4179 19.2461L57.621 13.586C55.6242 13.08 53.5837 12.7661 51.5272 12.6485L49.4413 17.7344C49.3566 17.9412 49.2145 18.1196 49.0318 18.2483C48.8491 18.377 48.6333 18.4508 48.41 18.461C47.043 18.5246 45.6833 18.6971 44.3436 18.9766C44.1317 19.0275 43.9097 19.0183 43.7027 18.95C43.4956 18.8817 43.3118 18.757 43.1718 18.5899L39.5155 14.2891C37.6491 14.9333 35.8448 15.7452 34.1249 16.7149L35.1561 22.1289C35.198 22.3486 35.1761 22.5757 35.093 22.7834C35.0099 22.991 34.8692 23.1706 34.6874 23.3008C33.4497 24.1894 32.2929 25.1854 31.2303 26.2774C31.0813 26.43 30.8933 26.5391 30.6868 26.5928C30.4803 26.6465 30.263 26.6428 30.0585 26.5821L24.6093 24.9649C23.4422 26.4824 22.4146 28.1023 21.5389 29.8047L25.3241 33.8477C25.4647 34.004 25.5607 34.1953 25.6019 34.4015C25.6431 34.6077 25.6281 34.8212 25.5585 35.0196C24.9917 36.5081 24.5641 38.0459 24.2811 39.6133C24.2414 39.8281 24.1424 40.0274 23.9954 40.189C23.8484 40.3505 23.6592 40.4677 23.4491 40.5274L18.1171 42.0742C18.1171 42.8125 18.0468 43.5274 18.0468 44.2305C18.0453 45.4052 18.1118 46.5791 18.246 47.7461L23.66 49.1055C23.8699 49.1587 24.0609 49.269 24.2119 49.4241C24.3629 49.5792 24.468 49.7732 24.5155 49.9844C24.8632 51.5432 25.3576 53.0656 25.9921 54.5313C26.068 54.7256 26.0906 54.9367 26.0576 55.1427C26.0247 55.3487 25.9373 55.5422 25.8046 55.7032L22.1952 59.8399C23.1517 61.5283 24.2618 63.1249 25.5116 64.6094L30.8671 62.8047C31.0675 62.7381 31.2822 62.7269 31.4885 62.7723C31.6948 62.8176 31.885 62.9179 32.0389 63.0625C33.0858 64.0582 34.2148 64.9638 35.4139 65.7696C35.6043 65.8938 35.7544 66.0708 35.8459 66.2789C35.9375 66.4869 35.9665 66.7171 35.9296 66.9414L35.1561 72.3907C36.946 73.3234 38.822 74.0808 40.7577 74.6524L44.3319 70.1992C44.4629 70.0359 44.6352 69.9106 44.831 69.8364C45.0268 69.7622 45.2389 69.7418 45.4452 69.7774C46.6965 69.9895 47.9615 70.1109 49.2304 70.1406C49.4518 70.1456 49.6673 70.2131 49.8518 70.3355C50.0364 70.4579 50.1826 70.63 50.2733 70.8321L52.535 75.8477C54.6382 75.6578 56.7182 75.2654 58.746 74.6758L59.3319 68.9922L61.6757 69.2383L60.9374 75.6953C60.914 75.922 60.8251 76.137 60.6815 76.3139C60.5379 76.4908 60.3458 76.622 60.1288 76.6914C57.4347 77.5518 54.6434 78.0715 51.8202 78.2383L51.785 78.25Z" fill="#9498A9"/>
</svg>
