<svg width="113" height="85" viewBox="0 0 113 85" fill="none" xmlns="http://www.w3.org/2000/svg">
<circle opacity="0.5" cx="75" cy="25" r="25" fill="#D7DF3B"/>
<path d="M46.875 25.2344L53.4844 31.8437L62.1094 18.6367L53.4844 26.0547L46.875 25.2344Z" fill="#9498A9"/>
<path d="M53.9063 62.4297C52.1981 62.4297 50.5283 61.9232 49.1079 60.9741C47.6876 60.0251 46.5807 58.6763 45.927 57.0981C45.2733 55.5199 45.1022 53.7834 45.4355 52.108C45.7687 50.4327 46.5913 48.8938 47.7992 47.6859C49.007 46.478 50.546 45.6555 52.2213 45.3222C53.8967 44.989 55.6332 45.16 57.2114 45.8137C58.7895 46.4674 60.1384 47.5744 61.0874 48.9947C62.0364 50.415 62.543 52.0848 62.543 53.793C62.5399 56.0826 61.6289 58.2776 60.0099 59.8966C58.3909 61.5157 56.1959 62.4266 53.9063 62.4297ZM53.9063 47.5C52.6616 47.5 51.4449 47.8691 50.4101 48.5606C49.3752 49.252 48.5686 50.2349 48.0923 51.3848C47.616 52.5346 47.4914 53.8 47.7342 55.0207C47.977 56.2414 48.5764 57.3627 49.4564 58.2428C50.3365 59.1229 51.4578 59.7222 52.6786 59.965C53.8993 60.2078 55.1646 60.0832 56.3145 59.6069C57.4644 59.1306 58.4472 58.324 59.1387 57.2892C59.8301 56.2543 60.1992 55.0376 60.1992 53.793C60.1961 52.1249 59.5321 50.5261 58.3526 49.3466C57.1731 48.1671 55.5743 47.5031 53.9063 47.5Z" fill="#9498A9"/>
<path d="M65.625 85H42.2461C41.6245 85 41.0284 84.7531 40.5889 84.3135C40.1493 83.874 39.9024 83.2779 39.9024 82.6562V70.7031C39.8438 65.0781 46.1485 60.3906 53.9063 60.3906C61.6641 60.3906 67.9688 65.0781 67.9688 70.7031V82.6562C67.9688 83.2779 67.7219 83.874 67.2823 84.3135C66.8428 84.7531 66.2466 85 65.625 85ZM53.9063 62.7344C47.4493 62.7344 42.1875 66.25 42.1875 70.7031V82.6562H65.625V70.7031C65.625 66.3086 60.3633 62.7344 53.9063 62.7344Z" fill="#9498A9"/>
<path d="M54.4922 40.4688C50.5313 40.3856 46.765 38.7353 44.019 35.8795C41.273 33.0237 39.7716 29.1955 39.8438 25.2344C39.7716 21.2732 41.273 17.4451 44.019 14.5893C46.765 11.7335 50.5313 10.0831 54.4922 10C58.4532 10.0831 62.2195 11.7335 64.9655 14.5893C67.7114 17.4451 69.2129 21.2732 69.1407 25.2344C69.2129 29.1955 67.7114 33.0237 64.9655 35.8795C62.2195 38.7353 58.4532 40.3856 54.4922 40.4688ZM54.4922 12.3438C51.1529 12.4267 47.9826 13.8301 45.6761 16.2464C43.3697 18.6627 42.1152 21.8948 42.1875 25.2344C42.1152 28.574 43.3697 31.8061 45.6761 34.2224C47.9826 36.6386 51.1529 38.042 54.4922 38.125C57.8316 38.042 61.0019 36.6386 63.3083 34.2224C65.6148 31.8061 66.8693 28.574 66.7969 25.2344C66.8693 21.8948 65.6148 18.6627 63.3083 16.2464C61.0019 13.8301 57.8316 12.4267 54.4922 12.3438Z" fill="#9498A9"/>
<path d="M31.6406 57.4961C30.0687 57.4984 28.5314 57.0344 27.2233 56.1628C25.9151 55.2911 24.8949 54.0511 24.2918 52.5994C23.6886 51.1478 23.5296 49.5499 23.8348 48.0079C24.1401 46.4659 24.8959 45.0491 26.0066 43.9367C27.1173 42.8244 28.533 42.0665 30.0745 41.759C31.6161 41.4515 33.2142 41.6081 34.6667 42.2091C36.1192 42.8102 37.3608 43.8285 38.2344 45.1354C39.1079 46.4422 39.5742 47.9788 39.5742 49.5508C39.5711 51.655 38.7347 53.6724 37.2478 55.1614C35.761 56.6504 33.7449 57.4899 31.6406 57.4961ZM31.6406 43.9844C30.5317 43.9821 29.4471 44.3089 28.5242 44.9235C27.6012 45.5381 26.8814 46.4129 26.456 47.4369C26.0306 48.4609 25.9187 49.5882 26.1344 50.6759C26.3502 51.7635 26.8839 52.7627 27.668 53.5468C28.4521 54.3309 29.4513 54.8647 30.539 55.0804C31.6267 55.2962 32.7539 55.1843 33.778 54.7589C34.802 54.3334 35.6767 53.6136 36.2913 52.6907C36.9059 51.7677 37.2328 50.6831 37.2305 49.5742C37.2274 48.0926 36.6375 46.6726 35.5898 45.625C34.5422 44.5774 33.1222 43.9875 31.6406 43.9844Z" fill="#9498A9"/>
<path d="M37.5 77.9687H21.0938C20.7923 77.9781 20.4919 77.9274 20.2103 77.8195C19.9286 77.7117 19.6712 77.5488 19.453 77.3405C19.2349 77.1322 19.0604 76.8826 18.9397 76.6062C18.819 76.3297 18.7545 76.0321 18.75 75.7305V64.9023C18.75 59.6758 24.5156 55.4336 31.6406 55.4336C36.457 55.4336 40.8164 57.3672 43.043 60.4961L41.1328 61.8437C39.375 59.3711 35.6484 57.7773 31.6406 57.7773C25.8398 57.7773 21.0938 60.9648 21.0938 64.9023V75.625H37.5V77.9687Z" fill="#9498A9"/>
<path d="M76.0664 57.4961C74.495 57.4961 72.9588 57.0301 71.6522 56.1571C70.3456 55.284 69.3273 54.0431 68.7259 52.5913C68.1245 51.1395 67.9672 49.542 68.2738 48.0007C68.5803 46.4595 69.3371 45.0438 70.4482 43.9326C71.5594 42.8214 72.9751 42.0647 74.5164 41.7581C76.0576 41.4516 77.6551 41.6089 79.1069 42.2103C80.5588 42.8116 81.7997 43.83 82.6727 45.1366C83.5457 46.4432 84.0117 47.9794 84.0117 49.5508C84.0117 51.658 83.1746 53.6789 81.6846 55.169C80.1946 56.659 78.1736 57.4961 76.0664 57.4961ZM76.0664 43.9609C74.958 43.9609 73.8746 44.2898 72.9531 44.9058C72.0317 45.5218 71.3138 46.3974 70.8901 47.4216C70.4665 48.4458 70.3563 49.5727 70.5734 50.6596C70.7904 51.7465 71.3251 52.7446 72.1097 53.5276C72.8942 54.3105 73.8934 54.8431 74.9808 55.0579C76.0682 55.2727 77.1948 55.1601 78.2182 54.7343C79.2415 54.3085 80.1155 53.5887 80.7296 52.666C81.3437 51.7433 81.6703 50.6592 81.668 49.5508C81.6587 48.0713 81.0644 46.6555 80.0149 45.6126C78.9654 44.5697 77.546 43.9844 76.0664 43.9844V43.9609Z" fill="#9498A9"/>
<path d="M86.6483 77.9688H70.3124V75.625H86.6483H86.7186V64.9023C86.7186 61.0352 81.8436 57.7773 76.0663 57.7773C72.0585 57.7773 68.3319 59.3711 66.5858 61.8438L64.6639 60.4961C66.8905 57.3672 71.2499 55.4336 76.0663 55.4336C83.203 55.4336 89.0624 59.6758 89.0624 64.9023V75.7305C89.0349 76.346 88.7663 76.9259 88.3145 77.3448C87.8627 77.7637 87.2641 77.9878 86.6483 77.9688Z" fill="#9498A9"/>
</svg>
