<svg width="41" height="38" viewBox="0 0 41 38" fill="none" xmlns="http://www.w3.org/2000/svg">
<circle cx="19" cy="19" r="18.5" fill="#D7DF3B" stroke="white"/>
<path d="M21.6835 22.5548C20.3186 24.8993 17.8923 26.4119 15.011 26.4119C10.7648 26.4119 7.35278 23.0085 7.35278 18.7732C7.35278 14.538 10.7648 11.059 15.011 11.059C17.8165 11.059 20.3186 12.5716 21.6076 14.8405L19.2571 16.4287C18.423 14.9161 16.8307 13.9329 15.011 13.9329C12.3571 13.9329 10.1583 16.1262 10.1583 18.7732C10.1583 21.4203 12.3571 23.6136 15.011 23.6136C16.8307 23.6136 18.3472 22.6304 19.1813 21.1934L21.6835 22.5548Z" fill="#374EAC"/>
<path d="M34.2701 18.7732C34.2701 16.0506 32.0712 13.9329 29.4174 13.9329C26.6877 13.9329 24.4888 16.1262 24.4888 18.7732C24.4888 21.4959 26.6877 23.6136 29.4174 23.6136C32.0712 23.6136 34.2701 21.4203 34.2701 18.7732ZM36.9997 18.7732C36.9997 23.0085 33.5877 26.4119 29.3415 26.4119C25.0954 26.4119 21.6833 22.9329 21.6833 18.7732C21.6833 14.538 25.0954 11.059 29.3415 11.059C33.5877 11.059 36.9997 14.538 36.9997 18.7732Z" fill="#374EAC"/>
<circle cx="35" cy="32" r="5.5" fill="#50AE67" stroke="white"/>
</svg>
