<svg width="24" height="24" viewBox="0 0 24 24" fill="none" xmlns="http://www.w3.org/2000/svg">
<circle cx="12" cy="12" r="11.5" fill="#D7DF3B" stroke="white"/>
<path d="M13.64 14.1724C12.8059 15.6052 11.3231 16.5296 9.56233 16.5296C6.96748 16.5296 4.88232 14.4497 4.88232 11.8615C4.88232 9.27327 6.96748 7.14722 9.56233 7.14722C11.2768 7.14722 12.8059 8.07159 13.5936 9.45814L12.1572 10.4287C11.6475 9.50436 10.6744 8.90352 9.56233 8.90352C7.94055 8.90352 6.59678 10.2439 6.59678 11.8615C6.59678 13.4791 7.94055 14.8195 9.56233 14.8195C10.6744 14.8195 11.6011 14.2186 12.1108 13.3405L13.64 14.1724Z" fill="#374EAC"/>
<path d="M21.3315 11.8615C21.3315 10.1976 19.9878 8.90352 18.366 8.90352C16.6979 8.90352 15.3541 10.2439 15.3541 11.8615C15.3541 13.5254 16.6979 14.8195 18.366 14.8195C19.9878 14.8195 21.3315 13.4791 21.3315 11.8615ZM22.9997 11.8615C22.9997 14.4497 20.9145 16.5296 18.3197 16.5296C15.7248 16.5296 13.6396 14.4035 13.6396 11.8615C13.6396 9.27327 15.7248 7.14722 18.3197 7.14722C20.9145 7.14722 22.9997 9.27327 22.9997 11.8615Z" fill="#374EAC"/>
</svg>
