<svg width="76" height="76" viewBox="0 0 76 76" fill="none" xmlns="http://www.w3.org/2000/svg">
<g filter="url(#filter0_d_341_2995)">
<rect x="8" y="4" width="60" height="60" rx="8" fill="#374EAC"/>
</g>
<path fill-rule="evenodd" clip-rule="evenodd" d="M26.8847 21H49.9616C51.5481 21 52.8462 22.2981 52.8462 23.8846V41.1923C52.8462 42.7788 51.5481 44.0769 49.9616 44.0769H30.9633C30.1988 44.0769 29.4656 44.3806 28.925 44.9212C27.1084 46.7378 24.0025 45.4502 24.0039 42.8813L24.0145 23.8846C24.0145 22.2981 25.2981 21 26.8847 21ZM31.2109 38.3075H45.634C46.4272 38.3075 47.0763 37.6584 47.0763 36.8652C47.0763 36.0719 46.4272 35.4229 45.634 35.4229H31.2109C30.4176 35.4229 29.7686 36.0719 29.7686 36.8652C29.7686 37.6584 30.4176 38.3075 31.2109 38.3075ZM45.634 33.9807H31.2109C30.4176 33.9807 29.7686 33.3316 29.7686 32.5384C29.7686 31.7451 30.4176 31.0961 31.2109 31.0961H45.634C46.4272 31.0961 47.0763 31.7451 47.0763 32.5384C47.0763 33.3316 46.4272 33.9807 45.634 33.9807ZM31.2109 29.6535H45.634C46.4272 29.6535 47.0763 29.0045 47.0763 28.2112C47.0763 27.418 46.4272 26.7689 45.634 26.7689H31.2109C30.4176 26.7689 29.7686 27.418 29.7686 28.2112C29.7686 29.0045 30.4176 29.6535 31.2109 29.6535Z" fill="white"/>
<defs>
<filter id="filter0_d_341_2995" x="0" y="0" width="76" height="76" filterUnits="userSpaceOnUse" color-interpolation-filters="sRGB">
<feFlood flood-opacity="0" result="BackgroundImageFix"/>
<feColorMatrix in="SourceAlpha" type="matrix" values="0 0 0 0 0 0 0 0 0 0 0 0 0 0 0 0 0 0 127 0" result="hardAlpha"/>
<feOffset dy="4"/>
<feGaussianBlur stdDeviation="4"/>
<feComposite in2="hardAlpha" operator="out"/>
<feColorMatrix type="matrix" values="0 0 0 0 0 0 0 0 0 0 0 0 0 0 0 0 0 0 0.1 0"/>
<feBlend mode="normal" in2="BackgroundImageFix" result="effect1_dropShadow_341_2995"/>
<feBlend mode="normal" in="SourceGraphic" in2="effect1_dropShadow_341_2995" result="shape"/>
</filter>
</defs>
</svg>
