<svg width="29" height="25" viewBox="0 0 29 25" fill="none" xmlns="http://www.w3.org/2000/svg">
<path fill-rule="evenodd" clip-rule="evenodd" d="M2.88465 0H25.9616C27.5481 0 28.8462 1.29808 28.8462 2.88462V20.1923C28.8462 21.7788 27.5481 23.0769 25.9616 23.0769H6.96331C6.19878 23.0769 5.46556 23.3806 4.92495 23.9212C3.10842 25.7378 0.00247954 24.4502 0.00390674 21.8813L0.0144604 2.88462C0.0144604 1.29808 1.29811 0 2.88465 0ZM7.2109 17.3075H21.634C22.4272 17.3075 23.0763 16.6584 23.0763 15.8652C23.0763 15.0719 22.4272 14.4229 21.634 14.4229H7.2109C6.41763 14.4229 5.76859 15.0719 5.76859 15.8652C5.76859 16.6584 6.41763 17.3075 7.2109 17.3075ZM21.634 12.9807H7.2109C6.41763 12.9807 5.76859 12.3316 5.76859 11.5384C5.76859 10.7451 6.41763 10.0961 7.2109 10.0961H21.634C22.4272 10.0961 23.0763 10.7451 23.0763 11.5384C23.0763 12.3316 22.4272 12.9807 21.634 12.9807ZM7.2109 8.65354H21.634C22.4272 8.65354 23.0763 8.0045 23.0763 7.21123C23.0763 6.41796 22.4272 5.76892 21.634 5.76892H7.2109C6.41763 5.76892 5.76859 6.41796 5.76859 7.21123C5.76859 8.0045 6.41763 8.65354 7.2109 8.65354Z" fill="white"/>
</svg>
