<svg width="76" height="64" viewBox="0 0 76 64" fill="none" xmlns="http://www.w3.org/2000/svg">
<g filter="url(#filter0_d_1050_1803)">
<rect x="8" y="4" width="60" height="60" rx="8" fill="#374EAC"/>
</g>
<path d="M48.6658 22.5318C48.3373 22.2026 47.8914 22.0176 47.4264 22.0176C46.9613 22.0176 46.5154 22.2026 46.1869 22.5318L37.59 31.1111L28.9931 22.5142C28.6646 22.185 28.2187 22 27.7537 22C27.2886 22 26.8427 22.185 26.5142 22.5142C25.8286 23.1999 25.8286 24.3074 26.5142 24.9931L35.1111 33.59L26.5142 42.1869C25.8286 42.8725 25.8286 43.9801 26.5142 44.6658C27.1999 45.3514 28.3075 45.3514 28.9931 44.6658L37.59 36.0689L46.1869 44.6658C46.8726 45.3514 47.9801 45.3514 48.6658 44.6658C49.3514 43.9801 49.3514 42.8725 48.6658 42.1869L40.0689 33.59L48.6658 24.9931C49.3339 24.325 49.3339 23.1999 48.6658 22.5318Z" fill="white"/>
<defs>
<filter id="filter0_d_1050_1803" x="0" y="0" width="76" height="76" filterUnits="userSpaceOnUse" color-interpolation-filters="sRGB">
<feFlood flood-opacity="0" result="BackgroundImageFix"/>
<feColorMatrix in="SourceAlpha" type="matrix" values="0 0 0 0 0 0 0 0 0 0 0 0 0 0 0 0 0 0 127 0" result="hardAlpha"/>
<feOffset dy="4"/>
<feGaussianBlur stdDeviation="4"/>
<feComposite in2="hardAlpha" operator="out"/>
<feColorMatrix type="matrix" values="0 0 0 0 0 0 0 0 0 0 0 0 0 0 0 0 0 0 0.1 0"/>
<feBlend mode="normal" in2="BackgroundImageFix" result="effect1_dropShadow_1050_1803"/>
<feBlend mode="normal" in="SourceGraphic" in2="effect1_dropShadow_1050_1803" result="shape"/>
</filter>
</defs>
</svg>
