<svg width="13" height="11" viewBox="0 0 13 11" fill="none" xmlns="http://www.w3.org/2000/svg">
<path d="M12.5368 1.03835C12.3625 0.902165 12.1258 0.825632 11.8789 0.825632C11.632 0.825632 11.3953 0.902165 11.221 1.03835L6.65735 4.58744L2.09374 1.03108C1.91938 0.894892 1.68266 0.818359 1.4358 0.818359C1.18894 0.818359 0.95222 0.894892 0.777859 1.03108C0.413891 1.31471 0.413891 1.77289 0.777859 2.05653L5.34146 5.6129L0.777859 9.16926C0.413891 9.4529 0.413891 9.91108 0.777859 10.1947C1.14183 10.4784 1.72978 10.4784 2.09374 10.1947L6.65735 6.63835L11.221 10.1947C11.5849 10.4784 12.1729 10.4784 12.5368 10.1947C12.9008 9.91108 12.9008 9.4529 12.5368 9.16926L7.97323 5.6129L12.5368 2.05653C12.8915 1.78017 12.8915 1.31471 12.5368 1.03835Z" fill="#374EAC"/>
</svg>
