<svg width="24" height="24" viewBox="0 0 24 24" fill="none" xmlns="http://www.w3.org/2000/svg">
<path d="M22.6658 0.531788C22.3373 0.202586 21.8914 0.0175806 21.4264 0.0175806C20.9613 0.0175806 20.5154 0.202586 20.1869 0.531788L11.59 9.11112L2.9931 0.514207C2.66464 0.185006 2.2187 0 1.75367 0C1.28863 0 0.842694 0.185006 0.514233 0.514207C-0.171411 1.19985 -0.171411 2.30743 0.514233 2.99307L9.11115 11.59L0.514233 20.1869C-0.171411 20.8725 -0.171411 21.9801 0.514233 22.6658C1.19988 23.3514 2.30745 23.3514 2.9931 22.6658L11.59 14.0689L20.1869 22.6658C20.8726 23.3514 21.9801 23.3514 22.6658 22.6658C23.3514 21.9801 23.3514 20.8725 22.6658 20.1869L14.0689 11.59L22.6658 2.99307C23.3339 2.32501 23.3339 1.19985 22.6658 0.531788Z" fill="white"/>
</svg>
