<svg width="364" height="265" viewBox="0 0 364 265" fill="none" xmlns="http://www.w3.org/2000/svg">
<g filter="url(#filter0_d_954_1802)">
<rect x="45" y="113" width="78" height="45.2072" rx="2.34234" fill="white"/>
</g>
<path d="M49.9871 120.748H51.2283C51.9305 120.748 52.2749 120.39 52.2749 119.912C52.2749 119.448 51.9455 119.175 51.6191 119.159V119.129C51.9186 119.059 52.1551 118.849 52.1551 118.476C52.1551 118.02 51.8257 117.681 51.161 117.681H49.9871V120.748ZM50.5426 120.283V119.385H51.155C51.4978 119.385 51.7105 119.595 51.7105 119.869C51.7105 120.113 51.5428 120.283 51.14 120.283H50.5426ZM50.5426 118.985V118.139H51.1041C51.4305 118.139 51.5997 118.312 51.5997 118.548C51.5997 118.818 51.3811 118.985 51.0921 118.985H50.5426ZM55.4981 119.214C55.4981 118.223 54.8932 117.639 54.0892 117.639C53.2837 117.639 52.6803 118.223 52.6803 119.214C52.6803 120.204 53.2837 120.789 54.0892 120.789C54.8932 120.789 55.4981 120.206 55.4981 119.214ZM54.9396 119.214C54.9396 119.912 54.5893 120.291 54.0892 120.291C53.5906 120.291 53.2388 119.912 53.2388 119.214C53.2388 118.517 53.5906 118.138 54.0892 118.138C54.5893 118.138 54.9396 118.517 54.9396 119.214ZM58.7632 119.214C58.7632 118.223 58.1583 117.639 57.3543 117.639C56.5488 117.639 55.9454 118.223 55.9454 119.214C55.9454 120.204 56.5488 120.789 57.3543 120.789C58.1583 120.789 58.7632 120.206 58.7632 119.214ZM58.2047 119.214C58.2047 119.912 57.8544 120.291 57.3543 120.291C56.8557 120.291 56.5039 119.912 56.5039 119.214C56.5039 118.517 56.8557 118.138 57.3543 118.138C57.8544 118.138 58.2047 118.517 58.2047 119.214ZM59.2883 120.748H59.8438V119.834L60.1837 119.433L61.0985 120.748H61.7663L60.57 119.057L61.7558 117.681H61.0775L59.8812 119.09H59.8438V117.681H59.2883V120.748ZM62.6972 117.681H62.1417V120.748H62.6972V117.681ZM65.8185 117.681H65.2661V119.771H65.2391L63.7958 117.681H63.2987V120.748H63.8542V118.659H63.8796L65.3244 120.748H65.8185V117.681ZM68.478 118.66H69.044C68.9496 118.059 68.4286 117.639 67.7503 117.639C66.9478 117.639 66.3459 118.229 66.3459 119.217C66.3459 120.188 66.9209 120.789 67.7668 120.789C68.5259 120.789 69.0694 120.301 69.0694 119.511V119.143H67.8252V119.577H68.5319C68.5229 120.014 68.231 120.291 67.7698 120.291C67.2563 120.291 66.9044 119.906 66.9044 119.211C66.9044 118.521 67.2622 118.138 67.7578 118.138C68.1276 118.138 68.3792 118.336 68.478 118.66ZM71.273 118.524H71.8075C71.797 118.006 71.3553 117.639 70.7025 117.639C70.0587 117.639 69.5751 118.002 69.5766 118.544C69.5766 118.984 69.8895 119.237 70.3941 119.367L70.7429 119.457C71.0738 119.541 71.2924 119.644 71.2939 119.882C71.2924 120.144 71.0439 120.319 70.6816 120.319C70.3342 120.319 70.0647 120.164 70.0422 119.842H69.4957C69.5182 120.451 69.9719 120.794 70.686 120.794C71.4212 120.794 71.8479 120.427 71.8494 119.887C71.8479 119.355 71.4092 119.113 70.9481 119.003L70.6606 118.931C70.4091 118.872 70.1366 118.765 70.1396 118.509C70.1411 118.279 70.3477 118.109 70.695 118.109C71.0259 118.109 71.2445 118.264 71.273 118.524Z" fill="#D5D9E9"/>
<rect x="49.6847" y="124.712" width="24.1261" height="0.936937" rx="0.468469" fill="#C6C9D3"/>
<rect x="49.6847" y="127.522" width="11.2432" height="0.936937" rx="0.468469" fill="#D5D9E9"/>
<rect x="78.4955" y="124.712" width="11.2432" height="0.936937" rx="0.468469" fill="#D5D9E9"/>
<rect x="97.4685" y="124.712" width="16.1622" height="0.936937" rx="0.468469" fill="#C6C9D3"/>
<rect x="78.4955" y="127.522" width="14.2883" height="0.936937" rx="0.468469" fill="#D5D9E9"/>
<rect x="97.4685" y="127.522" width="12.8829" height="0.936937" rx="0.468469" fill="#C6C9D3"/>
<line x1="49.9189" y1="136.658" x2="116.441" y2="136.658" stroke="#D5D9E9" stroke-width="0.468469"/>
<line x1="49.9189" y1="141.342" x2="116.441" y2="141.342" stroke="#D5D9E9" stroke-width="0.468469"/>
<line x1="49.9189" y1="146.027" x2="116.441" y2="146.027" stroke="#D5D9E9" stroke-width="0.468469"/>
<line x1="49.9189" y1="150.946" x2="116.441" y2="150.946" stroke="#D5D9E9" stroke-width="0.468469"/>
<line x1="83.8829" y1="135.955" x2="83.8829" y2="152.117" stroke="#D5D9E9" stroke-width="0.468469"/>
<path d="M52.6127 147.081L63.2703 143.216L67.1352 145.09L75.2163 143.216L84.1172 137.946L91.0271 143.216H102.153L114.802 137.946" stroke="#374EAC" stroke-width="0.468469"/>
<circle cx="84" cy="138.18" r="0.81982" fill="#374EAC"/>
<circle cx="84" cy="147.315" r="0.81982" fill="#96C0D0"/>
<path d="M52.9639 148.955L63.036 147.432L75.5675 149.892L83.8828 147.432L102.036 148.955L114.685 144.27" stroke="#96C0D0" stroke-width="0.468469"/>
<g filter="url(#filter1_d_954_1802)">
<rect x="265" y="164" width="94.4563" height="94" rx="8" fill="white"/>
</g>
<rect x="272.265" y="185.337" width="78.9417" height="13.233" rx="2.0534" stroke="#9498A9" stroke-width="0.456311"/>
<path d="M278.912 193.934C279.905 193.934 280.465 193.317 280.465 192.299C280.465 191.287 279.905 190.676 278.957 190.676H277.907V193.934H278.912ZM278.301 193.584V191.026H278.931C279.695 191.026 280.083 191.51 280.083 192.299C280.083 193.094 279.695 193.584 278.887 193.584H278.301ZM282.616 192.935C282.616 193.393 282.266 193.603 281.986 193.603C281.674 193.603 281.451 193.374 281.451 193.018V191.49H281.076V193.043C281.076 193.667 281.407 193.966 281.865 193.966C282.234 193.966 282.476 193.769 282.59 193.52H282.616V193.934H282.991V191.49H282.616V192.935ZM283.73 193.934H284.092V193.559H284.137C284.22 193.692 284.379 193.985 284.85 193.985C285.461 193.985 285.887 193.495 285.887 192.719C285.887 191.949 285.461 191.459 284.843 191.459C284.366 191.459 284.22 191.751 284.137 191.879H284.105V190.676H283.73V193.934ZM284.099 192.712C284.099 192.165 284.341 191.796 284.799 191.796C285.276 191.796 285.512 192.197 285.512 192.712C285.512 193.234 285.27 193.648 284.799 193.648C284.347 193.648 284.099 193.266 284.099 192.712ZM286.837 190.676H286.461V193.934H286.837V190.676ZM287.524 193.934H287.9V191.49H287.524V193.934ZM287.715 191.083C287.862 191.083 287.983 190.969 287.983 190.829C287.983 190.689 287.862 190.574 287.715 190.574C287.569 190.574 287.448 190.689 287.448 190.829C287.448 190.969 287.569 191.083 287.715 191.083ZM288.963 192.464C288.963 192.038 289.227 191.796 289.587 191.796C289.935 191.796 290.147 192.023 290.147 192.407V193.934H290.522V192.381C290.522 191.758 290.19 191.459 289.695 191.459C289.326 191.459 289.097 191.624 288.982 191.872H288.95V191.49H288.588V193.934H288.963V192.464ZM295.141 191.694C295.02 191.026 294.485 190.631 293.83 190.631C292.996 190.631 292.392 191.274 292.392 192.305C292.392 193.336 292.996 193.979 293.83 193.979C294.485 193.979 295.02 193.584 295.141 192.916H294.746C294.651 193.368 294.263 193.61 293.83 193.61C293.238 193.61 292.774 193.151 292.774 192.305C292.774 191.459 293.238 191 293.83 191C294.263 191 294.651 191.242 294.746 191.694H295.141ZM295.728 193.934H296.103V191.49H295.728V193.934ZM295.919 191.083C296.065 191.083 296.186 190.969 296.186 190.829C296.186 190.689 296.065 190.574 295.919 190.574C295.772 190.574 295.651 190.689 295.651 190.829C295.651 190.969 295.772 191.083 295.919 191.083ZM297.853 191.49H297.332V190.905H296.956V191.49H296.587V191.809H296.956V193.336C296.956 193.762 297.3 193.966 297.618 193.966C297.758 193.966 297.847 193.94 297.898 193.921L297.822 193.584C297.79 193.59 297.739 193.603 297.656 193.603C297.491 193.603 297.332 193.552 297.332 193.234V191.809H297.853V191.49ZM298.66 194.85C298.999 194.85 299.238 194.671 299.379 194.29L300.42 191.497L300.009 191.49L299.335 193.438H299.309L298.635 191.49H298.227L299.131 193.947L299.061 194.138C298.924 194.51 298.755 194.545 298.482 194.475L298.386 194.806C298.425 194.825 298.533 194.85 298.66 194.85ZM303.576 192.362H302.151V192.712H303.576V192.362ZM305.548 190.676V193.934H305.917V191.459H305.949L306.967 193.934H307.323L308.342 191.459H308.373V193.934H308.742V190.676H308.272L307.164 193.38H307.126L306.019 190.676H305.548ZM310.475 193.985C311.137 193.985 311.583 193.482 311.583 192.725C311.583 191.961 311.137 191.459 310.475 191.459C309.814 191.459 309.368 191.961 309.368 192.725C309.368 193.482 309.814 193.985 310.475 193.985ZM310.475 193.648C309.973 193.648 309.744 193.215 309.744 192.725C309.744 192.235 309.973 191.796 310.475 191.796C310.978 191.796 311.207 192.235 311.207 192.725C311.207 193.215 310.978 193.648 310.475 193.648ZM312.531 192.464C312.531 192.038 312.795 191.796 313.155 191.796C313.503 191.796 313.715 192.023 313.715 192.407V193.934H314.09V192.381C314.09 191.758 313.758 191.459 313.263 191.459C312.894 191.459 312.665 191.624 312.55 191.872H312.518V191.49H312.156V193.934H312.531V192.464ZM317.048 193.979C317.669 193.979 318.124 193.52 318.124 192.897C318.124 192.265 317.685 191.802 317.086 191.802C316.867 191.802 316.654 191.88 316.52 191.987H316.501L316.615 191.026H317.977V190.676H316.285L316.087 192.28L316.456 192.324C316.592 192.227 316.822 192.157 317.023 192.159C317.438 192.162 317.742 192.477 317.742 192.903C317.742 193.322 317.449 193.629 317.048 193.629C316.714 193.629 316.448 193.414 316.418 193.12H316.036C316.06 193.616 316.488 193.979 317.048 193.979ZM318.762 194.85H319.137V193.559H319.169C319.252 193.692 319.411 193.985 319.882 193.985C320.493 193.985 320.919 193.495 320.919 192.719C320.919 191.949 320.493 191.459 319.876 191.459C319.398 191.459 319.252 191.751 319.169 191.879H319.125V191.49H318.762V194.85ZM319.131 192.712C319.131 192.165 319.373 191.796 319.831 191.796C320.308 191.796 320.544 192.197 320.544 192.712C320.544 193.234 320.302 193.648 319.831 193.648C319.379 193.648 319.131 193.266 319.131 192.712ZM321.492 193.934H321.867V192.407C321.867 192.049 322.128 191.796 322.421 191.796C322.706 191.796 322.905 191.982 322.905 192.26V193.934H323.287V192.343C323.287 192.028 323.484 191.796 323.827 191.796C324.095 191.796 324.324 191.937 324.324 192.299V193.934H324.699V192.299C324.699 191.724 324.391 191.459 323.955 191.459C323.605 191.459 323.349 191.619 323.223 191.872H323.197C323.077 191.611 322.863 191.459 322.542 191.459C322.224 191.459 321.988 191.611 321.887 191.872H321.855V191.49H321.492V193.934Z" fill="#9498A9"/>
<line y1="-0.228155" x2="2.74735" y2="-0.228155" transform="matrix(0.747409 0.664364 -0.747409 0.664364 341.852 191.954)" stroke="#9498A9" stroke-width="0.456311"/>
<line y1="-0.228155" x2="2.74735" y2="-0.228155" transform="matrix(-0.747409 0.664364 0.747409 0.664364 345.959 191.954)" stroke="#9498A9" stroke-width="0.456311"/>
<path d="M275.479 175.085H276.252C276.229 174.235 275.477 173.618 274.398 173.618C273.333 173.618 272.516 174.227 272.516 175.142C272.516 175.881 273.045 176.314 273.898 176.545L274.525 176.716C275.093 176.866 275.531 177.053 275.531 177.525C275.531 178.043 275.036 178.386 274.354 178.386C273.737 178.386 273.224 178.111 273.177 177.533H272.373C272.425 178.494 273.169 179.088 274.359 179.088C275.606 179.088 276.325 178.432 276.325 177.533C276.325 176.576 275.472 176.205 274.797 176.039L274.279 175.904C273.864 175.798 273.312 175.604 273.314 175.095C273.314 174.644 273.727 174.31 274.38 174.31C274.989 174.31 275.422 174.595 275.479 175.085ZM278.936 179.08C279.805 179.08 280.419 178.653 280.595 178.004L279.862 177.872C279.722 178.248 279.385 178.44 278.944 178.44C278.28 178.44 277.834 178.01 277.813 177.242H280.645V176.967C280.645 175.528 279.784 174.966 278.882 174.966C277.772 174.966 277.041 175.811 277.041 177.035C277.041 178.271 277.762 179.08 278.936 179.08ZM277.816 176.661C277.847 176.096 278.257 175.606 278.887 175.606C279.488 175.606 279.882 176.052 279.885 176.661H277.816ZM282.28 173.69H281.505V179H282.28V173.69ZM285.039 179.08C285.908 179.08 286.522 178.653 286.699 178.004L285.965 177.872C285.825 178.248 285.488 178.44 285.047 178.44C284.383 178.44 283.937 178.01 283.917 177.242H286.748V176.967C286.748 175.528 285.887 174.966 284.985 174.966C283.875 174.966 283.144 175.811 283.144 177.035C283.144 178.271 283.865 179.08 285.039 179.08ZM283.919 176.661C283.95 176.096 284.36 175.606 284.99 175.606C285.591 175.606 285.986 176.052 285.988 176.661H283.919ZM289.285 179.08C290.227 179.08 290.836 178.515 290.921 177.74H290.167C290.068 178.17 289.734 178.424 289.291 178.424C288.635 178.424 288.212 177.877 288.212 177.009C288.212 176.156 288.642 175.619 289.291 175.619C289.783 175.619 290.084 175.93 290.167 176.304H290.921C290.838 175.5 290.182 174.966 289.278 174.966C288.155 174.966 287.429 175.811 287.429 177.027C287.429 178.227 288.129 179.08 289.285 179.08ZM293.609 175.018H292.793V174.064H292.017V175.018H291.434V175.64H292.017V177.991C292.015 178.715 292.567 179.065 293.179 179.052C293.425 179.049 293.591 179.003 293.682 178.969L293.542 178.328C293.49 178.339 293.394 178.362 293.27 178.362C293.018 178.362 292.793 178.279 292.793 177.831V175.64H293.609V175.018ZM297.558 179.088C298.216 179.088 298.587 178.754 298.735 178.456H298.766V179H299.523V176.355C299.523 175.197 298.611 174.966 297.978 174.966C297.257 174.966 296.593 175.256 296.334 175.982L297.063 176.148C297.177 175.865 297.467 175.593 297.988 175.593C298.489 175.593 298.745 175.855 298.745 176.306V176.324C298.745 176.607 298.455 176.602 297.739 176.685C296.985 176.773 296.212 176.97 296.212 177.875C296.212 178.658 296.801 179.088 297.558 179.088ZM297.726 178.466C297.288 178.466 296.972 178.269 296.972 177.885C296.972 177.47 297.34 177.323 297.789 177.263C298.04 177.229 298.636 177.162 298.748 177.05V177.564C298.748 178.036 298.372 178.466 297.726 178.466ZM305.472 175.99C305.311 175.37 304.826 174.966 303.966 174.966C303.066 174.966 302.428 175.44 302.428 176.145C302.428 176.711 302.771 177.087 303.517 177.253L304.191 177.4C304.575 177.486 304.754 177.657 304.754 177.906C304.754 178.214 304.425 178.456 303.916 178.456C303.452 178.456 303.154 178.256 303.061 177.864L302.312 177.978C302.441 178.684 303.027 179.08 303.922 179.08C304.884 179.08 305.55 178.57 305.55 177.849C305.55 177.286 305.192 176.939 304.461 176.77L303.828 176.625C303.39 176.521 303.201 176.374 303.203 176.104C303.201 175.798 303.533 175.58 303.974 175.58C304.456 175.58 304.679 175.847 304.769 176.114L305.472 175.99ZM308.119 179.08C308.987 179.08 309.602 178.653 309.778 178.004L309.044 177.872C308.904 178.248 308.567 178.44 308.126 178.44C307.463 178.44 307.017 178.01 306.996 177.242H309.827V176.967C309.827 175.528 308.966 174.966 308.064 174.966C306.954 174.966 306.223 175.811 306.223 177.035C306.223 178.271 306.944 179.08 308.119 179.08ZM306.999 176.661C307.03 176.096 307.439 175.606 308.069 175.606C308.671 175.606 309.065 176.052 309.067 176.661H306.999ZM313.671 175.99C313.511 175.37 313.026 174.966 312.165 174.966C311.265 174.966 310.628 175.44 310.628 176.145C310.628 176.711 310.97 177.087 311.717 177.253L312.391 177.4C312.774 177.486 312.953 177.657 312.953 177.906C312.953 178.214 312.624 178.456 312.116 178.456C311.652 178.456 311.354 178.256 311.26 177.864L310.511 177.978C310.641 178.684 311.227 179.08 312.121 179.08C313.083 179.08 313.749 178.57 313.749 177.849C313.749 177.286 313.391 176.939 312.66 176.77L312.028 176.625C311.589 176.521 311.4 176.374 311.403 176.104C311.4 175.798 311.732 175.58 312.173 175.58C312.655 175.58 312.878 175.847 312.969 176.114L313.671 175.99ZM317.586 175.99C317.425 175.37 316.94 174.966 316.079 174.966C315.18 174.966 314.542 175.44 314.542 176.145C314.542 176.711 314.884 177.087 315.631 177.253L316.305 177.4C316.689 177.486 316.868 177.657 316.868 177.906C316.868 178.214 316.538 178.456 316.03 178.456C315.566 178.456 315.268 178.256 315.175 177.864L314.425 177.978C314.555 178.684 315.141 179.08 316.035 179.08C316.997 179.08 317.663 178.57 317.663 177.849C317.663 177.286 317.306 176.939 316.575 176.77L315.942 176.625C315.504 176.521 315.315 176.374 315.317 176.104C315.315 175.798 315.646 175.58 316.087 175.58C316.569 175.58 316.792 175.847 316.883 176.114L317.586 175.99ZM318.516 179H319.291V175.018H318.516V179ZM318.907 174.403C319.174 174.403 319.397 174.196 319.397 173.942C319.397 173.688 319.174 173.478 318.907 173.478C318.638 173.478 318.417 173.688 318.417 173.942C318.417 174.196 318.638 174.403 318.907 174.403ZM322.011 179.08C323.134 179.08 323.868 178.258 323.868 177.027C323.868 175.788 323.134 174.966 322.011 174.966C320.889 174.966 320.155 175.788 320.155 177.027C320.155 178.258 320.889 179.08 322.011 179.08ZM322.014 178.43C321.28 178.43 320.938 177.789 320.938 177.024C320.938 176.262 321.28 175.614 322.014 175.614C322.743 175.614 323.085 176.262 323.085 177.024C323.085 177.789 322.743 178.43 322.014 178.43ZM325.508 176.635C325.508 176 325.897 175.637 326.436 175.637C326.963 175.637 327.282 175.982 327.282 176.56V179H328.057V176.467C328.057 175.482 327.515 174.966 326.701 174.966C326.102 174.966 325.71 175.243 325.526 175.666H325.477V175.018H324.733V179H325.508V176.635Z" fill="#374EAC"/>
<path d="M274.477 207.799H274.859C274.842 207.307 274.388 206.94 273.758 206.94C273.135 206.94 272.645 207.303 272.645 207.85C272.645 208.289 272.963 208.55 273.472 208.696L273.873 208.811C274.216 208.906 274.522 209.027 274.522 209.352C274.522 209.708 274.178 209.944 273.726 209.944C273.338 209.944 272.995 209.772 272.963 209.403H272.555C272.594 209.937 273.026 210.3 273.726 210.3C274.477 210.3 274.904 209.886 274.904 209.358C274.904 208.747 274.325 208.55 273.987 208.461L273.656 208.372C273.415 208.308 273.026 208.181 273.026 207.831C273.026 207.519 273.313 207.29 273.745 207.29C274.14 207.29 274.439 207.478 274.477 207.799ZM276.564 207.799H276.042V207.214H275.667V207.799H275.298V208.117H275.667V209.644C275.667 210.071 276.011 210.274 276.329 210.274C276.469 210.274 276.558 210.249 276.609 210.23L276.532 209.893C276.501 209.899 276.45 209.912 276.367 209.912C276.201 209.912 276.042 209.861 276.042 209.543V208.117H276.564V207.799ZM277.848 210.3C278.274 210.3 278.497 210.071 278.573 209.912H278.593V210.243H278.968V208.633C278.968 207.856 278.376 207.767 278.064 207.767C277.695 207.767 277.275 207.894 277.084 208.34L277.441 208.467C277.523 208.289 277.719 208.098 278.077 208.098C278.422 208.098 278.593 208.281 278.593 208.594V208.607C278.593 208.789 278.408 208.773 277.963 208.83C277.509 208.889 277.014 208.989 277.014 209.549C277.014 210.026 277.383 210.3 277.848 210.3ZM277.905 209.963C277.606 209.963 277.39 209.829 277.39 209.568C277.39 209.282 277.651 209.193 277.943 209.154C278.103 209.135 278.529 209.091 278.593 209.014V209.358C278.593 209.664 278.351 209.963 277.905 209.963ZM279.653 210.243H280.029V208.696C280.029 208.365 280.29 208.124 280.646 208.124C280.746 208.124 280.85 208.143 280.875 208.149V207.767C280.832 207.764 280.734 207.761 280.678 207.761C280.385 207.761 280.131 207.926 280.041 208.168H280.016V207.799H279.653V210.243ZM282.536 207.799H282.014V207.214H281.639V207.799H281.27V208.117H281.639V209.644C281.639 210.071 281.982 210.274 282.301 210.274C282.441 210.274 282.53 210.249 282.581 210.23L282.504 209.893C282.472 209.899 282.421 209.912 282.339 209.912C282.173 209.912 282.014 209.861 282.014 209.543V208.117H282.536V207.799ZM285.284 210.294C285.754 210.294 285.914 210.001 285.996 209.867H286.041V210.243H286.404V206.984H286.028V208.187H285.996C285.914 208.06 285.767 207.767 285.29 207.767C284.673 207.767 284.246 208.257 284.246 209.027C284.246 209.804 284.673 210.294 285.284 210.294ZM285.334 209.956C284.864 209.956 284.622 209.543 284.622 209.021C284.622 208.505 284.857 208.104 285.334 208.104C285.793 208.104 286.034 208.474 286.034 209.021C286.034 209.574 285.786 209.956 285.334 209.956ZM287.862 210.3C288.289 210.3 288.511 210.071 288.588 209.912H288.607V210.243H288.982V208.633C288.982 207.856 288.391 207.767 288.079 207.767C287.71 207.767 287.29 207.894 287.099 208.34L287.455 208.467C287.538 208.289 287.734 208.098 288.091 208.098C288.437 208.098 288.607 208.281 288.607 208.594V208.607C288.607 208.789 288.422 208.773 287.977 208.83C287.524 208.889 287.029 208.989 287.029 209.549C287.029 210.026 287.398 210.3 287.862 210.3ZM287.92 209.963C287.621 209.963 287.404 209.829 287.404 209.568C287.404 209.282 287.665 209.193 287.958 209.154C288.117 209.135 288.543 209.091 288.607 209.014V209.358C288.607 209.664 288.365 209.963 287.92 209.963ZM290.73 207.799H290.209V207.214H289.833V207.799H289.464V208.117H289.833V209.644C289.833 210.071 290.177 210.274 290.495 210.274C290.635 210.274 290.724 210.249 290.775 210.23L290.699 209.893C290.667 209.899 290.616 209.912 290.533 209.912C290.368 209.912 290.209 209.861 290.209 209.543V208.117H290.73V207.799ZM292.293 210.294C292.79 210.294 293.153 210.045 293.267 209.676L292.904 209.574C292.809 209.829 292.588 209.956 292.293 209.956C291.853 209.956 291.549 209.672 291.531 209.148H293.305V208.989C293.305 208.079 292.764 207.767 292.255 207.767C291.593 207.767 291.154 208.289 291.154 209.04C291.154 209.791 291.587 210.294 292.293 210.294ZM291.531 208.824C291.557 208.443 291.826 208.104 292.255 208.104C292.663 208.104 292.923 208.41 292.923 208.824H291.531ZM294.15 210.268C294.308 210.268 294.436 210.139 294.436 209.982C294.436 209.824 294.308 209.695 294.15 209.695C293.993 209.695 293.864 209.824 293.864 209.982C293.864 210.139 293.993 210.268 294.15 210.268ZM294.15 208.454C294.308 208.454 294.436 208.326 294.436 208.168C294.436 208.011 294.308 207.882 294.15 207.882C293.993 207.882 293.864 208.011 293.864 208.168C293.864 208.326 293.993 208.454 294.15 208.454Z" fill="#9498A9"/>
<path d="M326.4 210.045C327.119 210.045 327.533 209.435 327.533 208.371C327.533 207.315 327.113 206.697 326.4 206.697C325.687 206.697 325.267 207.315 325.267 208.371C325.267 209.435 325.681 210.045 326.4 210.045ZM326.4 209.695C325.926 209.695 325.649 209.219 325.649 208.371C325.649 207.525 325.929 207.041 326.4 207.041C326.871 207.041 327.151 207.525 327.151 208.371C327.151 209.219 326.874 209.695 326.4 209.695ZM329.283 206.742H328.888L328.074 207.283V207.684L328.869 207.155H328.888V210H329.283V206.742ZM332.784 206.742V209.071C332.784 209.477 332.59 209.695 332.25 209.695C331.94 209.695 331.715 209.513 331.715 209.236H331.327C331.327 209.737 331.715 210.045 332.25 210.045C332.816 210.045 333.179 209.696 333.179 209.071V206.742H332.784ZM334.638 210.057C335.064 210.057 335.287 209.828 335.363 209.669H335.382V210H335.758V208.39C335.758 207.614 335.166 207.525 334.854 207.525C334.485 207.525 334.065 207.652 333.874 208.097L334.23 208.225C334.313 208.046 334.509 207.855 334.867 207.855C335.212 207.855 335.382 208.038 335.382 208.352V208.365C335.382 208.546 335.198 208.53 334.752 208.587C334.299 208.646 333.804 208.746 333.804 209.306C333.804 209.784 334.173 210.057 334.638 210.057ZM334.695 209.72C334.396 209.72 334.18 209.586 334.18 209.325C334.18 209.039 334.44 208.95 334.733 208.912C334.892 208.893 335.319 208.848 335.382 208.772V209.115C335.382 209.421 335.14 209.72 334.695 209.72ZM336.818 208.53C336.818 208.104 337.083 207.862 337.442 207.862C337.791 207.862 338.002 208.089 338.002 208.473V210H338.378V208.447C338.378 207.824 338.045 207.525 337.55 207.525C337.181 207.525 336.952 207.69 336.838 207.938H336.806V207.556H336.443V210H336.818V208.53ZM340.317 210H342.373V209.65H340.858V209.625L341.59 208.842C342.15 208.242 342.315 207.962 342.315 207.601C342.315 207.098 341.908 206.697 341.335 206.697C340.764 206.697 340.33 207.085 340.33 207.658H340.705C340.705 207.287 340.946 207.041 341.323 207.041C341.676 207.041 341.946 207.257 341.946 207.601C341.946 207.902 341.77 208.124 341.393 208.536L340.317 209.714V210ZM344.093 210.045C344.812 210.045 345.225 209.435 345.225 208.371C345.225 207.315 344.805 206.697 344.093 206.697C343.38 206.697 342.96 207.315 342.96 208.371C342.96 209.435 343.373 210.045 344.093 210.045ZM344.093 209.695C343.618 209.695 343.342 209.219 343.342 208.371C343.342 207.525 343.622 207.041 344.093 207.041C344.563 207.041 344.843 207.525 344.843 208.371C344.843 209.219 344.567 209.695 344.093 209.695ZM345.83 210H347.885V209.65H346.371V209.625L347.103 208.842C347.663 208.242 347.828 207.962 347.828 207.601C347.828 207.098 347.421 206.697 346.848 206.697C346.277 206.697 345.843 207.085 345.843 207.658H346.218C346.218 207.287 346.458 207.041 346.835 207.041C347.188 207.041 347.459 207.257 347.459 207.601C347.459 207.902 347.282 208.124 346.905 208.536L345.83 209.714V210ZM349.605 210.045C350.324 210.045 350.738 209.435 350.738 208.371C350.738 207.315 350.318 206.697 349.605 206.697C348.892 206.697 348.472 207.315 348.472 208.371C348.472 209.435 348.886 210.045 349.605 210.045ZM349.605 209.695C349.131 209.695 348.854 209.219 348.854 208.371C348.854 207.525 349.134 207.041 349.605 207.041C350.076 207.041 350.356 207.525 350.356 208.371C350.356 209.219 350.079 209.695 349.605 209.695Z" fill="#374EAC"/>
<path d="M340.483 217.023H340.088L339.274 217.564V217.965L340.069 217.437H340.088V220.281H340.483V217.023ZM343.742 220.281C344.735 220.281 345.295 219.664 345.295 218.646C345.295 217.634 344.735 217.023 343.787 217.023H342.737V220.281H343.742ZM343.132 219.931V217.373H343.762C344.525 217.373 344.913 217.857 344.913 218.646C344.913 219.441 344.525 219.931 343.717 219.931H343.132ZM346.625 220.339C347.052 220.339 347.274 220.11 347.351 219.951H347.37V220.281H347.745V218.671C347.745 217.895 347.153 217.806 346.842 217.806C346.473 217.806 346.053 217.933 345.862 218.379L346.218 218.506C346.301 218.328 346.496 218.137 346.854 218.137C347.2 218.137 347.37 218.32 347.37 218.633V218.646C347.37 218.827 347.185 218.811 346.74 218.869C346.286 218.928 345.792 219.028 345.792 219.588C345.792 220.065 346.161 220.339 346.625 220.339ZM346.683 220.001C346.383 220.001 346.167 219.868 346.167 219.607C346.167 219.321 346.428 219.231 346.721 219.193C346.88 219.174 347.306 219.13 347.37 219.053V219.397C347.37 219.702 347.128 220.001 346.683 220.001ZM348.585 221.198C348.924 221.198 349.162 221.018 349.304 220.638L350.344 217.844L349.934 217.838L349.259 219.785H349.234L348.559 217.838H348.152L349.056 220.294L348.986 220.485C348.849 220.857 348.68 220.892 348.407 220.822L348.311 221.153C348.349 221.172 348.458 221.198 348.585 221.198Z" fill="#374EAC"/>
<path d="M333.822 230.538L334.15 229.615H335.467L335.795 230.538H336.209L335.012 227.28H334.605L333.409 230.538H333.822ZM334.274 229.265L334.796 227.795H334.821L335.343 229.265H334.274ZM338.357 228.094H337.95L337.275 230.042H337.25L336.575 228.094H336.168L337.072 230.538H337.454L338.357 228.094ZM339.497 230.595C339.924 230.595 340.147 230.366 340.223 230.207H340.242V230.538H340.617V228.928C340.617 228.152 340.026 228.063 339.714 228.063C339.345 228.063 338.925 228.19 338.734 228.635L339.09 228.763C339.173 228.584 339.369 228.394 339.727 228.394C340.072 228.394 340.242 228.576 340.242 228.89V228.903C340.242 229.084 340.057 229.068 339.612 229.125C339.159 229.184 338.664 229.284 338.664 229.844C338.664 230.322 339.033 230.595 339.497 230.595ZM339.555 230.258C339.256 230.258 339.039 230.124 339.039 229.864C339.039 229.577 339.3 229.488 339.593 229.45C339.752 229.431 340.178 229.386 340.242 229.31V229.654C340.242 229.959 340 230.258 339.555 230.258ZM341.303 230.538H341.678V228.094H341.303V230.538ZM341.494 227.687C341.64 227.687 341.761 227.573 341.761 227.433C341.761 227.293 341.64 227.178 341.494 227.178C341.347 227.178 341.226 227.293 341.226 227.433C341.226 227.573 341.347 227.687 341.494 227.687ZM342.741 227.28H342.366V230.538H342.741V227.28ZM344.148 230.595C344.574 230.595 344.797 230.366 344.874 230.207H344.893V230.538H345.268V228.928C345.268 228.152 344.676 228.063 344.364 228.063C343.995 228.063 343.575 228.19 343.384 228.635L343.741 228.763C343.824 228.584 344.019 228.394 344.377 228.394C344.722 228.394 344.893 228.576 344.893 228.89V228.903C344.893 229.084 344.708 229.068 344.263 229.125C343.809 229.184 343.314 229.284 343.314 229.844C343.314 230.322 343.684 230.595 344.148 230.595ZM344.205 230.258C343.906 230.258 343.69 230.124 343.69 229.864C343.69 229.577 343.951 229.488 344.244 229.45C344.403 229.431 344.829 229.386 344.893 229.31V229.654C344.893 229.959 344.651 230.258 344.205 230.258ZM346.004 230.538H346.367V230.163H346.412C346.494 230.296 346.653 230.589 347.124 230.589C347.735 230.589 348.162 230.099 348.162 229.323C348.162 228.553 347.735 228.063 347.118 228.063C346.641 228.063 346.494 228.355 346.412 228.483H346.38V227.28H346.004V230.538ZM346.373 229.316C346.373 228.769 346.615 228.4 347.073 228.4C347.551 228.4 347.786 228.801 347.786 229.316C347.786 229.838 347.544 230.252 347.073 230.252C346.622 230.252 346.373 229.87 346.373 229.316ZM349.111 227.28H348.736V230.538H349.111V227.28ZM350.824 230.589C351.32 230.589 351.683 230.341 351.797 229.972L351.434 229.87C351.339 230.124 351.118 230.252 350.824 230.252C350.383 230.252 350.079 229.967 350.061 229.444H351.835V229.284C351.835 228.374 351.294 228.063 350.785 228.063C350.124 228.063 349.684 228.584 349.684 229.335C349.684 230.086 350.117 230.589 350.824 230.589ZM350.061 229.119C350.087 228.739 350.356 228.4 350.785 228.4C351.193 228.4 351.454 228.705 351.454 229.119H350.061Z" fill="#374EAC"/>
<path d="M273.701 220.281C274.694 220.281 275.254 219.664 275.254 218.646C275.254 217.634 274.694 217.023 273.745 217.023H272.695V220.281H273.701ZM273.09 219.931V217.373H273.72C274.484 217.373 274.872 217.857 274.872 218.646C274.872 219.441 274.484 219.931 273.675 219.931H273.09ZM277.405 219.282C277.405 219.741 277.055 219.951 276.775 219.951C276.463 219.951 276.24 219.721 276.24 219.365V217.838H275.865V219.391C275.865 220.014 276.195 220.313 276.654 220.313C277.023 220.313 277.265 220.116 277.379 219.868H277.405V220.281H277.78V217.838H277.405V219.282ZM278.468 220.281H278.843V218.735C278.843 218.404 279.104 218.162 279.46 218.162C279.561 218.162 279.664 218.181 279.689 218.188V217.806C279.647 217.803 279.548 217.8 279.492 217.8C279.199 217.8 278.945 217.965 278.856 218.207H278.83V217.838H278.468V220.281ZM280.854 220.339C281.28 220.339 281.503 220.11 281.579 219.951H281.598V220.281H281.974V218.671C281.974 217.895 281.382 217.806 281.07 217.806C280.701 217.806 280.281 217.933 280.09 218.379L280.446 218.506C280.529 218.328 280.725 218.137 281.083 218.137C281.428 218.137 281.598 218.32 281.598 218.633V218.646C281.598 218.827 281.414 218.811 280.968 218.869C280.515 218.928 280.02 219.028 280.02 219.588C280.02 220.065 280.389 220.339 280.854 220.339ZM280.911 220.001C280.612 220.001 280.395 219.868 280.395 219.607C280.395 219.321 280.656 219.231 280.949 219.193C281.108 219.174 281.535 219.13 281.598 219.053V219.397C281.598 219.702 281.356 220.001 280.911 220.001ZM283.722 217.838H283.2V217.252H282.824V217.838H282.455V218.156H282.824V219.683C282.824 220.11 283.168 220.313 283.486 220.313C283.626 220.313 283.715 220.288 283.766 220.269L283.69 219.931C283.658 219.938 283.607 219.951 283.524 219.951C283.359 219.951 283.2 219.9 283.2 219.581V218.156H283.722V217.838ZM284.286 220.281H284.662V217.838H284.286V220.281ZM284.477 217.431C284.624 217.431 284.745 217.316 284.745 217.176C284.745 217.036 284.624 216.921 284.477 216.921C284.331 216.921 284.21 217.036 284.21 217.176C284.21 217.316 284.331 217.431 284.477 217.431ZM286.342 220.332C287.004 220.332 287.45 219.83 287.45 219.072C287.45 218.309 287.004 217.806 286.342 217.806C285.68 217.806 285.235 218.309 285.235 219.072C285.235 219.83 285.68 220.332 286.342 220.332ZM286.342 219.995C285.84 219.995 285.61 219.562 285.61 219.072C285.61 218.582 285.84 218.143 286.342 218.143C286.845 218.143 287.074 218.582 287.074 219.072C287.074 219.562 286.845 219.995 286.342 219.995ZM288.398 218.811C288.398 218.385 288.662 218.143 289.022 218.143C289.37 218.143 289.582 218.371 289.582 218.754V220.281H289.957V218.729C289.957 218.105 289.625 217.806 289.13 217.806C288.761 217.806 288.532 217.971 288.417 218.22H288.385V217.838H288.023V220.281H288.398V218.811ZM290.917 220.307C291.074 220.307 291.203 220.178 291.203 220.021C291.203 219.863 291.074 219.734 290.917 219.734C290.759 219.734 290.631 219.863 290.631 220.021C290.631 220.178 290.759 220.307 290.917 220.307ZM290.917 218.493C291.074 218.493 291.203 218.364 291.203 218.207C291.203 218.049 291.074 217.921 290.917 217.921C290.759 217.921 290.631 218.049 290.631 218.207C290.631 218.364 290.759 218.493 290.917 218.493Z" fill="#9498A9"/>
<path d="M275.317 228.08C275.196 227.412 274.662 227.018 274.006 227.018C273.173 227.018 272.568 227.66 272.568 228.691C272.568 229.722 273.173 230.365 274.006 230.365C274.662 230.365 275.196 229.97 275.317 229.302H274.923C274.827 229.754 274.439 229.996 274.006 229.996C273.415 229.996 272.95 229.538 272.95 228.691C272.95 227.845 273.415 227.387 274.006 227.387C274.439 227.387 274.827 227.628 274.923 228.08H275.317ZM276.928 230.371C277.425 230.371 277.788 230.123 277.902 229.754L277.539 229.652C277.444 229.907 277.223 230.034 276.928 230.034C276.488 230.034 276.184 229.749 276.166 229.226H277.94V229.067C277.94 228.157 277.399 227.845 276.89 227.845C276.228 227.845 275.789 228.367 275.789 229.118C275.789 229.868 276.222 230.371 276.928 230.371ZM276.166 228.901C276.192 228.521 276.461 228.182 276.89 228.182C277.298 228.182 277.558 228.488 277.558 228.901H276.166ZM278.511 230.32H278.887V228.774C278.887 228.443 279.148 228.201 279.504 228.201C279.604 228.201 279.708 228.22 279.733 228.227V227.845C279.69 227.842 279.592 227.838 279.536 227.838C279.243 227.838 278.989 228.004 278.9 228.246H278.874V227.877H278.511V230.32ZM281.394 227.877H280.872V227.291H280.497V227.877H280.128V228.195H280.497V229.722C280.497 230.148 280.841 230.352 281.159 230.352C281.299 230.352 281.388 230.327 281.439 230.308L281.362 229.97C281.331 229.977 281.28 229.989 281.197 229.989C281.031 229.989 280.872 229.938 280.872 229.62V228.195H281.394V227.877ZM281.959 230.32H282.334V227.877H281.959V230.32ZM282.15 227.469C282.296 227.469 282.417 227.355 282.417 227.215C282.417 227.075 282.296 226.96 282.15 226.96C282.003 226.96 281.883 227.075 281.883 227.215C281.883 227.355 282.003 227.469 282.15 227.469ZM284.11 227.877H283.563V227.628C283.563 227.387 283.665 227.259 283.913 227.259C284.021 227.259 284.085 227.285 284.123 227.298L284.231 226.973C284.174 226.948 284.059 226.909 283.875 226.909C283.525 226.909 283.187 227.119 283.187 227.539V227.877H282.793V228.195H283.187V230.32H283.563V228.195H284.11V227.877ZM284.636 230.32H285.012V227.877H284.636V230.32ZM284.827 227.469C284.974 227.469 285.095 227.355 285.095 227.215C285.095 227.075 284.974 226.96 284.827 226.96C284.681 226.96 284.56 227.075 284.56 227.215C284.56 227.355 284.681 227.469 284.827 227.469ZM286.692 230.371C287.233 230.371 287.59 230.04 287.653 229.608H287.278C287.208 229.875 286.985 230.034 286.692 230.034C286.247 230.034 285.96 229.665 285.96 229.098C285.96 228.545 286.253 228.182 286.692 228.182C287.023 228.182 287.22 228.386 287.278 228.608H287.653C287.59 228.15 287.201 227.845 286.686 227.845C286.024 227.845 285.585 228.367 285.585 229.111C285.585 229.843 286.005 230.371 286.692 230.371ZM288.921 230.378C289.347 230.378 289.57 230.148 289.647 229.989H289.666V230.32H290.041V228.71C290.041 227.934 289.449 227.845 289.137 227.845C288.768 227.845 288.348 227.972 288.157 228.418L288.514 228.545C288.597 228.367 288.792 228.176 289.15 228.176C289.495 228.176 289.666 228.359 289.666 228.672V228.685C289.666 228.866 289.481 228.85 289.036 228.908C288.582 228.966 288.087 229.067 288.087 229.627C288.087 230.104 288.457 230.378 288.921 230.378ZM288.978 230.04C288.679 230.04 288.463 229.907 288.463 229.646C288.463 229.359 288.724 229.27 289.017 229.232C289.176 229.213 289.602 229.168 289.666 229.092V229.436C289.666 229.741 289.424 230.04 288.978 230.04ZM291.789 227.877H291.267V227.291H290.892V227.877H290.523V228.195H290.892V229.722C290.892 230.148 291.236 230.352 291.554 230.352C291.694 230.352 291.783 230.327 291.834 230.308L291.757 229.97C291.726 229.977 291.675 229.989 291.592 229.989C291.426 229.989 291.267 229.938 291.267 229.62V228.195H291.789V227.877ZM293.352 230.371C293.849 230.371 294.211 230.123 294.326 229.754L293.963 229.652C293.868 229.907 293.647 230.034 293.352 230.034C292.912 230.034 292.608 229.749 292.59 229.226H294.364V229.067C294.364 228.157 293.823 227.845 293.314 227.845C292.652 227.845 292.213 228.367 292.213 229.118C292.213 229.868 292.646 230.371 293.352 230.371ZM292.59 228.901C292.616 228.521 292.884 228.182 293.314 228.182C293.721 228.182 293.982 228.488 293.982 228.901H292.59ZM295.209 230.346C295.366 230.346 295.495 230.217 295.495 230.059C295.495 229.902 295.366 229.773 295.209 229.773C295.051 229.773 294.922 229.902 294.922 230.059C294.922 230.217 295.051 230.346 295.209 230.346ZM295.209 228.532C295.366 228.532 295.495 228.403 295.495 228.246C295.495 228.088 295.366 227.959 295.209 227.959C295.051 227.959 294.922 228.088 294.922 228.246C294.922 228.403 295.051 228.532 295.209 228.532Z" fill="#9498A9"/>
<path d="M293.63 245.854H295.156C296.082 245.854 296.5 245.394 296.5 244.783C296.5 244.167 296.068 243.819 295.673 243.797V243.758C296.039 243.665 296.344 243.416 296.344 242.918C296.344 242.329 295.936 241.872 295.088 241.872H293.63V245.854ZM294.231 245.339V244.064H295.119C295.601 244.064 295.903 244.375 295.903 244.754C295.903 245.088 295.675 245.339 295.098 245.339H294.231ZM294.231 243.595V242.384H295.051C295.528 242.384 295.755 242.634 295.755 242.965C295.755 243.35 295.44 243.595 295.036 243.595H294.231ZM298.424 245.915C299.266 245.915 299.816 245.298 299.816 244.375C299.816 243.445 299.266 242.829 298.424 242.829C297.582 242.829 297.032 243.445 297.032 244.375C297.032 245.298 297.582 245.915 298.424 245.915ZM298.426 245.427C297.876 245.427 297.619 244.946 297.619 244.373C297.619 243.801 297.876 243.315 298.426 243.315C298.972 243.315 299.229 243.801 299.229 244.373C299.229 244.946 298.972 245.427 298.426 245.427ZM301.723 245.915C302.565 245.915 303.116 245.298 303.116 244.375C303.116 243.445 302.565 242.829 301.723 242.829C300.881 242.829 300.331 243.445 300.331 244.375C300.331 245.298 300.881 245.915 301.723 245.915ZM301.725 245.427C301.175 245.427 300.918 244.946 300.918 244.373C300.918 243.801 301.175 243.315 301.725 243.315C302.272 243.315 302.528 243.801 302.528 244.373C302.528 244.946 302.272 245.427 301.725 245.427ZM303.764 245.854H304.346V244.795L304.636 244.505L305.651 245.854H306.364L305.073 244.149L306.283 242.868H305.586L304.396 244.132H304.346V241.872H303.764V245.854ZM309.131 245.921C309.625 245.921 309.903 245.67 310.014 245.446H310.037V245.854H310.605V243.871C310.605 243.002 309.92 242.829 309.446 242.829C308.905 242.829 308.407 243.047 308.213 243.591L308.759 243.716C308.845 243.504 309.063 243.299 309.454 243.299C309.829 243.299 310.021 243.496 310.021 243.834V243.848C310.021 244.06 309.804 244.056 309.267 244.118C308.701 244.184 308.122 244.332 308.122 245.011C308.122 245.598 308.563 245.921 309.131 245.921ZM309.257 245.454C308.929 245.454 308.691 245.306 308.691 245.018C308.691 244.707 308.968 244.596 309.304 244.552C309.493 244.526 309.94 244.476 310.023 244.392V244.777C310.023 245.131 309.741 245.454 309.257 245.454ZM314.086 245.915C314.792 245.915 315.249 245.491 315.313 244.909H314.748C314.674 245.232 314.423 245.423 314.09 245.423C313.598 245.423 313.281 245.013 313.281 244.361C313.281 243.721 313.604 243.319 314.09 243.319C314.46 243.319 314.685 243.552 314.748 243.832H315.313C315.251 243.229 314.759 242.829 314.081 242.829C313.239 242.829 312.694 243.463 312.694 244.375C312.694 245.275 313.219 245.915 314.086 245.915ZM317.193 245.915C318.035 245.915 318.586 245.298 318.586 244.375C318.586 243.445 318.035 242.829 317.193 242.829C316.351 242.829 315.801 243.445 315.801 244.375C315.801 245.298 316.351 245.915 317.193 245.915ZM317.195 245.427C316.645 245.427 316.388 244.946 316.388 244.373C316.388 243.801 316.645 243.315 317.195 243.315C317.742 243.315 317.998 243.801 317.998 244.373C317.998 244.946 317.742 245.427 317.195 245.427ZM321.127 244.616C321.128 245.123 320.751 245.364 320.425 245.364C320.065 245.364 319.816 245.104 319.816 244.698V242.868H319.235V244.768C319.235 245.508 319.641 245.893 320.215 245.893C320.664 245.893 320.969 245.656 321.107 245.337H321.138V245.854H321.71V242.868H321.127V244.616ZM322.491 245.854H323.072V244.031C323.072 243.64 323.374 243.358 323.786 243.358C323.907 243.358 324.043 243.379 324.089 243.393V242.837C324.031 242.829 323.916 242.823 323.842 242.823C323.492 242.823 323.193 243.021 323.084 243.342H323.053V242.868H322.491V245.854ZM326.831 243.597C326.71 243.132 326.347 242.829 325.701 242.829C325.026 242.829 324.548 243.185 324.548 243.714C324.548 244.137 324.805 244.419 325.365 244.544L325.87 244.655C326.158 244.719 326.292 244.847 326.292 245.034C326.292 245.265 326.045 245.446 325.664 245.446C325.316 245.446 325.092 245.296 325.022 245.003L324.46 245.088C324.558 245.617 324.997 245.915 325.668 245.915C326.389 245.915 326.889 245.532 326.889 244.991C326.889 244.569 326.621 244.309 326.072 244.182L325.598 244.073C325.269 243.996 325.127 243.885 325.129 243.682C325.127 243.453 325.376 243.29 325.707 243.29C326.068 243.29 326.236 243.49 326.304 243.69L326.831 243.597ZM328.816 245.915C329.467 245.915 329.928 245.594 330.06 245.108L329.51 245.009C329.405 245.291 329.152 245.434 328.821 245.434C328.324 245.434 327.989 245.112 327.974 244.536H330.097V244.33C330.097 243.251 329.451 242.829 328.775 242.829C327.942 242.829 327.394 243.463 327.394 244.381C327.394 245.308 327.935 245.915 328.816 245.915ZM327.976 244.101C327.999 243.677 328.306 243.309 328.779 243.309C329.23 243.309 329.525 243.644 329.527 244.101H327.976Z" fill="#374EAC"/>
<rect x="272.551" y="237.26" width="78.4417" height="13.1893" rx="6.59466" stroke="#374EAC" stroke-width="0.5"/>
<g filter="url(#filter2_d_954_1802)">
<rect x="7" y="4" width="122" height="38.2745" rx="6.67419" fill="white"/>
</g>
<path d="M53.2612 22.4292C53.0809 21.1272 52.0794 20.3717 50.7802 20.3717C49.2492 20.3717 48.0959 21.4877 48.0959 23.3822C48.0959 25.2737 49.2349 26.3926 50.7802 26.3926C52.1738 26.3926 53.0981 25.4912 53.2612 24.3723L52.191 24.3666C52.0565 25.0534 51.4956 25.4397 50.7945 25.4397C49.8444 25.4397 49.1633 24.7271 49.1633 23.3822C49.1633 22.0601 49.8387 21.3246 50.7973 21.3246C51.5099 21.3246 52.0679 21.7281 52.191 22.4292H53.2612ZM56.0647 26.3983C57.3525 26.3983 58.1709 25.4912 58.1709 24.1319C58.1709 22.7698 57.3525 21.8598 56.0647 21.8598C54.777 21.8598 53.9585 22.7698 53.9585 24.1319C53.9585 25.4912 54.777 26.3983 56.0647 26.3983ZM56.0704 25.5685C55.3579 25.5685 55.0088 24.9332 55.0088 24.1291C55.0088 23.3249 55.3579 22.6811 56.0704 22.6811C56.7715 22.6811 57.1207 23.3249 57.1207 24.1291C57.1207 24.9332 56.7715 25.5685 56.0704 25.5685ZM60.0458 23.737C60.0458 23.1017 60.4292 22.7354 60.9758 22.7354C61.5109 22.7354 61.8314 23.0874 61.8314 23.6741V26.3125H62.8674V23.5138C62.8702 22.4607 62.2693 21.8598 61.3621 21.8598C60.7039 21.8598 60.2518 22.1745 60.0515 22.6639H60V21.917H59.0098V26.3125H60.0458V23.737ZM65.7917 28.0524C66.9793 28.0524 67.855 27.5087 67.855 26.384V21.917H66.8334V22.6439H66.7761C66.6188 22.3262 66.2897 21.8598 65.5142 21.8598C64.4983 21.8598 63.6999 22.6553 63.6999 24.1004C63.6999 25.5341 64.4983 26.2495 65.5113 26.2495C66.2639 26.2495 66.6159 25.846 66.7761 25.5227H66.8277V26.3554C66.8277 27.0022 66.3984 27.2683 65.8089 27.2683C65.1851 27.2683 64.9103 26.9735 64.7844 26.716L63.8515 26.9421C64.0404 27.5573 64.6728 28.0524 65.7917 28.0524ZM65.8003 25.4368C65.1164 25.4368 64.7558 24.9046 64.7558 24.0947C64.7558 23.2963 65.1107 22.7097 65.8003 22.7097C66.4671 22.7097 66.8334 23.262 66.8334 24.0947C66.8334 24.9332 66.4614 25.4368 65.8003 25.4368ZM68.8764 26.3125H69.9123V23.7284C69.9123 23.1704 70.333 22.7755 70.9024 22.7755C71.077 22.7755 71.2945 22.807 71.3832 22.8356V21.8827C71.2888 21.8655 71.1256 21.854 71.0112 21.854C70.5075 21.854 70.0869 22.1402 69.9266 22.6496H69.8808V21.917H68.8764V26.3125ZM73.2094 26.4012C73.8991 26.4012 74.3112 26.0778 74.5 25.7087H74.5344V26.3125H75.5302V23.3707C75.5302 22.2089 74.583 21.8598 73.7445 21.8598C72.8202 21.8598 72.1105 22.2718 71.8816 23.0731L72.8488 23.2105C72.9519 22.91 73.2438 22.6524 73.7503 22.6524C74.231 22.6524 74.4943 22.8985 74.4943 23.3307V23.3478C74.4943 23.6454 74.1824 23.6597 73.4069 23.7427C72.5541 23.8343 71.7385 24.089 71.7385 25.0791C71.7385 25.9433 72.3709 26.4012 73.2094 26.4012ZM73.4784 25.64C73.0463 25.64 72.7372 25.4426 72.7372 25.062C72.7372 24.6642 73.0835 24.4982 73.5471 24.4324C73.8189 24.3952 74.3627 24.3265 74.4972 24.2178V24.7357C74.4972 25.2251 74.1023 25.64 73.4784 25.64ZM78.7265 21.917H77.8594V20.8639H76.8235V21.917H76.1996V22.7183H76.8235V25.1621C76.8177 25.9891 77.4187 26.3955 78.1971 26.3726C78.4918 26.364 78.695 26.3068 78.8066 26.2696L78.632 25.4597C78.5748 25.474 78.4575 25.4998 78.3287 25.4998C78.0683 25.4998 77.8594 25.4082 77.8594 24.9904V22.7183H78.7265V21.917ZM82.3541 24.4639C82.3541 25.1335 81.8762 25.4654 81.4183 25.4654C80.9204 25.4654 80.5885 25.1135 80.5885 24.5554V21.917H79.5525V24.7157C79.5525 25.7716 80.1535 26.3697 81.0177 26.3697C81.6759 26.3697 82.1395 26.0235 82.3398 25.5313H82.3856V26.3125H83.39V21.917H82.3541V24.4639ZM85.4509 20.4518H84.415V26.3125H85.4509V20.4518ZM87.7407 26.4012C88.4304 26.4012 88.8424 26.0778 89.0313 25.7087H89.0657V26.3125H90.0615V23.3707C90.0615 22.2089 89.1143 21.8598 88.2758 21.8598C87.3515 21.8598 86.6418 22.2718 86.4129 23.0731L87.3801 23.2105C87.4832 22.91 87.775 22.6524 88.2816 22.6524C88.7623 22.6524 89.0256 22.8985 89.0256 23.3307V23.3478C89.0256 23.6454 88.7137 23.6597 87.9382 23.7427C87.0854 23.8343 86.2698 24.089 86.2698 25.0791C86.2698 25.9433 86.9022 26.4012 87.7407 26.4012ZM88.0097 25.64C87.5776 25.64 87.2685 25.4426 87.2685 25.062C87.2685 24.6642 87.6148 24.4982 88.0784 24.4324C88.3502 24.3952 88.894 24.3265 89.0285 24.2178V24.7357C89.0285 25.2251 88.6335 25.64 88.0097 25.64ZM93.2578 21.917H92.3907V20.8639H91.3548V21.917H90.7309V22.7183H91.3548V25.1621C91.349 25.9891 91.95 26.3955 92.7284 26.3726C93.0231 26.364 93.2263 26.3068 93.3379 26.2696L93.1633 25.4597C93.1061 25.474 92.9888 25.4998 92.86 25.4998C92.5996 25.4998 92.3907 25.4082 92.3907 24.9904V22.7183H93.2578V21.917ZM94.0838 26.3125H95.1198V21.917H94.0838V26.3125ZM94.6047 21.2932C94.9337 21.2932 95.2027 21.0413 95.2027 20.7323C95.2027 20.4203 94.9337 20.1685 94.6047 20.1685C94.2727 20.1685 94.0037 20.4203 94.0037 20.7323C94.0037 21.0413 94.2727 21.2932 94.6047 21.2932ZM98.062 26.3983C99.3498 26.3983 100.168 25.4912 100.168 24.1319C100.168 22.7698 99.3498 21.8598 98.062 21.8598C96.7743 21.8598 95.9558 22.7698 95.9558 24.1319C95.9558 25.4912 96.7743 26.3983 98.062 26.3983ZM98.0677 25.5685C97.3552 25.5685 97.0061 24.9332 97.0061 24.1291C97.0061 23.3249 97.3552 22.6811 98.0677 22.6811C98.7689 22.6811 99.118 23.3249 99.118 24.1291C99.118 24.9332 98.7689 25.5685 98.0677 25.5685ZM102.043 23.737C102.043 23.1017 102.427 22.7354 102.973 22.7354C103.508 22.7354 103.829 23.0874 103.829 23.6741V26.3125H104.865V23.5138C104.868 22.4607 104.267 21.8598 103.359 21.8598C102.701 21.8598 102.249 22.1745 102.049 22.6639H101.997V21.917H101.007V26.3125H102.043V23.737ZM109.352 23.0788C109.208 22.3348 108.613 21.8598 107.583 21.8598C106.524 21.8598 105.803 22.3806 105.806 23.1933C105.803 23.8343 106.198 24.2578 107.042 24.4324L107.792 24.5898C108.195 24.6785 108.384 24.8416 108.384 25.0906C108.384 25.391 108.058 25.6171 107.566 25.6171C107.091 25.6171 106.782 25.4111 106.693 25.0162L105.683 25.1135C105.812 25.9205 106.49 26.3983 107.569 26.3983C108.668 26.3983 109.443 25.8289 109.446 24.9961C109.443 24.3694 109.04 23.986 108.21 23.8057L107.46 23.6454C107.014 23.5453 106.836 23.3907 106.839 23.1361C106.836 22.8384 107.165 22.6324 107.597 22.6324C108.075 22.6324 108.327 22.8928 108.407 23.1818L109.352 23.0788ZM111.528 20.4518H110.42L110.512 24.5898H111.433L111.528 20.4518ZM110.972 26.3755C111.31 26.3755 111.599 26.095 111.602 25.7459C111.599 25.4025 111.31 25.1221 110.972 25.1221C110.623 25.1221 110.34 25.4025 110.343 25.7459C110.34 26.095 110.623 26.3755 110.972 26.3755Z" fill="#37488F"/>
<path fill-rule="evenodd" clip-rule="evenodd" d="M20.3992 21.9441H34.3909V37.4904L27.3951 34.8891L20.3992 37.4904V21.9441Z" fill="#F6694C"/>
<path fill-rule="evenodd" clip-rule="evenodd" d="M20.3992 21.9441H34.3909V37.4904L27.3951 34.8891L20.3992 37.4904V21.9441Z" fill="url(#paint0_linear_954_1802)" fill-opacity="0.4" style="mix-blend-mode:overlay"/>
<mask id="mask0_954_1802" style="mask-type:alpha" maskUnits="userSpaceOnUse" x="20" y="21" width="15" height="17">
<path fill-rule="evenodd" clip-rule="evenodd" d="M20.3992 21.9441H34.3909V37.4904L27.3951 34.8891L20.3992 37.4904V21.9441Z" fill="white"/>
<path fill-rule="evenodd" clip-rule="evenodd" d="M20.3992 21.9441H34.3909V37.4904L27.3951 34.8891L20.3992 37.4904V21.9441Z" stroke="white"/>
</mask>
<g mask="url(#mask0_954_1802)">
<g opacity="0.2" filter="url(#filter3_f_954_1802)">
<rect x="18.8445" y="32.0481" width="19.4329" height="0.777316" fill="white"/>
</g>
<g filter="url(#filter4_di_954_1802)">
<circle cx="27.3951" cy="20.7759" r="10.8264" fill="black" fill-opacity="0.01"/>
</g>
</g>
<circle cx="27.3951" cy="19.6109" r="10.8264" fill="#FFC240"/>
<circle cx="27.3951" cy="19.6109" r="10.8264" fill="url(#paint1_linear_954_1802)" fill-opacity="0.3" style="mix-blend-mode:overlay"/>
<mask id="mask1_954_1802" style="mask-type:alpha" maskUnits="userSpaceOnUse" x="16" y="8" width="23" height="23">
<circle cx="27.3951" cy="19.6109" r="10.8264" fill="white"/>
<circle cx="27.3951" cy="19.6109" r="10.8264" stroke="white"/>
</mask>
<g mask="url(#mask1_954_1802)">
<g opacity="0.3">
<path fill-rule="evenodd" clip-rule="evenodd" d="M41.6488 5.69059L10.6047 37.9801L13.4516 -2.78271L41.6488 5.69059Z" fill="url(#paint2_linear_954_1802)" style="mix-blend-mode:overlay"/>
</g>
</g>
<g filter="url(#filter5_di_954_1802)">
<path fill-rule="evenodd" clip-rule="evenodd" d="M27.395 28.27C32.1785 28.27 36.0562 24.3923 36.0562 19.6089C36.0562 14.8255 32.1785 10.9478 27.395 10.9478C22.6116 10.9478 18.7339 14.8255 18.7339 19.6089C18.7339 24.3923 22.6116 28.27 27.395 28.27ZM27.395 26.9723C31.4609 26.9723 34.757 23.6762 34.757 19.6103C34.757 15.5444 31.4609 12.2483 27.395 12.2483C23.3291 12.2483 20.033 15.5444 20.033 19.6103C20.033 23.6762 23.3291 26.9723 27.395 26.9723Z" fill="black" fill-opacity="0.2" style="mix-blend-mode:overlay"/>
</g>
<g filter="url(#filter6_di_954_1802)">
<path fill-rule="evenodd" clip-rule="evenodd" d="M24.2442 24.0949C24.2767 23.9021 24.3061 23.7263 24.336 23.5506C24.4635 22.8018 24.5912 22.053 24.7187 21.3042C24.7395 21.1819 24.7642 21.0601 24.7787 20.9371C24.7827 20.9029 24.7671 20.8545 24.7428 20.8307C24.2078 20.3069 23.6704 19.7857 23.1335 19.264C22.9384 19.0745 22.743 18.8852 22.5482 18.6953C22.4525 18.602 22.4031 18.4925 22.4477 18.359C22.4938 18.2212 22.5993 18.1569 22.7389 18.1369C23.709 17.9983 24.6787 17.8559 25.6497 17.7233C25.7796 17.7056 25.8474 17.6592 25.9056 17.5406C26.3496 16.6356 26.8028 15.7352 27.2518 14.8326C27.3047 14.7262 27.3726 14.6458 27.5021 14.6434C27.6106 14.6414 27.6942 14.6851 27.7434 14.7825C27.8543 15.0017 27.9633 15.2217 28.0724 15.4417C28.4376 16.178 28.8023 16.9145 29.1691 17.6501C29.1803 17.6727 29.2106 17.6968 29.2349 17.7004C29.9504 17.8062 30.6663 17.9093 31.3821 18.0133C31.6848 18.0573 31.9873 18.1028 32.2901 18.1468C32.4265 18.1667 32.521 18.2403 32.5619 18.3701C32.6014 18.4956 32.5591 18.6043 32.4668 18.6941C32.0176 19.1314 31.568 19.5684 31.1184 20.0053C30.8342 20.2815 30.5506 20.5584 30.2641 20.8323C30.2248 20.8698 30.2266 20.9065 30.234 20.9502C30.3187 21.4469 30.4032 21.9437 30.488 22.4403C30.578 22.9676 30.6685 23.4948 30.7581 24.0221C30.7775 24.1363 30.7431 24.2313 30.6491 24.3025C30.5492 24.378 30.4445 24.3805 30.3357 24.3235C29.9342 24.1132 29.5327 23.9031 29.1312 23.6929C28.6104 23.4201 28.0894 23.1479 27.5696 22.8732C27.5226 22.8484 27.4876 22.8505 27.442 22.8746C26.5301 23.3549 25.6173 23.8338 24.7048 24.3129C24.5342 24.4025 24.3772 24.3714 24.2909 24.2252C24.2657 24.1825 24.2565 24.1303 24.2442 24.0949Z" fill="#FFEEB4"/>
<path fill-rule="evenodd" clip-rule="evenodd" d="M24.2442 24.0949C24.2767 23.9021 24.3061 23.7263 24.336 23.5506C24.4635 22.8018 24.5912 22.053 24.7187 21.3042C24.7395 21.1819 24.7642 21.0601 24.7787 20.9371C24.7827 20.9029 24.7671 20.8545 24.7428 20.8307C24.2078 20.3069 23.6704 19.7857 23.1335 19.264C22.9384 19.0745 22.743 18.8852 22.5482 18.6953C22.4525 18.602 22.4031 18.4925 22.4477 18.359C22.4938 18.2212 22.5993 18.1569 22.7389 18.1369C23.709 17.9983 24.6787 17.8559 25.6497 17.7233C25.7796 17.7056 25.8474 17.6592 25.9056 17.5406C26.3496 16.6356 26.8028 15.7352 27.2518 14.8326C27.3047 14.7262 27.3726 14.6458 27.5021 14.6434C27.6106 14.6414 27.6942 14.6851 27.7434 14.7825C27.8543 15.0017 27.9633 15.2217 28.0724 15.4417C28.4376 16.178 28.8023 16.9145 29.1691 17.6501C29.1803 17.6727 29.2106 17.6968 29.2349 17.7004C29.9504 17.8062 30.6663 17.9093 31.3821 18.0133C31.6848 18.0573 31.9873 18.1028 32.2901 18.1468C32.4265 18.1667 32.521 18.2403 32.5619 18.3701C32.6014 18.4956 32.5591 18.6043 32.4668 18.6941C32.0176 19.1314 31.568 19.5684 31.1184 20.0053C30.8342 20.2815 30.5506 20.5584 30.2641 20.8323C30.2248 20.8698 30.2266 20.9065 30.234 20.9502C30.3187 21.4469 30.4032 21.9437 30.488 22.4403C30.578 22.9676 30.6685 23.4948 30.7581 24.0221C30.7775 24.1363 30.7431 24.2313 30.6491 24.3025C30.5492 24.378 30.4445 24.3805 30.3357 24.3235C29.9342 24.1132 29.5327 23.9031 29.1312 23.6929C28.6104 23.4201 28.0894 23.1479 27.5696 22.8732C27.5226 22.8484 27.4876 22.8505 27.442 22.8746C26.5301 23.3549 25.6173 23.8338 24.7048 24.3129C24.5342 24.4025 24.3772 24.3714 24.2909 24.2252C24.2657 24.1825 24.2565 24.1303 24.2442 24.0949Z" fill="url(#paint3_linear_954_1802)" fill-opacity="0.5" style="mix-blend-mode:overlay"/>
</g>
<defs>
<filter id="filter0_d_954_1802" x="41.1514" y="111.076" width="85.6972" height="52.9045" filterUnits="userSpaceOnUse" color-interpolation-filters="sRGB">
<feFlood flood-opacity="0" result="BackgroundImageFix"/>
<feColorMatrix in="SourceAlpha" type="matrix" values="0 0 0 0 0 0 0 0 0 0 0 0 0 0 0 0 0 0 127 0" result="hardAlpha"/>
<feOffset dy="1.9243"/>
<feGaussianBlur stdDeviation="1.9243"/>
<feComposite in2="hardAlpha" operator="out"/>
<feColorMatrix type="matrix" values="0 0 0 0 0 0 0 0 0 0 0 0 0 0 0 0 0 0 0.1 0"/>
<feBlend mode="normal" in2="BackgroundImageFix" result="effect1_dropShadow_954_1802"/>
<feBlend mode="normal" in="SourceGraphic" in2="effect1_dropShadow_954_1802" result="shape"/>
</filter>
<filter id="filter1_d_954_1802" x="260.67" y="161.835" width="103.116" height="102.66" filterUnits="userSpaceOnUse" color-interpolation-filters="sRGB">
<feFlood flood-opacity="0" result="BackgroundImageFix"/>
<feColorMatrix in="SourceAlpha" type="matrix" values="0 0 0 0 0 0 0 0 0 0 0 0 0 0 0 0 0 0 127 0" result="hardAlpha"/>
<feOffset dy="2.16503"/>
<feGaussianBlur stdDeviation="2.16503"/>
<feComposite in2="hardAlpha" operator="out"/>
<feColorMatrix type="matrix" values="0 0 0 0 0 0 0 0 0 0 0 0 0 0 0 0 0 0 0.1 0"/>
<feBlend mode="normal" in2="BackgroundImageFix" result="effect1_dropShadow_954_1802"/>
<feBlend mode="normal" in="SourceGraphic" in2="effect1_dropShadow_954_1802" result="shape"/>
</filter>
<filter id="filter2_d_954_1802" x="0.94672" y="0.97336" width="134.107" height="50.381" filterUnits="userSpaceOnUse" color-interpolation-filters="sRGB">
<feFlood flood-opacity="0" result="BackgroundImageFix"/>
<feColorMatrix in="SourceAlpha" type="matrix" values="0 0 0 0 0 0 0 0 0 0 0 0 0 0 0 0 0 0 127 0" result="hardAlpha"/>
<feOffset dy="3.02664"/>
<feGaussianBlur stdDeviation="3.02664"/>
<feColorMatrix type="matrix" values="0 0 0 0 0 0 0 0 0 0 0 0 0 0 0 0 0 0 0.1 0"/>
<feBlend mode="normal" in2="BackgroundImageFix" result="effect1_dropShadow_954_1802"/>
<feBlend mode="normal" in="SourceGraphic" in2="effect1_dropShadow_954_1802" result="shape"/>
</filter>
<filter id="filter3_f_954_1802" x="10.1745" y="23.378" width="36.7731" height="18.1175" filterUnits="userSpaceOnUse" color-interpolation-filters="sRGB">
<feFlood flood-opacity="0" result="BackgroundImageFix"/>
<feBlend mode="normal" in="SourceGraphic" in2="BackgroundImageFix" result="shape"/>
<feGaussianBlur stdDeviation="4.33504" result="effect1_foregroundBlur_954_1802"/>
</filter>
<filter id="filter4_di_954_1802" x="10.1896" y="3.57038" width="34.411" height="34.411" filterUnits="userSpaceOnUse" color-interpolation-filters="sRGB">
<feFlood flood-opacity="0" result="BackgroundImageFix"/>
<feColorMatrix in="SourceAlpha" type="matrix" values="0 0 0 0 0 0 0 0 0 0 0 0 0 0 0 0 0 0 127 0" result="hardAlpha"/>
<feOffset/>
<feGaussianBlur stdDeviation="3.18954"/>
<feColorMatrix type="matrix" values="0 0 0 0 0 0 0 0 0 0 0 0 0 0 0 0 0 0 0.768144 0"/>
<feBlend mode="normal" in2="BackgroundImageFix" result="effect1_dropShadow_954_1802"/>
<feBlend mode="normal" in="SourceGraphic" in2="effect1_dropShadow_954_1802" result="shape"/>
<feColorMatrix in="SourceAlpha" type="matrix" values="0 0 0 0 0 0 0 0 0 0 0 0 0 0 0 0 0 0 127 0" result="hardAlpha"/>
<feOffset dy="1.59477"/>
<feGaussianBlur stdDeviation="0.797386"/>
<feComposite in2="hardAlpha" operator="arithmetic" k2="-1" k3="1"/>
<feColorMatrix type="matrix" values="0 0 0 0 1 0 0 0 0 1 0 0 0 0 1 0 0 0 0.293733 0"/>
<feBlend mode="normal" in2="shape" result="effect2_innerShadow_954_1802"/>
</filter>
<filter id="filter5_di_954_1802" x="18.7339" y="10.9478" width="17.3223" height="18.917" filterUnits="userSpaceOnUse" color-interpolation-filters="sRGB">
<feFlood flood-opacity="0" result="BackgroundImageFix"/>
<feColorMatrix in="SourceAlpha" type="matrix" values="0 0 0 0 0 0 0 0 0 0 0 0 0 0 0 0 0 0 127 0" result="hardAlpha"/>
<feOffset dy="1.59477"/>
<feColorMatrix type="matrix" values="0 0 0 0 1 0 0 0 0 1 0 0 0 0 1 0 0 0 0.138106 0"/>
<feBlend mode="normal" in2="BackgroundImageFix" result="effect1_dropShadow_954_1802"/>
<feBlend mode="normal" in="SourceGraphic" in2="effect1_dropShadow_954_1802" result="shape"/>
<feColorMatrix in="SourceAlpha" type="matrix" values="0 0 0 0 0 0 0 0 0 0 0 0 0 0 0 0 0 0 127 0" result="hardAlpha"/>
<feOffset dy="1.59477"/>
<feGaussianBlur stdDeviation="2.39216"/>
<feComposite in2="hardAlpha" operator="arithmetic" k2="-1" k3="1"/>
<feColorMatrix type="matrix" values="0 0 0 0 0.59468 0 0 0 0 0.361099 0 0 0 0 0.144787 0 0 0 1 0"/>
<feBlend mode="normal" in2="shape" result="effect2_innerShadow_954_1802"/>
</filter>
<filter id="filter6_di_954_1802" x="19.2416" y="14.6433" width="16.5247" height="16.0988" filterUnits="userSpaceOnUse" color-interpolation-filters="sRGB">
<feFlood flood-opacity="0" result="BackgroundImageFix"/>
<feColorMatrix in="SourceAlpha" type="matrix" values="0 0 0 0 0 0 0 0 0 0 0 0 0 0 0 0 0 0 127 0" result="hardAlpha"/>
<feOffset dy="3.18954"/>
<feGaussianBlur stdDeviation="1.59477"/>
<feColorMatrix type="matrix" values="0 0 0 0 0.988235 0 0 0 0 0.708654 0 0 0 0 0.231373 0 0 0 1 0"/>
<feBlend mode="normal" in2="BackgroundImageFix" result="effect1_dropShadow_954_1802"/>
<feBlend mode="normal" in="SourceGraphic" in2="effect1_dropShadow_954_1802" result="shape"/>
<feColorMatrix in="SourceAlpha" type="matrix" values="0 0 0 0 0 0 0 0 0 0 0 0 0 0 0 0 0 0 127 0" result="hardAlpha"/>
<feOffset dy="1.59477"/>
<feComposite in2="hardAlpha" operator="arithmetic" k2="-1" k3="1"/>
<feColorMatrix type="matrix" values="0 0 0 0 1 0 0 0 0 1 0 0 0 0 1 0 0 0 0.231148 0"/>
<feBlend mode="normal" in2="shape" result="effect2_innerShadow_954_1802"/>
</filter>
<linearGradient id="paint0_linear_954_1802" x1="20.3992" y1="21.9441" x2="20.3992" y2="37.4904" gradientUnits="userSpaceOnUse">
<stop stop-color="white" stop-opacity="0.5"/>
<stop offset="1" stop-opacity="0.5"/>
</linearGradient>
<linearGradient id="paint1_linear_954_1802" x1="16.5687" y1="8.78442" x2="16.5687" y2="30.4373" gradientUnits="userSpaceOnUse">
<stop stop-color="white" stop-opacity="0.522362"/>
<stop offset="1" stop-opacity="0.5"/>
</linearGradient>
<linearGradient id="paint2_linear_954_1802" x1="23.137" y1="3.75437" x2="10.2276" y2="17.8648" gradientUnits="userSpaceOnUse">
<stop stop-color="white"/>
<stop offset="1" stop-color="white" stop-opacity="0.01"/>
</linearGradient>
<linearGradient id="paint3_linear_954_1802" x1="22.4312" y1="14.6433" x2="22.4312" y2="24.3631" gradientUnits="userSpaceOnUse">
<stop stop-color="white" stop-opacity="0.309386"/>
<stop offset="1" stop-opacity="0.5"/>
</linearGradient>
</defs>
</svg>
