<svg width="113" height="85" viewBox="0 0 113 85" fill="none" xmlns="http://www.w3.org/2000/svg">
<circle opacity="0.5" cx="84" cy="25" r="25" fill="#D7DF3B"/>
<path d="M66.7969 85H38.6719C37.1179 85 35.6275 84.3827 34.5287 83.2838C33.4298 82.185 32.8125 80.6946 32.8125 79.1406V15.8594C32.8125 14.3054 33.4298 12.815 34.5287 11.7162C35.6275 10.6173 37.1179 10 38.6719 10H66.7969C68.3509 10 69.8412 10.6173 70.9401 11.7162C72.0389 12.815 72.6562 14.3054 72.6562 15.8594V79.1406C72.6562 80.6946 72.0389 82.185 70.9401 83.2838C69.8412 84.3827 68.3509 85 66.7969 85ZM38.6719 12.3438C37.7395 12.3438 36.8453 12.7141 36.186 13.3735C35.5266 14.0328 35.1562 14.927 35.1562 15.8594V79.1406C35.1562 80.073 35.5266 80.9672 36.186 81.6265C36.8453 82.2859 37.7395 82.6562 38.6719 82.6562H66.7969C67.7293 82.6562 68.6235 82.2859 69.2828 81.6265C69.9421 80.9672 70.3125 80.073 70.3125 79.1406V15.8594C70.3125 14.927 69.9421 14.0328 69.2828 13.3735C68.6235 12.7141 67.7293 12.3438 66.7969 12.3438H38.6719Z" fill="#9498A9"/>
<path d="M52.7344 51.9063C50.1849 51.9063 47.6926 51.1502 45.5727 49.7338C43.4529 48.3174 41.8007 46.3041 40.825 43.9487C39.8493 41.5932 39.5941 39.0013 40.0914 36.5008C40.5888 34.0003 41.8165 31.7034 43.6193 29.9006C45.4221 28.0978 47.719 26.8701 50.2195 26.3727C52.7201 25.8753 55.312 26.1306 57.6674 27.1062C60.0229 28.0819 62.0361 29.7341 63.4525 31.854C64.869 33.9738 65.625 36.4661 65.625 39.0156C65.625 42.4344 64.2669 45.7132 61.8494 48.1307C59.432 50.5481 56.1532 51.9063 52.7344 51.9063ZM52.7344 28.4688C50.6484 28.4688 48.6093 29.0873 46.8748 30.2462C45.1404 31.4051 43.7886 33.0523 42.9903 34.9795C42.1921 36.9067 41.9832 39.0273 42.3902 41.0732C42.7971 43.1191 43.8016 44.9984 45.2766 46.4734C46.7516 47.9484 48.6309 48.9529 50.6768 49.3599C52.7227 49.7668 54.8433 49.5579 56.7705 48.7597C58.6977 47.9614 60.3449 46.6096 61.5038 44.8752C62.6627 43.1407 63.2813 41.1016 63.2813 39.0156C63.2813 36.2184 62.1701 33.5358 60.1921 31.5579C58.2142 29.5799 55.5316 28.4688 52.7344 28.4688Z" fill="#9498A9"/>
<path d="M44.4374 47.5704L42.5975 46.1173C43.7825 44.6092 45.289 43.3845 47.0073 42.5325C48.7256 41.6804 50.6123 41.2226 52.53 41.1923C54.4477 41.162 56.348 41.56 58.0923 42.3572C59.8367 43.1545 61.3812 44.331 62.6132 45.8009L60.8085 47.3009C59.7999 46.0935 58.5339 45.127 57.1034 44.4723C55.6729 43.8176 54.114 43.4912 52.541 43.5171C50.9679 43.5429 49.4206 43.9203 48.0124 44.6217C46.6041 45.323 45.3706 46.3305 44.4022 47.5704H44.4374Z" fill="#9498A9"/>
<path d="M52.7343 43.5391C51.675 43.5391 50.6396 43.225 49.7589 42.6365C48.8782 42.048 48.1918 41.2116 47.7864 40.233C47.3811 39.2545 47.275 38.1777 47.4817 37.1388C47.6883 36.0999 48.1984 35.1457 48.9474 34.3967C49.6963 33.6477 50.6506 33.1377 51.6895 32.931C52.7283 32.7244 53.8051 32.8304 54.7837 33.2358C55.7623 33.6411 56.5987 34.3276 57.1872 35.2083C57.7756 36.089 58.0897 37.1244 58.0897 38.1836C58.0866 39.603 57.5214 40.9634 56.5177 41.9671C55.514 42.9707 54.1537 43.536 52.7343 43.5391ZM52.7343 35.1719C52.1386 35.1719 51.5563 35.3485 51.061 35.6794C50.5658 36.0104 50.1797 36.4807 49.9518 37.0311C49.7238 37.5814 49.6642 38.1869 49.7804 38.7712C49.8966 39.3554 50.1835 39.892 50.6046 40.3132C51.0258 40.7344 51.5625 41.0212 52.1467 41.1374C52.7309 41.2537 53.3365 41.194 53.8868 40.9661C54.4371 40.7381 54.9075 40.3521 55.2384 39.8568C55.5693 39.3615 55.746 38.7793 55.746 38.1836C55.746 37.3848 55.4287 36.6188 54.8639 36.054C54.2991 35.4892 53.533 35.1719 52.7343 35.1719Z" fill="#9498A9"/>
<path d="M71.4844 19.375H33.9844V21.7188H71.4844V19.375Z" fill="#9498A9"/>
<path d="M71.4844 73.2812H33.9844V75.625H71.4844V73.2812Z" fill="#9498A9"/>
<path d="M43.3594 68.5938C43.0486 68.5938 42.7505 68.4703 42.5307 68.2505C42.311 68.0307 42.1875 67.7327 42.1875 67.4219V62.7344C42.1875 62.4236 42.311 62.1255 42.5307 61.9057C42.7505 61.686 43.0486 61.5625 43.3594 61.5625C43.6702 61.5625 43.9682 61.686 44.188 61.9057C44.4078 62.1255 44.5312 62.4236 44.5312 62.7344V67.4219C44.5312 67.7327 44.4078 68.0307 44.188 68.2505C43.9682 68.4703 43.6702 68.5938 43.3594 68.5938Z" fill="#9498A9"/>
<path d="M45.422 67.4219C45.2253 67.4267 45.0309 67.3781 44.8595 67.2813L40.7462 65.043C40.5962 64.9789 40.4612 64.8843 40.3499 64.765C40.2386 64.6457 40.1534 64.5046 40.0998 64.3505C40.0462 64.1964 40.0253 64.0329 40.0385 63.8703C40.0518 63.7077 40.0988 63.5496 40.1766 63.4062C40.2545 63.2629 40.3614 63.1373 40.4905 63.0376C40.6197 62.938 40.7682 62.8664 40.9266 62.8274C41.085 62.7884 41.2498 62.7829 41.4105 62.8113C41.5711 62.8397 41.7241 62.9013 41.8595 62.9922L45.9728 65.2305C46.1961 65.3569 46.3717 65.5531 46.4727 65.7889C46.5738 66.0247 46.5946 66.2872 46.5321 66.536C46.4695 66.7848 46.3271 67.0062 46.1265 67.1663C45.926 67.3263 45.6785 67.4161 45.422 67.4219Z" fill="#9498A9"/>
<path d="M41.2969 67.4219C41.0404 67.4161 40.7929 67.3263 40.5924 67.1663C40.3918 67.0062 40.2494 66.7848 40.1868 66.536C40.1243 66.2872 40.1451 66.0247 40.2462 65.7889C40.3472 65.5531 40.5228 65.3569 40.7461 65.2305L44.8594 62.9922C44.9948 62.9013 45.1478 62.8397 45.3084 62.8113C45.4691 62.7829 45.6339 62.7884 45.7923 62.8274C45.9507 62.8664 46.0992 62.938 46.2284 63.0376C46.3575 63.1373 46.4644 63.2629 46.5423 63.4062C46.6201 63.5496 46.6671 63.7077 46.6804 63.8703C46.6936 64.0329 46.6727 64.1964 46.6191 64.3505C46.5655 64.5046 46.4803 64.6457 46.369 64.765C46.2577 64.8843 46.1227 64.9789 45.9727 65.043L41.8594 67.2813C41.688 67.3781 41.4936 67.4267 41.2969 67.4219Z" fill="#9498A9"/>
<path d="M52.7344 68.5938C52.4236 68.5938 52.1255 68.4703 51.9057 68.2505C51.686 68.0307 51.5625 67.7327 51.5625 67.4219V62.7344C51.5625 62.4236 51.686 62.1255 51.9057 61.9057C52.1255 61.686 52.4236 61.5625 52.7344 61.5625C53.0452 61.5625 53.3432 61.686 53.563 61.9057C53.7828 62.1255 53.9062 62.4236 53.9062 62.7344V67.4219C53.9062 67.7327 53.7828 68.0307 53.563 68.2505C53.3432 68.4703 53.0452 68.5938 52.7344 68.5938Z" fill="#9498A9"/>
<path d="M54.797 67.4219C54.6003 67.4267 54.4059 67.3781 54.2345 67.2813L50.1212 65.043C49.9712 64.9789 49.8362 64.8843 49.7249 64.765C49.6136 64.6457 49.5284 64.5046 49.4748 64.3505C49.4212 64.1964 49.4003 64.0329 49.4135 63.8703C49.4268 63.7077 49.4738 63.5496 49.5516 63.4062C49.6295 63.2629 49.7364 63.1373 49.8655 63.0376C49.9947 62.938 50.1432 62.8664 50.3016 62.8274C50.46 62.7884 50.6248 62.7829 50.7855 62.8113C50.9461 62.8397 51.0991 62.9013 51.2345 62.9922L55.3478 65.2305C55.5711 65.3569 55.7467 65.5531 55.8477 65.7889C55.9488 66.0247 55.9696 66.2872 55.9071 66.536C55.8445 66.7848 55.7021 67.0062 55.5015 67.1663C55.301 67.3263 55.0535 67.4161 54.797 67.4219Z" fill="#9498A9"/>
<path d="M50.6719 67.4219C50.4154 67.4161 50.1679 67.3263 49.9674 67.1663C49.7668 67.0062 49.6244 66.7848 49.5618 66.536C49.4993 66.2872 49.5201 66.0247 49.6212 65.7889C49.7222 65.5531 49.8978 65.3569 50.1211 65.2305L54.2344 62.9922C54.3698 62.9013 54.5228 62.8397 54.6834 62.8113C54.8441 62.7829 55.0089 62.7884 55.1673 62.8274C55.3257 62.8664 55.4742 62.938 55.6034 63.0376C55.7325 63.1373 55.8394 63.2629 55.9173 63.4062C55.9951 63.5496 56.0421 63.7077 56.0554 63.8703C56.0686 64.0329 56.0477 64.1964 55.9941 64.3505C55.9405 64.5046 55.8553 64.6457 55.744 64.765C55.6327 64.8843 55.4977 64.9789 55.3477 65.043L51.2344 67.2813C51.063 67.3781 50.8686 67.4267 50.6719 67.4219Z" fill="#9498A9"/>
<path d="M62.1094 68.5938C61.7986 68.5938 61.5005 68.4703 61.2807 68.2505C61.061 68.0307 60.9375 67.7327 60.9375 67.4219V62.7344C60.9375 62.4236 61.061 62.1255 61.2807 61.9057C61.5005 61.686 61.7986 61.5625 62.1094 61.5625C62.4202 61.5625 62.7182 61.686 62.938 61.9057C63.1578 62.1255 63.2812 62.4236 63.2812 62.7344V67.4219C63.2812 67.7327 63.1578 68.0307 62.938 68.2505C62.7182 68.4703 62.4202 68.5938 62.1094 68.5938Z" fill="#9498A9"/>
<path d="M64.172 67.4219C63.9753 67.4267 63.7809 67.3781 63.6095 67.2813L59.4962 65.043C59.3462 64.9789 59.2112 64.8843 59.0999 64.765C58.9886 64.6457 58.9034 64.5046 58.8498 64.3505C58.7962 64.1964 58.7753 64.0329 58.7885 63.8703C58.8018 63.7077 58.8488 63.5496 58.9266 63.4062C59.0045 63.2629 59.1114 63.1373 59.2405 63.0376C59.3697 62.938 59.5182 62.8664 59.6766 62.8274C59.835 62.7884 59.9998 62.7829 60.1605 62.8113C60.3211 62.8397 60.4741 62.9013 60.6095 62.9922L64.7228 65.2305C64.9461 65.3569 65.1217 65.5531 65.2227 65.7889C65.3238 66.0247 65.3446 66.2872 65.2821 66.536C65.2195 66.7848 65.0771 67.0062 64.8765 67.1663C64.676 67.3263 64.4285 67.4161 64.172 67.4219Z" fill="#9498A9"/>
<path d="M60.0469 67.4219C59.7904 67.4161 59.5429 67.3263 59.3424 67.1663C59.1418 67.0062 58.9994 66.7848 58.9368 66.536C58.8743 66.2872 58.8951 66.0247 58.9962 65.7889C59.0972 65.5531 59.2728 65.3569 59.4961 65.2305L63.6094 62.9922C63.7448 62.9013 63.8978 62.8397 64.0584 62.8113C64.2191 62.7829 64.3839 62.7884 64.5423 62.8274C64.7007 62.8664 64.8493 62.938 64.9784 63.0376C65.1075 63.1373 65.2144 63.2629 65.2923 63.4062C65.3701 63.5496 65.4171 63.7077 65.4304 63.8703C65.4436 64.0329 65.4228 64.1964 65.3691 64.3505C65.3155 64.5046 65.2303 64.6457 65.119 64.765C65.0077 64.8843 64.8727 64.9789 64.7227 65.043L60.6094 67.2813C60.438 67.3781 60.2436 67.4267 60.0469 67.4219Z" fill="#9498A9"/>
<path d="M22.2657 33.4374C22.1114 33.4383 21.9585 33.4087 21.8158 33.3504C21.673 33.2921 21.5431 33.2062 21.4336 33.0976L9.71488 21.3788C9.49421 21.1582 9.37024 20.8589 9.37024 20.5468C9.37024 20.2347 9.49421 19.9354 9.71488 19.7148C9.93555 19.4941 10.2348 19.3701 10.5469 19.3701C10.859 19.3701 11.1583 19.4941 11.3789 19.7148L23.0977 31.4335C23.2075 31.5424 23.2947 31.6721 23.3542 31.8149C23.4137 31.9577 23.4443 32.1108 23.4443 32.2655C23.4443 32.4202 23.4137 32.5734 23.3542 32.7162C23.2947 32.859 23.2075 32.9886 23.0977 33.0976C22.9882 33.2062 22.8583 33.2921 22.7156 33.3504C22.5728 33.4087 22.4199 33.4383 22.2657 33.4374Z" fill="#9498A9"/>
<path d="M22.2656 33.4375H15.2344C14.9236 33.4375 14.6255 33.314 14.4057 33.0943C14.186 32.8745 14.0625 32.5764 14.0625 32.2656C14.0625 31.9548 14.186 31.6568 14.4057 31.437C14.6255 31.2172 14.9236 31.0938 15.2344 31.0938H21.0938V25.2344C21.0938 24.9236 21.2172 24.6255 21.437 24.4057C21.6568 24.186 21.9548 24.0625 22.2656 24.0625C22.5764 24.0625 22.8745 24.186 23.0943 24.4057C23.314 24.6255 23.4375 24.9236 23.4375 25.2344V32.2656C23.4375 32.5764 23.314 32.8745 23.0943 33.0943C22.8745 33.314 22.5764 33.4375 22.2656 33.4375Z" fill="#9498A9"/>
<path d="M10.5468 75.6249C10.3926 75.6258 10.2397 75.5962 10.0969 75.5379C9.95417 75.4796 9.8243 75.3937 9.7148 75.2851C9.60496 75.1761 9.51778 75.0465 9.45829 74.9037C9.3988 74.7609 9.36816 74.6077 9.36816 74.453C9.36816 74.2983 9.3988 74.1452 9.45829 74.0024C9.51778 73.8596 9.60496 73.7299 9.7148 73.621L21.4336 61.9023C21.6542 61.6816 21.9535 61.5576 22.2656 61.5576C22.5777 61.5576 22.8769 61.6816 23.0976 61.9023C23.3183 62.1229 23.4423 62.4222 23.4423 62.7343C23.4423 63.0464 23.3183 63.3456 23.0976 63.5663L11.3789 75.2851C11.2694 75.3937 11.1395 75.4796 10.9967 75.5379C10.8539 75.5962 10.7011 75.6258 10.5468 75.6249Z" fill="#9498A9"/>
<path d="M22.2656 70.9375C21.9548 70.9375 21.6568 70.814 21.437 70.5943C21.2172 70.3745 21.0938 70.0764 21.0938 69.7656V63.9062H15.2344C14.9236 63.9062 14.6255 63.7828 14.4057 63.563C14.186 63.3432 14.0625 63.0452 14.0625 62.7344C14.0625 62.4236 14.186 62.1255 14.4057 61.9057C14.6255 61.686 14.9236 61.5625 15.2344 61.5625H22.2656C22.5764 61.5625 22.8745 61.686 23.0943 61.9057C23.314 62.1255 23.4375 62.4236 23.4375 62.7344V69.7656C23.4375 70.0764 23.314 70.3745 23.0943 70.5943C22.8745 70.814 22.5764 70.9375 22.2656 70.9375Z" fill="#9498A9"/>
<path d="M83.2031 33.4374C83.0489 33.4383 82.896 33.4087 82.7532 33.3504C82.6104 33.2921 82.4806 33.2062 82.3711 33.0976C82.2612 32.9886 82.174 32.859 82.1145 32.7162C82.055 32.5734 82.0244 32.4202 82.0244 32.2655C82.0244 32.1108 82.055 31.9577 82.1145 31.8149C82.174 31.6721 82.2612 31.5424 82.3711 31.4335L94.0898 19.7148C94.3105 19.4941 94.6098 19.3701 94.9218 19.3701C95.2339 19.3701 95.5332 19.4941 95.7539 19.7148C95.9745 19.9354 96.0985 20.2347 96.0985 20.5468C96.0985 20.8589 95.9745 21.1582 95.7539 21.3788L84.0351 33.0976C83.9256 33.2062 83.7957 33.2921 83.653 33.3504C83.5102 33.4087 83.3573 33.4383 83.2031 33.4374Z" fill="#9498A9"/>
<path d="M90.2344 33.4375H83.2031C82.8923 33.4375 82.5943 33.314 82.3745 33.0943C82.1547 32.8745 82.0312 32.5764 82.0312 32.2656V25.2344C82.0312 24.9236 82.1547 24.6255 82.3745 24.4057C82.5943 24.186 82.8923 24.0625 83.2031 24.0625C83.5139 24.0625 83.812 24.186 84.0318 24.4057C84.2515 24.6255 84.375 24.9236 84.375 25.2344V31.0938H90.2344C90.5452 31.0938 90.8432 31.2172 91.063 31.437C91.2828 31.6568 91.4062 31.9548 91.4062 32.2656C91.4062 32.5764 91.2828 32.8745 91.063 33.0943C90.8432 33.314 90.5452 33.4375 90.2344 33.4375Z" fill="#9498A9"/>
<path d="M94.922 75.6249C94.7678 75.6258 94.6149 75.5962 94.4721 75.5379C94.3294 75.4796 94.1995 75.3937 94.09 75.2851L82.3712 63.5663C82.1506 63.3456 82.0266 63.0464 82.0266 62.7343C82.0266 62.4222 82.1506 62.1229 82.3712 61.9023C82.5919 61.6816 82.8912 61.5576 83.2033 61.5576C83.5154 61.5576 83.8146 61.6816 84.0353 61.9023L95.7541 73.621C95.8639 73.7299 95.9511 73.8596 96.0106 74.0024C96.0701 74.1452 96.1007 74.2983 96.1007 74.453C96.1007 74.6077 96.0701 74.7609 96.0106 74.9037C95.9511 75.0465 95.8639 75.1761 95.7541 75.2851C95.6446 75.3937 95.5147 75.4796 95.3719 75.5379C95.2291 75.5962 95.0763 75.6258 94.922 75.6249Z" fill="#9498A9"/>
<path d="M83.2031 70.9375C82.8923 70.9375 82.5943 70.814 82.3745 70.5943C82.1547 70.3745 82.0312 70.0764 82.0312 69.7656V62.7344C82.0312 62.4236 82.1547 62.1255 82.3745 61.9057C82.5943 61.686 82.8923 61.5625 83.2031 61.5625H90.2344C90.5452 61.5625 90.8432 61.686 91.063 61.9057C91.2828 62.1255 91.4062 62.4236 91.4062 62.7344C91.4062 63.0452 91.2828 63.3432 91.063 63.563C90.8432 63.7828 90.5452 63.9062 90.2344 63.9062H84.375V69.7656C84.375 70.0764 84.2515 70.3745 84.0318 70.5943C83.812 70.814 83.5139 70.9375 83.2031 70.9375Z" fill="#9498A9"/>
</svg>
