<svg width="110" height="85" viewBox="0 0 110 85" fill="none" xmlns="http://www.w3.org/2000/svg">
<circle opacity="0.5" cx="85" cy="25" r="25" fill="#D7DF3B"/>
<path d="M23.2759 64.3103H2.58621C1.9003 64.3103 1.24249 64.0378 0.757483 63.5528C0.272475 63.0678 0 62.41 0 61.7241V20.3448C0 19.6588 0.272475 19.001 0.757483 18.516C1.24249 18.031 1.9003 17.7585 2.58621 17.7585H23.2759V20.3448H2.58621V61.7241H23.2759V64.3103Z" fill="#9498A9"/>
<path d="M23.2759 38.4484H10.3449C9.65897 38.4484 9.00116 38.1759 8.51615 37.6909C8.03114 37.2059 7.75867 36.5481 7.75867 35.8622V28.1035C7.75867 27.4176 8.03114 26.7598 8.51615 26.2748C9.00116 25.7898 9.65897 25.5173 10.3449 25.5173H23.2759V28.1035H10.3449V35.8622H23.2759V38.4484Z" fill="#9498A9"/>
<path d="M20.6897 46.2068H9.05177C8.70882 46.2068 8.37991 46.0706 8.13741 45.8281C7.8949 45.5856 7.75867 45.2567 7.75867 44.9137C7.75867 44.5708 7.8949 44.2418 8.13741 43.9993C8.37991 43.7568 8.70882 43.6206 9.05177 43.6206H20.6897C21.0327 43.6206 21.3616 43.7568 21.6041 43.9993C21.8466 44.2418 21.9828 44.5708 21.9828 44.9137C21.9828 45.2567 21.8466 45.5856 21.6041 45.8281C21.3616 46.0706 21.0327 46.2068 20.6897 46.2068Z" fill="#9498A9"/>
<path d="M16.8104 53.9656H9.05177C8.70882 53.9656 8.37991 53.8294 8.13741 53.5869C7.8949 53.3444 7.75867 53.0155 7.75867 52.6725C7.75867 52.3295 7.8949 52.0006 8.13741 51.7581C8.37991 51.5156 8.70882 51.3794 9.05177 51.3794H16.8104C17.1533 51.3794 17.4823 51.5156 17.7248 51.7581C17.9673 52.0006 18.1035 52.3295 18.1035 52.6725C18.1035 53.0155 17.9673 53.3444 17.7248 53.5869C17.4823 53.8294 17.1533 53.9656 16.8104 53.9656Z" fill="#9498A9"/>
<path d="M98.2758 85H67.2414C66.5555 85 65.8976 84.7275 65.4126 84.2425C64.9276 83.7575 64.6552 83.0997 64.6552 82.4138V72.0689H67.2414V82.4138H98.2758V41.0344H72.4138V38.4482H98.2758C98.9617 38.4482 99.6196 38.7207 100.105 39.2057C100.59 39.6907 100.862 40.3485 100.862 41.0344V82.4138C100.862 83.0997 100.59 83.7575 100.105 84.2425C99.6196 84.7275 98.9617 85 98.2758 85Z" fill="#9498A9"/>
<path d="M90.5173 59.1378H75C74.3141 59.1378 73.6563 58.8653 73.1713 58.3803C72.6863 57.8953 72.4138 57.2375 72.4138 56.5516V48.793C72.4138 48.1071 72.6863 47.4493 73.1713 46.9643C73.6563 46.4793 74.3141 46.2068 75 46.2068H90.5173C91.2032 46.2068 91.861 46.4793 92.346 46.9643C92.831 47.4493 93.1035 48.1071 93.1035 48.793V56.5516C93.1035 57.2375 92.831 57.8953 92.346 58.3803C91.861 58.8653 91.2032 59.1378 90.5173 59.1378ZM75 48.793V56.5516H90.5173V48.793H75Z" fill="#9498A9"/>
<path d="M91.8104 66.8965H73.7069C73.364 66.8965 73.0351 66.7603 72.7926 66.5178C72.5501 66.2753 72.4138 65.9464 72.4138 65.6034C72.4138 65.2605 72.5501 64.9315 72.7926 64.689C73.0351 64.4465 73.364 64.3103 73.7069 64.3103H91.8104C92.1533 64.3103 92.4822 64.4465 92.7247 64.689C92.9672 64.9315 93.1035 65.2605 93.1035 65.6034C93.1035 65.9464 92.9672 66.2753 92.7247 66.5178C92.4822 66.7603 92.1533 66.8965 91.8104 66.8965Z" fill="#9498A9"/>
<path d="M84.0517 74.6551H73.7069C73.364 74.6551 73.0351 74.5188 72.7926 74.2763C72.5501 74.0338 72.4138 73.7049 72.4138 73.362C72.4138 73.019 72.5501 72.6901 72.7926 72.4476C73.0351 72.2051 73.364 72.0688 73.7069 72.0688H84.0517C84.3947 72.0688 84.7236 72.2051 84.9661 72.4476C85.2086 72.6901 85.3449 73.019 85.3449 73.362C85.3449 73.7049 85.2086 74.0338 84.9661 74.2763C84.7236 74.5188 84.3947 74.6551 84.0517 74.6551Z" fill="#9498A9"/>
<path d="M67.2414 69.4828H28.4483C27.7624 69.4828 27.1045 69.2103 26.6195 68.7253C26.1345 68.2403 25.8621 67.5825 25.8621 66.8966V12.5862C25.8621 11.9003 26.1345 11.2425 26.6195 10.7575C27.1045 10.2725 27.7624 10 28.4483 10H67.2414C67.9273 10 68.5851 10.2725 69.0701 10.7575C69.5551 11.2425 69.8276 11.9003 69.8276 12.5862V66.8966C69.8276 67.5825 69.5551 68.2403 69.0701 68.7253C68.5851 69.2103 67.9273 69.4828 67.2414 69.4828ZM28.4483 12.5862V66.8966H67.2414V12.5862H28.4483Z" fill="#9498A9"/>
<path d="M59.4828 38.4482H36.2069C35.521 38.4482 34.8632 38.1757 34.3782 37.6907C33.8932 37.2057 33.6207 36.5479 33.6207 35.862V20.3448C33.6207 19.6588 33.8932 19.001 34.3782 18.516C34.8632 18.031 35.521 17.7585 36.2069 17.7585H59.4828C60.1687 17.7585 60.8265 18.031 61.3115 18.516C61.7965 19.001 62.069 19.6588 62.069 20.3448V35.862C62.069 36.5479 61.7965 37.2057 61.3115 37.6907C60.8265 38.1757 60.1687 38.4482 59.4828 38.4482ZM36.2069 20.3448V35.862H59.4828V20.3448H36.2069Z" fill="#9498A9"/>
<path d="M60.7759 46.2068H34.9138C34.5709 46.2068 34.242 46.0706 33.9995 45.8281C33.757 45.5856 33.6207 45.2567 33.6207 44.9137C33.6207 44.5708 33.757 44.2418 33.9995 43.9993C34.242 43.7568 34.5709 43.6206 34.9138 43.6206H60.7759C61.1189 43.6206 61.4478 43.7568 61.6903 43.9993C61.9328 44.2418 62.069 44.5708 62.069 44.9137C62.069 45.2567 61.9328 45.5856 61.6903 45.8281C61.4478 46.0706 61.1189 46.2068 60.7759 46.2068Z" fill="#9498A9"/>
<path d="M47.8449 53.888H34.9138C34.5709 53.888 34.242 53.7517 33.9995 53.5092C33.757 53.2667 33.6207 52.9378 33.6207 52.5949C33.6207 52.2519 33.757 51.923 33.9995 51.6805C34.242 51.438 34.5709 51.3018 34.9138 51.3018H47.8449C48.1878 51.3018 48.5167 51.438 48.7592 51.6805C49.0017 51.923 49.138 52.2519 49.138 52.5949C49.138 52.9378 49.0017 53.2667 48.7592 53.5092C48.5167 53.7517 48.1878 53.888 47.8449 53.888Z" fill="#9498A9"/>
<path d="M23.2759 43.6206H20.6897V46.2068H23.2759V43.6206Z" fill="#9498A9"/>
</svg>
