<svg>
    <symbol id="underline" viewBox="0 0 71 2" fill="none" xmlns="http://www.w3.org/2000/svg">
        <line x1="1" y1="1" x2="70" y2="1" stroke="#D7DF3B" stroke-width="2" stroke-linecap="round"/>
    </symbol>
    <symbol id="arrow-down" viewBox="0 0 24 24" xmlns="http://www.w3.org/2000/svg">
        <path d="M12.705 15L17.295 10.41C17.685 10.02 17.685 9.38998 17.295 8.99998C16.905 8.60998 16.275 8.60998 15.885 8.99998L11.995 12.88L8.11503 8.99998C7.72502 8.60998 7.09503 8.60998 6.70503 8.99998C6.31502 9.38998 6.31502 10.02 6.70503 10.41L11.295 15C11.675 15.39 12.315 15.39 12.705 15Z"/>
    </symbol>
    <symbol id="elipse" width="307" height="154" viewBox="0 0 307 154" fill="none" xmlns="http://www.w3.org/2000/svg">
        <circle cx="153.5" cy="0.5" r="153.5" fill="#96C0D0"/>
    </symbol>
    <symbol id="green-elipse" width="115" height="115" viewBox="0 0 115 115" fill="none" xmlns="http://www.w3.org/2000/svg">
        <circle cx="57.5" cy="57.5" r="57.5" fill="#A1D7A6"/>
    </symbol>
    <symbol id="white-elipse" width="200" height="325" viewBox="0 0 200 325" fill="none" xmlns="http://www.w3.org/2000/svg">
        <circle cx="35.5" cy="152.5" r="152.5" fill="#E6ECEC"/>
    </symbol>
    <symbol id="search-close" width="13" height="11" viewBox="0 0 13 11" xmlns="http://www.w3.org/2000/svg">
        <path d="M12.5368 1.03835C12.3625 0.902165 12.1258 0.825632 11.8789 0.825632C11.632 0.825632 11.3953 0.902165 11.221 1.03835L6.65735 4.58744L2.09374 1.03108C1.91938 0.894892 1.68266 0.818359 1.4358 0.818359C1.18894 0.818359 0.95222 0.894892 0.777859 1.03108C0.413891 1.31471 0.413891 1.77289 0.777859 2.05653L5.34146 5.6129L0.777859 9.16926C0.413891 9.4529 0.413891 9.91108 0.777859 10.1947C1.14183 10.4784 1.72978 10.4784 2.09374 10.1947L6.65735 6.63835L11.221 10.1947C11.5849 10.4784 12.1729 10.4784 12.5368 10.1947C12.9008 9.91108 12.9008 9.4529 12.5368 9.16926L7.97323 5.6129L12.5368 2.05653C12.8915 1.78017 12.8915 1.31471 12.5368 1.03835Z" fill="#374EAC"/>
    </symbol>
    <symbol id="booking" width="38" height="40" viewBox="0 0 38 40" xmlns="http://www.w3.org/2000/svg">
        <path d="M15 8.12495L18.525 11.65L23.125 4.6062L18.525 8.56245L15 8.12495Z"/>
        <path d="M18.75 27.9625C17.839 27.9625 16.9484 27.6924 16.191 27.1862C15.4335 26.6801 14.8431 25.9607 14.4944 25.119C14.1458 24.2773 14.0546 23.3511 14.2323 22.4576C14.41 21.5641 14.8487 20.7433 15.4929 20.0991C16.1371 19.4549 16.9579 19.0162 17.8514 18.8385C18.7449 18.6608 19.6711 18.752 20.5128 19.1006C21.3545 19.4493 22.0739 20.0397 22.58 20.7972C23.0861 21.5547 23.3563 22.4452 23.3563 23.3563C23.3546 24.5774 22.8688 25.7481 22.0053 26.6115C21.1419 27.475 19.9712 27.9608 18.75 27.9625ZM18.75 20C18.0862 20 17.4373 20.1968 16.8854 20.5656C16.3335 20.9344 15.9033 21.4586 15.6493 22.0719C15.3953 22.6851 15.3288 23.36 15.4583 24.011C15.5878 24.6621 15.9074 25.2601 16.3768 25.7295C16.8462 26.1989 17.4442 26.5185 18.0953 26.648C18.7463 26.7775 19.4212 26.7111 20.0344 26.457C20.6477 26.203 21.1719 25.7728 21.5407 25.2209C21.9095 24.669 22.1063 24.0201 22.1063 23.3563C22.1046 22.4666 21.7505 21.6139 21.1215 20.9848C20.4924 20.3558 19.6397 20.0017 18.75 20Z"/>
        <path d="M25 40H12.5312C12.1997 40 11.8818 39.8683 11.6473 39.6339C11.4129 39.3995 11.2812 39.0815 11.2812 38.75V32.375C11.25 29.375 14.6125 26.875 18.75 26.875C22.8875 26.875 26.25 29.375 26.25 32.375V38.75C26.25 39.0815 26.1183 39.3995 25.8839 39.6339C25.6494 39.8683 25.3315 40 25 40ZM18.75 28.125C15.3062 28.125 12.5 30 12.5 32.375V38.75H25V32.375C25 30.0312 22.1937 28.125 18.75 28.125Z"/>
        <path d="M19.0624 16.25C16.9499 16.2057 14.9412 15.3255 13.4766 13.8024C12.0121 12.2793 11.2113 10.2376 11.2499 8.125C11.2113 6.01239 12.0121 3.97071 13.4766 2.44762C14.9412 0.924528 16.9499 0.0443238 19.0624 0C21.1749 0.0443238 23.1836 0.924528 24.6481 2.44762C26.1126 3.97071 26.9134 6.01239 26.8749 8.125C26.9134 10.2376 26.1126 12.2793 24.6481 13.8024C23.1836 15.3255 21.1749 16.2057 19.0624 16.25ZM19.0624 1.25C17.2814 1.29424 15.5906 2.04272 14.3604 3.33141C13.1303 4.6201 12.4613 6.34388 12.4999 8.125C12.4613 9.90612 13.1303 11.6299 14.3604 12.9186C15.5906 14.2073 17.2814 14.9558 19.0624 15C20.8434 14.9558 22.5342 14.2073 23.7643 12.9186C24.9944 11.6299 25.6635 9.90612 25.6249 8.125C25.6635 6.34388 24.9944 4.6201 23.7643 3.33141C22.5342 2.04272 20.8434 1.29424 19.0624 1.25Z"/>
        <path d="M6.8751 25.3312C6.03674 25.3324 5.21684 25.085 4.51917 24.6201C3.8215 24.1552 3.27739 23.4939 2.95571 22.7197C2.63402 21.9455 2.54921 21.0932 2.71201 20.2708C2.87481 19.4484 3.2779 18.6928 3.87027 18.0996C4.46265 17.5063 5.21769 17.1021 6.03985 16.9381C6.86202 16.7741 7.71436 16.8576 8.48902 17.1782C9.26369 17.4987 9.92587 18.0418 10.3918 18.7388C10.8577 19.4358 11.1063 20.2553 11.1063 21.0937C11.1047 22.216 10.6586 23.2919 9.8656 24.086C9.07262 24.8802 7.99736 25.3279 6.8751 25.3312ZM6.8751 18.1249C6.2837 18.1237 5.70523 18.298 5.21299 18.6258C4.72074 18.9536 4.33685 19.4201 4.10996 19.9663C3.88307 20.5124 3.82338 21.1136 3.93846 21.6937C4.05353 22.2738 4.33819 22.8067 4.75637 23.2249C5.17456 23.6431 5.70745 23.9278 6.28755 24.0428C6.86765 24.1579 7.46886 24.0982 8.01501 23.8713C8.56115 23.6444 9.02767 23.2606 9.35547 22.7683C9.68326 22.2761 9.85758 21.6976 9.85635 21.1062C9.8547 20.316 9.54007 19.5587 8.98134 19C8.4226 18.4412 7.66527 18.1266 6.8751 18.1249Z"/>
        <path d="M10 36.2499H1.25C1.08921 36.2549 0.929036 36.2279 0.778805 36.1704C0.628574 36.1128 0.491291 36.026 0.374954 35.9149C0.258616 35.8038 0.16555 35.6707 0.101177 35.5232C0.0368032 35.3758 0.00241011 35.217 0 35.0562V29.2812C0 26.4937 3.075 24.2312 6.875 24.2312C9.44375 24.2312 11.7688 25.2625 12.9562 26.9312L11.9375 27.65C11 26.3312 9.0125 25.4812 6.875 25.4812C3.78125 25.4812 1.25 27.1812 1.25 29.2812V34.9999H10V36.2499Z"/>
        <path d="M30.5688 25.3312C29.7307 25.3312 28.9114 25.0827 28.2146 24.6171C27.5177 24.1514 26.9746 23.4896 26.6539 22.7153C26.3331 21.941 26.2492 21.089 26.4127 20.267C26.5762 19.445 26.9798 18.69 27.5724 18.0973C28.1651 17.5047 28.9201 17.1011 29.7421 16.9376C30.5641 16.7741 31.4161 16.858 32.1904 17.1788C32.9647 17.4995 33.6265 18.0426 34.0922 18.7395C34.5578 19.4363 34.8063 20.2556 34.8063 21.0937C34.8063 22.2176 34.3599 23.2954 33.5652 24.0901C32.7705 24.8848 31.6927 25.3312 30.5688 25.3312ZM30.5688 18.1125C29.9777 18.1125 29.3998 18.2878 28.9084 18.6164C28.417 18.9449 28.0341 19.4119 27.8081 19.9581C27.5822 20.5044 27.5234 21.1054 27.6392 21.6851C27.755 22.2648 28.0401 22.7971 28.4585 23.2146C28.877 23.6322 29.4099 23.9162 29.9898 24.0308C30.5697 24.1454 31.1706 24.0853 31.7164 23.8582C32.2622 23.6312 32.7283 23.2473 33.0559 22.7552C33.3834 22.2631 33.5575 21.6848 33.5563 21.0937C33.5514 20.3046 33.2344 19.5495 32.6747 18.9933C32.115 18.4371 31.3579 18.1249 30.5688 18.125V18.1125Z"/>
        <path d="M36.2125 36.2499H27.5V34.9999H36.2125H36.25V29.2812C36.25 27.2187 33.65 25.4812 30.5688 25.4812C28.4313 25.4812 26.4438 26.3312 25.5125 27.65L24.4875 26.9312C25.675 25.2625 28.0001 24.2312 30.5688 24.2312C34.375 24.2312 37.5 26.4937 37.5 29.2812V35.0562C37.4854 35.3845 37.3421 35.6938 37.1012 35.9172C36.8602 36.1406 36.541 36.2601 36.2125 36.2499Z"/>
    </symbol>
    <symbol id="arrow-right" viewBox="0 0 24 24" fill="none" xmlns="http://www.w3.org/2000/svg">
        <path d="M5.20874 13H16.3787L11.4987 17.88C11.1087 18.27 11.1087 18.91 11.4987 19.3C11.8887 19.69 12.5187 19.69 12.9087 19.3L19.4987 12.71C19.8887 12.32 19.8887 11.69 19.4987 11.3L12.9187 4.69996C12.7319 4.5127 12.4783 4.40747 12.2137 4.40747C11.9492 4.40747 11.6956 4.5127 11.5087 4.69996C11.1187 5.08996 11.1187 5.71996 11.5087 6.10996L16.3787 11H5.20874C4.65874 11 4.20874 11.45 4.20874 12C4.20874 12.55 4.65874 13 5.20874 13Z" fill="#374EAC"/>
    </symbol>
</svg>







