<svg width="20" height="20" viewBox="0 0 20 20" fill="none" xmlns="http://www.w3.org/2000/svg">
<path fill-rule="evenodd" clip-rule="evenodd" d="M16.1348 0H3.86524C1.73448 0 0 1.7333 0 3.86524V16.1348C0 18.2667 1.73448 20 3.86524 20H16.1348C18.2655 20 20 18.2667 20 16.1348V3.86524C20 1.7333 18.2655 0 16.1348 0ZM17.2437 2.30597L17.6858 2.30362V5.69379L14.3062 5.70437L14.2944 2.3142L17.2437 2.30597ZM7.14605 7.94685C7.78575 7.06021 8.82526 6.4793 10 6.4793C11.1747 6.4793 12.2143 7.06021 12.854 7.94685C13.2714 8.5254 13.5207 9.2333 13.5207 10C13.5207 11.9403 11.9414 13.5195 10 13.5195C8.05974 13.5195 6.48048 11.9403 6.48048 10C6.48048 9.2333 6.72977 8.5254 7.14605 7.94685ZM18.0515 16.1348C18.0515 17.1919 17.1919 18.0515 16.1348 18.0515H3.86524C2.80809 18.0515 1.94849 17.1919 1.94849 16.1348V7.94685H4.93532C4.67662 8.58184 4.53198 9.27446 4.53198 10C4.53198 13.0151 6.98495 15.4692 10 15.4692C13.0162 15.4692 15.4692 13.0151 15.4692 10C15.4692 9.27446 15.3222 8.58184 15.0659 7.94685H18.0515V16.1348Z" fill="#161D3C"/>
</svg>
