<svg width="92" height="85" viewBox="0 0 92 85" fill="none" xmlns="http://www.w3.org/2000/svg">
<ellipse opacity="0.5" cx="66.4031" cy="25" rx="24.9067" ry="25" fill="#D7DF3B"/>
<path d="M67.6523 24.1884H60.1111C59.7889 20.6163 56.778 17.8075 53.1231 17.8075C49.4686 17.8075 46.4576 20.6163 46.1354 24.1884H31.0815V23.0163C31.0815 19.1475 27.934 16 24.0651 16C20.1964 16 17.0488 19.1475 17.0488 23.0163V24.1884H9.53602C8.79184 24.1884 8.18836 24.7917 8.18836 25.536V33.0488H7.01644C3.14745 33.0488 0 36.1962 0 40.0651C0 43.934 3.14745 47.0814 7.0163 47.0814H8.18822V54.4594C8.18822 54.4822 8.18822 54.5714 8.18822 54.5942V63.0438C8.18822 63.7882 8.79171 64.3915 9.53588 64.3915H12.5023C15.1114 64.3915 17.2341 66.5142 17.2341 69.1233C17.2341 71.7323 15.1114 73.855 12.5023 73.855H9.53602C8.79184 73.855 8.18836 74.4584 8.18836 75.2027V83.6523C8.18836 84.3967 8.79184 85 9.53602 85H67.6523C68.3965 85 69 84.3967 69 83.6523V25.536C69 24.7917 68.3965 24.1884 67.6523 24.1884ZM47.4546 26.8837C48.1988 26.8837 48.8023 26.2803 48.8023 25.536V24.8238C48.8023 22.4411 50.7407 20.5028 53.1233 20.5028C55.5058 20.5028 57.4443 22.4411 57.4443 24.8238V25.536C57.4443 26.2803 58.0477 26.8837 58.7919 26.8837H66.3047V37.5793H59.0368C58.2926 37.5793 57.6891 38.1827 57.6891 38.927C57.6891 39.6713 58.2926 40.2747 59.0368 40.2747H66.3047V53.2465H58.792C58.0479 53.2465 57.4444 53.8499 57.4444 54.5942V58.9212C57.4444 61.3039 55.5059 63.2422 53.1233 63.2422C50.7406 63.2422 48.8023 61.3039 48.8023 58.9212V54.5942C48.8023 53.8499 48.1988 53.2465 47.4546 53.2465H39.9418V47.0814H41.1138C44.9826 47.0814 48.1301 43.934 48.1301 40.0651C48.1301 36.1962 44.9826 33.0488 41.1138 33.0488H39.9418V26.8837H47.4546ZM7.0163 44.3861C4.63378 44.3861 2.69531 42.4478 2.69531 40.0651C2.69531 37.6824 4.63378 35.7441 7.0163 35.7441H9.53602C10.2802 35.7441 10.8837 35.1408 10.8837 34.3965V26.8837H18.3966C19.1408 26.8837 19.7442 26.2803 19.7442 25.536V23.0163C19.7442 20.6336 21.6826 18.6953 24.0652 18.6953C26.4479 18.6953 28.3862 20.6336 28.3862 23.0163V25.536C28.3862 26.2803 28.9897 26.8837 29.7339 26.8837H37.2465V34.3965C37.2465 35.1408 37.85 35.7441 38.5942 35.7441H41.1138C43.4964 35.7441 45.4347 37.6824 45.4347 40.0651C45.4347 42.4478 43.4963 44.3861 41.1138 44.3861H38.5942C37.85 44.3861 37.2465 44.9894 37.2465 45.7337V53.2465H24.6245V45.9786C24.6245 45.2343 24.021 44.631 23.2769 44.631C22.5327 44.631 21.9292 45.2343 21.9292 45.9786V53.2465H10.8837V45.7337C10.8837 44.9894 10.2802 44.3861 9.53602 44.3861H7.0163ZM10.8837 76.5503H12.5025C16.5979 76.5503 19.9295 73.2185 19.9295 69.1233C19.9295 65.028 16.5977 61.6962 12.5025 61.6962H10.8837V55.9418H37.2465V63.4572C37.2465 64.2015 37.85 64.8048 38.5942 64.8048H39.3913C41.7725 64.8048 43.7097 66.7421 43.7097 69.1231C43.7097 71.5042 41.7725 73.4416 39.3913 73.4416H38.5942C37.85 73.4416 37.2465 74.0449 37.2465 74.7892V82.3047H28.6444V75.0368C28.6444 74.2925 28.041 73.6891 27.2968 73.6891C26.5526 73.6891 25.9491 74.2925 25.9491 75.0368V82.3047H10.8837V76.5503ZM39.9418 82.3047V76.1156C43.5529 75.8338 46.4051 72.8053 46.4051 69.1233C46.4051 65.4412 43.5529 62.4127 39.9418 62.1309V55.9418H46.107V58.9212C46.107 62.7901 49.2544 65.9375 53.1233 65.9375C56.9921 65.9375 60.1396 62.7901 60.1396 58.9212V55.9418H66.3047V71.9081H59.0368C58.2926 71.9081 57.6891 72.5114 57.6891 73.2557C57.6891 74 58.2926 74.6034 59.0368 74.6034H66.3047V82.3047H39.9418Z" fill="#9498A9"/>
<path d="M27.2969 71.3173C28.0412 71.3173 28.6445 70.7139 28.6445 69.9696C28.6445 69.2253 28.0412 68.6219 27.2969 68.6219C26.5526 68.6219 25.9492 69.2253 25.9492 69.9696C25.9492 70.7139 26.5526 71.3173 27.2969 71.3173Z" fill="#9498A9"/>
<path d="M53.9695 74.6029C54.7138 74.6029 55.3171 73.9995 55.3171 73.2552C55.3171 72.511 54.7138 71.9076 53.9695 71.9076C53.2252 71.9076 52.6218 72.511 52.6218 73.2552C52.6218 73.9995 53.2252 74.6029 53.9695 74.6029Z" fill="#9498A9"/>
<path d="M53.9695 40.274C54.7138 40.274 55.3171 39.6707 55.3171 38.9264C55.3171 38.1821 54.7138 37.5787 53.9695 37.5787C53.2252 37.5787 52.6218 38.1821 52.6218 38.9264C52.6218 39.6707 53.2252 40.274 53.9695 40.274Z" fill="#9498A9"/>
<path d="M23.2766 42.2592C24.0209 42.2592 24.6243 41.6558 24.6243 40.9115C24.6243 40.1672 24.0209 39.5638 23.2766 39.5638C22.5323 39.5638 21.929 40.1672 21.929 40.9115C21.929 41.6558 22.5323 42.2592 23.2766 42.2592Z" fill="#9498A9"/>
</svg>
