<svg width="40" height="40" viewBox="0 0 40 40" fill="none" xmlns="http://www.w3.org/2000/svg">
<path d="M39.2188 4.74687H34.847C34.6602 2.67609 32.9148 1.04781 30.796 1.04781C28.6774 1.04781 26.932 2.67609 26.7452 4.74687H18.0183V4.06742C18.0183 1.82461 16.1936 0 13.9508 0C11.708 0 9.88336 1.82461 9.88336 4.06742V4.74687H5.52813C5.09672 4.74687 4.74688 5.09664 4.74688 5.52812V9.88336H4.0675C1.82461 9.88336 0 11.708 0 13.9508C0 16.1936 1.82461 18.0182 4.06742 18.0182H4.7468V22.2953C4.7468 22.3085 4.7468 22.3602 4.7468 22.3734V27.2718C4.7468 27.7033 5.09664 28.053 5.52805 28.053H7.24773C8.76023 28.053 9.99078 29.2836 9.99078 30.7961C9.99078 32.3086 8.76023 33.5391 7.24773 33.5391H5.52813C5.09672 33.5391 4.74688 33.8889 4.74688 34.3204V39.2188C4.74688 39.6502 5.09672 40 5.52813 40H39.2188C39.6502 40 40 39.6502 40 39.2188V5.52812C40 5.09664 39.6502 4.74687 39.2188 4.74687ZM27.5099 6.30937C27.9413 6.30937 28.2912 5.95961 28.2912 5.52812V5.11523C28.2912 3.73398 29.4149 2.61031 30.7961 2.61031C32.1773 2.61031 33.301 3.73398 33.301 5.11523V5.52812C33.301 5.95961 33.6509 6.30937 34.0823 6.30937H38.4375V12.5098H34.2242C33.7928 12.5098 33.443 12.8595 33.443 13.291C33.443 13.7225 33.7928 14.0723 34.2242 14.0723H38.4375V21.5922H34.0823C33.6509 21.5922 33.3011 21.942 33.3011 22.3734V24.8819C33.3011 26.2631 32.1773 27.3868 30.7961 27.3868C29.4148 27.3868 28.2912 26.2631 28.2912 24.8819V22.3734C28.2912 21.942 27.9413 21.5922 27.5099 21.5922H23.1547V18.0182H23.8341C26.0769 18.0182 27.9015 16.1936 27.9015 13.9508C27.9015 11.708 26.0769 9.88336 23.8341 9.88336H23.1547V6.30937H27.5099ZM4.06742 16.4557C2.68625 16.4557 1.5625 15.332 1.5625 13.9508C1.5625 12.5695 2.68625 11.4459 4.06742 11.4459H5.52813C5.95953 11.4459 6.30938 11.0961 6.30938 10.6646V6.30937H10.6647C11.0961 6.30937 11.4459 5.95961 11.4459 5.52812V4.06742C11.4459 2.68617 12.5696 1.5625 13.9509 1.5625C15.3321 1.5625 16.4558 2.68617 16.4558 4.06742V5.52812C16.4558 5.95961 16.8056 6.30937 17.237 6.30937H21.5922V10.6646C21.5922 11.0961 21.942 11.4459 22.3734 11.4459H23.8341C25.2153 11.4459 26.339 12.5695 26.339 13.9508C26.339 15.332 25.2152 16.4557 23.8341 16.4557H22.3734C21.942 16.4557 21.5922 16.8055 21.5922 17.237V21.5922H14.2751V17.3789C14.2751 16.9474 13.9252 16.5977 13.4938 16.5977C13.0624 16.5977 12.7126 16.9474 12.7126 17.3789V21.5922H6.30938V17.237C6.30938 16.8055 5.95953 16.4557 5.52813 16.4557H4.06742ZM6.30938 35.1016H7.24781C9.62195 35.1016 11.5534 33.1702 11.5534 30.7961C11.5534 28.422 9.62188 26.4905 7.24781 26.4905H6.30938V23.1547H21.5922V27.5114C21.5922 27.9429 21.942 28.2927 22.3734 28.2927H22.8355C24.2159 28.2927 25.339 29.4157 25.339 30.796C25.339 32.1763 24.2159 33.2994 22.8355 33.2994H22.3734C21.942 33.2994 21.5922 33.6492 21.5922 34.0807V38.4375H16.6055V34.2242C16.6055 33.7927 16.2556 33.443 15.8242 33.443C15.3928 33.443 15.043 33.7927 15.043 34.2242V38.4375H6.30938V35.1016ZM23.1547 38.4375V34.8496C25.248 34.6863 26.9015 32.9306 26.9015 30.7961C26.9015 28.6616 25.248 26.9059 23.1547 26.7426V23.1547H26.7287V24.8819C26.7287 27.1247 28.5533 28.9493 30.7961 28.9493C33.0389 28.9493 34.8635 27.1247 34.8635 24.8819V23.1547H38.4375V32.4105H34.2242C33.7928 32.4105 33.443 32.7602 33.443 33.1917C33.443 33.6232 33.7928 33.973 34.2242 33.973H38.4375V38.4375H23.1547Z" fill="#161D3C"/>
<path d="M15.8242 32.0679C16.2557 32.0679 16.6055 31.7181 16.6055 31.2866C16.6055 30.8551 16.2557 30.5054 15.8242 30.5054C15.3927 30.5054 15.043 30.8551 15.043 31.2866C15.043 31.7181 15.3927 32.0679 15.8242 32.0679Z" fill="#161D3C"/>
<path d="M31.2866 33.9727C31.7181 33.9727 32.0679 33.6229 32.0679 33.1914C32.0679 32.7599 31.7181 32.4102 31.2866 32.4102C30.8551 32.4102 30.5054 32.7599 30.5054 33.1914C30.5054 33.6229 30.8551 33.9727 31.2866 33.9727Z" fill="#161D3C"/>
<path d="M31.2866 14.072C31.7181 14.072 32.0679 13.7222 32.0679 13.2908C32.0679 12.8593 31.7181 12.5095 31.2866 12.5095C30.8551 12.5095 30.5054 12.8593 30.5054 13.2908C30.5054 13.7222 30.8551 14.072 31.2866 14.072Z" fill="#161D3C"/>
<path d="M13.4937 15.2227C13.9251 15.2227 14.2749 14.8729 14.2749 14.4414C14.2749 14.0099 13.9251 13.6602 13.4937 13.6602C13.0622 13.6602 12.7124 14.0099 12.7124 14.4414C12.7124 14.8729 13.0622 15.2227 13.4937 15.2227Z" fill="#161D3C"/>
</svg>
