<svg width="113" height="85" viewBox="0 0 113 85" fill="none" xmlns="http://www.w3.org/2000/svg">
<circle opacity="0.5" cx="81" cy="25" r="25" fill="#D7DF3B"/>
<path d="M92.5781 54.5312H19.9219V56.875H92.5781V54.5312Z" fill="#9498A9"/>
<path d="M49.2188 66.25H46.875V77.9688H49.2188V66.25Z" fill="#9498A9"/>
<path d="M65.625 65.7344H63.2812V77.4531H65.625V65.7344Z" fill="#9498A9"/>
<path d="M72.6562 85H39.8438C39.2221 85 38.626 84.7531 38.1865 84.3135C37.7469 83.874 37.5 83.2779 37.5 82.6562V81.4844C37.5 79.9304 38.1173 78.44 39.2162 77.3412C40.315 76.2423 41.8054 75.625 43.3594 75.625H69.1406C70.6946 75.625 72.185 76.2423 73.2838 77.3412C74.3827 78.44 75 79.9304 75 81.4844V82.6562C75 83.2779 74.7531 83.874 74.3135 84.3135C73.874 84.7531 73.2779 85 72.6562 85ZM43.3594 77.9688C42.427 77.9688 41.5328 78.3391 40.8735 78.9985C40.2141 79.6578 39.8438 80.552 39.8438 81.4844V82.6562H72.6562V81.4844C72.6562 80.552 72.2859 79.6578 71.6265 78.9985C70.9672 78.3391 70.073 77.9688 69.1406 77.9688H43.3594Z" fill="#9498A9"/>
<path d="M87.8906 66.25H24.6094C23.8399 66.25 23.078 66.0984 22.3671 65.804C21.6562 65.5095 21.0103 65.0779 20.4662 64.5338C19.9221 63.9897 19.4905 63.3438 19.196 62.6329C18.9016 61.922 18.75 61.1601 18.75 60.3906V15.8594C18.75 14.3054 19.3673 12.815 20.4662 11.7162C21.565 10.6173 23.0554 10 24.6094 10H87.8906C89.4446 10 90.935 10.6173 92.0338 11.7162C93.1327 12.815 93.75 14.3054 93.75 15.8594V60.3906C93.75 61.1601 93.5984 61.922 93.304 62.6329C93.0095 63.3438 92.5779 63.9897 92.0338 64.5338C91.4897 65.0779 90.8438 65.5095 90.1329 65.804C89.422 66.0984 88.6601 66.25 87.8906 66.25ZM24.6094 12.3438C23.677 12.3438 22.7828 12.7141 22.1235 13.3735C21.4641 14.0328 21.0938 14.927 21.0938 15.8594V60.3906C21.0938 61.323 21.4641 62.2172 22.1235 62.8765C22.7828 63.5359 23.677 63.9062 24.6094 63.9062H87.8906C88.823 63.9062 89.7172 63.5359 90.3765 62.8765C91.0359 62.2172 91.4062 61.323 91.4062 60.3906V15.8594C91.4062 14.927 91.0359 14.0328 90.3765 13.3735C89.7172 12.7141 88.823 12.3438 87.8906 12.3438H24.6094Z" fill="#9498A9"/>
<path d="M56.25 61.5625C56.8972 61.5625 57.4219 61.0378 57.4219 60.3906C57.4219 59.7434 56.8972 59.2188 56.25 59.2188C55.6028 59.2188 55.0781 59.7434 55.0781 60.3906C55.0781 61.0378 55.6028 61.5625 56.25 61.5625Z" fill="#9498A9"/>
<path d="M55.5819 45.1563C51.1464 45.058 46.7925 43.9434 42.8554 41.8984C42.4491 41.6896 42.1089 41.3719 41.8729 40.9807C41.637 40.5895 41.5146 40.1404 41.5194 39.6836V32.2656C41.5194 31.9548 41.6429 31.6568 41.8627 31.437C42.0824 31.2172 42.3805 31.0938 42.6913 31.0938C43.0021 31.0938 43.3002 31.2172 43.5199 31.437C43.7397 31.6568 43.8632 31.9548 43.8632 32.2656V39.6836C43.861 39.7112 43.8664 39.7389 43.8788 39.7637C43.8912 39.7885 43.9101 39.8094 43.9335 39.8242C47.5379 41.6948 51.5221 42.717 55.5819 42.8125C59.6378 42.7156 63.6179 41.6935 67.2187 39.8242C67.2434 39.8099 67.264 39.7895 67.2783 39.7648C67.2927 39.7401 67.3004 39.7121 67.3007 39.6836V31.4805C67.3007 31.1697 67.4241 30.8716 67.6439 30.6518C67.8637 30.4321 68.1618 30.3086 68.4726 30.3086C68.7834 30.3086 69.0814 30.4321 69.3012 30.6518C69.521 30.8716 69.6444 31.1697 69.6444 31.4805V39.7422C69.6468 40.1999 69.5221 40.6494 69.2842 41.0404C69.0462 41.4314 68.7044 41.7488 68.2968 41.957C64.3584 43.9804 60.0089 45.0747 55.5819 45.1563Z" fill="#9498A9"/>
<path d="M36.832 41.6406C36.5212 41.6406 36.2231 41.5171 36.0033 41.2974C35.7836 41.0776 35.6601 40.7795 35.6601 40.4687V30.7422C35.6526 30.0517 35.8807 29.3794 36.3068 28.8362C36.7329 28.2929 37.3315 27.9111 38.0038 27.7539L54.4101 22.4101C55.1811 22.2315 55.9828 22.2315 56.7538 22.4101L74.332 27.8828C74.602 27.9621 74.8387 28.1275 75.0058 28.354C75.173 28.5804 75.2615 28.8553 75.2578 29.1367C75.2586 29.4273 75.1622 29.7098 74.9837 29.9392C74.8053 30.1686 74.5553 30.3316 74.2734 30.4023L56.8945 35.7812C56.0251 36.0999 55.0767 36.1328 54.1874 35.875L38.0038 31.0937V40.4687C38.0038 40.7795 37.8804 41.0776 37.6606 41.2974C37.4408 41.5171 37.1428 41.6406 36.832 41.6406ZM40.5585 29.4531L54.832 33.6367C55.2652 33.7518 55.7233 33.7314 56.1445 33.5781L70.4648 29.1836L56.2499 24.6718C55.8638 24.5881 55.4642 24.5881 55.0781 24.6718L40.5585 29.4531ZM73.5937 30.1679H73.7109H73.5937ZM73.6523 28.2109H73.5702H73.6523Z" fill="#9498A9"/>
</svg>
