<svg width="40" height="40" viewBox="0 0 40 40" fill="none" xmlns="http://www.w3.org/2000/svg">
<path d="M39.375 23.75H0.625V25H39.375V23.75Z" fill="#161D3C"/>
<path d="M16.25 30H15V36.25H16.25V30Z" fill="#161D3C"/>
<path d="M25 29.7251H23.75V35.9751H25V29.7251Z" fill="#161D3C"/>
<path d="M28.75 40H11.25C10.9185 40 10.6005 39.8683 10.3661 39.6339C10.1317 39.3995 10 39.0815 10 38.75V38.125C10 37.2962 10.3292 36.5013 10.9153 35.9153C11.5013 35.3292 12.2962 35 13.125 35H26.875C27.7038 35 28.4987 35.3292 29.0847 35.9153C29.6708 36.5013 30 37.2962 30 38.125V38.75C30 39.0815 29.8683 39.3995 29.6339 39.6339C29.3995 39.8683 29.0815 40 28.75 40ZM13.125 36.25C12.6277 36.25 12.1508 36.4475 11.7992 36.7992C11.4475 37.1508 11.25 37.6277 11.25 38.125V38.75H28.75V38.125C28.75 37.6277 28.5525 37.1508 28.2008 36.7992C27.8492 36.4475 27.3723 36.25 26.875 36.25H13.125Z" fill="#161D3C"/>
<path d="M36.875 30H3.125C2.71462 30 2.30826 29.9192 1.92911 29.7621C1.54997 29.6051 1.20547 29.3749 0.915291 29.0847C0.625108 28.7945 0.394922 28.45 0.237876 28.0709C0.0808302 27.6917 0 27.2854 0 26.875V3.125C0 2.2962 0.32924 1.50134 0.915291 0.915291C1.50134 0.32924 2.2962 0 3.125 0L36.875 0C37.7038 0 38.4987 0.32924 39.0847 0.915291C39.6708 1.50134 40 2.2962 40 3.125V26.875C40 27.2854 39.9192 27.6917 39.7621 28.0709C39.6051 28.45 39.3749 28.7945 39.0847 29.0847C38.7945 29.3749 38.45 29.6051 38.0709 29.7621C37.6917 29.9192 37.2854 30 36.875 30ZM3.125 1.25C2.62772 1.25 2.15081 1.44754 1.79917 1.79917C1.44754 2.15081 1.25 2.62772 1.25 3.125V26.875C1.25 27.3723 1.44754 27.8492 1.79917 28.2008C2.15081 28.5525 2.62772 28.75 3.125 28.75H36.875C37.3723 28.75 37.8492 28.5525 38.2008 28.2008C38.5525 27.8492 38.75 27.3723 38.75 26.875V3.125C38.75 2.62772 38.5525 2.15081 38.2008 1.79917C37.8492 1.44754 37.3723 1.25 36.875 1.25H3.125Z" fill="#161D3C"/>
<path d="M20 27.5C20.3452 27.5 20.625 27.2202 20.625 26.875C20.625 26.5298 20.3452 26.25 20 26.25C19.6548 26.25 19.375 26.5298 19.375 26.875C19.375 27.2202 19.6548 27.5 20 27.5Z" fill="#161D3C"/>
<path d="M19.6436 18.75C17.278 18.6976 14.956 18.1032 12.8561 17.0125C12.6394 16.9012 12.458 16.7317 12.3322 16.5231C12.2063 16.3145 12.1411 16.0749 12.1436 15.8313V11.875C12.1436 11.7093 12.2095 11.5503 12.3267 11.4331C12.4439 11.3159 12.6029 11.25 12.7686 11.25C12.9344 11.25 13.0934 11.3159 13.2106 11.4331C13.3278 11.5503 13.3936 11.7093 13.3936 11.875V15.8313C13.3925 15.846 13.3953 15.8608 13.402 15.874C13.4086 15.8872 13.4187 15.8984 13.4311 15.9063C15.3535 16.904 17.4784 17.4491 19.6436 17.5C21.8068 17.4484 23.9295 16.9033 25.8499 15.9063C25.8631 15.8987 25.874 15.8878 25.8817 15.8746C25.8894 15.8615 25.8935 15.8465 25.8936 15.8313V11.4563C25.8936 11.2905 25.9595 11.1316 26.0767 11.0144C26.1939 10.8971 26.3529 10.8313 26.5186 10.8313C26.6844 10.8313 26.8434 10.8971 26.9606 11.0144C27.0778 11.1316 27.1436 11.2905 27.1436 11.4563V15.8625C27.1449 16.1067 27.0784 16.3464 26.9515 16.5549C26.8246 16.7635 26.6423 16.9327 26.4249 17.0438C24.3244 18.1229 22.0047 18.7066 19.6436 18.75Z" fill="#161D3C"/>
<path d="M9.64365 16.8751C9.47789 16.8751 9.31892 16.8092 9.20171 16.692C9.0845 16.5748 9.01865 16.4158 9.01865 16.2501V11.0626C9.01466 10.6944 9.13633 10.3358 9.36359 10.046C9.59084 9.7563 9.91009 9.55269 10.2686 9.46883L19.0187 6.61883C19.4299 6.52354 19.8574 6.52354 20.2687 6.61883L29.6437 9.53758C29.7877 9.57986 29.9139 9.66812 30.003 9.78888C30.0922 9.90963 30.1394 10.0562 30.1374 10.2063C30.1379 10.3613 30.0864 10.512 29.9913 10.6343C29.8961 10.7567 29.7627 10.8436 29.6124 10.8813L20.3437 13.7501C19.88 13.9201 19.3742 13.9376 18.8999 13.8001L10.2686 11.2501V16.2501C10.2686 16.4158 10.2028 16.5748 10.0856 16.692C9.96838 16.8092 9.80941 16.8751 9.64365 16.8751ZM11.6312 10.3751L19.2437 12.6063C19.4747 12.6677 19.719 12.6568 19.9437 12.5751L27.5812 10.2313L19.9999 7.82508C19.794 7.78043 19.5808 7.78043 19.3749 7.82508L11.6312 10.3751ZM29.2499 10.7563H29.3124H29.2499ZM29.2812 9.71258H29.2374H29.2812Z" fill="#161D3C"/>
</svg>
