<svg width="135" height="38" viewBox="0 0 135 38" fill="none" xmlns="http://www.w3.org/2000/svg">
<path d="M11.1331 26.8234C15.7431 26.8234 18.3774 24.265 19.8828 21.6434L16.0567 19.7798C15.1786 21.517 13.297 22.8436 11.1331 22.8436C7.33843 22.8436 4.57868 19.9062 4.57868 15.9264C4.57868 11.9466 7.33843 9.00909 11.1331 9.00909C13.297 9.00909 15.1786 10.3673 16.0567 12.0729L19.8828 10.1778C18.4088 7.55615 15.7431 5.0293 11.1331 5.0293C4.86093 5.0293 0 9.45129 0 15.9264C0 22.4014 4.86093 26.8234 11.1331 26.8234Z" fill="#374EAC"/>
<path d="M28.6018 26.8234C33.6195 26.8234 36.6302 23.1595 36.6302 18.8007C36.6302 14.4734 33.6195 10.8095 28.6018 10.8095C23.6154 10.8095 20.6048 14.4734 20.6048 18.8007C20.6048 23.1595 23.6154 26.8234 28.6018 26.8234ZM28.6018 23.2542C26.1243 23.2542 24.7444 21.2012 24.7444 18.8007C24.7444 16.4317 26.1243 14.3787 28.6018 14.3787C31.0793 14.3787 32.4905 16.4317 32.4905 18.8007C32.4905 21.2012 31.0793 23.2542 28.6018 23.2542Z" fill="#374EAC"/>
<path d="M52.929 26.4444V11.1885H48.9462V21.517C48.2562 22.4014 47.0331 23.2542 45.4965 23.2542C43.803 23.2542 42.7053 22.5593 42.7053 20.4431V11.1885H38.7225V22.0224C38.7225 24.9914 40.2906 26.8234 43.6148 26.8234C46.0923 26.8234 47.9112 25.6863 48.9462 24.5177V26.4444H52.929Z" fill="#374EAC"/>
<path d="M60.004 26.4444V16.3686C60.6626 15.3894 62.4188 14.6313 63.736 14.6313C64.175 14.6313 64.5513 14.6629 64.8336 14.7261V10.8095C62.9519 10.8095 61.0703 11.915 60.004 13.2732V11.1885H56.0212V26.4444H60.004Z" fill="#374EAC"/>
<path d="M71.9165 26.8234C76.1188 26.8234 78.4709 24.7072 78.4709 21.9276C78.4709 15.7684 69.5017 17.6636 69.5017 15.3894C69.5017 14.5366 70.4425 13.8733 71.8851 13.8733C73.7354 13.8733 75.4603 14.6629 76.3697 15.6421L77.9691 12.8941C76.4638 11.6939 74.4253 10.8095 71.8538 10.8095C67.8709 10.8095 65.6443 13.0521 65.6443 15.6105C65.6443 21.6118 74.6449 19.5587 74.6449 22.0856C74.6449 23.0331 73.8295 23.728 72.1046 23.728C70.223 23.728 67.965 22.6857 66.8674 21.6434L65.1425 24.4545C66.7419 25.939 69.2822 26.8234 71.9165 26.8234Z" fill="#374EAC"/>
<path d="M87.6616 26.8234C90.0136 26.8234 92.397 26.0969 93.9024 24.7072L92.1462 22.1171C91.174 23.0647 89.3864 23.6333 88.1006 23.6333C85.529 23.6333 83.9924 22.0224 83.7415 20.0957H95V19.2113C95 14.2207 91.9266 10.8095 87.4107 10.8095C82.8006 10.8095 79.5705 14.3787 79.5705 18.8007C79.5705 23.6964 83.0515 26.8234 87.6616 26.8234ZM91.1426 17.3793H83.6787C83.8669 15.8632 84.9332 13.9996 87.4107 13.9996C90.045 13.9996 91.0485 15.9264 91.1426 17.3793Z" fill="#374EAC"/>
<circle cx="115.676" cy="19" r="19" fill="#D7DF3B"/>
<path d="M118.509 22.7521C117.068 25.2269 114.507 26.8236 111.466 26.8236C106.984 26.8236 103.382 23.2311 103.382 18.7605C103.382 14.2899 106.984 10.6177 111.466 10.6177C114.427 10.6177 117.068 12.2143 118.429 14.6093L115.948 16.2857C115.068 14.6891 113.387 13.6513 111.466 13.6513C108.665 13.6513 106.344 15.9664 106.344 18.7605C106.344 21.5547 108.665 23.8698 111.466 23.8698C113.387 23.8698 114.988 22.832 115.868 21.3152L118.509 22.7521Z" fill="#374EAC"/>
<path d="M131.795 18.7605C131.795 15.8866 129.474 13.6513 126.673 13.6513C123.792 13.6513 121.471 15.9664 121.471 18.7605C121.471 21.6345 123.792 23.8698 126.673 23.8698C129.474 23.8698 131.795 21.5547 131.795 18.7605ZM134.677 18.7605C134.677 23.2311 131.075 26.8236 126.593 26.8236C122.111 26.8236 118.509 23.1513 118.509 18.7605C118.509 14.2899 122.111 10.6177 126.593 10.6177C131.075 10.6177 134.677 14.2899 134.677 18.7605Z" fill="#374EAC"/>
</svg>
