<svg width="88" height="85" viewBox="0 0 88 85" fill="none" xmlns="http://www.w3.org/2000/svg">
<ellipse opacity="0.5" cx="62.4031" cy="25" rx="24.9067" ry="25" fill="#D7DF3B"/>
<path d="M20.484 72.3315C20.484 69.5078 18.1866 67.2106 15.363 67.2106H5.12096C2.29722 67.2106 0 69.5079 0 72.3315C0 73.8235 0.641619 75.1681 1.66314 76.1048C0.641619 77.0417 0 78.3864 0 79.8783C0 82.702 2.29735 84.9992 5.12096 84.9992H15.363C18.1868 84.9992 20.484 82.7019 20.484 79.8783C20.484 78.3863 19.8424 77.0417 18.8208 76.105C19.8424 75.1681 20.484 73.8235 20.484 72.3315ZM17.7887 79.8783C17.7887 81.2158 16.7004 82.3041 15.3629 82.3041H5.12082C3.78328 82.3041 2.69504 81.2158 2.69504 79.8783C2.69504 78.5407 3.78328 77.4525 5.12082 77.4525H15.3629C16.7006 77.4525 17.7887 78.5407 17.7887 79.8783ZM5.12096 74.7572C3.78341 74.7572 2.69518 73.6689 2.69518 72.3314C2.69518 70.9938 3.78341 69.9056 5.12096 69.9056H15.363C16.7006 69.9056 17.7888 70.9938 17.7888 72.3314C17.7888 73.6689 16.7006 74.7572 15.363 74.7572H5.12096Z" fill="#9498A9"/>
<path d="M44.7586 64.7849C44.7586 61.9612 42.4613 59.6639 39.6377 59.6639H29.3956C26.5719 59.6639 24.2747 61.9613 24.2747 64.7849C24.2747 66.2769 24.9163 67.6214 25.9378 68.5582C24.9164 69.4951 24.2747 70.8396 24.2747 72.3315C24.2747 73.8235 24.9163 75.1681 25.9378 76.1048C24.9164 77.0417 24.2747 78.3863 24.2747 79.8781C24.2747 82.7019 26.572 84.9991 29.3956 84.9991H39.6377C42.4614 84.9991 44.7586 82.7017 44.7586 79.8781C44.7586 78.3861 44.117 77.0416 43.0955 76.1048C44.1169 75.1679 44.7586 73.8234 44.7586 72.3315C44.7586 70.8395 44.117 69.495 43.0955 68.5582C44.117 67.6216 44.7586 66.2769 44.7586 64.7849ZM42.0633 79.8784C42.0633 81.2159 40.9751 82.3042 39.6375 82.3042H29.3955C28.0579 82.3042 26.9697 81.2159 26.9697 79.8784C26.9697 78.5408 28.0579 77.4526 29.3955 77.4526H39.6375C40.9751 77.4526 42.0633 78.5408 42.0633 79.8784ZM42.0633 72.3316C42.0633 73.6692 40.9751 74.7574 39.6375 74.7574H29.3955C28.0579 74.7574 26.9697 73.6692 26.9697 72.3316C26.9697 70.9941 28.0579 69.9059 29.3955 69.9059H39.6375C40.9751 69.9059 42.0633 70.9941 42.0633 72.3316ZM29.3956 67.2107C28.0581 67.2107 26.9698 66.1224 26.9698 64.7849C26.9698 63.4474 28.0581 62.3591 29.3956 62.3591H39.6377C40.9752 62.3591 42.0634 63.4474 42.0634 64.7849C42.0634 66.1224 40.9752 67.2107 39.6377 67.2107H29.3956Z" fill="#9498A9"/>
<path d="M68.9997 64.7849C68.9997 63.2929 68.3581 61.9483 67.3366 61.0116C68.358 60.0747 68.9997 58.7301 68.9997 57.2381C68.9997 54.4144 66.7024 52.1172 63.8788 52.1172H53.6367C50.813 52.1172 48.5157 54.4145 48.5157 57.2381C48.5157 58.7301 49.1574 60.0747 50.1789 61.0114C49.1575 61.9483 48.5157 63.2929 48.5157 64.7847C48.5157 66.2767 49.1574 67.6213 50.1789 68.558C49.1575 69.4949 48.5157 70.8395 48.5157 72.3314C48.5157 73.8233 49.1574 75.1679 50.1789 76.1047C49.1575 77.0415 48.5157 78.3861 48.5157 79.878C48.5157 82.7017 50.8131 84.9989 53.6367 84.9989H63.8788C66.7025 84.9989 68.9997 82.7016 68.9997 79.878C68.9997 78.386 68.3581 77.0414 67.3366 76.1047C68.358 75.1678 68.9997 73.8232 68.9997 72.3314C68.9997 70.8394 68.3581 69.4948 67.3366 68.558C68.3581 67.6216 68.9997 66.2769 68.9997 64.7849ZM51.2111 57.2381C51.2111 55.9006 52.2993 54.8124 53.6368 54.8124H63.8789C65.2165 54.8124 66.3047 55.9006 66.3047 57.2381C66.3047 58.5757 65.2165 59.6639 63.8789 59.6639H53.6368C52.2992 59.6639 51.2111 58.5758 51.2111 57.2381ZM66.3044 79.8784C66.3044 81.2159 65.2162 82.3041 63.8786 82.3041H53.6366C52.299 82.3041 51.2108 81.2159 51.2108 79.8784C51.2108 78.5408 52.299 77.4526 53.6366 77.4526H63.8786C65.2165 77.4526 66.3044 78.5408 66.3044 79.8784ZM66.3044 72.3316C66.3044 73.6692 65.2162 74.7574 63.8786 74.7574H53.6366C52.299 74.7574 51.2108 73.6692 51.2108 72.3316C51.2108 70.9941 52.299 69.9058 53.6366 69.9058H63.8786C65.2165 69.9058 66.3044 70.9941 66.3044 72.3316ZM53.6367 67.2107C52.2992 67.2107 51.2109 66.1224 51.2109 64.7849C51.2109 63.4473 52.2992 62.3591 53.6367 62.3591H63.8788C65.2163 62.3591 66.3046 63.4473 66.3046 64.7849C66.3046 66.1224 65.2163 67.2107 63.8788 67.2107H53.6367Z" fill="#9498A9"/>
<path d="M1.34766 56.9093C1.70209 56.9093 2.04979 56.7665 2.30045 56.5158C2.55111 56.2651 2.69531 55.9174 2.69531 55.5616C2.69531 55.2072 2.55111 54.8595 2.30045 54.6089C2.04979 54.3582 1.70209 54.214 1.34766 54.214C0.993223 54.214 0.645527 54.3582 0.394863 54.6089C0.144199 54.8595 0 55.2072 0 55.5616C0 55.9174 0.144199 56.2638 0.394863 56.5158C0.645527 56.7665 0.993223 56.9093 1.34766 56.9093Z" fill="#9498A9"/>
<path d="M31.3492 53.6843L33.6307 55.9586C34.1572 56.4835 35.0092 56.4828 35.5349 55.9572C39.3566 52.1362 56.8759 34.6133 61.3446 30.143L63.7296 32.5281C64.0796 32.8782 64.5935 33.0083 65.0677 32.8666C65.5421 32.7251 65.9007 32.3351 66.0018 31.8505L68.9705 17.626C69.0634 17.181 68.9257 16.7191 68.6042 16.3977C68.2827 16.0762 67.8209 15.9384 67.376 16.0314L53.1514 19.0001C52.6667 19.1011 52.2767 19.4599 52.1352 19.9341C51.9937 20.4085 52.1238 20.9222 52.4738 21.2722L54.8636 23.662C46.9717 31.5593 39.5472 38.9881 34.578 43.9535L23.7685 33.144C23.5159 32.8913 23.173 32.7492 22.8156 32.7492C22.4582 32.7492 22.1154 32.8913 21.8627 33.144L3.82621 51.1799C3.29995 51.7062 3.29995 52.5595 3.82621 53.0859C4.35233 53.6122 5.2058 53.6122 5.73206 53.0859L22.8155 36.0023L33.6245 46.8115C34.1506 47.3376 35.0036 47.3378 35.5299 46.812C40.6589 41.6884 48.9541 33.3883 57.7223 24.614C58.2483 24.0876 58.2482 23.2345 57.7219 22.7084L56.1423 21.1288L65.9115 19.0899L63.8726 28.859L62.2972 27.2836C62.0444 27.0307 61.7016 26.8887 61.3439 26.8888C60.9864 26.8888 60.6435 27.031 60.3908 27.284C58.9655 28.7106 40.3469 47.3333 34.5807 53.0995L33.2494 51.7723C33.2238 51.7469 32.4927 51.0159 23.7684 42.2915C23.5157 42.0388 23.1729 41.8967 22.8155 41.8967C22.4581 41.8967 22.1152 42.0388 21.8626 42.2915L0.394939 63.7595C-0.131321 64.2857 -0.131321 65.1391 0.394939 65.6653C0.658136 65.9285 1.003 66.0601 1.34787 66.0601C1.69273 66.0601 2.03773 65.9284 2.30079 65.6653L22.8155 45.1505C31.3339 53.6692 31.3417 53.6769 31.3492 53.6843Z" fill="#9498A9"/>
</svg>
