<svg width="615" height="462" viewBox="0 0 615 462" fill="none" xmlns="http://www.w3.org/2000/svg">
<g opacity="0.5">
<g filter="url(#filter0_d_1228_1803)">
<path fill-rule="evenodd" clip-rule="evenodd" d="M307 300H257C257 286.193 245.807 275 232 275C218.193 275 207 286.193 207 300H157V350C143.193 350 132 361.193 132 375C132 388.807 143.193 400 157 400V450H307V400C293.193 400 282 388.807 282 375C282 361.193 293.193 350 307 350V300Z" fill="#A1D7A6"/>
<path d="M260.535 332.9H252.338C251.988 329.018 248.715 325.965 244.743 325.965C240.77 325.965 237.497 329.018 237.147 332.9H220.784V331.626C220.784 327.421 217.363 324 213.158 324C208.953 324 205.531 327.421 205.531 331.626V332.9H197.365C196.556 332.9 195.9 333.556 195.9 334.365V342.531H194.627C190.421 342.531 187 345.952 187 350.158C187 354.363 190.421 357.784 194.626 357.784H195.9V365.804C195.9 365.828 195.9 365.925 195.9 365.95V375.135C195.9 375.944 196.556 376.599 197.365 376.599H200.59C203.425 376.599 205.733 378.907 205.733 381.743C205.733 384.579 203.425 386.886 200.59 386.886H197.365C196.556 386.886 195.9 387.542 195.9 388.351V397.535C195.9 398.344 196.556 399 197.365 399H260.535C261.344 399 262 398.344 262 397.535V334.365C262 333.556 261.344 332.9 260.535 332.9ZM238.581 335.83C239.39 335.83 240.046 335.174 240.046 334.365V333.591C240.046 331.001 242.153 328.894 244.743 328.894C247.332 328.894 249.439 331.001 249.439 333.591V334.365C249.439 335.174 250.095 335.83 250.904 335.83H259.07V347.456H251.17C250.362 347.456 249.706 348.112 249.706 348.921C249.706 349.73 250.362 350.385 251.17 350.385H259.07V364.485H250.904C250.096 364.485 249.44 365.141 249.44 365.95V370.654C249.44 373.243 247.333 375.35 244.743 375.35C242.153 375.35 240.046 373.243 240.046 370.654V365.95C240.046 365.141 239.39 364.485 238.581 364.485H230.415V357.784H231.689C235.894 357.784 239.315 354.363 239.315 350.158C239.315 345.952 235.894 342.531 231.689 342.531H230.415V335.83H238.581ZM194.626 354.854C192.037 354.854 189.93 352.748 189.93 350.158C189.93 347.568 192.037 345.461 194.626 345.461H197.365C198.174 345.461 198.83 344.805 198.83 343.996V335.83H206.996C207.805 335.83 208.461 335.174 208.461 334.365V331.626C208.461 329.037 210.568 326.93 213.158 326.93C215.748 326.93 217.855 329.037 217.855 331.626V334.365C217.855 335.174 218.511 335.83 219.319 335.83H227.485V343.996C227.485 344.805 228.141 345.461 228.95 345.461H231.689C234.279 345.461 236.386 347.568 236.386 350.158C236.386 352.748 234.279 354.854 231.689 354.854H228.95C228.141 354.854 227.485 355.51 227.485 356.319V364.485H213.766V356.585C213.766 355.776 213.11 355.121 212.301 355.121C211.492 355.121 210.836 355.776 210.836 356.585V364.485H198.83V356.319C198.83 355.51 198.174 354.854 197.365 354.854H194.626ZM198.83 389.816H200.59C205.041 389.816 208.663 386.194 208.663 381.743C208.663 377.291 205.041 373.67 200.59 373.67H198.83V367.415H227.485V375.584C227.485 376.393 228.141 377.049 228.95 377.049H229.817C232.405 377.049 234.511 379.154 234.511 381.743C234.511 384.331 232.405 386.436 229.817 386.436H228.95C228.141 386.436 227.485 387.092 227.485 387.901V396.07H218.135V388.17C218.135 387.361 217.479 386.706 216.67 386.706C215.862 386.706 215.206 387.361 215.206 388.17V396.07H198.83V389.816ZM230.415 396.07V389.343C234.34 389.037 237.44 385.745 237.44 381.743C237.44 377.74 234.34 374.449 230.415 374.142V367.415H237.116V370.654C237.116 374.859 240.537 378.28 244.743 378.28C248.948 378.28 252.369 374.859 252.369 370.654V367.415H259.07V384.77H251.17C250.362 384.77 249.706 385.425 249.706 386.234C249.706 387.044 250.362 387.699 251.17 387.699H259.07V396.07H230.415Z" fill="white"/>
<path d="M216.67 384.127C217.479 384.127 218.135 383.472 218.135 382.663C218.135 381.854 217.479 381.198 216.67 381.198C215.861 381.198 215.206 381.854 215.206 382.663C215.206 383.472 215.861 384.127 216.67 384.127Z" fill="white"/>
<path d="M245.663 387.699C246.472 387.699 247.127 387.043 247.127 386.234C247.127 385.425 246.472 384.769 245.663 384.769C244.854 384.769 244.198 385.425 244.198 386.234C244.198 387.043 244.854 387.699 245.663 387.699Z" fill="white"/>
<path d="M245.663 350.385C246.472 350.385 247.127 349.729 247.127 348.92C247.127 348.111 246.472 347.455 245.663 347.455C244.854 347.455 244.198 348.111 244.198 348.92C244.198 349.729 244.854 350.385 245.663 350.385Z" fill="white"/>
<path d="M212.301 352.543C213.11 352.543 213.766 351.887 213.766 351.078C213.766 350.269 213.11 349.613 212.301 349.613C211.492 349.613 210.836 350.269 210.836 351.078C210.836 351.887 211.492 352.543 212.301 352.543Z" fill="white"/>
<path d="M213.398 422L214.478 418.772H219.4L220.487 422H223.018L218.403 408.909H215.475L210.867 422H213.398ZM215.117 416.867L216.888 411.594H216.99L218.761 416.867H215.117ZM226.542 422H228.914V417.577H231.419C234.443 417.577 236.066 415.761 236.066 413.243C236.066 410.744 234.462 408.909 231.451 408.909H226.542V422ZM228.914 415.627V410.891H231.087C232.864 410.891 233.65 411.849 233.65 413.243C233.65 414.636 232.864 415.627 231.1 415.627H228.914ZM242.298 408.909H239.926V422H242.298V408.909Z" fill="white"/>
</g>
<g filter="url(#filter1_d_1228_1803)">
<path fill-rule="evenodd" clip-rule="evenodd" d="M557 300C557 313.807 545.807 325 532 325C518.193 325 507 313.807 507 300H457V350C443.193 350 432 361.193 432 375C432 388.807 443.193 400 457 400V450H607V300H557Z" fill="#A1D7A6"/>
<path d="M559.121 410.606C555.644 410.606 552.246 409.576 549.355 407.645C546.465 405.715 544.211 402.972 542.881 399.762C541.551 396.552 541.202 393.02 541.881 389.612C542.559 386.205 544.233 383.075 546.691 380.618C549.15 378.161 552.282 376.488 555.692 375.81C559.102 375.132 562.636 375.48 565.848 376.81C569.06 378.139 571.805 380.391 573.737 383.28C575.668 386.169 576.699 389.565 576.699 393.039C576.699 397.698 574.847 402.166 571.551 405.461C568.254 408.755 563.783 410.606 559.121 410.606ZM559.121 377.815C556.108 377.815 553.163 378.708 550.657 380.381C548.152 382.054 546.199 384.431 545.046 387.213C543.893 389.995 543.592 393.056 544.179 396.009C544.767 398.963 546.218 401.675 548.349 403.805C550.479 405.934 553.194 407.384 556.149 407.971C559.104 408.559 562.167 408.257 564.951 407.105C567.735 405.953 570.114 404.001 571.788 401.498C573.462 398.994 574.355 396.05 574.355 393.039C574.355 389.002 572.75 385.129 569.893 382.274C567.036 379.419 563.162 377.815 559.121 377.815Z" fill="white"/>
<path d="M554.879 401.904C554.596 401.903 554.318 401.83 554.07 401.694C553.826 401.549 553.623 401.343 553.482 401.097C553.34 400.851 553.264 400.572 553.262 400.288V386.235C553.26 385.952 553.335 385.674 553.477 385.429C553.619 385.184 553.824 384.981 554.07 384.841C554.317 384.701 554.595 384.627 554.879 384.627C555.163 384.627 555.441 384.701 555.688 384.841L567.852 391.868C568.096 392.013 568.299 392.219 568.44 392.465C568.582 392.711 568.658 392.989 568.66 393.273C568.659 393.559 568.582 393.839 568.438 394.086C568.294 394.332 568.088 394.537 567.84 394.679L555.699 401.705C555.447 401.839 555.165 401.908 554.879 401.904ZM555.605 387.512V399.035L565.59 393.273L555.605 387.512Z" fill="white"/>
<path d="M530.047 406.003C529.821 406.003 529.601 405.938 529.412 405.815C529.223 405.692 529.073 405.518 528.98 405.312L526.637 400.218C525.734 400.174 524.835 400.084 523.941 399.949L520.309 404.481C520.17 404.65 519.987 404.777 519.78 404.847C519.572 404.918 519.35 404.929 519.137 404.879C516.5 404.165 513.959 403.139 511.566 401.823C511.361 401.71 511.194 401.537 511.088 401.329C510.981 401.12 510.94 400.884 510.969 400.651L511.777 395.182C510.888 394.548 510.035 393.864 509.223 393.133L503.773 394.96C503.554 395.033 503.318 395.04 503.095 394.98C502.872 394.919 502.672 394.794 502.52 394.62C500.766 392.635 499.248 390.454 497.996 388.121C497.875 387.901 497.828 387.648 497.862 387.399C497.895 387.15 498.008 386.919 498.184 386.739L501.816 382.534C501.344 381.392 500.952 380.218 500.645 379.021L495.195 377.616C494.969 377.56 494.764 377.437 494.607 377.264C494.451 377.091 494.349 376.875 494.316 376.644C494.106 375.091 494 373.526 494 371.959C494 370.94 494 369.898 494.152 368.797C494.173 368.564 494.263 368.342 494.412 368.16C494.56 367.978 494.76 367.846 494.984 367.778L500.41 366.209C500.663 364.985 500.999 363.78 501.418 362.602L497.563 358.503C497.4 358.33 497.295 358.113 497.259 357.878C497.224 357.644 497.26 357.405 497.363 357.192C498.518 354.871 499.929 352.687 501.57 350.68C501.719 350.487 501.924 350.345 502.157 350.273C502.39 350.202 502.64 350.205 502.871 350.282L508.332 351.91C509.169 351.074 510.057 350.292 510.992 349.568L509.902 344.134C509.869 343.906 509.903 343.674 510.001 343.465C510.099 343.257 510.256 343.082 510.453 342.963C512.75 341.574 515.205 340.466 517.766 339.66C517.984 339.591 518.219 339.587 518.44 339.649C518.66 339.712 518.858 339.838 519.008 340.011L522.793 344.345C523.785 344.163 524.787 344.034 525.793 343.958L527.938 338.805C528.031 338.576 528.195 338.382 528.405 338.252C528.616 338.121 528.862 338.061 529.109 338.079C531.884 338.162 534.638 338.579 537.313 339.321C537.533 339.383 537.73 339.508 537.88 339.68C538.03 339.853 538.126 340.066 538.156 340.293L538.906 345.996C539.68 346.324 540.43 346.663 541.133 347.038L545.738 343.829C545.933 343.696 546.164 343.624 546.4 343.624C546.637 343.624 546.868 343.696 547.063 343.829C549.435 345.448 551.596 347.356 553.496 349.509C553.647 349.679 553.745 349.889 553.778 350.114C553.811 350.338 553.778 350.568 553.684 350.774L551.246 356.056C551.645 356.618 551.996 357.168 552.324 357.707L557.949 357.496C558.192 357.475 558.436 357.53 558.646 357.654C558.856 357.778 559.022 357.964 559.121 358.187C560.314 360.855 561.157 363.665 561.629 366.549C561.665 366.774 561.634 367.005 561.54 367.213C561.447 367.421 561.294 367.597 561.102 367.72L556.238 370.823C556.238 371.222 556.238 371.631 556.238 371.994C556.238 372.357 556.238 372.533 556.238 372.791V373.201L553.895 373.107C553.895 372.955 553.895 372.791 553.895 372.639C553.895 372.486 553.895 372.217 553.895 371.994C553.895 371.514 553.895 371.034 553.824 370.554V370.238C553.81 370.028 553.853 369.819 553.948 369.631C554.042 369.444 554.186 369.285 554.363 369.172L559.121 366.174C558.72 364.009 558.087 361.892 557.234 359.862L551.703 360.049C551.488 360.057 551.274 360.006 551.086 359.9C550.898 359.795 550.742 359.64 550.637 359.452C550.124 358.55 549.56 357.678 548.949 356.84C548.828 356.673 548.753 356.476 548.733 356.271C548.712 356.065 548.746 355.857 548.832 355.669L551.176 350.481C549.721 348.906 548.107 347.485 546.359 346.242L541.883 349.415C541.702 349.541 541.49 349.613 541.27 349.623C541.05 349.633 540.832 349.582 540.641 349.474C539.599 348.897 538.518 348.392 537.406 347.963C537.214 347.887 537.046 347.761 536.918 347.598C536.791 347.436 536.708 347.243 536.68 347.038L535.883 341.382C533.886 340.876 531.846 340.562 529.789 340.445L527.703 345.527C527.618 345.734 527.476 345.912 527.294 346.041C527.111 346.17 526.895 346.243 526.672 346.253C525.305 346.317 523.945 346.489 522.605 346.769C522.394 346.82 522.172 346.81 521.965 346.742C521.757 346.674 521.574 346.549 521.434 346.382L517.777 342.084C515.911 342.728 514.107 343.539 512.387 344.509L513.418 349.919C513.46 350.139 513.438 350.366 513.355 350.573C513.272 350.781 513.131 350.96 512.949 351.09C511.712 351.978 510.555 352.974 509.492 354.065C509.343 354.217 509.155 354.326 508.949 354.38C508.742 354.434 508.525 354.43 508.32 354.369L502.871 352.753C501.704 354.27 500.676 355.888 499.801 357.59L503.586 361.63C503.727 361.786 503.823 361.978 503.864 362.184C503.905 362.39 503.89 362.603 503.82 362.801C503.254 364.289 502.826 365.826 502.543 367.392C502.503 367.607 502.404 367.806 502.257 367.967C502.11 368.129 501.921 368.246 501.711 368.305L496.379 369.851C496.379 370.589 496.309 371.303 496.309 372.006C496.307 373.18 496.374 374.353 496.508 375.519L501.922 376.878C502.132 376.931 502.323 377.041 502.474 377.196C502.625 377.351 502.73 377.545 502.777 377.756C503.125 379.314 503.619 380.835 504.254 382.3C504.33 382.494 504.352 382.705 504.319 382.911C504.287 383.117 504.199 383.31 504.066 383.471L500.457 387.605C501.414 389.293 502.524 390.888 503.773 392.372L509.129 390.568C509.329 390.502 509.544 390.49 509.75 390.536C509.957 390.581 510.147 390.681 510.301 390.826C511.348 391.821 512.477 392.726 513.676 393.531C513.866 393.655 514.016 393.832 514.108 394.04C514.199 394.248 514.228 394.478 514.191 394.702L513.418 400.148C515.208 401.08 517.084 401.837 519.02 402.408L522.594 397.958C522.725 397.795 522.897 397.669 523.093 397.595C523.289 397.521 523.501 397.501 523.707 397.536C524.958 397.748 526.223 397.87 527.492 397.899C527.714 397.904 527.929 397.972 528.114 398.094C528.298 398.216 528.444 398.388 528.535 398.59L530.797 403.603C532.9 403.413 534.98 403.021 537.008 402.432L537.594 396.752L539.938 396.998L539.199 403.45C539.176 403.677 539.087 403.892 538.943 404.069C538.8 404.245 538.608 404.376 538.391 404.446C535.697 405.306 532.905 405.825 530.082 405.992L530.047 406.003Z" fill="white"/>
<path d="M522.093 432L523.173 428.772H528.095L529.182 432H531.713L527.098 418.909H524.17L519.562 432H522.093ZM523.812 426.867L525.583 421.594H525.685L527.456 426.867H523.812ZM535.237 432L543.802 432V430.012H537.609V426.439H543.31V424.451H537.609V420.897H543.751V418.909L535.237 418.909V432Z" fill="white"/>
</g>
<g filter="url(#filter2_d_1228_1803)">
<path fill-rule="evenodd" clip-rule="evenodd" d="M108 300H158V350C144.193 350 133 361.193 133 375C133 388.807 144.193 400 158 400V450H8V300H58C58 286.193 69.1929 275 83 275C96.8071 275 108 286.193 108 300Z" fill="#96C0D0"/>
<path d="M46.2759 386.31H25.5862C24.9003 386.31 24.2425 386.038 23.7575 385.553C23.2725 385.068 23 384.41 23 383.724V342.345C23 341.659 23.2725 341.001 23.7575 340.516C24.2425 340.031 24.9003 339.759 25.5862 339.759H46.2759V342.345H25.5862V383.724H46.2759V386.31Z" fill="white"/>
<path d="M46.276 360.448H33.345C32.6591 360.448 32.0013 360.176 31.5163 359.691C31.0313 359.206 30.7588 358.548 30.7588 357.862V350.104C30.7588 349.418 31.0313 348.76 31.5163 348.275C32.0013 347.79 32.6591 347.517 33.345 347.517H46.276V350.104H33.345V357.862H46.276V360.448Z" fill="white"/>
<path d="M43.6898 368.207H32.0519C31.7089 368.207 31.38 368.071 31.1375 367.828C30.895 367.586 30.7588 367.257 30.7588 366.914C30.7588 366.571 30.895 366.242 31.1375 365.999C31.38 365.757 31.7089 365.621 32.0519 365.621H43.6898C44.0328 365.621 44.3617 365.757 44.6042 365.999C44.8467 366.242 44.9829 366.571 44.9829 366.914C44.9829 367.257 44.8467 367.586 44.6042 367.828C44.3617 368.071 44.0328 368.207 43.6898 368.207Z" fill="white"/>
<path d="M39.8105 375.966H32.0519C31.7089 375.966 31.38 375.829 31.1375 375.587C30.895 375.344 30.7588 375.015 30.7588 374.672C30.7588 374.33 30.895 374.001 31.1375 373.758C31.38 373.516 31.7089 373.379 32.0519 373.379H39.8105C40.1535 373.379 40.4824 373.516 40.7249 373.758C40.9674 374.001 41.1036 374.33 41.1036 374.672C41.1036 375.015 40.9674 375.344 40.7249 375.587C40.4824 375.829 40.1535 375.966 39.8105 375.966Z" fill="white"/>
<path d="M121.276 407H90.2415C89.5556 407 88.8978 406.727 88.4128 406.242C87.9277 405.757 87.6553 405.1 87.6553 404.414V394.069H90.2415V404.414H121.276V363.034H95.4139V360.448H121.276C121.962 360.448 122.62 360.721 123.105 361.206C123.59 361.691 123.862 362.349 123.862 363.034V404.414C123.862 405.1 123.59 405.757 123.105 406.242C122.62 406.727 121.962 407 121.276 407Z" fill="white"/>
<path d="M113.518 381.138H98.0003C97.3144 381.138 96.6566 380.865 96.1715 380.38C95.6865 379.895 95.4141 379.238 95.4141 378.552V370.793C95.4141 370.107 95.6865 369.449 96.1715 368.964C96.6566 368.479 97.3144 368.207 98.0003 368.207H113.518C114.203 368.207 114.861 368.479 115.346 368.964C115.831 369.449 116.104 370.107 116.104 370.793V378.552C116.104 379.238 115.831 379.895 115.346 380.38C114.861 380.865 114.203 381.138 113.518 381.138ZM98.0003 370.793V378.552H113.518V370.793H98.0003Z" fill="white"/>
<path d="M114.811 388.897H96.7072C96.3642 388.897 96.0353 388.76 95.7928 388.518C95.5503 388.275 95.4141 387.946 95.4141 387.603C95.4141 387.26 95.5503 386.932 95.7928 386.689C96.0353 386.447 96.3642 386.31 96.7072 386.31H114.811C115.154 386.31 115.482 386.447 115.725 386.689C115.967 386.932 116.104 387.26 116.104 387.603C116.104 387.946 115.967 388.275 115.725 388.518C115.482 388.76 115.154 388.897 114.811 388.897Z" fill="white"/>
<path d="M107.052 396.655H96.7072C96.3642 396.655 96.0353 396.519 95.7928 396.276C95.5503 396.034 95.4141 395.705 95.4141 395.362C95.4141 395.019 95.5503 394.69 95.7928 394.448C96.0353 394.205 96.3642 394.069 96.7072 394.069H107.052C107.395 394.069 107.724 394.205 107.966 394.448C108.209 394.69 108.345 395.019 108.345 395.362C108.345 395.705 108.209 396.034 107.966 396.276C107.724 396.519 107.395 396.655 107.052 396.655Z" fill="white"/>
<path d="M90.2416 391.483H51.4485C50.7626 391.483 50.1048 391.21 49.6198 390.725C49.1348 390.24 48.8623 389.582 48.8623 388.897V334.586C48.8623 333.9 49.1348 333.242 49.6198 332.757C50.1048 332.272 50.7626 332 51.4485 332H90.2416C90.9275 332 91.5853 332.272 92.0703 332.757C92.5554 333.242 92.8278 333.9 92.8278 334.586V388.897C92.8278 389.582 92.5554 390.24 92.0703 390.725C91.5853 391.21 90.9275 391.483 90.2416 391.483ZM51.4485 334.586V388.897H90.2416V334.586H51.4485Z" fill="white"/>
<path d="M82.4827 360.448H59.2068C58.5209 360.448 57.8631 360.176 57.3781 359.691C56.8931 359.206 56.6206 358.548 56.6206 357.862V342.345C56.6206 341.659 56.8931 341.001 57.3781 340.516C57.8631 340.031 58.5209 339.759 59.2068 339.759H82.4827C83.1686 339.759 83.8264 340.031 84.3114 340.516C84.7964 341.001 85.0689 341.659 85.0689 342.345V357.862C85.0689 358.548 84.7964 359.206 84.3114 359.691C83.8264 360.176 83.1686 360.448 82.4827 360.448ZM59.2068 342.345V357.862H82.4827V342.345H59.2068Z" fill="white"/>
<path d="M83.7758 368.207H57.9137C57.5708 368.207 57.2418 368.071 56.9993 367.828C56.7568 367.586 56.6206 367.257 56.6206 366.914C56.6206 366.571 56.7568 366.242 56.9993 365.999C57.2418 365.757 57.5708 365.621 57.9137 365.621H83.7758C84.1187 365.621 84.4476 365.757 84.6901 365.999C84.9326 366.242 85.0689 366.571 85.0689 366.914C85.0689 367.257 84.9326 367.586 84.6901 367.828C84.4476 368.071 84.1187 368.207 83.7758 368.207Z" fill="white"/>
<path d="M70.8447 375.888H57.9137C57.5708 375.888 57.2418 375.752 56.9993 375.509C56.7568 375.267 56.6206 374.938 56.6206 374.595C56.6206 374.252 56.7568 373.923 56.9993 373.681C57.2418 373.438 57.5708 373.302 57.9137 373.302H70.8447C71.1877 373.302 71.5166 373.438 71.7591 373.681C72.0016 373.923 72.1378 374.252 72.1378 374.595C72.1378 374.938 72.0016 375.267 71.7591 375.509C71.5166 375.752 71.1877 375.888 70.8447 375.888Z" fill="white"/>
<path d="M46.2757 365.621H43.6895V368.207H46.2757V365.621Z" fill="white"/>
<path d="M36.9048 416C40.8934 416 43.2585 413.533 43.2585 409.442C43.2585 405.364 40.8934 402.909 36.9943 402.909H32.4687V416H36.9048ZM34.8402 413.948V404.961H36.8601C39.5192 404.961 40.9062 406.444 40.9062 409.442C40.9062 412.452 39.5192 413.948 36.7898 413.948H34.8402ZM47.3117 402.909V416H49.5873V406.987H49.7087L53.3266 415.962H55.0269L58.6448 407.006H58.7662V416H61.0418V402.909H58.1398L54.2535 412.395H54.1001L50.2137 402.909H47.3117ZM72.5385 406.508H74.8205C74.7758 404.296 72.8901 402.73 70.1032 402.73C67.3546 402.73 65.29 404.277 65.2964 406.591C65.2964 408.47 66.6323 409.55 68.7864 410.107L70.2758 410.49C71.6884 410.848 72.6216 411.289 72.628 412.305C72.6216 413.424 71.5606 414.172 70.0137 414.172C68.5307 414.172 67.3802 413.507 67.2843 412.133H64.9512C65.0471 414.734 66.9839 416.198 70.0329 416.198C73.1714 416.198 74.9931 414.632 74.9995 412.325C74.9931 410.055 73.1202 409.02 71.1515 408.553L69.9242 408.246C68.8503 407.991 67.687 407.537 67.6998 406.444C67.7062 405.46 68.5883 404.737 70.0712 404.737C71.4839 404.737 72.4171 405.396 72.5385 406.508Z" fill="white"/>
</g>
<g filter="url(#filter3_d_1228_1803)">
<path fill-rule="evenodd" clip-rule="evenodd" d="M207 153H157V203C170.807 203 182 214.193 182 228C182 241.807 170.807 253 157 253V303H207C207 289.193 218.193 278 232 278C245.807 278 257 289.193 257 303H307V253C320.807 253 332 241.807 332 228C332 214.193 320.807 203 307 203V153H257C257 139.193 245.807 128 232 128C218.193 128 207 139.193 207 153Z" fill="white"/>
<path d="M216.802 254.897H220.848V266H223.2V254.897H227.246V252.909H216.802V254.897ZM234.254 266.192C235.411 266.192 236.696 265.834 237.61 265.041L238.447 266H240.953L239.035 263.756C239.675 262.9 240.173 261.628 240.173 259.832H238.185C238.185 260.695 237.981 261.468 237.636 262.114L235.245 259.314L236.07 258.707C237.163 257.914 237.808 256.962 237.808 255.722C237.808 254.124 236.549 252.749 234.484 252.749C232.413 252.749 231.052 254.124 231.052 255.984C231.052 257.153 231.64 258.106 232.394 259.039C230.937 260.043 229.94 260.982 229.94 262.523C229.94 264.607 231.576 266.192 234.254 266.192ZM236.351 263.597C235.731 264.044 235.021 264.287 234.324 264.287C233.04 264.287 232.209 263.456 232.209 262.42C232.209 261.967 232.554 261.283 233.423 260.643L233.634 260.49L236.351 263.597ZM234.062 257.901C233.513 257.224 233.116 256.616 233.116 256.016C233.116 255.306 233.679 254.648 234.516 254.648C235.341 254.648 235.846 255.261 235.846 255.824C235.846 256.489 235.488 256.955 234.804 257.396L234.062 257.901ZM245.861 266L246.941 262.772H251.863L252.95 266H255.481L250.866 252.909H247.939L243.33 266H245.861ZM247.581 260.867L249.351 255.594H249.453L251.224 260.867H247.581Z" fill="#9498A9"/>
<path d="M259.092 246.965H242.707H217.449C216.597 246.965 215.754 246.796 214.968 246.468C214.181 246.141 213.468 245.66 212.868 245.055C212.269 244.45 211.795 243.732 211.474 242.943C211.154 242.154 210.993 241.309 211 240.457V178.426C211.006 176.719 211.689 175.085 212.897 173.881C214.106 172.676 215.743 172 217.449 172H252.281C253.156 172 254.022 172.177 254.827 172.521C255.631 172.865 256.358 173.369 256.962 174.001L263.177 180.509C264.323 181.71 264.96 183.308 264.956 184.968V241.148C264.956 242.7 264.34 244.188 263.242 245.286C262.145 246.383 260.656 247 259.104 247L259.092 246.965ZM217.449 174.341C216.91 174.341 216.376 174.447 215.877 174.654C215.379 174.86 214.926 175.163 214.544 175.544C214.163 175.926 213.86 176.378 213.654 176.877C213.447 177.375 213.341 177.909 213.341 178.449V240.481C213.347 241.566 213.783 242.605 214.553 243.371C215.322 244.136 216.364 244.566 217.449 244.566H242.672H259.057C259.989 244.566 260.882 244.196 261.54 243.537C262.199 242.879 262.569 241.986 262.569 241.054V184.875C262.566 183.813 262.145 182.796 261.398 182.042L255.254 175.617C254.869 175.215 254.407 174.896 253.897 174.677C253.386 174.457 252.836 174.343 252.281 174.341H217.449Z" fill="#9498A9"/>
<path d="M228.24 204.772C226.504 204.772 224.807 204.257 223.364 203.292C221.92 202.328 220.795 200.957 220.131 199.353C219.466 197.749 219.292 195.984 219.631 194.281C219.97 192.578 220.806 191.014 222.033 189.786C223.261 188.559 224.825 187.723 226.528 187.384C228.231 187.045 229.996 187.219 231.6 187.884C233.204 188.548 234.575 189.673 235.539 191.117C236.504 192.56 237.019 194.257 237.019 195.993C237.012 198.32 236.086 200.549 234.441 202.194C232.796 203.839 230.567 204.765 228.24 204.772ZM228.24 189.556C226.967 189.556 225.723 189.934 224.664 190.641C223.606 191.348 222.78 192.354 222.293 193.53C221.806 194.706 221.679 196.001 221.927 197.249C222.175 198.498 222.788 199.645 223.689 200.545C224.589 201.446 225.736 202.059 226.985 202.307C228.233 202.555 229.528 202.428 230.704 201.941C231.88 201.453 232.886 200.628 233.593 199.57C234.3 198.511 234.678 197.267 234.678 195.993C234.678 194.286 234 192.649 232.792 191.442C231.585 190.234 229.948 189.556 228.24 189.556Z" fill="#9498A9"/>
<path d="M223.266 201.518L221.417 200.09C222.223 199.061 223.249 198.226 224.419 197.645C225.59 197.063 226.875 196.751 228.182 196.729C229.488 196.708 230.783 196.979 231.972 197.521C233.16 198.064 234.213 198.866 235.052 199.867L233.238 201.354C232.622 200.622 231.851 200.037 230.981 199.641C230.111 199.244 229.163 199.047 228.207 199.062C227.251 199.078 226.311 199.307 225.454 199.731C224.597 200.156 223.846 200.766 223.255 201.518H223.266Z" fill="#9498A9"/>
<path d="M228.322 199.06C227.554 199.06 226.802 198.832 226.163 198.405C225.524 197.978 225.026 197.371 224.732 196.661C224.438 195.951 224.361 195.17 224.511 194.416C224.661 193.662 225.031 192.97 225.575 192.426C226.118 191.883 226.81 191.513 227.564 191.363C228.318 191.213 229.099 191.29 229.809 191.584C230.519 191.878 231.126 192.376 231.553 193.015C231.98 193.654 232.208 194.406 232.208 195.174C232.208 195.684 232.108 196.19 231.912 196.661C231.717 197.133 231.431 197.561 231.07 197.922C230.709 198.283 230.281 198.569 229.809 198.764C229.338 198.959 228.833 199.06 228.322 199.06ZM228.322 193.629C228.017 193.629 227.718 193.72 227.464 193.89C227.21 194.059 227.012 194.301 226.895 194.583C226.778 194.865 226.747 195.176 226.807 195.476C226.867 195.775 227.014 196.05 227.23 196.267C227.446 196.483 227.721 196.63 228.021 196.689C228.321 196.749 228.631 196.718 228.914 196.601C229.196 196.485 229.437 196.286 229.607 196.032C229.777 195.778 229.867 195.48 229.867 195.174C229.867 194.764 229.704 194.371 229.415 194.082C229.125 193.792 228.732 193.629 228.322 193.629Z" fill="#9498A9"/>
<path d="M228.24 231.796C226.504 231.796 224.807 231.282 223.364 230.317C221.92 229.352 220.795 227.982 220.131 226.378C219.466 224.774 219.292 223.009 219.631 221.306C219.97 219.603 220.806 218.039 222.033 216.811C223.261 215.584 224.825 214.748 226.528 214.409C228.231 214.07 229.996 214.244 231.6 214.908C233.204 215.573 234.575 216.698 235.539 218.141C236.504 219.585 237.019 221.282 237.019 223.018C237.015 225.345 236.09 227.576 234.444 229.222C232.799 230.867 230.568 231.793 228.24 231.796ZM228.24 216.581C226.967 216.581 225.723 216.959 224.664 217.666C223.606 218.373 222.78 219.379 222.293 220.555C221.806 221.731 221.679 223.025 221.927 224.274C222.175 225.523 222.788 226.67 223.689 227.57C224.589 228.47 225.736 229.084 226.985 229.332C228.233 229.58 229.528 229.453 230.704 228.966C231.88 228.478 232.886 227.653 233.593 226.595C234.3 225.536 234.678 224.291 234.678 223.018C234.675 221.312 233.995 219.676 232.789 218.47C231.582 217.263 229.947 216.584 228.24 216.581Z" fill="#9498A9"/>
<path d="M223.266 228.554L221.417 227.103C222.223 226.075 223.249 225.239 224.419 224.658C225.59 224.076 226.875 223.764 228.182 223.742C229.488 223.721 230.783 223.992 231.972 224.535C233.16 225.078 234.213 225.879 235.052 226.881L233.238 228.39C232.625 227.655 231.855 227.066 230.984 226.667C230.113 226.268 229.165 226.07 228.207 226.085C227.25 226.101 226.308 226.331 225.451 226.758C224.594 227.185 223.843 227.799 223.255 228.554H223.266Z" fill="#9498A9"/>
<path d="M228.322 226.085C227.554 226.085 226.802 225.857 226.163 225.43C225.524 225.003 225.026 224.396 224.732 223.686C224.438 222.976 224.361 222.195 224.511 221.441C224.661 220.687 225.031 219.995 225.575 219.451C226.118 218.908 226.81 218.538 227.564 218.388C228.318 218.238 229.099 218.315 229.809 218.609C230.519 218.903 231.126 219.401 231.553 220.04C231.98 220.679 232.208 221.43 232.208 222.199C232.208 223.23 231.799 224.218 231.07 224.947C230.341 225.675 229.353 226.085 228.322 226.085ZM228.322 220.654C228.017 220.654 227.718 220.745 227.464 220.914C227.21 221.084 227.012 221.325 226.895 221.608C226.778 221.89 226.747 222.201 226.807 222.5C226.867 222.8 227.014 223.075 227.23 223.291C227.446 223.508 227.721 223.655 228.021 223.714C228.321 223.774 228.631 223.743 228.914 223.626C229.196 223.509 229.437 223.311 229.607 223.057C229.777 222.803 229.867 222.505 229.867 222.199C229.867 221.789 229.704 221.396 229.415 221.107C229.125 220.817 228.732 220.654 228.322 220.654Z" fill="#9498A9"/>
<path d="M241.899 195.993L248.138 202.232L256.295 189.743L248.138 196.754L241.899 195.993Z" fill="#9498A9"/>
<path d="M240.729 223.018L246.967 229.257L255.125 216.78L246.967 223.791L240.729 223.018Z" fill="#9498A9"/>
</g>
<g filter="url(#filter4_d_1228_1803)">
<path fill-rule="evenodd" clip-rule="evenodd" d="M507 152H457V202C470.807 202 482 213.193 482 227C482 240.807 470.807 252 457 252V302H507C507 315.807 518.193 327 532 327C545.807 327 557 315.807 557 302H607V152H557C557 138.193 545.807 127 532 127C518.193 127 507 138.193 507 152Z" fill="#E6ECEC"/>
<g clip-path="url(#clip0_1228_1803)">
<path d="M561.585 227.188C559.608 227.188 557.676 226.599 556.032 225.497C554.389 224.395 553.108 222.828 552.352 220.995C551.595 219.162 551.397 217.145 551.783 215.199C552.168 213.253 553.12 211.466 554.518 210.063C555.916 208.66 557.696 207.705 559.635 207.318C561.574 206.931 563.583 207.129 565.409 207.889C567.235 208.648 568.796 209.934 569.894 211.583C570.992 213.233 571.578 215.172 571.578 217.156C571.575 219.816 570.521 222.365 568.648 224.246C566.774 226.127 564.234 227.184 561.585 227.188ZM561.585 209.469C560.07 209.469 558.589 209.92 557.33 210.764C556.07 211.609 555.088 212.81 554.509 214.214C553.929 215.619 553.777 217.165 554.073 218.656C554.369 220.147 555.098 221.517 556.169 222.592C557.24 223.667 558.605 224.399 560.09 224.696C561.576 224.993 563.116 224.84 564.516 224.259C565.915 223.677 567.111 222.691 567.953 221.427C568.794 220.163 569.243 218.677 569.243 217.156C569.243 215.117 568.437 213.162 567 211.72C565.564 210.279 563.616 209.469 561.585 209.469Z" fill="#9498A9"/>
<path d="M576.12 254H548.661C548.323 254.006 547.988 253.946 547.674 253.822C547.36 253.698 547.073 253.513 546.831 253.278C546.588 253.043 546.393 252.762 546.259 252.452C546.124 252.141 546.051 251.807 546.045 251.469V237.594C546.045 231.102 553.377 225.875 562.39 225.875C571.404 225.875 578.735 231.148 578.735 237.594V251.422C578.736 251.764 578.668 252.104 578.536 252.419C578.404 252.735 578.21 253.022 577.967 253.262C577.723 253.502 577.435 253.691 577.118 253.817C576.801 253.944 576.461 254.006 576.12 254ZM562.39 228.219C554.662 228.219 548.38 232.437 548.38 237.594V251.422C548.38 251.516 548.497 251.609 548.661 251.609H576.12C576.284 251.609 576.4 251.516 576.4 251.422V237.594C576.4 232.437 570.119 228.219 562.39 228.219Z" fill="#9498A9"/>
<path d="M534.825 219.934C532.978 219.934 531.172 219.384 529.636 218.354C528.1 217.323 526.903 215.859 526.196 214.146C525.489 212.433 525.304 210.548 525.665 208.73C526.025 206.911 526.915 205.241 528.221 203.929C529.527 202.618 531.191 201.725 533.003 201.364C534.815 201.002 536.693 201.188 538.4 201.897C540.106 202.607 541.565 203.808 542.591 205.35C543.618 206.892 544.165 208.704 544.165 210.559C544.165 213.045 543.181 215.43 541.43 217.188C539.678 218.946 537.303 219.934 534.825 219.934ZM534.825 203.609C533.44 203.609 532.086 204.022 530.934 204.794C529.782 205.567 528.884 206.665 528.354 207.95C527.823 209.235 527.685 210.648 527.955 212.012C528.225 213.376 528.892 214.629 529.872 215.612C530.852 216.596 532.1 217.265 533.459 217.537C534.818 217.808 536.226 217.669 537.506 217.137C538.786 216.604 539.88 215.703 540.65 214.547C541.42 213.391 541.83 212.031 541.83 210.641C541.83 208.776 541.092 206.987 539.779 205.669C538.465 204.35 536.683 203.609 534.825 203.609Z" fill="#9498A9"/>
<path d="M543.71 244.625H522.859C522.207 244.634 521.579 244.384 521.111 243.93C520.642 243.475 520.373 242.853 520.36 242.199V229.461C520.36 223.437 527.167 218.539 535.538 218.539C542.753 218.539 548.847 222.055 550.365 227.105L548.135 227.785C546.968 223.789 541.632 220.883 535.538 220.883C528.451 220.883 522.695 224.727 522.695 229.461V242.199C522.695 242.199 522.695 242.281 522.859 242.281H543.71V244.625Z" fill="#9498A9"/>
<path d="M510.343 212.563C508.634 212.563 506.964 212.054 505.543 211.101C504.123 210.148 503.015 208.794 502.361 207.209C501.707 205.625 501.536 203.881 501.87 202.199C502.203 200.517 503.026 198.971 504.234 197.759C505.442 196.546 506.982 195.72 508.658 195.385C510.334 195.051 512.071 195.223 513.649 195.879C515.228 196.535 516.577 197.647 517.527 199.073C518.476 200.499 518.983 202.175 518.983 203.891C518.98 206.19 518.068 208.394 516.449 210.019C514.829 211.645 512.634 212.559 510.343 212.563ZM510.343 197.574C509.096 197.574 507.876 197.946 506.839 198.642C505.802 199.337 504.994 200.326 504.517 201.483C504.041 202.64 503.916 203.913 504.161 205.141C504.405 206.369 505.006 207.497 505.889 208.381C506.772 209.266 507.897 209.867 509.12 210.11C510.344 210.353 511.612 210.226 512.764 209.745C513.916 209.265 514.899 208.452 515.591 207.41C516.282 206.367 516.65 205.143 516.648 203.891C516.645 202.214 515.979 200.608 514.797 199.424C513.615 198.239 512.013 197.574 510.343 197.574Z" fill="#9498A9"/>
<path d="M518.025 235.25H499.404C499.092 235.258 498.782 235.203 498.492 235.089C498.202 234.974 497.938 234.803 497.715 234.585C497.492 234.366 497.314 234.105 497.193 233.817C497.072 233.529 497.01 233.219 497.01 232.906V221.188C497.01 215.598 503.291 211.051 511.02 211.051C517.29 211.051 522.835 214.086 524.505 218.422L522.333 219.277C520.991 215.82 516.344 213.418 511.02 213.418C504.587 213.418 499.345 216.934 499.345 221.211V232.906H518.025V235.25Z" fill="#9498A9"/>
</g>
<path d="M498.379 269H506.944V267.012H500.75V263.439H506.452V261.451H500.75V257.897H506.893V255.909H498.379V269ZM511.112 269H513.484V264.206H515.9L518.47 269H521.116L518.284 263.81C519.825 263.19 520.637 261.873 520.637 260.096C520.637 257.597 519.026 255.909 516.022 255.909H511.112V269ZM513.484 262.237V257.891H515.657C517.428 257.891 518.22 258.702 518.22 260.096C518.22 261.489 517.428 262.237 515.67 262.237H513.484ZM524.62 269H526.991V264.577H529.497C532.52 264.577 534.144 262.761 534.144 260.243C534.144 257.744 532.539 255.909 529.529 255.909H524.62V269ZM526.991 262.627V257.891H529.164C530.941 257.891 531.727 258.849 531.727 260.243C531.727 261.636 530.941 262.627 529.177 262.627H526.991Z" fill="#9498A9"/>
</g>
<g filter="url(#filter5_d_1228_1803)">
<path fill-rule="evenodd" clip-rule="evenodd" d="M8 4H158V54C171.807 54 183 65.1929 183 79C183 92.8071 171.807 104 158 104V154H108C108 140.193 96.8071 129 83 129C69.1929 129 58 140.193 58 154H8V4Z" fill="white"/>
<path d="M96.2812 72.5312H34.1719V74.875H96.2812V72.5312Z" fill="#9498A9"/>
<path d="M64.6406 83.7344H62.2969V95.4531H64.6406V83.7344Z" fill="#9498A9"/>
<path d="M79.875 83.7344H77.5312V95.4531H79.875V83.7344Z" fill="#9498A9"/>
<path d="M86.9062 103H54.0938C53.4721 103 52.876 102.753 52.4365 102.314C51.9969 101.874 51.75 101.278 51.75 100.656V99.4844C51.75 97.9304 52.3673 96.44 53.4662 95.3412C54.565 94.2423 56.0554 93.625 57.6094 93.625H83.3906C84.9446 93.625 86.435 94.2423 87.5338 95.3412C88.6327 96.44 89.25 97.9304 89.25 99.4844V100.656C89.25 101.278 89.0031 101.874 88.5635 102.314C88.124 102.753 87.5279 103 86.9062 103ZM57.6094 95.9688C56.677 95.9688 55.7828 96.3391 55.1235 96.9985C54.4641 97.6578 54.0938 98.552 54.0938 99.4844V100.656H86.9062V99.4844C86.9062 98.552 86.5359 97.6578 85.8765 96.9985C85.2172 96.3391 84.323 95.9688 83.3906 95.9688H57.6094Z" fill="#9498A9"/>
<path d="M96.2812 84.25H38.8594C38.0899 84.25 37.328 84.0984 36.6171 83.804C35.9062 83.5095 35.2603 83.0779 34.7162 82.5338C34.1721 81.9897 33.7405 81.3438 33.446 80.6329C33.1516 79.922 33 79.1601 33 78.3906V33.8594C33 32.3054 33.6173 30.815 34.7162 29.7162C35.815 28.6173 37.3054 28 38.8594 28H102.141C103.695 28 105.185 28.6173 106.284 29.7162C107.383 30.815 108 32.3054 108 33.8594V51.4375H105.656V33.8594C105.656 32.927 105.286 32.0328 104.627 31.3735C103.967 30.7141 103.073 30.3438 102.141 30.3438H38.8594C37.927 30.3438 37.0328 30.7141 36.3735 31.3735C35.7141 32.0328 35.3438 32.927 35.3438 33.8594V78.3906C35.3438 79.323 35.7141 80.2172 36.3735 80.8765C37.0328 81.5359 37.927 81.9062 38.8594 81.9062H96.2812V84.25Z" fill="#9498A9"/>
<path d="M70.5 79.5625C71.1472 79.5625 71.6719 79.0378 71.6719 78.3906C71.6719 77.7434 71.1472 77.2188 70.5 77.2188C69.8528 77.2188 69.3281 77.7434 69.3281 78.3906C69.3281 79.0378 69.8528 79.5625 70.5 79.5625Z" fill="#9498A9"/>
<path d="M68.1562 61.9844H47.0625C46.4409 61.9844 45.8448 61.7374 45.4052 61.2979C44.9657 60.8584 44.7188 60.2622 44.7188 59.6406V44.4062C44.7188 43.7846 44.9657 43.1885 45.4052 42.749C45.8448 42.3094 46.4409 42.0625 47.0625 42.0625H68.1562C68.7779 42.0625 69.374 42.3094 69.8135 42.749C70.2531 43.1885 70.5 43.7846 70.5 44.4062V59.6406C70.5 60.2622 70.2531 60.8584 69.8135 61.2979C69.374 61.7374 68.7779 61.9844 68.1562 61.9844ZM47.0625 44.4062V59.6406H68.1562V44.4062H47.0625Z" fill="#9498A9"/>
<path d="M119.719 74.875H105.656C105.035 74.875 104.439 74.6281 103.999 74.1885C103.559 73.749 103.312 73.1529 103.312 72.5312V63.1562C103.312 62.5346 103.559 61.9385 103.999 61.499C104.439 61.0594 105.035 60.8125 105.656 60.8125H119.719C120.34 60.8125 120.936 61.0594 121.376 61.499C121.816 61.9385 122.062 62.5346 122.062 63.1562V72.5312C122.062 73.1529 121.816 73.749 121.376 74.1885C120.936 74.6281 120.34 74.875 119.719 74.875ZM105.656 63.1562V72.5312H119.719V63.1562H105.656Z" fill="#9498A9"/>
<path d="M95.1094 44.4062H76.3594C76.0486 44.4062 75.7505 44.2828 75.5307 44.063C75.311 43.8432 75.1875 43.5452 75.1875 43.2344C75.1875 42.9236 75.311 42.6255 75.5307 42.4057C75.7505 42.186 76.0486 42.0625 76.3594 42.0625H95.1094C95.4202 42.0625 95.7182 42.186 95.938 42.4057C96.1578 42.6255 96.2812 42.9236 96.2812 43.2344C96.2812 43.5452 96.1578 43.8432 95.938 44.063C95.7182 44.2828 95.4202 44.4062 95.1094 44.4062Z" fill="#9498A9"/>
<path d="M95.1094 51.4375H76.3594C76.0486 51.4375 75.7505 51.314 75.5307 51.0943C75.311 50.8745 75.1875 50.5764 75.1875 50.2656C75.1875 49.9548 75.311 49.6568 75.5307 49.437C75.7505 49.2172 76.0486 49.0938 76.3594 49.0938H95.1094C95.4202 49.0938 95.7182 49.2172 95.938 49.437C96.1578 49.6568 96.2812 49.9548 96.2812 50.2656C96.2812 50.5764 96.1578 50.8745 95.938 51.0943C95.7182 51.314 95.4202 51.4375 95.1094 51.4375Z" fill="#9498A9"/>
<path d="M85.7344 58.4688H76.3594C76.0486 58.4688 75.7505 58.3453 75.5307 58.1255C75.311 57.9057 75.1875 57.6077 75.1875 57.2969C75.1875 56.9861 75.311 56.688 75.5307 56.4682C75.7505 56.2485 76.0486 56.125 76.3594 56.125H85.7344C86.0452 56.125 86.3432 56.2485 86.563 56.4682C86.7828 56.688 86.9062 56.9861 86.9062 57.2969C86.9062 57.6077 86.7828 57.9057 86.563 58.1255C86.3432 58.3453 86.0452 58.4688 85.7344 58.4688Z" fill="#9498A9"/>
<path d="M120.891 81.9062H104.484C104.174 81.9062 103.876 81.7828 103.656 81.563C103.436 81.3432 103.312 81.0452 103.312 80.7344C103.312 80.4236 103.436 80.1255 103.656 79.9057C103.876 79.686 104.174 79.5625 104.484 79.5625H120.891C121.201 79.5625 121.499 79.686 121.719 79.9057C121.939 80.1255 122.062 80.4236 122.062 80.7344C122.062 81.0452 121.939 81.3432 121.719 81.563C121.499 81.7828 121.201 81.9062 120.891 81.9062Z" fill="#9498A9"/>
<path d="M111.516 88.9375H104.484C104.174 88.9375 103.876 88.814 103.656 88.5943C103.436 88.3745 103.312 88.0764 103.312 87.7656C103.312 87.4548 103.436 87.1568 103.656 86.937C103.876 86.7172 104.174 86.5938 104.484 86.5938H111.516C111.826 86.5938 112.124 86.7172 112.344 86.937C112.564 87.1568 112.688 87.4548 112.688 87.7656C112.688 88.0764 112.564 88.3745 112.344 88.5943C112.124 88.814 111.826 88.9375 111.516 88.9375Z" fill="#9498A9"/>
<path d="M120.891 103H104.484C102.93 103 101.44 102.383 100.341 101.284C99.2423 100.185 98.625 98.6946 98.625 97.1406V59.6406C98.625 58.0866 99.2423 56.5963 100.341 55.4974C101.44 54.3986 102.93 53.7812 104.484 53.7812H120.891C122.445 53.7812 123.935 54.3986 125.034 55.4974C126.133 56.5963 126.75 58.0866 126.75 59.6406V97.1406C126.75 98.6946 126.133 100.185 125.034 101.284C123.935 102.383 122.445 103 120.891 103ZM104.484 56.125C103.552 56.125 102.658 56.4954 101.998 57.1547C101.339 57.814 100.969 58.7082 100.969 59.6406V97.1406C100.969 98.073 101.339 98.9672 101.998 99.6265C102.658 100.286 103.552 100.656 104.484 100.656H120.891C121.823 100.656 122.717 100.286 123.377 99.6265C124.036 98.9672 124.406 98.073 124.406 97.1406V59.6406C124.406 58.7082 124.036 57.814 123.377 57.1547C122.717 56.4954 121.823 56.125 120.891 56.125H104.484Z" fill="#9498A9"/>
<path d="M111.507 113.326C111.104 110.418 108.867 108.73 105.965 108.73C102.545 108.73 99.9694 111.223 99.9694 115.455C99.9694 119.68 102.513 122.179 105.965 122.179C109.078 122.179 111.143 120.165 111.507 117.666L109.116 117.653C108.816 119.188 107.563 120.05 105.997 120.05C103.875 120.05 102.354 118.459 102.354 115.455C102.354 112.501 103.862 110.859 106.003 110.859C107.595 110.859 108.842 111.76 109.116 113.326H111.507ZM115.479 108.909V122H117.754V112.987H117.876L121.494 121.962H123.194L126.812 113.006H126.933V122H129.209V108.909H126.307L122.42 118.395H122.267L118.381 108.909H115.479ZM140.706 112.508H142.987C142.943 110.296 141.057 108.73 138.27 108.73C135.522 108.73 133.457 110.277 133.463 112.591C133.463 114.47 134.799 115.55 136.953 116.107L138.443 116.49C139.855 116.848 140.789 117.289 140.795 118.305C140.789 119.424 139.728 120.172 138.181 120.172C136.698 120.172 135.547 119.507 135.451 118.133H133.118C133.214 120.734 135.151 122.198 138.2 122.198C141.338 122.198 143.16 120.632 143.166 118.325C143.16 116.055 141.287 115.02 139.318 114.553L138.091 114.246C137.017 113.991 135.854 113.537 135.867 112.444C135.873 111.46 136.755 110.737 138.238 110.737C139.651 110.737 140.584 111.396 140.706 112.508Z" fill="#9498A9"/>
</g>
<g filter="url(#filter6_d_1228_1803)">
<path fill-rule="evenodd" clip-rule="evenodd" d="M307 4H157V54C170.807 54 182 65.1929 182 79C182 92.8071 170.807 104 157 104V154H207C207 140.193 218.193 129 232 129C245.807 129 257 140.193 257 154H307V104C320.807 104 332 92.8071 332 79C332 65.1929 320.807 54 307 54V4Z" fill="#E6ECEC"/>
<path d="M248.797 100H220.672C219.118 100 217.628 99.3827 216.529 98.2838C215.43 97.185 214.812 95.6946 214.812 94.1406V30.8594C214.812 29.3054 215.43 27.815 216.529 26.7162C217.628 25.6173 219.118 25 220.672 25H248.797C250.351 25 251.841 25.6173 252.94 26.7162C254.039 27.815 254.656 29.3054 254.656 30.8594V94.1406C254.656 95.6946 254.039 97.185 252.94 98.2838C251.841 99.3827 250.351 100 248.797 100ZM220.672 27.3438C219.739 27.3438 218.845 27.7141 218.186 28.3735C217.527 29.0328 217.156 29.927 217.156 30.8594V94.1406C217.156 95.073 217.527 95.9672 218.186 96.6265C218.845 97.2859 219.739 97.6562 220.672 97.6562H248.797C249.729 97.6562 250.623 97.2859 251.283 96.6265C251.942 95.9672 252.312 95.073 252.312 94.1406V30.8594C252.312 29.927 251.942 29.0328 251.283 28.3735C250.623 27.7141 249.729 27.3438 248.797 27.3438H220.672Z" fill="#9498A9"/>
<path d="M234.734 66.9063C232.185 66.9063 229.693 66.1502 227.573 64.7338C225.453 63.3174 223.801 61.3041 222.825 58.9487C221.849 56.5932 221.594 54.0013 222.091 51.5008C222.589 49.0003 223.817 46.7034 225.619 44.9006C227.422 43.0978 229.719 41.8701 232.22 41.3727C234.72 40.8753 237.312 41.1306 239.667 42.1062C242.023 43.0819 244.036 44.7341 245.453 46.854C246.869 48.9738 247.625 51.4661 247.625 54.0156C247.625 57.4344 246.267 60.7132 243.849 63.1307C241.432 65.5481 238.153 66.9063 234.734 66.9063ZM234.734 43.4688C232.648 43.4688 230.609 44.0873 228.875 45.2462C227.14 46.4051 225.789 48.0523 224.99 49.9795C224.192 51.9067 223.983 54.0273 224.39 56.0732C224.797 58.1191 225.802 59.9984 227.277 61.4734C228.752 62.9484 230.631 63.9529 232.677 64.3599C234.723 64.7668 236.843 64.5579 238.77 63.7597C240.698 62.9614 242.345 61.6096 243.504 59.8752C244.663 58.1407 245.281 56.1016 245.281 54.0156C245.281 51.2184 244.17 48.5358 242.192 46.5579C240.214 44.5799 237.532 43.4688 234.734 43.4688Z" fill="#9498A9"/>
<path d="M226.437 62.5704L224.598 61.1172C225.783 59.6091 227.289 58.3844 229.007 57.5324C230.726 56.6804 232.612 56.2225 234.53 56.1922C236.448 56.1619 238.348 56.5599 240.092 57.3572C241.837 58.1544 243.381 59.3309 244.613 60.8008L242.809 62.3008C241.8 61.0934 240.534 60.127 239.104 59.4723C237.673 58.8175 236.114 58.4912 234.541 58.517C232.968 58.5428 231.421 58.9203 230.013 59.6216C228.604 60.323 227.371 61.3305 226.402 62.5704H226.437Z" fill="#9498A9"/>
<path d="M234.734 58.5391C233.675 58.5391 232.64 58.225 231.759 57.6365C230.878 57.048 230.192 56.2116 229.787 55.233C229.381 54.2545 229.275 53.1777 229.482 52.1388C229.688 51.0999 230.199 50.1457 230.947 49.3967C231.696 48.6477 232.651 48.1377 233.69 47.931C234.728 47.7244 235.805 47.8304 236.784 48.2358C237.762 48.6411 238.599 49.3276 239.187 50.2083C239.776 51.089 240.09 52.1244 240.09 53.1836C240.087 54.603 239.522 55.9634 238.518 56.9671C237.514 57.9707 236.154 58.536 234.734 58.5391ZM234.734 50.1719C234.139 50.1719 233.556 50.3485 233.061 50.6794C232.566 51.0104 232.18 51.4807 231.952 52.0311C231.724 52.5814 231.664 53.1869 231.781 53.7712C231.897 54.3554 232.184 54.892 232.605 55.3132C233.026 55.7344 233.563 56.0212 234.147 56.1374C234.731 56.2537 235.337 56.194 235.887 55.9661C236.437 55.7381 236.908 55.3521 237.239 54.8568C237.569 54.3615 237.746 53.7793 237.746 53.1836C237.746 52.3848 237.429 51.6188 236.864 51.054C236.299 50.4892 235.533 50.1719 234.734 50.1719Z" fill="#9498A9"/>
<path d="M253.484 34.375H215.984V36.7188H253.484V34.375Z" fill="#9498A9"/>
<path d="M253.484 88.2812H215.984V90.625H253.484V88.2812Z" fill="#9498A9"/>
<path d="M225.359 83.5938C225.049 83.5938 224.751 83.4703 224.531 83.2505C224.311 83.0307 224.188 82.7327 224.188 82.4219V77.7344C224.188 77.4236 224.311 77.1255 224.531 76.9057C224.751 76.686 225.049 76.5625 225.359 76.5625C225.67 76.5625 225.968 76.686 226.188 76.9057C226.408 77.1255 226.531 77.4236 226.531 77.7344V82.4219C226.531 82.7327 226.408 83.0307 226.188 83.2505C225.968 83.4703 225.67 83.5938 225.359 83.5938Z" fill="#9498A9"/>
<path d="M227.422 82.4219C227.225 82.4267 227.031 82.3781 226.86 82.2813L222.746 80.043C222.596 79.9789 222.461 79.8843 222.35 79.765C222.239 79.6457 222.153 79.5046 222.1 79.3505C222.046 79.1964 222.025 79.0329 222.039 78.8703C222.052 78.7077 222.099 78.5496 222.177 78.4062C222.254 78.2629 222.361 78.1373 222.491 78.0376C222.62 77.938 222.768 77.8664 222.927 77.8274C223.085 77.7884 223.25 77.7829 223.41 77.8113C223.571 77.8397 223.724 77.9013 223.86 77.9922L227.973 80.2305C228.196 80.3569 228.372 80.5531 228.473 80.7889C228.574 81.0247 228.595 81.2872 228.532 81.536C228.47 81.7848 228.327 82.0062 228.127 82.1663C227.926 82.3263 227.679 82.4161 227.422 82.4219Z" fill="#9498A9"/>
<path d="M223.297 82.4219C223.04 82.4161 222.793 82.3263 222.592 82.1663C222.392 82.0062 222.249 81.7848 222.187 81.536C222.124 81.2872 222.145 81.0247 222.246 80.7889C222.347 80.5531 222.523 80.3569 222.746 80.2305L226.859 77.9922C226.995 77.9013 227.148 77.8397 227.308 77.8113C227.469 77.7829 227.634 77.7884 227.792 77.8274C227.951 77.8664 228.099 77.938 228.228 78.0376C228.357 78.1373 228.464 78.2629 228.542 78.4062C228.62 78.5496 228.667 78.7077 228.68 78.8703C228.693 79.0329 228.673 79.1964 228.619 79.3505C228.565 79.5046 228.48 79.6457 228.369 79.765C228.258 79.8843 228.123 79.9789 227.973 80.043L223.859 82.2813C223.688 82.3781 223.494 82.4267 223.297 82.4219Z" fill="#9498A9"/>
<path d="M234.734 83.5938C234.424 83.5938 234.126 83.4703 233.906 83.2505C233.686 83.0307 233.562 82.7327 233.562 82.4219V77.7344C233.562 77.4236 233.686 77.1255 233.906 76.9057C234.126 76.686 234.424 76.5625 234.734 76.5625C235.045 76.5625 235.343 76.686 235.563 76.9057C235.783 77.1255 235.906 77.4236 235.906 77.7344V82.4219C235.906 82.7327 235.783 83.0307 235.563 83.2505C235.343 83.4703 235.045 83.5938 234.734 83.5938Z" fill="#9498A9"/>
<path d="M236.797 82.4219C236.6 82.4267 236.406 82.3781 236.235 82.2813L232.121 80.043C231.971 79.9789 231.836 79.8843 231.725 79.765C231.614 79.6457 231.528 79.5046 231.475 79.3505C231.421 79.1964 231.4 79.0329 231.414 78.8703C231.427 78.7077 231.474 78.5496 231.552 78.4062C231.629 78.2629 231.736 78.1373 231.866 78.0376C231.995 77.938 232.143 77.8664 232.302 77.8274C232.46 77.7884 232.625 77.7829 232.785 77.8113C232.946 77.8397 233.099 77.9013 233.235 77.9922L237.348 80.2305C237.571 80.3569 237.747 80.5531 237.848 80.7889C237.949 81.0247 237.97 81.2872 237.907 81.536C237.845 81.7848 237.702 82.0062 237.502 82.1663C237.301 82.3263 237.054 82.4161 236.797 82.4219Z" fill="#9498A9"/>
<path d="M232.672 82.4219C232.415 82.4161 232.168 82.3263 231.967 82.1663C231.767 82.0062 231.624 81.7848 231.562 81.536C231.499 81.2872 231.52 81.0247 231.621 80.7889C231.722 80.5531 231.898 80.3569 232.121 80.2305L236.234 77.9922C236.37 77.9013 236.523 77.8397 236.683 77.8113C236.844 77.7829 237.009 77.7884 237.167 77.8274C237.326 77.8664 237.474 77.938 237.603 78.0376C237.732 78.1373 237.839 78.2629 237.917 78.4062C237.995 78.5496 238.042 78.7077 238.055 78.8703C238.068 79.0329 238.048 79.1964 237.994 79.3505C237.94 79.5046 237.855 79.6457 237.744 79.765C237.633 79.8843 237.498 79.9789 237.348 80.043L233.234 82.2813C233.063 82.3781 232.869 82.4267 232.672 82.4219Z" fill="#9498A9"/>
<path d="M244.109 83.5938C243.799 83.5938 243.501 83.4703 243.281 83.2505C243.061 83.0307 242.938 82.7327 242.938 82.4219V77.7344C242.938 77.4236 243.061 77.1255 243.281 76.9057C243.501 76.686 243.799 76.5625 244.109 76.5625C244.42 76.5625 244.718 76.686 244.938 76.9057C245.158 77.1255 245.281 77.4236 245.281 77.7344V82.4219C245.281 82.7327 245.158 83.0307 244.938 83.2505C244.718 83.4703 244.42 83.5938 244.109 83.5938Z" fill="#9498A9"/>
<path d="M246.172 82.4219C245.975 82.4267 245.781 82.3781 245.61 82.2813L241.496 80.043C241.346 79.9789 241.211 79.8843 241.1 79.765C240.989 79.6457 240.903 79.5046 240.85 79.3505C240.796 79.1964 240.775 79.0329 240.789 78.8703C240.802 78.7077 240.849 78.5496 240.927 78.4062C241.004 78.2629 241.111 78.1373 241.241 78.0376C241.37 77.938 241.518 77.8664 241.677 77.8274C241.835 77.7884 242 77.7829 242.16 77.8113C242.321 77.8397 242.474 77.9013 242.61 77.9922L246.723 80.2305C246.946 80.3569 247.122 80.5531 247.223 80.7889C247.324 81.0247 247.345 81.2872 247.282 81.536C247.22 81.7848 247.077 82.0062 246.877 82.1663C246.676 82.3263 246.429 82.4161 246.172 82.4219Z" fill="#9498A9"/>
<path d="M242.047 82.4219C241.79 82.4161 241.543 82.3263 241.342 82.1663C241.142 82.0062 240.999 81.7848 240.937 81.536C240.874 81.2872 240.895 81.0247 240.996 80.7889C241.097 80.5531 241.273 80.3569 241.496 80.2305L245.609 77.9922C245.745 77.9013 245.898 77.8397 246.058 77.8113C246.219 77.7829 246.384 77.7884 246.542 77.8274C246.701 77.8664 246.849 77.938 246.978 78.0376C247.107 78.1373 247.214 78.2629 247.292 78.4062C247.37 78.5496 247.417 78.7077 247.43 78.8703C247.443 79.0329 247.423 79.1964 247.369 79.3505C247.315 79.5046 247.23 79.6457 247.119 79.765C247.008 79.8843 246.873 79.9789 246.723 80.043L242.609 82.2813C242.438 82.3781 242.244 82.4267 242.047 82.4219Z" fill="#9498A9"/>
<path d="M204.266 48.4375C204.111 48.4384 203.958 48.4088 203.816 48.3505C203.673 48.2922 203.543 48.2062 203.434 48.0976L191.715 36.3789C191.494 36.1582 191.37 35.8589 191.37 35.5468C191.37 35.2348 191.494 34.9355 191.715 34.7148C191.935 34.4941 192.235 34.3702 192.547 34.3702C192.859 34.3702 193.158 34.4941 193.379 34.7148L205.098 46.4336C205.207 46.5425 205.295 46.6721 205.354 46.8149C205.414 46.9577 205.444 47.1109 205.444 47.2656C205.444 47.4203 205.414 47.5735 205.354 47.7163C205.295 47.8591 205.207 47.9887 205.098 48.0976C204.988 48.2062 204.858 48.2922 204.715 48.3505C204.573 48.4088 204.42 48.4384 204.266 48.4375Z" fill="#9498A9"/>
<path d="M204.266 48.4375H197.234C196.924 48.4375 196.626 48.314 196.406 48.0943C196.186 47.8745 196.062 47.5764 196.062 47.2656C196.062 46.9548 196.186 46.6568 196.406 46.437C196.626 46.2172 196.924 46.0938 197.234 46.0938H203.094V40.2344C203.094 39.9236 203.217 39.6255 203.437 39.4057C203.657 39.186 203.955 39.0625 204.266 39.0625C204.576 39.0625 204.874 39.186 205.094 39.4057C205.314 39.6255 205.438 39.9236 205.438 40.2344V47.2656C205.438 47.5764 205.314 47.8745 205.094 48.0943C204.874 48.314 204.576 48.4375 204.266 48.4375Z" fill="#9498A9"/>
<path d="M192.547 90.625C192.393 90.6259 192.24 90.5963 192.097 90.538C191.954 90.4797 191.824 90.3937 191.715 90.2851C191.605 90.1762 191.518 90.0466 191.458 89.9038C191.399 89.761 191.368 89.6078 191.368 89.4531C191.368 89.2984 191.399 89.1452 191.458 89.0024C191.518 88.8596 191.605 88.73 191.715 88.6211L203.434 76.9023C203.654 76.6817 203.954 76.5577 204.266 76.5577C204.578 76.5577 204.877 76.6817 205.098 76.9023C205.318 77.123 205.442 77.4223 205.442 77.7343C205.442 78.0464 205.318 78.3457 205.098 78.5664L193.379 90.2851C193.269 90.3937 193.14 90.4797 192.997 90.538C192.854 90.5963 192.701 90.6259 192.547 90.625Z" fill="#9498A9"/>
<path d="M204.266 85.9375C203.955 85.9375 203.657 85.814 203.437 85.5943C203.217 85.3745 203.094 85.0764 203.094 84.7656V78.9062H197.234C196.924 78.9062 196.626 78.7828 196.406 78.563C196.186 78.3432 196.062 78.0452 196.062 77.7344C196.062 77.4236 196.186 77.1255 196.406 76.9057C196.626 76.686 196.924 76.5625 197.234 76.5625H204.266C204.576 76.5625 204.874 76.686 205.094 76.9057C205.314 77.1255 205.438 77.4236 205.438 77.7344V84.7656C205.438 85.0764 205.314 85.3745 205.094 85.5943C204.874 85.814 204.576 85.9375 204.266 85.9375Z" fill="#9498A9"/>
<path d="M265.203 48.4375C265.049 48.4384 264.896 48.4088 264.753 48.3505C264.61 48.2922 264.481 48.2062 264.371 48.0976C264.261 47.9887 264.174 47.8591 264.115 47.7163C264.055 47.5735 264.024 47.4203 264.024 47.2656C264.024 47.1109 264.055 46.9577 264.115 46.8149C264.174 46.6721 264.261 46.5425 264.371 46.4336L276.09 34.7148C276.31 34.4941 276.61 34.3702 276.922 34.3702C277.234 34.3702 277.533 34.4941 277.754 34.7148C277.975 34.9355 278.099 35.2348 278.099 35.5468C278.099 35.8589 277.975 36.1582 277.754 36.3789L266.035 48.0976C265.926 48.2062 265.796 48.2922 265.653 48.3505C265.51 48.4088 265.357 48.4384 265.203 48.4375Z" fill="#9498A9"/>
<path d="M272.234 48.4375H265.203C264.892 48.4375 264.594 48.314 264.374 48.0943C264.155 47.8745 264.031 47.5764 264.031 47.2656V40.2344C264.031 39.9236 264.155 39.6255 264.374 39.4057C264.594 39.186 264.892 39.0625 265.203 39.0625C265.514 39.0625 265.812 39.186 266.032 39.4057C266.252 39.6255 266.375 39.9236 266.375 40.2344V46.0938H272.234C272.545 46.0938 272.843 46.2172 273.063 46.437C273.283 46.6568 273.406 46.9548 273.406 47.2656C273.406 47.5764 273.283 47.8745 273.063 48.0943C272.843 48.314 272.545 48.4375 272.234 48.4375Z" fill="#9498A9"/>
<path d="M276.922 90.625C276.768 90.6259 276.615 90.5963 276.472 90.538C276.329 90.4797 276.199 90.3937 276.09 90.2851L264.371 78.5664C264.15 78.3457 264.026 78.0464 264.026 77.7343C264.026 77.4223 264.15 77.123 264.371 76.9023C264.592 76.6817 264.891 76.5577 265.203 76.5577C265.515 76.5577 265.814 76.6817 266.035 76.9023L277.754 88.6211C277.864 88.73 277.951 88.8596 278.01 89.0024C278.07 89.1452 278.1 89.2984 278.1 89.4531C278.1 89.6078 278.07 89.761 278.01 89.9038C277.951 90.0466 277.864 90.1762 277.754 90.2851C277.644 90.3937 277.514 90.4797 277.372 90.538C277.229 90.5963 277.076 90.6259 276.922 90.625Z" fill="#9498A9"/>
<path d="M265.203 85.9375C264.892 85.9375 264.594 85.814 264.374 85.5943C264.155 85.3745 264.031 85.0764 264.031 84.7656V77.7344C264.031 77.4236 264.155 77.1255 264.374 76.9057C264.594 76.686 264.892 76.5625 265.203 76.5625H272.234C272.545 76.5625 272.843 76.686 273.063 76.9057C273.283 77.1255 273.406 77.4236 273.406 77.7344C273.406 78.0452 273.283 78.3432 273.063 78.563C272.843 78.7828 272.545 78.9062 272.234 78.9062H266.375V84.7656C266.375 85.0764 266.252 85.3745 266.032 85.5943C265.812 85.814 265.514 85.9375 265.203 85.9375Z" fill="#9498A9"/>
<path d="M247.498 111.326C247.096 108.418 244.858 106.73 241.956 106.73C238.537 106.73 235.961 109.223 235.961 113.455C235.961 117.68 238.505 120.179 241.956 120.179C245.069 120.179 247.134 118.165 247.498 115.666L245.108 115.653C244.807 117.188 243.554 118.05 241.988 118.05C239.866 118.05 238.345 116.459 238.345 113.455C238.345 110.501 239.853 108.859 241.995 108.859C243.586 108.859 244.833 109.76 245.108 111.326H247.498ZM251.47 120H253.841V115.206H256.258L258.827 120H261.473L258.642 114.81C260.182 114.19 260.994 112.873 260.994 111.096C260.994 108.597 259.383 106.909 256.379 106.909H251.47V120ZM253.841 113.237V108.891H256.015C257.785 108.891 258.578 109.702 258.578 111.096C258.578 112.489 257.785 113.237 256.027 113.237H253.841ZM264.977 106.909V120H267.253V110.987H267.374L270.992 119.962H272.692L276.31 111.006H276.431V120H278.707V106.909H275.805L271.919 116.395H271.765L267.879 106.909H264.977Z" fill="#9498A9"/>
</g>
<g filter="url(#filter7_d_1228_1803)">
<path fill-rule="evenodd" clip-rule="evenodd" d="M83 278C69.1929 278 58 289.193 58 303L8 303L7.99999 153L58 153C58 139.193 69.1929 128 83 128C96.8071 128 108 139.193 108 153L158 153L158 203C171.807 203 183 214.193 183 228C183 241.807 171.807 253 158 253L158 303L108 303C108 289.193 96.8071 278 83 278Z" fill="#E6ECEC"/>
<g clip-path="url(#clip1_1228_1803)">
<path d="M65.4224 195.336L71.6685 201.582L79.8364 189.09L71.6685 196.109L65.4224 195.336Z" fill="#9498A9"/>
<path d="M65.4224 231.664L71.6685 237.91L79.8364 225.418L71.6685 232.437L65.4224 231.664Z" fill="#9498A9"/>
<path d="M75.5 219.594C75.3449 219.593 75.1915 219.562 75.0487 219.501C74.9059 219.441 74.7765 219.353 74.6679 219.242L67.6367 212.211C67.4184 211.991 67.2959 211.694 67.2959 211.385C67.2959 211.075 67.4184 210.778 67.6367 210.559C67.7456 210.449 67.8752 210.362 68.018 210.302C68.1608 210.243 68.314 210.212 68.4687 210.212C68.6234 210.212 68.7766 210.243 68.9194 210.302C69.0622 210.362 69.1918 210.449 69.3007 210.559L76.332 217.59C76.4973 217.754 76.61 217.963 76.6557 218.191C76.7015 218.42 76.6783 218.656 76.5891 218.871C76.4998 219.086 76.3485 219.27 76.1546 219.398C75.9606 219.527 75.7327 219.595 75.5 219.594Z" fill="#9498A9"/>
<path d="M68.4687 219.594C68.236 219.595 68.0081 219.527 67.8141 219.398C67.6201 219.27 67.4689 219.086 67.3796 218.871C67.2904 218.656 67.2671 218.42 67.3129 218.191C67.3587 217.963 67.4714 217.754 67.6367 217.59L74.668 210.559C74.7769 210.449 74.9065 210.362 75.0493 210.302C75.1921 210.243 75.3453 210.212 75.5 210.212C75.6547 210.212 75.8079 210.243 75.9507 210.302C76.0935 210.362 76.2231 210.449 76.332 210.559C76.5503 210.778 76.6728 211.075 76.6728 211.385C76.6728 211.694 76.5503 211.991 76.332 212.211L69.3008 219.242C69.1922 219.353 69.0628 219.441 68.92 219.501C68.7772 219.562 68.6238 219.593 68.4687 219.594Z" fill="#9498A9"/>
<path d="M102.453 197.328H83.7031C83.3923 197.328 83.0943 197.205 82.8745 196.985C82.6547 196.765 82.5312 196.467 82.5312 196.156C82.5312 195.845 82.6547 195.547 82.8745 195.328C83.0943 195.108 83.3923 194.984 83.7031 194.984H102.453C102.764 194.984 103.062 195.108 103.282 195.328C103.502 195.547 103.625 195.845 103.625 196.156C103.625 196.467 103.502 196.765 103.282 196.985C103.062 197.205 102.764 197.328 102.453 197.328Z" fill="#9498A9"/>
<path d="M102.453 216.078H83.7031C83.3923 216.078 83.0943 215.955 82.8745 215.735C82.6547 215.515 82.5312 215.217 82.5312 214.906C82.5312 214.595 82.6547 214.297 82.8745 214.078C83.0943 213.858 83.3923 213.734 83.7031 213.734H102.453C102.764 213.734 103.062 213.858 103.282 214.078C103.502 214.297 103.625 214.595 103.625 214.906C103.625 215.217 103.502 215.515 103.282 215.735C103.062 215.955 102.764 216.078 102.453 216.078Z" fill="#9498A9"/>
<path d="M102.453 234.828H83.7031C83.3923 234.828 83.0943 234.705 82.8745 234.485C82.6547 234.265 82.5312 233.967 82.5312 233.656C82.5312 233.345 82.6547 233.047 82.8745 232.828C83.0943 232.608 83.3923 232.484 83.7031 232.484H102.453C102.764 232.484 103.062 232.608 103.282 232.828C103.502 233.047 103.625 233.345 103.625 233.656C103.625 233.967 103.502 234.265 103.282 234.485C103.062 234.705 102.764 234.828 102.453 234.828Z" fill="#9498A9"/>
<path d="M107.246 251.059H90.8401H65.551C64.6981 251.059 63.8537 250.89 63.0664 250.562C62.2792 250.233 61.5648 249.753 60.9644 249.147C60.364 248.541 59.8896 247.822 59.5686 247.032C59.2476 246.242 59.0863 245.396 59.094 244.543V182.434C59.1002 180.725 59.7832 179.089 60.9935 177.883C62.2038 176.677 63.8426 176 65.551 176H100.426C101.302 176 102.169 176.177 102.975 176.522C103.781 176.866 104.508 177.37 105.114 178.004L111.336 184.52C112.483 185.722 113.122 187.322 113.117 188.984V245.234C113.117 246.788 112.5 248.279 111.401 249.378C110.302 250.476 108.812 251.094 107.258 251.094L107.246 251.059ZM65.551 178.344C65.0109 178.344 64.476 178.45 63.977 178.657C63.4779 178.864 63.0245 179.167 62.6425 179.549C62.2606 179.93 61.9576 180.384 61.7509 180.883C61.5442 181.382 61.4378 181.917 61.4378 182.457V244.566C61.444 245.653 61.8801 246.693 62.6508 247.46C63.4215 248.226 64.4642 248.656 65.551 248.656H90.805H107.211C108.144 248.656 109.038 248.286 109.697 247.627C110.356 246.967 110.727 246.073 110.727 245.141V188.891C110.724 187.828 110.303 186.809 109.555 186.055L103.403 179.621C103.017 179.219 102.556 178.899 102.044 178.68C101.533 178.46 100.982 178.346 100.426 178.344H65.551Z" fill="#9498A9"/>
</g>
<path d="M101.319 264.455C101.319 260.223 98.7361 257.73 95.3036 257.73C91.8647 257.73 89.2887 260.223 89.2887 264.455C89.2887 268.68 91.8647 271.179 95.3036 271.179C98.7361 271.179 101.319 268.686 101.319 264.455ZM98.9343 264.455C98.9343 267.433 97.4385 269.05 95.3036 269.05C93.1751 269.05 91.6729 267.433 91.6729 264.455C91.6729 261.476 93.1751 259.859 95.3036 259.859C97.4385 259.859 98.9343 261.476 98.9343 264.455ZM106.339 271L107.419 267.772H112.341L113.427 271H115.959L111.343 257.909H108.416L103.807 271H106.339ZM108.058 265.867L109.829 260.594H109.931L111.701 265.867H108.058ZM126.386 261.508H128.668C128.623 259.296 126.738 257.73 123.951 257.73C121.202 257.73 119.138 259.277 119.144 261.591C119.144 263.47 120.48 264.55 122.634 265.107L124.123 265.49C125.536 265.848 126.469 266.289 126.476 267.305C126.469 268.424 125.408 269.172 123.861 269.172C122.378 269.172 121.228 268.507 121.132 267.133H118.799C118.895 269.734 120.832 271.198 123.881 271.198C127.019 271.198 128.841 269.632 128.847 267.325C128.841 265.055 126.968 264.02 124.999 263.553L123.772 263.246C122.698 262.991 121.535 262.537 121.547 261.444C121.554 260.46 122.436 259.737 123.919 259.737C125.332 259.737 126.265 260.396 126.386 261.508Z" fill="#9498A9"/>
</g>
<g filter="url(#filter8_d_1228_1803)">
<path fill-rule="evenodd" clip-rule="evenodd" d="M307 450L457 450L457 400C443.193 400 432 388.807 432 375C432 361.193 443.193 350 457 350L457 300L407 300C407 313.807 395.807 325 382 325C368.193 325 357 313.807 357 300L307 300L307 350C293.193 350 282 361.193 282 375C282 388.807 293.193 400 307 400L307 450Z" fill="white"/>
<path d="M367.484 393.332C367.484 390.508 365.187 388.211 362.363 388.211H352.121C349.297 388.211 347 390.508 347 393.332C347 394.824 347.642 396.168 348.663 397.105C347.642 398.042 347 399.386 347 400.878C347 403.702 349.297 405.999 352.121 405.999H362.363C365.187 405.999 367.484 403.702 367.484 400.878C367.484 399.386 366.842 398.042 365.821 397.105C366.842 396.168 367.484 394.824 367.484 393.332ZM364.789 400.878C364.789 402.216 363.7 403.304 362.363 403.304H352.121C350.783 403.304 349.695 402.216 349.695 400.878C349.695 399.541 350.783 398.453 352.121 398.453H362.363C363.701 398.453 364.789 399.541 364.789 400.878ZM352.121 395.757C350.783 395.757 349.695 394.669 349.695 393.331C349.695 391.994 350.783 390.906 352.121 390.906H362.363C363.701 390.906 364.789 391.994 364.789 393.331C364.789 394.669 363.701 395.757 362.363 395.757H352.121Z" fill="#9498A9"/>
<path d="M391.759 385.785C391.759 382.961 389.462 380.664 386.638 380.664H376.396C373.572 380.664 371.275 382.961 371.275 385.785C371.275 387.277 371.917 388.621 372.938 389.558C371.917 390.495 371.275 391.84 371.275 393.332C371.275 394.823 371.917 396.168 372.938 397.105C371.917 398.042 371.275 399.386 371.275 400.878C371.275 403.702 373.572 405.999 376.396 405.999H386.638C389.462 405.999 391.759 403.702 391.759 400.878C391.759 399.386 391.117 398.042 390.096 397.105C391.117 396.168 391.759 394.823 391.759 393.332C391.759 391.84 391.117 390.495 390.096 389.558C391.117 388.622 391.759 387.277 391.759 385.785ZM389.064 400.878C389.064 402.216 387.975 403.304 386.638 403.304H376.396C375.058 403.304 373.97 402.216 373.97 400.878C373.97 399.541 375.058 398.453 376.396 398.453H386.638C387.975 398.453 389.064 399.541 389.064 400.878ZM389.064 393.332C389.064 394.669 387.975 395.757 386.638 395.757H376.396C375.058 395.757 373.97 394.669 373.97 393.332C373.97 391.994 375.058 390.906 376.396 390.906H386.638C387.975 390.906 389.064 391.994 389.064 393.332ZM376.396 388.211C375.058 388.211 373.97 387.122 373.97 385.785C373.97 384.447 375.058 383.359 376.396 383.359H386.638C387.975 383.359 389.064 384.447 389.064 385.785C389.064 387.122 387.975 388.211 386.638 388.211H376.396Z" fill="#9498A9"/>
<path d="M416 385.785C416 384.293 415.358 382.948 414.336 382.012C415.358 381.075 416 379.73 416 378.238C416 375.414 413.702 373.117 410.879 373.117H400.637C397.813 373.117 395.516 375.415 395.516 378.238C395.516 379.73 396.157 381.075 397.179 382.011C396.157 382.948 395.516 384.293 395.516 385.785C395.516 387.277 396.157 388.621 397.179 389.558C396.157 390.495 395.516 391.839 395.516 393.331C395.516 394.823 396.157 396.168 397.179 397.105C396.157 398.042 395.516 399.386 395.516 400.878C395.516 403.702 397.813 405.999 400.637 405.999H410.879C413.702 405.999 416 403.702 416 400.878C416 399.386 415.358 398.041 414.336 397.105C415.358 396.168 416 394.823 416 393.331C416 391.839 415.358 390.495 414.336 389.558C415.358 388.622 416 387.277 416 385.785ZM398.211 378.238C398.211 376.901 399.299 375.812 400.637 375.812H410.879C412.216 375.812 413.305 376.901 413.305 378.238C413.305 379.576 412.216 380.664 410.879 380.664H400.637C399.299 380.664 398.211 379.576 398.211 378.238ZM413.304 400.878C413.304 402.216 412.216 403.304 410.879 403.304H400.636C399.299 403.304 398.211 402.216 398.211 400.878C398.211 399.541 399.299 398.453 400.636 398.453H410.879C412.216 398.453 413.304 399.541 413.304 400.878ZM413.304 393.332C413.304 394.669 412.216 395.757 410.879 395.757H400.636C399.299 395.757 398.211 394.669 398.211 393.332C398.211 391.994 399.299 390.906 400.636 390.906H410.879C412.216 390.906 413.304 391.994 413.304 393.332ZM400.637 388.211C399.299 388.211 398.211 387.122 398.211 385.785C398.211 384.447 399.299 383.359 400.637 383.359H410.879C412.216 383.359 413.304 384.447 413.304 385.785C413.304 387.122 412.216 388.211 410.879 388.211H400.637Z" fill="#9498A9"/>
<path d="M348.348 377.909C348.702 377.909 349.05 377.766 349.3 377.516C349.551 377.265 349.695 376.917 349.695 376.562C349.695 376.207 349.551 375.86 349.3 375.609C349.05 375.358 348.702 375.214 348.348 375.214C347.993 375.214 347.646 375.358 347.395 375.609C347.144 375.86 347 376.207 347 376.562C347 376.917 347.144 377.264 347.395 377.516C347.646 377.766 347.993 377.909 348.348 377.909Z" fill="#9498A9"/>
<path d="M378.349 374.684L380.63 376.959C381.157 377.484 382.009 377.483 382.535 376.957C386.356 373.136 403.876 355.613 408.344 351.143L410.729 353.528C411.079 353.878 411.593 354.008 412.067 353.867C412.542 353.725 412.9 353.335 413.002 352.851L415.97 338.626C416.063 338.181 415.925 337.719 415.604 337.398C415.282 337.076 414.821 336.939 414.376 337.031L400.151 340C399.666 340.101 399.276 340.46 399.135 340.934C398.993 341.409 399.124 341.922 399.474 342.272L401.863 344.662C393.971 352.559 386.547 359.988 381.578 364.954L370.768 354.144C370.516 353.891 370.173 353.749 369.815 353.749C369.458 353.749 369.115 353.891 368.862 354.144L350.826 372.18C350.3 372.706 350.3 373.56 350.826 374.086C351.352 374.612 352.206 374.612 352.732 374.086L369.815 357.002L380.624 367.812C381.15 368.338 382.003 368.338 382.53 367.812C387.659 362.688 395.954 354.388 404.722 345.614C405.248 345.088 405.248 344.235 404.722 343.708L403.142 342.129L412.911 340.09L410.872 349.859L409.297 348.284C409.044 348.031 408.701 347.889 408.344 347.889C407.986 347.889 407.643 348.031 407.391 348.284C405.965 349.711 387.347 368.333 381.58 374.1L380.249 372.772C380.224 372.747 379.492 372.016 370.768 363.292C370.515 363.039 370.173 362.897 369.815 362.897C369.458 362.897 369.115 363.039 368.862 363.292L347.395 384.76C346.868 385.286 346.868 386.139 347.395 386.665C347.658 386.929 348.003 387.06 348.348 387.06C348.692 387.06 349.037 386.928 349.301 386.665L369.815 366.151C378.334 374.669 378.341 374.677 378.349 374.684Z" fill="#9498A9"/>
<path d="M359.334 417.909V431H361.61V421.987H361.731L365.349 430.962H367.049L370.667 422.006H370.789V431H373.064V417.909H370.162L366.276 427.395H366.122L362.236 417.909H359.334ZM377.446 417.909V431H379.722V421.987H379.843L383.461 430.962H385.162L388.78 422.006H388.901V431H391.177V417.909H388.275L384.388 427.395H384.235L380.348 417.909H377.446ZM402.673 421.508H404.955C404.911 419.296 403.025 417.73 400.238 417.73C397.489 417.73 395.425 419.277 395.431 421.591C395.431 423.47 396.767 424.55 398.921 425.107L400.411 425.49C401.823 425.848 402.756 426.289 402.763 427.305C402.756 428.424 401.695 429.172 400.148 429.172C398.666 429.172 397.515 428.507 397.419 427.133H395.086C395.182 429.734 397.119 431.198 400.168 431.198C403.306 431.198 405.128 429.632 405.134 427.325C405.128 425.055 403.255 424.02 401.286 423.553L400.059 423.246C398.985 422.991 397.822 422.537 397.835 421.444C397.841 420.46 398.723 419.737 400.206 419.737C401.619 419.737 402.552 420.396 402.673 421.508Z" fill="#9498A9"/>
</g>
<g filter="url(#filter9_d_1228_1803)">
<path fill-rule="evenodd" clip-rule="evenodd" d="M382 178C395.807 178 407 166.807 407 153L457 153V203C470.807 203 482 214.193 482 228C482 241.807 470.807 253 457 253V303H407C407 316.807 395.807 328 382 328C368.193 328 357 316.807 357 303H307V253C320.807 253 332 241.807 332 228C332 214.193 320.807 203 307 203V153H357C357 166.807 368.193 178 382 178Z" fill="#96C0D0"/>
<path d="M407.672 207.062H379.547C379.236 207.062 378.938 206.939 378.718 206.719C378.498 206.499 378.375 206.201 378.375 205.891C378.375 205.58 378.498 205.282 378.718 205.062C378.938 204.842 379.236 204.719 379.547 204.719H407.672C407.983 204.719 408.281 204.842 408.501 205.062C408.72 205.282 408.844 205.58 408.844 205.891C408.844 206.201 408.72 206.499 408.501 206.719C408.281 206.939 407.983 207.062 407.672 207.062Z" fill="white"/>
<path d="M407.672 214.094H379.547C379.236 214.094 378.938 213.97 378.718 213.751C378.498 213.531 378.375 213.233 378.375 212.922C378.375 212.611 378.498 212.313 378.718 212.093C378.938 211.873 379.236 211.75 379.547 211.75H407.672C407.983 211.75 408.281 211.873 408.501 212.093C408.72 212.313 408.844 212.611 408.844 212.922C408.844 213.233 408.72 213.531 408.501 213.751C408.281 213.97 407.983 214.094 407.672 214.094Z" fill="white"/>
<path d="M407.672 221.125H379.547C379.236 221.125 378.938 221.002 378.718 220.782C378.498 220.562 378.375 220.264 378.375 219.953C378.375 219.642 378.498 219.344 378.718 219.124C378.938 218.905 379.236 218.781 379.547 218.781H407.672C407.983 218.781 408.281 218.905 408.501 219.124C408.72 219.344 408.844 219.642 408.844 219.953C408.844 220.264 408.72 220.562 408.501 220.782C408.281 221.002 407.983 221.125 407.672 221.125Z" fill="white"/>
<path d="M393.609 235.188H379.547C379.236 235.188 378.938 235.064 378.718 234.844C378.498 234.624 378.375 234.326 378.375 234.016C378.375 233.705 378.498 233.407 378.718 233.187C378.938 232.967 379.236 232.844 379.547 232.844H393.609C393.92 232.844 394.218 232.967 394.438 233.187C394.658 233.407 394.781 233.705 394.781 234.016C394.781 234.326 394.658 234.624 394.438 234.844C394.218 235.064 393.92 235.188 393.609 235.188Z" fill="white"/>
<path d="M415.957 250.176H407.672C407.361 250.176 407.063 250.052 406.843 249.833C406.623 249.613 406.5 249.315 406.5 249.004C406.5 248.693 406.623 248.395 406.843 248.175C407.063 247.955 407.361 247.832 407.672 247.832H415.957C416.268 247.832 416.566 247.955 416.786 248.175C417.005 248.395 417.129 248.693 417.129 249.004C417.129 249.315 417.005 249.613 416.786 249.833C416.566 250.052 416.268 250.176 415.957 250.176Z" fill="white"/>
<path d="M415.207 254.219H407.672C407.361 254.219 407.063 254.095 406.843 253.876C406.623 253.656 406.5 253.358 406.5 253.047C406.5 252.736 406.623 252.438 406.843 252.218C407.063 251.998 407.361 251.875 407.672 251.875H415.207C415.518 251.875 415.816 251.998 416.036 252.218C416.255 252.438 416.379 252.736 416.379 253.047C416.379 253.358 416.255 253.656 416.036 253.876C415.816 254.095 415.518 254.219 415.207 254.219Z" fill="white"/>
<path d="M407.672 228.156H379.547C379.236 228.156 378.938 228.033 378.718 227.813C378.498 227.593 378.375 227.295 378.375 226.984C378.375 226.674 378.498 226.376 378.718 226.156C378.938 225.936 379.236 225.812 379.547 225.812H407.672C407.983 225.812 408.281 225.936 408.501 226.156C408.72 226.376 408.844 226.674 408.844 226.984C408.844 227.295 408.72 227.593 408.501 227.813C408.281 228.033 407.983 228.156 407.672 228.156Z" fill="white"/>
<path d="M417.047 268C413.57 268 410.172 266.969 407.281 265.038C404.39 263.106 402.137 260.361 400.807 257.149C399.476 253.937 399.128 250.402 399.807 246.993C400.485 243.583 402.159 240.451 404.617 237.992C407.076 235.534 410.208 233.86 413.618 233.182C417.027 232.503 420.562 232.851 423.774 234.182C426.986 235.512 429.731 237.765 431.663 240.656C433.594 243.547 434.625 246.945 434.625 250.422C434.625 255.084 432.773 259.555 429.476 262.851C426.18 266.148 421.709 268 417.047 268ZM417.047 235.188C414.034 235.188 411.088 236.081 408.583 237.755C406.078 239.429 404.125 241.808 402.972 244.592C401.819 247.376 401.517 250.439 402.105 253.394C402.693 256.349 404.144 259.064 406.275 261.194C408.405 263.325 411.12 264.776 414.075 265.364C417.03 265.951 420.093 265.65 422.877 264.497C425.661 263.344 428.04 261.391 429.714 258.886C431.388 256.38 432.281 253.435 432.281 250.422C432.281 248.421 431.887 246.44 431.122 244.592C430.356 242.744 429.234 241.064 427.819 239.65C426.405 238.235 424.725 237.113 422.877 236.347C421.029 235.582 419.047 235.188 417.047 235.188Z" fill="white"/>
<path d="M418.219 259.961C415.711 259.961 413.305 258.965 411.532 257.191C409.758 255.418 408.762 253.012 408.762 250.504C408.762 247.996 409.758 245.59 411.532 243.817C413.305 242.043 415.711 241.047 418.219 241.047C418.53 241.047 418.828 241.17 419.047 241.39C419.267 241.61 419.391 241.908 419.391 242.219C419.391 242.53 419.267 242.828 419.047 243.047C418.828 243.267 418.53 243.391 418.219 243.391C416.332 243.391 414.523 244.14 413.189 245.474C411.855 246.808 411.105 248.617 411.105 250.504C411.105 252.39 411.855 254.2 413.189 255.534C414.523 256.868 416.332 257.617 418.219 257.617C418.53 257.617 418.828 257.741 419.047 257.96C419.267 258.18 419.391 258.478 419.391 258.789C419.391 259.1 419.267 259.398 419.047 259.618C418.828 259.837 418.53 259.961 418.219 259.961Z" fill="white"/>
<path d="M397.125 258.625H374.859C373.305 258.625 371.815 258.008 370.716 256.909C369.617 255.81 369 254.32 369 252.766V198.859C369 197.305 369.617 195.815 370.716 194.716C371.815 193.617 373.305 193 374.859 193H406.84C407.633 193 408.418 193.161 409.147 193.473C409.876 193.785 410.535 194.242 411.082 194.816L416.602 200.605C417.64 201.695 418.219 203.143 418.219 204.648V230.5H415.875V204.648C415.875 203.745 415.526 202.876 414.902 202.223L409.383 196.434C409.055 196.089 408.66 195.815 408.223 195.628C407.786 195.441 407.315 195.344 406.84 195.344H374.859C373.927 195.344 373.033 195.714 372.373 196.373C371.714 197.033 371.344 197.927 371.344 198.859V252.766C371.344 253.698 371.714 254.592 372.373 255.252C373.033 255.911 373.927 256.281 374.859 256.281H397.125V258.625Z" fill="white"/>
<path d="M349.159 280L350.239 276.772H355.161L356.247 280H358.779L354.164 266.909H351.236L346.627 280H349.159ZM350.878 274.867L352.649 269.594H352.751L354.522 274.867H350.878ZM362.303 266.909V280H364.578V270.987H364.7L368.318 279.962H370.018L373.636 271.006H373.757V280H376.033V266.909H373.131L369.245 276.395H369.091L365.205 266.909H362.303ZM387.53 270.508H389.812C389.767 268.296 387.881 266.73 385.094 266.73C382.346 266.73 380.281 268.277 380.288 270.591C380.288 272.47 381.624 273.55 383.778 274.107L385.267 274.49C386.68 274.848 387.613 275.289 387.619 276.305C387.613 277.424 386.552 278.172 385.005 278.172C383.522 278.172 382.371 277.507 382.275 276.133H379.942C380.038 278.734 381.975 280.198 385.024 280.198C388.163 280.198 389.984 278.632 389.991 276.325C389.984 274.055 388.111 273.02 386.143 272.553L384.915 272.246C383.842 271.991 382.678 271.537 382.691 270.444C382.697 269.46 383.579 268.737 385.062 268.737C386.475 268.737 387.408 269.396 387.53 270.508Z" fill="white"/>
</g>
<g filter="url(#filter10_d_1228_1803)">
<path fill-rule="evenodd" clip-rule="evenodd" d="M457 4H307V54C320.807 54 332 65.1929 332 79C332 92.8071 320.807 104 307 104V154H357C357 167.807 368.193 179 382 179C395.807 179 407 167.807 407 154H457V104C443.193 104 432 92.8071 432 79C432 65.1929 443.193 54 457 54V4Z" fill="#A1D7A6"/>
<path d="M377.875 45.2344L384.484 51.8438L393.109 38.6368L384.484 46.0547L377.875 45.2344Z" fill="white"/>
<path d="M384.906 82.4297C383.198 82.4297 381.528 81.9232 380.108 80.9741C378.688 80.0251 377.581 78.6763 376.927 77.0981C376.273 75.5199 376.102 73.7834 376.435 72.108C376.769 70.4327 377.591 68.8938 378.799 67.6859C380.007 66.478 381.546 65.6555 383.221 65.3222C384.897 64.989 386.633 65.16 388.211 65.8137C389.79 66.4674 391.138 67.5744 392.087 68.9947C393.036 70.415 393.543 72.0848 393.543 73.793C393.54 76.0826 392.629 78.2776 391.01 79.8966C389.391 81.5157 387.196 82.4266 384.906 82.4297ZM384.906 67.5C383.662 67.5 382.445 67.8691 381.41 68.5606C380.375 69.252 379.569 70.2349 379.092 71.3848C378.616 72.5346 378.491 73.8 378.734 75.0207C378.977 76.2414 379.576 77.3627 380.456 78.2428C381.337 79.1229 382.458 79.7222 383.679 79.965C384.899 80.2078 386.165 80.0832 387.314 79.6069C388.464 79.1306 389.447 78.324 390.139 77.2892C390.83 76.2543 391.199 75.0376 391.199 73.793C391.196 72.1249 390.532 70.5261 389.353 69.3466C388.173 68.1671 386.574 67.5031 384.906 67.5Z" fill="white"/>
<path d="M396.625 105H373.246C372.624 105 372.028 104.753 371.589 104.314C371.149 103.874 370.902 103.278 370.902 102.656V90.7031C370.844 85.0781 377.148 80.3906 384.906 80.3906C392.664 80.3906 398.969 85.0781 398.969 90.7031V102.656C398.969 103.278 398.722 103.874 398.282 104.314C397.843 104.753 397.247 105 396.625 105ZM384.906 82.7344C378.449 82.7344 373.187 86.25 373.187 90.7031V102.656H396.625V90.7031C396.625 86.3086 391.363 82.7344 384.906 82.7344Z" fill="white"/>
<path d="M385.492 60.4688C381.531 60.3856 377.765 58.7353 375.019 55.8795C372.273 53.0237 370.772 49.1955 370.844 45.2344C370.772 41.2732 372.273 37.4451 375.019 34.5893C377.765 31.7335 381.531 30.0831 385.492 30C389.453 30.0831 393.22 31.7335 395.965 34.5893C398.711 37.4451 400.213 41.2732 400.141 45.2344C400.213 49.1955 398.711 53.0237 395.965 55.8795C393.22 58.7353 389.453 60.3856 385.492 60.4688ZM385.492 32.3438C382.153 32.4267 378.983 33.8301 376.676 36.2464C374.37 38.6627 373.115 41.8948 373.188 45.2344C373.115 48.574 374.37 51.8061 376.676 54.2224C378.983 56.6386 382.153 58.042 385.492 58.125C388.832 58.042 392.002 56.6386 394.308 54.2224C396.615 51.8061 397.869 48.574 397.797 45.2344C397.869 41.8948 396.615 38.6627 394.308 36.2464C392.002 33.8301 388.832 32.4267 385.492 32.3438Z" fill="white"/>
<path d="M362.641 77.4961C361.069 77.4984 359.531 77.0344 358.223 76.1628C356.915 75.2911 355.895 74.0511 355.292 72.5994C354.689 71.1478 354.53 69.5499 354.835 68.0079C355.14 66.4659 355.896 65.0491 357.007 63.9367C358.117 62.8244 359.533 62.0665 361.075 61.759C362.616 61.4515 364.214 61.6081 365.667 62.2091C367.119 62.8102 368.361 63.8285 369.234 65.1354C370.108 66.4422 370.574 67.9788 370.574 69.5508C370.571 71.655 369.735 73.6724 368.248 75.1614C366.761 76.6504 364.745 77.4899 362.641 77.4961ZM362.641 63.9844C361.532 63.9821 360.447 64.3089 359.524 64.9235C358.601 65.5381 357.881 66.4129 357.456 67.4369C357.031 68.4609 356.919 69.5882 357.134 70.6759C357.35 71.7635 357.884 72.7627 358.668 73.5468C359.452 74.3309 360.451 74.8647 361.539 75.0804C362.627 75.2962 363.754 75.1843 364.778 74.7589C365.802 74.3334 366.677 73.6136 367.291 72.6907C367.906 71.7677 368.233 70.6831 368.23 69.5742C368.227 68.0926 367.637 66.6726 366.59 65.625C365.542 64.5774 364.122 63.9875 362.641 63.9844Z" fill="white"/>
<path d="M368.5 97.9687H352.094C351.792 97.9781 351.492 97.9274 351.21 97.8195C350.929 97.7117 350.671 97.5488 350.453 97.3405C350.235 97.1322 350.06 96.8826 349.94 96.6062C349.819 96.3297 349.755 96.0321 349.75 95.7305V84.9023C349.75 79.6758 355.516 75.4336 362.641 75.4336C367.457 75.4336 371.816 77.3672 374.043 80.4961L372.133 81.8437C370.375 79.3711 366.648 77.7773 362.641 77.7773C356.84 77.7773 352.094 80.9648 352.094 84.9023V95.625H368.5V97.9687Z" fill="white"/>
<path d="M407.066 77.4961C405.495 77.4961 403.959 77.0301 402.652 76.1571C401.346 75.284 400.327 74.0431 399.726 72.5913C399.125 71.1395 398.967 69.542 399.274 68.0007C399.58 66.4595 400.337 65.0438 401.448 63.9326C402.559 62.8214 403.975 62.0647 405.516 61.7581C407.058 61.4516 408.655 61.6089 410.107 62.2103C411.559 62.8116 412.8 63.83 413.673 65.1366C414.546 66.4432 415.012 67.9794 415.012 69.5508C415.012 71.658 414.175 73.6789 412.685 75.169C411.195 76.659 409.174 77.4961 407.066 77.4961ZM407.066 63.9609C405.958 63.9609 404.875 64.2898 403.953 64.9058C403.032 65.5218 402.314 66.3974 401.89 67.4216C401.467 68.4458 401.356 69.5727 401.573 70.6596C401.79 71.7465 402.325 72.7446 403.11 73.5276C403.894 74.3105 404.893 74.8431 405.981 75.0579C407.068 75.2727 408.195 75.1601 409.218 74.7343C410.242 74.3085 411.116 73.5887 411.73 72.666C412.344 71.7433 412.67 70.6592 412.668 69.5508C412.659 68.0713 412.064 66.6555 411.015 65.6126C409.965 64.5697 408.546 63.9844 407.066 63.9844V63.9609Z" fill="white"/>
<path d="M417.648 97.9688H401.312V95.625H417.648H417.719V84.9023C417.719 81.0352 412.844 77.7773 407.066 77.7773C403.059 77.7773 399.332 79.3711 397.586 81.8438L395.664 80.4961C397.891 77.3672 402.25 75.4336 407.066 75.4336C414.203 75.4336 420.062 79.6758 420.062 84.9023V95.7305C420.035 96.346 419.766 96.9259 419.315 97.3448C418.863 97.7637 418.264 97.9878 417.648 97.9688Z" fill="white"/>
<path d="M363.974 119.897H368.02V131H370.372V119.897H374.418V117.909H363.974V119.897ZM378.232 117.909V131H380.507V121.987H380.629L384.247 130.962H385.947L389.565 122.006H389.686V131H391.962V117.909H389.06L385.173 127.395H385.02L381.134 117.909H378.232ZM403.458 121.508H405.74C405.696 119.296 403.81 117.73 401.023 117.73C398.275 117.73 396.21 119.277 396.216 121.591C396.216 123.47 397.552 124.55 399.706 125.107L401.196 125.49C402.608 125.848 403.542 126.289 403.548 127.305C403.542 128.424 402.48 129.172 400.934 129.172C399.451 129.172 398.3 128.507 398.204 127.133H395.871C395.967 129.734 397.904 131.198 400.953 131.198C404.091 131.198 405.913 129.632 405.919 127.325C405.913 125.055 404.04 124.02 402.071 123.553L400.844 123.246C399.77 122.991 398.607 122.537 398.62 121.444C398.626 120.46 399.508 119.737 400.991 119.737C402.404 119.737 403.337 120.396 403.458 121.508Z" fill="white"/>
</g>
<g filter="url(#filter11_d_1228_1803)">
<path fill-rule="evenodd" clip-rule="evenodd" d="M457 4H607V154H557C557 140.193 545.807 129 532 129C518.193 129 507 140.193 507 154H457V104C443.193 104 432 92.8071 432 79C432 65.1929 443.193 54 457 54V4Z" fill="#96C0D0"/>
<path d="M558.578 76.5312H485.922V78.875H558.578V76.5312Z" fill="white"/>
<path d="M515.219 88.25H512.875V99.9688H515.219V88.25Z" fill="white"/>
<path d="M531.625 87.7344H529.281V99.4532H531.625V87.7344Z" fill="white"/>
<path d="M538.656 107H505.844C505.222 107 504.626 106.753 504.186 106.314C503.747 105.874 503.5 105.278 503.5 104.656V103.484C503.5 101.93 504.117 100.44 505.216 99.3412C506.315 98.2423 507.805 97.625 509.359 97.625H535.141C536.695 97.625 538.185 98.2423 539.284 99.3412C540.383 100.44 541 101.93 541 103.484V104.656C541 105.278 540.753 105.874 540.314 106.314C539.874 106.753 539.278 107 538.656 107ZM509.359 99.9688C508.427 99.9688 507.533 100.339 506.873 100.998C506.214 101.658 505.844 102.552 505.844 103.484V104.656H538.656V103.484C538.656 102.552 538.286 101.658 537.627 100.998C536.967 100.339 536.073 99.9688 535.141 99.9688H509.359Z" fill="white"/>
<path d="M553.891 88.25H490.609C489.84 88.25 489.078 88.0984 488.367 87.804C487.656 87.5095 487.01 87.0779 486.466 86.5338C485.922 85.9897 485.49 85.3438 485.196 84.6329C484.902 83.922 484.75 83.1601 484.75 82.3906V37.8594C484.75 36.3054 485.367 34.815 486.466 33.7162C487.565 32.6173 489.055 32 490.609 32H553.891C555.445 32 556.935 32.6173 558.034 33.7162C559.133 34.815 559.75 36.3054 559.75 37.8594V82.3906C559.75 83.1601 559.598 83.922 559.304 84.6329C559.01 85.3438 558.578 85.9897 558.034 86.5338C557.49 87.0779 556.844 87.5095 556.133 87.804C555.422 88.0984 554.66 88.25 553.891 88.25ZM490.609 34.3438C489.677 34.3438 488.783 34.7141 488.123 35.3735C487.464 36.0328 487.094 36.927 487.094 37.8594V82.3906C487.094 83.323 487.464 84.2172 488.123 84.8765C488.783 85.5359 489.677 85.9062 490.609 85.9062H553.891C554.823 85.9062 555.717 85.5359 556.377 84.8765C557.036 84.2172 557.406 83.323 557.406 82.3906V37.8594C557.406 36.927 557.036 36.0328 556.377 35.3735C555.717 34.7141 554.823 34.3438 553.891 34.3438H490.609Z" fill="white"/>
<path d="M522.25 83.5625C522.897 83.5625 523.422 83.0378 523.422 82.3906C523.422 81.7434 522.897 81.2188 522.25 81.2188C521.603 81.2188 521.078 81.7434 521.078 82.3906C521.078 83.0378 521.603 83.5625 522.25 83.5625Z" fill="white"/>
<path d="M521.582 67.1563C517.147 67.058 512.793 65.9435 508.856 63.8985C508.449 63.6897 508.109 63.3719 507.873 62.9807C507.637 62.5896 507.515 62.1405 507.52 61.6837V54.2657C507.52 53.9549 507.643 53.6568 507.863 53.437C508.083 53.2173 508.381 53.0938 508.692 53.0938C509.002 53.0938 509.3 53.2173 509.52 53.437C509.74 53.6568 509.863 53.9549 509.863 54.2657V61.6837C509.861 61.7113 509.867 61.739 509.879 61.7637C509.891 61.7885 509.91 61.8095 509.934 61.8243C513.538 63.6949 517.522 64.717 521.582 64.8126C525.638 64.7157 529.618 63.6936 533.219 61.8243C533.244 61.81 533.264 61.7895 533.279 61.7649C533.293 61.7402 533.301 61.7122 533.301 61.6837V53.4805C533.301 53.1697 533.424 52.8717 533.644 52.6519C533.864 52.4321 534.162 52.3087 534.473 52.3087C534.784 52.3087 535.082 52.4321 535.301 52.6519C535.521 52.8717 535.645 53.1697 535.645 53.4805V61.7422C535.647 62.2 535.522 62.6494 535.284 63.0405C535.046 63.4315 534.705 63.7488 534.297 63.9571C530.359 65.9804 526.009 67.0748 521.582 67.1563Z" fill="white"/>
<path d="M502.832 63.6406C502.521 63.6406 502.223 63.5171 502.003 63.2974C501.783 63.0776 501.66 62.7795 501.66 62.4687V52.7422C501.652 52.0517 501.881 51.3794 502.307 50.8362C502.733 50.2929 503.331 49.9111 504.004 49.7539L520.41 44.4101C521.181 44.2315 521.983 44.2315 522.754 44.4101L540.332 49.8828C540.602 49.9621 540.838 50.1275 541.006 50.354C541.173 50.5804 541.261 50.8553 541.258 51.1367C541.258 51.4273 541.162 51.7098 540.984 51.9392C540.805 52.1686 540.555 52.3316 540.273 52.4023L522.894 57.7812C522.025 58.0999 521.076 58.1328 520.187 57.875L504.004 53.0937V62.4687C504.004 62.7795 503.88 63.0776 503.66 63.2974C503.441 63.5171 503.143 63.6406 502.832 63.6406ZM506.558 51.4531L520.832 55.6367C521.265 55.7518 521.723 55.7314 522.144 55.5781L536.465 51.1836L522.25 46.6718C521.864 46.5881 521.464 46.5881 521.078 46.6718L506.558 51.4531ZM539.593 52.1679H539.711H539.593ZM539.652 50.2109H539.57H539.652Z" fill="white"/>
<path d="M544.393 124H552.53V122.012H546.764V110.909H544.393V124ZM556.388 110.909V124H558.663V114.987H558.785L562.403 123.962H564.103L567.721 115.006H567.842V124H570.118V110.909H567.216L563.33 120.395H563.176L559.29 110.909H556.388ZM581.615 114.508H583.897C583.852 112.296 581.966 110.73 579.179 110.73C576.431 110.73 574.366 112.277 574.373 114.591C574.373 116.47 575.708 117.55 577.863 118.107L579.352 118.49C580.765 118.848 581.698 119.289 581.704 120.305C581.698 121.424 580.637 122.172 579.09 122.172C577.607 122.172 576.456 121.507 576.36 120.133H574.027C574.123 122.734 576.06 124.198 579.109 124.198C582.248 124.198 584.069 122.632 584.076 120.325C584.069 118.055 582.196 117.02 580.228 116.553L579 116.246C577.927 115.991 576.763 115.537 576.776 114.444C576.782 113.46 577.664 112.737 579.147 112.737C580.56 112.737 581.493 113.396 581.615 114.508Z" fill="white"/>
</g>
</g>
<defs>
<filter id="filter0_d_1228_1803" x="124" y="271" width="191" height="191" filterUnits="userSpaceOnUse" color-interpolation-filters="sRGB">
<feFlood flood-opacity="0" result="BackgroundImageFix"/>
<feColorMatrix in="SourceAlpha" type="matrix" values="0 0 0 0 0 0 0 0 0 0 0 0 0 0 0 0 0 0 127 0" result="hardAlpha"/>
<feOffset dy="4"/>
<feGaussianBlur stdDeviation="4"/>
<feComposite in2="hardAlpha" operator="out"/>
<feColorMatrix type="matrix" values="0 0 0 0 0 0 0 0 0 0 0 0 0 0 0 0 0 0 0.1 0"/>
<feBlend mode="normal" in2="BackgroundImageFix" result="effect1_dropShadow_1228_1803"/>
<feBlend mode="normal" in="SourceGraphic" in2="effect1_dropShadow_1228_1803" result="shape"/>
</filter>
<filter id="filter1_d_1228_1803" x="424" y="296" width="191" height="166" filterUnits="userSpaceOnUse" color-interpolation-filters="sRGB">
<feFlood flood-opacity="0" result="BackgroundImageFix"/>
<feColorMatrix in="SourceAlpha" type="matrix" values="0 0 0 0 0 0 0 0 0 0 0 0 0 0 0 0 0 0 127 0" result="hardAlpha"/>
<feOffset dy="4"/>
<feGaussianBlur stdDeviation="4"/>
<feComposite in2="hardAlpha" operator="out"/>
<feColorMatrix type="matrix" values="0 0 0 0 0 0 0 0 0 0 0 0 0 0 0 0 0 0 0.1 0"/>
<feBlend mode="normal" in2="BackgroundImageFix" result="effect1_dropShadow_1228_1803"/>
<feBlend mode="normal" in="SourceGraphic" in2="effect1_dropShadow_1228_1803" result="shape"/>
</filter>
<filter id="filter2_d_1228_1803" x="0" y="271" width="166" height="191" filterUnits="userSpaceOnUse" color-interpolation-filters="sRGB">
<feFlood flood-opacity="0" result="BackgroundImageFix"/>
<feColorMatrix in="SourceAlpha" type="matrix" values="0 0 0 0 0 0 0 0 0 0 0 0 0 0 0 0 0 0 127 0" result="hardAlpha"/>
<feOffset dy="4"/>
<feGaussianBlur stdDeviation="4"/>
<feComposite in2="hardAlpha" operator="out"/>
<feColorMatrix type="matrix" values="0 0 0 0 0 0 0 0 0 0 0 0 0 0 0 0 0 0 0.1 0"/>
<feBlend mode="normal" in2="BackgroundImageFix" result="effect1_dropShadow_1228_1803"/>
<feBlend mode="normal" in="SourceGraphic" in2="effect1_dropShadow_1228_1803" result="shape"/>
</filter>
<filter id="filter3_d_1228_1803" x="149" y="124" width="191" height="191" filterUnits="userSpaceOnUse" color-interpolation-filters="sRGB">
<feFlood flood-opacity="0" result="BackgroundImageFix"/>
<feColorMatrix in="SourceAlpha" type="matrix" values="0 0 0 0 0 0 0 0 0 0 0 0 0 0 0 0 0 0 127 0" result="hardAlpha"/>
<feOffset dy="4"/>
<feGaussianBlur stdDeviation="4"/>
<feComposite in2="hardAlpha" operator="out"/>
<feColorMatrix type="matrix" values="0 0 0 0 0 0 0 0 0 0 0 0 0 0 0 0 0 0 0.1 0"/>
<feBlend mode="normal" in2="BackgroundImageFix" result="effect1_dropShadow_1228_1803"/>
<feBlend mode="normal" in="SourceGraphic" in2="effect1_dropShadow_1228_1803" result="shape"/>
</filter>
<filter id="filter4_d_1228_1803" x="449" y="123" width="166" height="216" filterUnits="userSpaceOnUse" color-interpolation-filters="sRGB">
<feFlood flood-opacity="0" result="BackgroundImageFix"/>
<feColorMatrix in="SourceAlpha" type="matrix" values="0 0 0 0 0 0 0 0 0 0 0 0 0 0 0 0 0 0 127 0" result="hardAlpha"/>
<feOffset dy="4"/>
<feGaussianBlur stdDeviation="4"/>
<feComposite in2="hardAlpha" operator="out"/>
<feColorMatrix type="matrix" values="0 0 0 0 0 0 0 0 0 0 0 0 0 0 0 0 0 0 0.1 0"/>
<feBlend mode="normal" in2="BackgroundImageFix" result="effect1_dropShadow_1228_1803"/>
<feBlend mode="normal" in="SourceGraphic" in2="effect1_dropShadow_1228_1803" result="shape"/>
</filter>
<filter id="filter5_d_1228_1803" x="0" y="0" width="191" height="166" filterUnits="userSpaceOnUse" color-interpolation-filters="sRGB">
<feFlood flood-opacity="0" result="BackgroundImageFix"/>
<feColorMatrix in="SourceAlpha" type="matrix" values="0 0 0 0 0 0 0 0 0 0 0 0 0 0 0 0 0 0 127 0" result="hardAlpha"/>
<feOffset dy="4"/>
<feGaussianBlur stdDeviation="4"/>
<feComposite in2="hardAlpha" operator="out"/>
<feColorMatrix type="matrix" values="0 0 0 0 0 0 0 0 0 0 0 0 0 0 0 0 0 0 0.1 0"/>
<feBlend mode="normal" in2="BackgroundImageFix" result="effect1_dropShadow_1228_1803"/>
<feBlend mode="normal" in="SourceGraphic" in2="effect1_dropShadow_1228_1803" result="shape"/>
</filter>
<filter id="filter6_d_1228_1803" x="149" y="0" width="191" height="166" filterUnits="userSpaceOnUse" color-interpolation-filters="sRGB">
<feFlood flood-opacity="0" result="BackgroundImageFix"/>
<feColorMatrix in="SourceAlpha" type="matrix" values="0 0 0 0 0 0 0 0 0 0 0 0 0 0 0 0 0 0 127 0" result="hardAlpha"/>
<feOffset dy="4"/>
<feGaussianBlur stdDeviation="4"/>
<feComposite in2="hardAlpha" operator="out"/>
<feColorMatrix type="matrix" values="0 0 0 0 0 0 0 0 0 0 0 0 0 0 0 0 0 0 0.1 0"/>
<feBlend mode="normal" in2="BackgroundImageFix" result="effect1_dropShadow_1228_1803"/>
<feBlend mode="normal" in="SourceGraphic" in2="effect1_dropShadow_1228_1803" result="shape"/>
</filter>
<filter id="filter7_d_1228_1803" x="0" y="124" width="191" height="191" filterUnits="userSpaceOnUse" color-interpolation-filters="sRGB">
<feFlood flood-opacity="0" result="BackgroundImageFix"/>
<feColorMatrix in="SourceAlpha" type="matrix" values="0 0 0 0 0 0 0 0 0 0 0 0 0 0 0 0 0 0 127 0" result="hardAlpha"/>
<feOffset dy="4"/>
<feGaussianBlur stdDeviation="4"/>
<feComposite in2="hardAlpha" operator="out"/>
<feColorMatrix type="matrix" values="0 0 0 0 0 0 0 0 0 0 0 0 0 0 0 0 0 0 0.1 0"/>
<feBlend mode="normal" in2="BackgroundImageFix" result="effect1_dropShadow_1228_1803"/>
<feBlend mode="normal" in="SourceGraphic" in2="effect1_dropShadow_1228_1803" result="shape"/>
</filter>
<filter id="filter8_d_1228_1803" x="274" y="296" width="191" height="166" filterUnits="userSpaceOnUse" color-interpolation-filters="sRGB">
<feFlood flood-opacity="0" result="BackgroundImageFix"/>
<feColorMatrix in="SourceAlpha" type="matrix" values="0 0 0 0 0 0 0 0 0 0 0 0 0 0 0 0 0 0 127 0" result="hardAlpha"/>
<feOffset dy="4"/>
<feGaussianBlur stdDeviation="4"/>
<feComposite in2="hardAlpha" operator="out"/>
<feColorMatrix type="matrix" values="0 0 0 0 0 0 0 0 0 0 0 0 0 0 0 0 0 0 0.1 0"/>
<feBlend mode="normal" in2="BackgroundImageFix" result="effect1_dropShadow_1228_1803"/>
<feBlend mode="normal" in="SourceGraphic" in2="effect1_dropShadow_1228_1803" result="shape"/>
</filter>
<filter id="filter9_d_1228_1803" x="299" y="149" width="191" height="191" filterUnits="userSpaceOnUse" color-interpolation-filters="sRGB">
<feFlood flood-opacity="0" result="BackgroundImageFix"/>
<feColorMatrix in="SourceAlpha" type="matrix" values="0 0 0 0 0 0 0 0 0 0 0 0 0 0 0 0 0 0 127 0" result="hardAlpha"/>
<feOffset dy="4"/>
<feGaussianBlur stdDeviation="4"/>
<feComposite in2="hardAlpha" operator="out"/>
<feColorMatrix type="matrix" values="0 0 0 0 0 0 0 0 0 0 0 0 0 0 0 0 0 0 0.1 0"/>
<feBlend mode="normal" in2="BackgroundImageFix" result="effect1_dropShadow_1228_1803"/>
<feBlend mode="normal" in="SourceGraphic" in2="effect1_dropShadow_1228_1803" result="shape"/>
</filter>
<filter id="filter10_d_1228_1803" x="299" y="0" width="166" height="191" filterUnits="userSpaceOnUse" color-interpolation-filters="sRGB">
<feFlood flood-opacity="0" result="BackgroundImageFix"/>
<feColorMatrix in="SourceAlpha" type="matrix" values="0 0 0 0 0 0 0 0 0 0 0 0 0 0 0 0 0 0 127 0" result="hardAlpha"/>
<feOffset dy="4"/>
<feGaussianBlur stdDeviation="4"/>
<feComposite in2="hardAlpha" operator="out"/>
<feColorMatrix type="matrix" values="0 0 0 0 0 0 0 0 0 0 0 0 0 0 0 0 0 0 0.1 0"/>
<feBlend mode="normal" in2="BackgroundImageFix" result="effect1_dropShadow_1228_1803"/>
<feBlend mode="normal" in="SourceGraphic" in2="effect1_dropShadow_1228_1803" result="shape"/>
</filter>
<filter id="filter11_d_1228_1803" x="424" y="0" width="191" height="166" filterUnits="userSpaceOnUse" color-interpolation-filters="sRGB">
<feFlood flood-opacity="0" result="BackgroundImageFix"/>
<feColorMatrix in="SourceAlpha" type="matrix" values="0 0 0 0 0 0 0 0 0 0 0 0 0 0 0 0 0 0 127 0" result="hardAlpha"/>
<feOffset dy="4"/>
<feGaussianBlur stdDeviation="4"/>
<feComposite in2="hardAlpha" operator="out"/>
<feColorMatrix type="matrix" values="0 0 0 0 0 0 0 0 0 0 0 0 0 0 0 0 0 0 0.1 0"/>
<feBlend mode="normal" in2="BackgroundImageFix" result="effect1_dropShadow_1228_1803"/>
<feBlend mode="normal" in="SourceGraphic" in2="effect1_dropShadow_1228_1803" result="shape"/>
</filter>
<clipPath id="clip0_1228_1803">
<rect width="112.08" height="75" fill="white" transform="translate(483 179)"/>
</clipPath>
<clipPath id="clip1_1228_1803">
<rect width="112.5" height="75" fill="white" transform="translate(38 176)"/>
</clipPath>
</defs>
</svg>
