<svg width="133" height="136" viewBox="0 0 133 136" fill="none" xmlns="http://www.w3.org/2000/svg">
<g filter="url(#filter0_d_1188_1820)">
<path fill-rule="evenodd" clip-rule="evenodd" d="M98.2591 4.20542L8.4585 30.7255L17.2985 60.6591C25.5644 58.218 34.2442 62.94 36.6853 71.2059C39.1264 79.4718 34.4044 88.1515 26.1386 90.5926L34.9785 120.526L64.9121 111.686C64.9121 111.686 64.9122 111.686 64.9122 111.686C67.3533 119.952 76.033 124.674 84.2989 122.233C92.5649 119.792 97.2868 111.112 94.8457 102.846C94.8457 102.846 94.8457 102.846 94.8457 102.846L124.779 94.006L115.939 64.0725C107.673 66.5136 98.9935 61.7917 96.5524 53.5258C94.1113 45.2599 98.8332 36.5801 107.099 34.139L98.2591 4.20542Z" fill="#A1D7A6"/>
<g clip-path="url(#clip0_1188_1820)">
<path d="M58.1794 42.8805L63.3048 45.6688L66.1333 36.2373L62.2813 42.2031L58.1794 42.8805Z" fill="white"/>
<path d="M68.965 63.9053C67.9423 64.2073 66.8531 64.1992 65.835 63.8822C64.817 63.5652 63.9158 62.9533 63.2454 62.1241C62.575 61.2949 62.1656 60.2855 62.0689 59.2236C61.9722 58.1617 62.1926 57.095 62.7021 56.1583C63.2117 55.2216 63.9876 54.4571 64.9316 53.9614C65.8757 53.4657 66.9456 53.2611 68.0059 53.3734C69.0663 53.4857 70.0696 53.91 70.8888 54.5925C71.7081 55.275 72.3065 56.1851 72.6086 57.2077C73.0115 58.579 72.8542 60.0541 72.1712 61.3097C71.4882 62.5652 70.3352 63.4986 68.965 63.9053V63.9053ZM66.3254 54.9673C65.5803 55.1873 64.9171 55.6234 64.4198 56.2203C63.9226 56.8173 63.6134 57.5483 63.5316 58.3209C63.4497 59.0935 63.5988 59.873 63.96 60.5609C64.3212 61.2488 64.8783 61.8141 65.5608 62.1854C66.2432 62.5567 67.0205 62.7172 67.7942 62.6468C68.568 62.5763 69.3034 62.278 69.9076 61.7896C70.5118 61.3011 70.9576 60.6445 71.1886 59.9027C71.4196 59.1609 71.4255 58.3672 71.2054 57.6221C70.9087 56.624 70.2285 55.7843 69.3138 55.2867C68.3991 54.7891 67.3246 54.6742 66.3254 54.9673V54.9673Z" fill="white"/>
<path d="M79.971 75.3455L65.9748 79.4789C65.6026 79.5888 65.2021 79.5464 64.8612 79.361C64.5204 79.1755 64.2672 78.8623 64.1573 78.4902L62.044 71.3342C61.0144 67.977 63.9601 64.0561 68.6044 62.6845C73.2488 61.3129 77.852 63.0045 78.8465 66.372L80.9598 73.528C81.0697 73.9002 81.0273 74.3007 80.8418 74.6416C80.6564 74.9824 80.3432 75.2356 79.971 75.3455ZM69.0188 64.0876C65.1532 65.2292 62.6247 68.2642 63.412 70.9302L65.5253 78.0862L79.5567 73.9424L77.4434 66.7864C76.6664 64.1555 72.8844 62.946 69.0188 64.0876Z" fill="white"/>
<path d="M65.4331 50.6542C63.0471 51.3048 60.5005 50.9826 58.3517 49.7584C56.2029 48.5342 54.6272 46.5079 53.9701 44.1237C53.2265 41.7651 53.4486 39.2078 54.5876 37.0126C55.7266 34.8175 57.6896 33.1635 60.0462 32.4135C62.4322 31.763 64.9788 32.0851 67.1276 33.3093C69.2765 34.5335 70.8522 36.5598 71.5093 38.944C72.2528 41.3027 72.0308 43.8599 70.8917 46.0551C69.7527 48.2503 67.7897 49.9042 65.4331 50.6542ZM60.4606 33.8166C58.4761 34.4567 56.8263 35.8574 55.8727 37.7117C54.919 39.5661 54.7394 41.7228 55.3732 43.7093C55.9203 45.7215 57.2428 47.4346 59.0508 48.4734C60.8588 49.5122 63.0049 49.7918 65.0187 49.2511C67.0032 48.611 68.6531 47.2104 69.6067 45.356C70.5603 43.5017 70.7399 41.3449 70.1061 39.3584C69.559 37.3463 68.2365 35.6331 66.4285 34.5943C64.6205 33.5556 62.4744 33.2759 60.4606 33.8166V33.8166Z" fill="white"/>
<path d="M54.7631 64.8881C53.8224 65.1674 52.82 65.1614 51.8828 64.8709C50.9455 64.5803 50.1155 64.0183 49.4978 63.2559C48.88 62.4935 48.5023 61.565 48.4124 60.5879C48.3226 59.6108 48.5245 58.6289 48.9928 57.7666C49.4611 56.9043 50.1746 56.2003 51.0432 55.7437C51.9117 55.287 52.8961 55.0983 53.872 55.2013C54.8478 55.3043 55.7711 55.6944 56.5252 56.3224C57.2792 56.9503 57.83 57.7878 58.1079 58.7288C58.4781 59.9891 58.334 61.3448 57.7071 62.4991C57.0803 63.6534 56.0217 64.5124 54.7631 64.8881V64.8881ZM52.3742 56.799C51.7099 56.9937 51.1184 57.3811 50.6745 57.9123C50.2306 58.4434 49.9543 59.0943 49.8807 59.7826C49.8071 60.4709 49.9394 61.1655 50.2608 61.7785C50.5823 62.3916 51.0785 62.8954 51.6865 63.2262C52.2946 63.557 52.9871 63.6998 53.6764 63.6367C54.3658 63.5736 55.0208 63.3073 55.5587 62.8715C56.0965 62.4358 56.4929 61.8502 56.6977 61.189C56.9025 60.5278 56.9064 59.8207 56.7089 59.1572C56.4451 58.2708 55.8409 57.525 55.0285 57.083C54.2161 56.6411 53.2617 56.539 52.3742 56.799V56.799Z" fill="white"/>
<path d="M61.8904 76.1087L52.0685 79.0093C51.8897 79.0682 51.7009 79.091 51.5132 79.0762C51.3255 79.0614 51.1426 79.0094 50.9752 78.9233C50.8078 78.8372 50.6592 78.7186 50.538 78.5744C50.4169 78.4303 50.3257 78.2635 50.2696 78.0837L48.3552 71.6012C47.4312 68.4722 50.1329 64.9132 54.3984 63.6535C57.2818 62.8019 60.2335 63.1888 62.1197 64.6683L61.2144 65.8128C59.7249 64.6433 57.2121 64.348 54.8128 65.0566C51.34 66.0822 49.0622 68.8296 49.7584 71.1868L51.6541 77.6062L61.4761 74.7055L61.8904 76.1087Z" fill="white"/>
<path d="M81.3593 57.0337C80.4185 57.3115 79.4165 57.3041 78.4799 57.0125C77.5434 56.7208 76.7143 56.158 76.0976 55.3952C75.4809 54.6323 75.1043 53.7037 75.0153 52.7268C74.9263 51.7499 75.1291 50.7686 75.5978 49.9069C76.0666 49.0452 76.7804 48.3419 77.6489 47.8859C78.5174 47.4299 79.5016 47.2416 80.4771 47.3449C81.4525 47.4483 82.3755 47.8386 83.1291 48.4664C83.8828 49.0943 84.4334 49.9316 84.7112 50.8723C85.0838 52.1339 84.9399 53.4917 84.3113 54.6472C83.6827 55.8027 82.6208 56.6611 81.3593 57.0337V57.0337ZM78.9663 48.9306C78.3027 49.1266 77.7122 49.515 77.2695 50.0467C76.8268 50.5784 76.5518 51.2295 76.4792 51.9175C76.4067 52.6056 76.54 53.2998 76.8621 53.9121C77.1842 54.5244 77.6808 55.0274 78.2889 55.3574C78.897 55.6874 79.5894 55.8296 80.2783 55.7659C80.9673 55.7023 81.6218 55.4357 82.1592 54.9999C82.6966 54.564 83.0926 53.9786 83.2971 53.3176C83.5016 52.6566 83.5054 51.9499 83.3081 51.2867C83.0409 50.4026 82.4349 49.6601 81.6222 49.2213C80.8095 48.7825 79.8562 48.683 78.9704 48.9446L78.9663 48.9306Z" fill="white"/>
<path d="M91.3141 67.4192L81.5342 70.3074L81.1199 68.9043L90.8997 66.0161L90.9418 66.0037L89.046 59.5843C88.3623 57.2692 84.8678 56.1807 81.4091 57.2021C79.0097 57.9107 77.0605 59.5237 76.4523 61.3127L75.0635 60.8457C75.8433 58.5789 78.1113 56.6505 80.9947 55.799C85.2673 54.5372 89.5251 56.041 90.4492 59.17L92.3636 65.6524C92.456 66.0258 92.3977 66.4205 92.2012 66.7511C92.0048 67.0818 91.6861 67.3218 91.3141 67.4192V67.4192Z" fill="white"/>
</g>
<path d="M63.0969 90.1706L65.5192 89.4553L67.4823 96.1023L68.8905 95.6864L66.9275 89.0394L69.3498 88.324L68.9983 87.1339L62.7455 88.9805L63.0969 90.1706ZM71.2814 86.4597L73.5958 94.2968L74.9582 93.8945L73.3647 88.4988L73.4374 88.4773L77.19 93.2104L78.2079 92.9098L78.7906 86.9089L78.8633 86.8874L80.4533 92.2716L81.8157 91.8693L79.5012 84.0322L77.7638 84.5453L77.1143 90.9112L77.0224 90.9384L73.0187 85.9466L71.2814 86.4597ZM87.0202 84.154L88.3863 83.7506C87.9685 82.4344 86.5628 81.8303 84.8943 82.323C83.2488 82.8089 82.2863 84.1 82.6992 85.4842C83.0315 86.6092 84.0222 87.0198 85.4102 86.9718L86.3696 86.9381C87.2786 86.9027 87.9153 87.0017 88.0988 87.609C88.2927 88.2798 87.7897 88.9152 86.8636 89.1886C85.9758 89.4508 85.1695 89.2563 84.8691 88.4505L83.4724 88.863C83.9897 90.4035 85.408 90.9374 87.2334 90.3983C89.1123 89.8434 89.926 88.5838 89.5219 87.2012C89.1169 85.8439 87.8126 85.5551 86.5514 85.6238L85.7625 85.6571C85.0744 85.6939 84.2977 85.6279 84.1121 84.9712C83.9418 84.3808 84.3422 83.7924 85.23 83.5302C86.0757 83.2805 86.7508 83.5096 87.0202 84.154Z" fill="white"/>
</g>
<defs>
<filter id="filter0_d_1188_1820" x="0.458496" y="0.205444" width="132.321" height="134.671" filterUnits="userSpaceOnUse" color-interpolation-filters="sRGB">
<feFlood flood-opacity="0" result="BackgroundImageFix"/>
<feColorMatrix in="SourceAlpha" type="matrix" values="0 0 0 0 0 0 0 0 0 0 0 0 0 0 0 0 0 0 127 0" result="hardAlpha"/>
<feOffset dy="4"/>
<feGaussianBlur stdDeviation="4"/>
<feComposite in2="hardAlpha" operator="out"/>
<feColorMatrix type="matrix" values="0 0 0 0 0 0 0 0 0 0 0 0 0 0 0 0 0 0 0.1 0"/>
<feBlend mode="normal" in2="BackgroundImageFix" result="effect1_dropShadow_1188_1820"/>
<feBlend mode="normal" in="SourceGraphic" in2="effect1_dropShadow_1188_1820" result="shape"/>
</filter>
<clipPath id="clip0_1188_1820">
<rect width="70.2261" height="46.8174" fill="white" transform="translate(27.4233 42.0477) rotate(-16.453)"/>
</clipPath>
</defs>
</svg>
