<svg width="113" height="85" viewBox="0 0 113 85" fill="none" xmlns="http://www.w3.org/2000/svg">
<ellipse opacity="0.5" cx="81.6941" cy="25" rx="24.9067" ry="25" fill="#D7DF3B"/>
<g clip-path="url(#clip0_1172_1808)">
<path d="M78.5845 58.1875C76.6079 58.1875 74.6757 57.5992 73.0322 56.4969C71.3888 55.3947 70.1078 53.828 69.3514 51.995C68.595 50.1621 68.3971 48.1451 68.7827 46.1993C69.1683 44.2534 70.1202 42.466 71.5178 41.0631C72.9155 39.6602 74.6962 38.7048 76.6348 38.3178C78.5734 37.9307 80.5829 38.1293 82.409 38.8886C84.2351 39.6478 85.7959 40.9336 86.8941 42.5832C87.9922 44.2328 88.5783 46.1723 88.5783 48.1563C88.5752 50.8158 87.5213 53.3654 85.6478 55.246C83.7743 57.1265 81.2341 58.1844 78.5845 58.1875ZM78.5845 40.4688C77.0697 40.4688 75.589 40.9196 74.3295 41.7643C73.07 42.609 72.0884 43.8097 71.5087 45.2144C70.929 46.6191 70.7774 48.1648 71.0729 49.656C71.3684 51.1472 72.0978 52.517 73.1689 53.5921C74.24 54.6672 75.6047 55.3994 77.0904 55.696C78.576 55.9927 80.116 55.8404 81.5154 55.2586C82.9149 54.6767 84.111 53.6914 84.9526 52.4272C85.7942 51.163 86.2433 49.6767 86.2433 48.1563C86.2433 46.1174 85.4364 44.1621 84.0001 42.7204C82.5638 41.2787 80.6158 40.4688 78.5845 40.4688Z" fill="#9498A9"/>
<path d="M93.12 85H65.6604C65.3231 85.0062 64.9878 84.9457 64.6738 84.8218C64.3598 84.6979 64.0732 84.5132 63.8304 84.2782C63.5875 84.0431 63.3932 83.7623 63.2584 83.4519C63.1237 83.1414 63.0512 82.8073 63.0452 82.4687V68.5937C63.0452 62.1016 70.3771 56.875 79.3902 56.875C88.4033 56.875 95.7352 62.1484 95.7352 68.5937V82.4219C95.7353 82.7644 95.6673 83.1035 95.5353 83.4194C95.4034 83.7353 95.21 84.0216 94.9665 84.2617C94.723 84.5017 94.4343 84.6906 94.1173 84.8174C93.8003 84.9441 93.4612 85.0062 93.12 85ZM79.3902 59.2187C71.6613 59.2187 65.3802 63.4375 65.3802 68.5937V82.4219C65.3802 82.5156 65.4969 82.6094 65.6604 82.6094H93.12C93.2835 82.6094 93.4002 82.5156 93.4002 82.4219V68.5937C93.4002 63.4375 87.1191 59.2187 79.3902 59.2187Z" fill="#9498A9"/>
<path d="M51.8253 50.9336C49.978 50.9336 48.1722 50.3838 46.6362 49.3536C45.1003 48.3235 43.9031 46.8593 43.1962 45.1463C42.4893 43.4332 42.3043 41.5482 42.6647 39.7296C43.0251 37.9111 43.9146 36.2406 45.2209 34.9295C46.5271 33.6184 48.1913 32.7255 50.0031 32.3637C51.8149 32.002 53.6929 32.1877 55.3995 32.8972C57.1062 33.6068 58.5649 34.8084 59.5912 36.3501C60.6175 37.8918 61.1653 39.7044 61.1653 41.5586C61.1653 44.045 60.1812 46.4296 58.4296 48.1877C56.6781 49.9459 54.3024 50.9336 51.8253 50.9336ZM51.8253 34.6094C50.4398 34.6094 49.0854 35.0218 47.9335 35.7944C46.7815 36.567 45.8837 37.6651 45.3535 38.9499C44.8233 40.2347 44.6845 41.6484 44.9548 43.0124C45.2251 44.3763 45.8923 45.6291 46.872 46.6125C47.8516 47.5958 49.0998 48.2655 50.4586 48.5368C51.8175 48.8081 53.226 48.6688 54.506 48.1367C55.786 47.6045 56.88 46.7033 57.6497 45.547C58.4194 44.3907 58.8303 43.0313 58.8303 41.6406C58.8303 39.7758 58.0922 37.9874 56.7785 36.6688C55.4649 35.3502 53.6831 34.6094 51.8253 34.6094Z" fill="#9498A9"/>
<path d="M60.7102 75.625H39.8586C39.2072 75.6344 38.5786 75.3845 38.1104 74.9298C37.6422 74.4752 37.3724 73.853 37.3601 73.1992V60.4609C37.3601 54.4375 44.1666 49.5391 52.5376 49.5391C59.7528 49.5391 65.8472 53.0547 67.3649 58.1055L65.135 58.7852C63.9675 54.7891 58.632 51.8828 52.5376 51.8828C45.4509 51.8828 39.6951 55.7266 39.6951 60.4609V73.1992C39.6951 73.1992 39.6951 73.2812 39.8586 73.2812H60.7102V75.625Z" fill="#9498A9"/>
<path d="M27.3426 43.5625C25.6339 43.5625 23.9635 43.0539 22.5428 42.101C21.122 41.1482 20.0147 39.7938 19.3608 38.2092C18.7069 36.6246 18.5358 34.881 18.8691 33.1988C19.2025 31.5167 20.0253 29.9715 21.2336 28.7587C22.4418 27.5459 23.9813 26.72 25.6572 26.3854C27.3331 26.0508 29.0702 26.2225 30.6488 26.8789C32.2275 27.5352 33.5768 28.6467 34.5261 30.0728C35.4755 31.4989 35.9822 33.1755 35.9822 34.8906C35.9791 37.1896 35.0678 39.3935 33.4483 41.0191C31.8287 42.6448 29.633 43.5594 27.3426 43.5625ZM27.3426 28.5742C26.0952 28.5742 24.8759 28.9457 23.8388 29.6415C22.8018 30.3374 21.9938 31.3264 21.5169 32.4834C21.0401 33.6404 20.9159 34.9134 21.1601 36.1412C21.4043 37.3691 22.006 38.4966 22.8888 39.3812C23.7717 40.2657 24.8961 40.8675 26.1199 41.1103C27.3436 41.3532 28.6116 41.2262 29.7634 40.7454C30.9152 40.2646 31.899 39.4517 32.5903 38.4095C33.2817 37.3673 33.6495 36.1427 33.6472 34.8906C33.6441 33.2143 32.9785 31.6078 31.7965 30.4235C30.6145 29.2393 29.0127 28.5742 27.3426 28.5742Z" fill="#9498A9"/>
<path d="M35.025 66.25H16.4034C16.0919 66.2578 15.782 66.203 15.4919 66.0887C15.2018 65.9744 14.9375 65.803 14.7144 65.5846C14.4914 65.3662 14.3141 65.1052 14.1932 64.8169C14.0722 64.5287 14.0099 64.219 14.01 63.9062V52.1875C14.01 46.5977 20.2912 42.0508 28.02 42.0508C34.2895 42.0508 39.8352 45.0859 41.5047 49.4219L39.3331 50.2773C37.9905 46.8203 33.3438 44.418 28.02 44.418C21.5871 44.418 16.345 47.9336 16.345 52.2109V63.9062H35.025V66.25Z" fill="#9498A9"/>
</g>
<defs>
<clipPath id="clip0_1172_1808">
<rect width="112.08" height="75" fill="white" transform="translate(0 10)"/>
</clipPath>
</defs>
</svg>
