<svg width="914" height="323" viewBox="0 0 914 323" fill="none" xmlns="http://www.w3.org/2000/svg">
<path d="M631.202 125.627C631.278 126.622 631.338 127.621 631.38 128.625L630.381 128.668C630.388 128.833 630.395 128.999 630.401 129.164C630.407 129.33 630.413 129.496 630.418 129.661L631.417 129.63C631.449 130.635 631.463 131.636 631.46 132.633L630.46 132.63C630.459 132.959 630.456 133.288 630.451 133.616L631.451 133.63C631.437 134.635 631.405 135.637 631.357 136.634L630.358 136.586C630.342 136.915 630.324 137.243 630.305 137.571L631.303 137.631C631.243 138.634 631.166 139.632 631.071 140.626L630.076 140.532C630.045 140.86 630.012 141.187 629.977 141.514L630.972 141.62C630.865 142.618 630.742 143.612 630.602 144.6L629.612 144.46C629.566 144.787 629.518 145.112 629.468 145.438L630.457 145.589C630.305 146.581 630.136 147.567 629.95 148.548L628.968 148.363C628.907 148.687 628.843 149.01 628.779 149.333L629.759 149.53C629.561 150.513 629.347 151.49 629.116 152.462L628.143 152.231C628.067 152.552 627.989 152.872 627.909 153.191L628.879 153.434C628.636 154.406 628.377 155.373 628.101 156.332L627.14 156.056C627.049 156.373 626.956 156.69 626.861 157.005L627.819 157.293C627.531 158.253 627.227 159.206 626.908 160.152L625.96 159.831C625.855 160.144 625.747 160.456 625.638 160.767L626.581 161.098C626.249 162.043 625.902 162.981 625.538 163.911L624.607 163.547C624.487 163.855 624.365 164.161 624.241 164.467L625.168 164.842C624.793 165.77 624.402 166.691 623.996 167.604L623.082 167.197C622.948 167.499 622.812 167.799 622.674 168.099L623.583 168.516C623.165 169.426 622.732 170.328 622.284 171.221L621.39 170.772C621.242 171.067 621.093 171.361 620.941 171.655L621.83 172.113C621.371 173.003 620.896 173.884 620.407 174.755L619.535 174.266C619.374 174.554 619.211 174.841 619.046 175.126L619.912 175.626C619.413 176.493 618.898 177.351 618.37 178.199L617.521 177.67C617.346 177.95 617.17 178.229 616.993 178.507L617.835 179.046C617.296 179.889 616.743 180.723 616.175 181.546L615.352 180.979C615.165 181.25 614.976 181.521 614.786 181.79L615.603 182.367C615.025 183.185 614.434 183.992 613.829 184.788L613.033 184.184C612.833 184.447 612.632 184.708 612.43 184.968L613.22 185.582C612.605 186.372 611.978 187.152 611.337 187.92L610.569 187.279C610.358 187.532 610.145 187.784 609.931 188.035L610.692 188.684C610.042 189.445 609.379 190.195 608.704 190.933L607.966 190.258C607.743 190.501 607.519 190.743 607.294 190.984L608.024 191.667C607.34 192.398 606.643 193.116 605.935 193.822L605.229 193.114C604.995 193.347 604.76 193.578 604.524 193.808L605.222 194.525C604.505 195.223 603.777 195.908 603.036 196.582L602.363 195.842C602.119 196.063 601.874 196.284 601.628 196.503L602.292 197.25C601.544 197.915 600.784 198.566 600.014 199.204L599.376 198.434C599.122 198.645 598.867 198.854 598.61 199.061L599.239 199.839C598.462 200.467 597.673 201.083 596.874 201.685L596.272 200.887C596.009 201.085 595.744 201.282 595.478 201.478L596.071 202.283C595.265 202.875 594.449 203.454 593.623 204.019L593.059 203.193C592.786 203.379 592.513 203.564 592.238 203.747L592.793 204.579C591.961 205.133 591.119 205.674 590.267 206.2L589.742 205.349C589.461 205.522 589.18 205.694 588.897 205.864L589.412 206.721C588.556 207.236 587.69 207.736 586.815 208.222L586.329 207.348C586.041 207.508 585.752 207.666 585.461 207.823L585.936 208.703C585.057 209.178 584.169 209.638 583.272 210.083L582.828 209.187C582.532 209.333 582.236 209.478 581.938 209.621L582.372 210.522C581.472 210.955 580.563 211.373 579.646 211.776L579.244 210.86C578.942 210.993 578.64 211.124 578.336 211.253L578.727 212.173C577.808 212.564 576.881 212.939 575.945 213.298L575.587 212.365C575.279 212.483 574.971 212.6 574.661 212.715L575.009 213.652C574.073 213.999 573.129 214.331 572.178 214.647L571.863 213.697C571.55 213.801 571.237 213.903 570.922 214.003L571.226 214.956C570.275 215.259 569.316 215.546 568.351 215.817L568.081 214.855C567.764 214.944 567.446 215.031 567.127 215.116L567.386 216.082C566.422 216.34 565.451 216.583 564.473 216.808L564.248 215.834C563.928 215.908 563.607 215.98 563.285 216.051L563.498 217.028C562.523 217.241 561.541 217.438 560.554 217.618L560.374 216.634C560.051 216.693 559.727 216.75 559.402 216.806L559.57 217.792C558.586 217.959 557.596 218.111 556.6 218.245L556.466 217.254C556.141 217.298 555.815 217.34 555.488 217.38L555.611 218.373C554.619 218.495 553.623 218.6 552.621 218.689L552.533 217.693C552.206 217.721 551.879 217.749 551.551 217.774L551.628 218.771C550.633 218.847 549.634 218.907 548.63 218.95L548.587 217.95C548.495 217.954 548.403 217.958 548.31 217.962C548.237 217.965 548.164 217.967 548.091 217.97C547.991 217.974 547.891 217.977 547.791 217.981C547.725 217.983 547.66 217.985 547.594 217.987L547.625 218.987C546.62 219.018 545.619 219.032 544.622 219.028L544.625 218.028C544.296 218.027 543.968 218.025 543.64 218.02L543.625 219.02C542.62 219.005 541.618 218.973 540.621 218.924L540.67 217.925C540.341 217.909 540.013 217.891 539.685 217.871L539.625 218.869C538.622 218.809 537.623 218.73 536.629 218.635L536.724 217.64C536.396 217.609 536.069 217.575 535.742 217.54L535.636 218.535C534.637 218.428 533.644 218.303 532.656 218.162L532.797 217.172C532.471 217.126 532.145 217.077 531.82 217.027L531.667 218.015C530.675 217.862 529.689 217.692 528.708 217.505L528.896 216.522C528.572 216.461 528.249 216.397 527.926 216.332L527.727 217.312C526.744 217.113 525.767 216.897 524.796 216.664L525.029 215.692C524.708 215.615 524.388 215.536 524.069 215.456L523.825 216.425C522.853 216.181 521.887 215.919 520.928 215.642L521.206 214.681C520.889 214.589 520.573 214.496 520.257 214.4L519.968 215.358C519.009 215.068 518.056 214.762 517.111 214.44L517.434 213.493C517.121 213.387 516.81 213.278 516.499 213.168L516.166 214.111C515.221 213.777 514.284 213.427 513.355 213.061L513.721 212.13C513.414 212.01 513.108 211.887 512.802 211.763L512.425 212.689C511.498 212.311 510.578 211.918 509.666 211.509L510.076 210.596C509.774 210.461 509.474 210.325 509.175 210.186L508.755 211.094C507.846 210.674 506.946 210.238 506.054 209.787L506.505 208.895C506.211 208.746 505.917 208.595 505.625 208.443L505.163 209.33C504.275 208.868 503.396 208.391 502.525 207.9L503.017 207.029C502.73 206.867 502.444 206.703 502.159 206.537L501.657 207.402C500.791 206.899 499.935 206.382 499.088 205.851L499.619 205.004C499.34 204.828 499.062 204.651 498.784 204.473L498.243 205.314C497.402 204.772 496.57 204.216 495.748 203.646L496.318 202.824C496.047 202.636 495.778 202.446 495.509 202.255L494.929 203.07C494.114 202.49 493.308 201.896 492.514 201.289L493.121 200.494C492.859 200.294 492.598 200.092 492.339 199.889L491.722 200.676C490.934 200.059 490.157 199.429 489.391 198.786L490.034 198.02C489.782 197.808 489.531 197.594 489.281 197.379L488.629 198.138C487.87 197.485 487.123 196.82 486.387 196.142L487.065 195.406C486.822 195.183 486.581 194.958 486.341 194.732L485.655 195.46C484.927 194.773 484.211 194.074 483.507 193.363L484.218 192.659C483.986 192.425 483.755 192.189 483.526 191.952L482.807 192.648C482.112 191.929 481.429 191.198 480.758 190.455L481.5 189.785C481.279 189.54 481.06 189.294 480.842 189.047L480.092 189.708C479.43 188.958 478.781 188.197 478.145 187.424L478.918 186.788C478.708 186.534 478.5 186.278 478.294 186.021L477.514 186.647C476.888 185.867 476.275 185.077 475.675 184.275L476.476 183.676C476.278 183.412 476.082 183.147 475.887 182.881L475.08 183.47C474.49 182.663 473.914 181.845 473.352 181.017L474.179 180.455C473.994 180.183 473.81 179.909 473.628 179.633L472.794 180.185C472.243 179.352 471.705 178.509 471.181 177.655L472.034 177.132C471.861 176.851 471.691 176.569 471.521 176.286L470.663 176.798C470.15 175.941 469.652 175.073 469.169 174.196L470.044 173.714C469.885 173.425 469.727 173.135 469.571 172.844L468.69 173.317C468.218 172.437 467.76 171.547 467.318 170.649L468.215 170.207C468.069 169.911 467.925 169.614 467.783 169.316L466.881 169.748C466.45 168.847 466.034 167.937 465.634 167.019L466.55 166.619C466.418 166.317 466.288 166.014 466.16 165.71L465.239 166.099C464.85 165.179 464.477 164.251 464.119 163.315L465.054 162.958C464.936 162.65 464.82 162.341 464.706 162.031L463.768 162.377C463.422 161.441 463.093 160.496 462.779 159.544L463.729 159.231C463.626 158.918 463.524 158.604 463.425 158.29L462.471 158.592C462.17 157.64 461.884 156.681 461.615 155.715L462.578 155.447C462.49 155.129 462.403 154.812 462.318 154.493L461.352 154.75C461.095 153.786 460.854 152.814 460.629 151.836L461.604 151.613C461.53 151.292 461.458 150.971 461.388 150.649L460.411 150.861C460.199 149.885 460.003 148.904 459.824 147.916L460.808 147.737C460.749 147.414 460.693 147.09 460.637 146.765L459.652 146.932C459.485 145.948 459.334 144.957 459.2 143.962L460.192 143.828C460.148 143.503 460.106 143.177 460.066 142.85L459.073 142.972C458.952 141.981 458.847 140.984 458.759 139.982L459.755 139.895C459.726 139.568 459.699 139.241 459.674 138.913L458.677 138.989C458.601 137.995 458.541 136.995 458.499 135.991L459.498 135.949C459.491 135.783 459.484 135.618 459.478 135.452C459.472 135.286 459.466 135.121 459.461 134.955L458.462 134.986C458.431 133.982 458.416 132.981 458.419 131.983L459.419 131.986C459.42 131.657 459.423 131.329 459.428 131.001L458.428 130.987C458.442 129.981 458.474 128.979 458.522 127.982L459.521 128.03C459.537 127.702 459.555 127.373 459.574 127.046L458.576 126.986C458.636 125.983 458.713 124.984 458.808 123.99L459.803 124.084C459.834 123.756 459.867 123.429 459.902 123.102L458.907 122.996C459.014 121.998 459.137 121.004 459.277 120.016L460.267 120.156C460.313 119.83 460.361 119.504 460.411 119.179L459.422 119.027C459.574 118.035 459.743 117.049 459.929 116.068L460.911 116.254C460.973 115.93 461.036 115.606 461.101 115.284L460.12 115.086C460.318 114.103 460.532 113.126 460.763 112.155L461.736 112.386C461.812 112.065 461.89 111.744 461.97 111.425L461 111.182C461.243 110.21 461.502 109.244 461.778 108.284L462.739 108.56C462.83 108.243 462.923 107.927 463.018 107.611L462.06 107.324C462.348 106.364 462.652 105.411 462.971 104.465L463.919 104.785C464.025 104.473 464.132 104.161 464.241 103.85L463.298 103.518C463.63 102.573 463.977 101.635 464.341 100.705L465.272 101.069C465.393 100.761 465.514 100.455 465.638 100.149L464.711 99.7745C465.086 98.8459 465.477 97.9251 465.883 97.0125L466.797 97.4192C466.931 97.1177 467.067 96.8171 467.205 96.5174L466.296 96.1001C466.714 95.1901 467.147 94.2884 467.595 93.3954L468.489 93.8438C468.637 93.5489 468.786 93.2548 468.938 92.9618L468.049 92.503C468.508 91.6134 468.983 90.7326 469.472 89.861L470.344 90.3503C470.505 90.0625 470.668 89.7757 470.833 89.4899L469.967 88.9906C470.466 88.1233 470.981 87.2653 471.509 86.417L472.358 86.9459C472.533 86.6659 472.709 86.3869 472.886 86.109L472.044 85.5704C472.583 84.727 473.137 83.8935 473.704 83.0702L474.527 83.6376C474.714 83.366 474.903 83.0955 475.093 82.8261L474.276 82.2493C474.854 81.4316 475.445 80.6244 476.05 79.8278L476.846 80.4324C477.046 80.1698 477.247 79.9083 477.449 79.648L476.659 79.0342C477.274 78.2441 477.901 77.4648 478.542 76.6966L479.31 77.3372C479.521 77.084 479.734 76.8321 479.948 76.5813L479.187 75.932C479.837 75.171 480.5 74.4212 481.175 73.6832L481.913 74.3583C482.136 74.1151 482.36 73.8732 482.585 73.6326L481.855 72.949C482.539 72.2187 483.236 71.5002 483.944 70.7938L484.65 71.5021C484.884 71.2694 485.119 71.038 485.355 70.808L484.657 70.0916C485.374 69.3936 486.103 68.7079 486.843 68.0347L487.516 68.7747C487.76 68.5529 488.005 68.3326 488.251 68.1136L487.587 67.3659C488.335 66.7017 489.095 66.0502 489.865 65.4118L490.503 66.182C490.757 65.9716 491.012 65.7627 491.269 65.5552L490.64 64.7778C491.417 64.1489 492.206 63.5331 493.005 62.9309L493.607 63.7296C493.87 63.5312 494.135 63.3342 494.401 63.1387L493.808 62.3331C494.614 61.7409 495.43 61.1622 496.256 60.5974L496.82 61.4231C497.093 61.237 497.366 61.0525 497.641 60.8695L497.086 60.0374C497.918 59.4831 498.76 58.9427 499.612 58.4168L500.137 59.2676C500.418 59.0944 500.699 58.9227 500.982 58.7526L500.467 57.8957C501.323 57.3806 502.189 56.8799 503.064 56.3939L503.55 57.2683C503.838 57.1082 504.127 56.9498 504.418 56.793L503.943 55.9131C504.822 55.4384 505.71 54.9785 506.607 54.5337L507.051 55.4296C507.347 55.2832 507.643 55.1384 507.941 54.9953L507.507 54.0942C508.407 53.661 509.316 53.243 510.233 52.8403L510.635 53.756C510.937 53.6235 511.24 53.4927 511.543 53.3636L511.152 52.4433C512.071 52.0526 512.998 51.6773 513.934 51.3178L514.292 52.2512C514.6 52.133 514.909 52.0165 515.218 51.9017L514.87 50.9642C515.806 50.6169 516.75 50.2853 517.702 49.9697L518.016 50.9188C518.329 50.8151 518.642 50.7132 518.957 50.613L518.653 49.6603C519.604 49.357 520.563 49.0698 521.528 48.7989L521.798 49.7617C522.115 49.6728 522.433 49.5856 522.752 49.5002L522.493 48.5343C523.457 48.2758 524.428 48.0336 525.406 47.8078L525.631 48.7822C525.951 48.7082 526.272 48.6359 526.594 48.5655L526.381 47.5886C527.356 47.3753 528.338 47.1784 529.325 46.9983L529.505 47.982C529.828 47.923 530.152 47.8659 530.477 47.8105L530.309 46.8247C531.293 46.6569 532.283 46.5057 533.279 46.3713L533.413 47.3624C533.738 47.3185 534.064 47.2764 534.391 47.2361L534.268 46.2436C535.26 46.1215 536.256 46.016 537.258 45.9276L537.346 46.9237C537.673 46.8948 538 46.8678 538.328 46.8426L538.251 45.8455C539.246 45.7691 540.245 45.7094 541.249 45.6668L541.292 46.6659C541.457 46.6588 541.623 46.6523 541.788 46.6462C541.954 46.6401 542.12 46.6345 542.285 46.6293L542.254 45.6298C543.259 45.5986 544.26 45.5847 545.257 45.5878L545.254 46.5878C545.583 46.5888 545.911 46.5918 546.239 46.5965L546.254 45.5966C547.259 45.6113 548.261 45.6432 549.258 45.6922L549.209 46.691C549.538 46.7072 549.866 46.7252 550.194 46.7451L550.254 45.7469C551.257 45.8077 552.256 45.8858 553.25 45.9808L553.155 46.9763C553.483 47.0076 553.81 47.0408 554.137 47.0759L554.243 46.0816C555.242 46.1887 556.235 46.313 557.223 46.454L557.082 47.444C557.408 47.4906 557.734 47.539 558.059 47.5892L558.212 46.601C559.204 46.7543 560.19 46.9246 561.171 47.1115L560.983 48.0938C561.307 48.1556 561.63 48.2191 561.953 48.2846L562.152 47.3045C563.135 47.5038 564.112 47.7198 565.083 47.9523L564.85 48.9248C565.171 49.0016 565.491 49.0802 565.81 49.1607L566.054 48.191C567.026 48.4358 567.992 48.6972 568.951 48.9748L568.673 49.9353C568.99 50.0271 569.306 50.1206 569.622 50.2159L569.911 49.2586C570.87 49.5485 571.823 49.8546 572.768 50.1767L572.445 51.1233C572.758 51.2297 573.069 51.3379 573.38 51.4478L573.714 50.5051C574.658 50.8393 575.595 51.1895 576.524 51.5553L576.158 52.4858C576.465 52.6067 576.771 52.7293 577.077 52.8537L577.454 51.9275C578.381 52.3052 579.301 52.6986 580.213 53.1074L579.803 54.0199C580.105 54.1549 580.405 54.2916 580.704 54.4301L581.124 53.5224C582.033 53.9428 582.933 54.3785 583.825 54.8293L583.374 55.7217C583.668 55.8706 583.962 56.0211 584.254 56.1733L584.716 55.2861C585.604 55.7481 586.483 56.2251 587.354 56.7168L586.862 57.5874C587.149 57.7497 587.435 57.9137 587.72 58.0792L588.222 57.2144C589.088 57.7169 589.945 58.234 590.791 58.7655L590.26 59.6125C590.539 59.7879 590.817 59.9649 591.095 60.1434L591.636 59.3026C592.478 59.8445 593.309 60.4007 594.131 60.9708L593.561 61.7923C593.832 61.9804 594.101 62.17 594.37 62.3611L594.95 61.5462C595.765 62.1262 596.571 62.7202 597.365 63.3276L596.758 64.122C597.02 64.3223 597.281 64.5241 597.54 64.7274L598.157 63.94C598.945 64.5569 599.722 65.1872 600.488 65.8307L599.845 66.5964C600.097 66.8084 600.348 67.0219 600.598 67.2369L601.25 66.4786C602.009 67.131 602.756 67.7964 603.492 68.4745L602.814 69.2098C603.057 69.4332 603.298 69.6581 603.538 69.8843L604.224 69.1567C604.952 69.8432 605.668 70.5422 606.372 71.2534L605.661 71.9569C605.893 72.1912 606.124 72.4268 606.353 72.6638L607.072 71.9685C607.767 72.6875 608.45 73.4186 609.121 74.1615L608.379 74.8316C608.6 75.0763 608.819 75.3224 609.037 75.5697L609.787 74.9081C610.449 75.6581 611.098 76.4198 611.734 77.1928L610.961 77.828C611.171 78.0827 611.379 78.3386 611.586 78.5958L612.365 77.9694C612.991 78.7488 613.604 79.5394 614.204 80.3408L613.403 80.94C613.601 81.204 613.797 81.4693 613.992 81.7357L614.799 81.1459C615.389 81.9531 615.965 82.771 616.527 83.5992L615.7 84.1608C615.885 84.4337 616.069 84.7078 616.251 84.983L617.085 84.4309C617.636 85.2642 618.174 86.1078 618.698 86.9612L617.845 87.4841C618.018 87.7652 618.188 88.0474 618.358 88.3307L619.216 87.8178C619.729 88.6755 620.227 89.5429 620.71 90.4198L619.835 90.9027C619.994 91.1915 620.152 91.4813 620.308 91.7721L621.189 91.2994C621.661 92.1797 622.119 93.0693 622.561 93.9678L621.664 94.4096C621.81 94.7054 621.954 95.0022 622.096 95.2999L622.998 94.8686C623.429 95.7696 623.845 96.6794 624.245 97.5977L623.329 97.9974C623.461 98.2996 623.591 98.6027 623.719 98.9067L624.64 98.5176C625.029 99.4375 625.402 100.366 625.76 101.302L624.825 101.659C624.943 101.966 625.059 102.275 625.173 102.585L626.111 102.239C626.457 103.176 626.786 104.12 627.1 105.072L626.15 105.385C626.254 105.698 626.355 106.012 626.455 106.326L627.408 106.024C627.709 106.976 627.995 107.935 628.264 108.901L627.301 109.17C627.39 109.487 627.476 109.805 627.561 110.123L628.527 109.866C628.784 110.831 629.025 111.802 629.25 112.78L628.275 113.004C628.349 113.324 628.421 113.646 628.491 113.968L629.468 113.755C629.68 114.731 629.876 115.713 630.055 116.701L629.071 116.879C629.13 117.202 629.187 117.527 629.242 117.851L630.227 117.684C630.394 118.669 630.545 119.659 630.679 120.655L629.687 120.788C629.731 121.113 629.773 121.439 629.813 121.766L630.806 121.644C630.927 122.635 631.032 123.632 631.12 124.634L630.124 124.722C630.153 125.048 630.18 125.376 630.205 125.703L631.202 125.627Z" stroke="#627ADF" stroke-width="2" stroke-dasharray="1 3"/>
<circle cx="422.016" cy="247.312" r="36.3377" transform="rotate(177.893 422.016 247.312)" stroke="#627ADF" stroke-width="2" stroke-dasharray="1 3"/>
<circle cx="197.588" cy="207.759" r="19.877" transform="rotate(177.893 197.588 207.759)" stroke="#5D79EE" stroke-width="2" stroke-dasharray="1 3"/>
<circle cx="789.158" cy="122.791" r="106.597" transform="rotate(-2.10673 789.158 122.791)" stroke="#4D67D3" stroke-opacity="0.5" stroke-width="2"/>
<circle cx="789.158" cy="122.791" r="97.7643" transform="rotate(-2.10673 789.158 122.791)" stroke="#4D67D3" stroke-opacity="0.5" stroke-width="2" stroke-dasharray="2 5"/>
<line x1="627.395" y1="109.091" x2="681.738" y2="101.066" stroke="#4D67D3" stroke-opacity="0.5"/>
<line x1="448.885" y1="220.591" x2="481.153" y2="190.803" stroke="#5E79E7" stroke-dasharray="1 4"/>
<line x1="217.12" y1="211.773" x2="384.476" y2="239.766" stroke="#5D79EE" stroke-dasharray="1 3"/>
<line x1="12.9691" y1="224.496" x2="176.739" y2="209.633" stroke="url(#paint0_linear_1001_1804)" stroke-dasharray="1 3"/>
<defs>
<linearGradient id="paint0_linear_1001_1804" x1="181.269" y1="209.327" x2="-10.2694" y2="230.1" gradientUnits="userSpaceOnUse">
<stop stop-color="#5D79EE"/>
<stop offset="1" stop-color="#5D79EE" stop-opacity="0"/>
</linearGradient>
</defs>
</svg>
