<svg width="38" height="38" viewBox="0 0 38 38" fill="none" xmlns="http://www.w3.org/2000/svg">
<circle opacity="0.2" cx="19" cy="19" r="19" fill="#374EAC"/>
<path fill-rule="evenodd" clip-rule="evenodd" d="M22.1866 21.4716H22.9766L27.2166 25.7316C27.6266 26.1416 27.6266 26.8116 27.2166 27.2216C26.8066 27.6316 26.1366 27.6316 25.7266 27.2216L21.4766 22.9716V22.1816L21.2066 21.9016C19.8066 23.1016 17.8966 23.7216 15.8666 23.3816C13.0866 22.9116 10.8666 20.5916 10.5266 17.7916C10.0066 13.5616 13.5666 10.0016 17.7966 10.5216C20.5966 10.8616 22.9166 13.0816 23.3866 15.8616C23.7266 17.8916 23.1066 19.8016 21.9066 21.2016L22.1866 21.4716ZM12.4766 16.9716C12.4766 19.4616 14.4866 21.4716 16.9766 21.4716C19.4666 21.4716 21.4766 19.4616 21.4766 16.9716C21.4766 14.4816 19.4666 12.4716 16.9766 12.4716C14.4866 12.4716 12.4766 14.4816 12.4766 16.9716Z" fill="#374EAC"/>
</svg>
