<svg width="160" height="24" viewBox="0 0 160 24" fill="none" xmlns="http://www.w3.org/2000/svg">
<path d="M12 17.5196L16.15 20.0296C16.91 20.4896 17.84 19.8096 17.64 18.9496L16.54 14.2296L20.21 11.0496C20.88 10.4696 20.52 9.36964 19.64 9.29964L14.81 8.88964L12.92 4.42964C12.58 3.61964 11.42 3.61964 11.08 4.42964L9.19001 8.87964L4.36001 9.28964C3.48001 9.35964 3.12001 10.4596 3.79001 11.0396L7.46001 14.2196L6.36001 18.9396C6.16001 19.7996 7.09001 20.4796 7.85001 20.0196L12 17.5196Z" fill="#374EAC"/>
<path d="M80 17.5196L84.15 20.0296C84.91 20.4896 85.84 19.8096 85.64 18.9496L84.54 14.2296L88.21 11.0496C88.88 10.4696 88.52 9.36964 87.64 9.29964L82.81 8.88964L80.92 4.42964C80.58 3.61964 79.42 3.61964 79.08 4.42964L77.19 8.87964L72.36 9.28964C71.48 9.35964 71.12 10.4596 71.79 11.0396L75.46 14.2196L74.36 18.9396C74.16 19.7996 75.09 20.4796 75.85 20.0196L80 17.5196Z" fill="#374EAC"/>
<path d="M148 17.5196L152.15 20.0296C152.91 20.4896 153.84 19.8096 153.64 18.9496L152.54 14.2296L156.21 11.0496C156.88 10.4696 156.52 9.36964 155.64 9.29964L150.81 8.88964L148.92 4.42964C148.58 3.61964 147.42 3.61964 147.08 4.42964L145.19 8.87964L140.36 9.28964C139.48 9.35964 139.12 10.4596 139.79 11.0396L143.46 14.2196L142.36 18.9396C142.16 19.7996 143.09 20.4796 143.85 20.0196L148 17.5196Z" fill="#374EAC"/>
<path d="M46 17.5196L50.15 20.0296C50.91 20.4896 51.84 19.8096 51.64 18.9496L50.54 14.2296L54.21 11.0496C54.88 10.4696 54.52 9.36964 53.64 9.29964L48.81 8.88964L46.92 4.42964C46.58 3.61964 45.42 3.61964 45.08 4.42964L43.19 8.87964L38.36 9.28964C37.48 9.35964 37.12 10.4596 37.79 11.0396L41.46 14.2196L40.36 18.9396C40.16 19.7996 41.09 20.4796 41.85 20.0196L46 17.5196Z" fill="#374EAC"/>
<path d="M114 17.5196L118.15 20.0296C118.91 20.4896 119.84 19.8096 119.64 18.9496L118.54 14.2296L122.21 11.0496C122.88 10.4696 122.52 9.36964 121.64 9.29964L116.81 8.88964L114.92 4.42964C114.58 3.61964 113.42 3.61964 113.08 4.42964L111.19 8.87964L106.36 9.28964C105.48 9.35964 105.12 10.4596 105.79 11.0396L109.46 14.2196L108.36 18.9396C108.16 19.7996 109.09 20.4796 109.85 20.0196L114 17.5196Z" fill="#374EAC"/>
</svg>
