<svg width="16" height="17" viewBox="0 0 16 17" fill="none" xmlns="http://www.w3.org/2000/svg">
<circle cx="8" cy="8" r="7" fill="#D7DF3B"/>
<path d="M4 7.51875L7.525 11.0438L12.125 4L7.525 7.95625L4 7.51875Z" fill="#374EAC"/>
<path d="M8.06236 16.25C5.94987 16.2057 3.94115 15.3255 2.47664 13.8024C1.01213 12.2793 0.211342 10.2376 0.249863 8.125C0.211342 6.01239 1.01213 3.97071 2.47664 2.44762C3.94115 0.924528 5.94987 0.0443238 8.06236 0C10.1749 0.0443238 12.1836 0.924528 13.6481 2.44762C15.1126 3.97071 15.9134 6.01239 15.8749 8.125C15.9134 10.2376 15.1126 12.2793 13.6481 13.8024C12.1836 15.3255 10.1749 16.2057 8.06236 16.25ZM8.06236 1.25C6.28137 1.29424 4.59056 2.04272 3.36045 3.33141C2.13034 4.6201 1.46127 6.34388 1.49986 8.125C1.46127 9.90612 2.13034 11.6299 3.36045 12.9186C4.59056 14.2073 6.28137 14.9558 8.06236 15C9.84335 14.9558 11.5342 14.2073 12.7643 12.9186C13.9944 11.6299 14.6635 9.90612 14.6249 8.125C14.6635 6.34388 13.9944 4.6201 12.7643 3.33141C11.5342 2.04272 9.84335 1.29424 8.06236 1.25Z" fill="#374EAC"/>
</svg>
