<svg width="40" height="40" viewBox="0 0 40 40" fill="none" xmlns="http://www.w3.org/2000/svg">
<path d="M39.375 23.75H0.625V25H39.375V23.75Z" fill="black"/>
<path d="M16.25 29.375H15V36.25H16.25V29.375Z" fill="black"/>
<path d="M25 29.375H23.75V35.975H25V29.375Z" fill="black"/>
<path d="M28.75 40H11.25C10.9185 40 10.6005 39.8683 10.3661 39.6339C10.1317 39.3995 10 39.0815 10 38.75V38.125C10 37.2962 10.3292 36.5013 10.9153 35.9153C11.5013 35.3292 12.2962 35 13.125 35H26.875C27.7038 35 28.4987 35.3292 29.0847 35.9153C29.6708 36.5013 30 37.2962 30 38.125V38.75C30 39.0815 29.8683 39.3995 29.6339 39.6339C29.3995 39.8683 29.0815 40 28.75 40ZM13.125 36.25C12.6277 36.25 12.1508 36.4475 11.7992 36.7992C11.4475 37.1508 11.25 37.6277 11.25 38.125V38.75H28.75V38.125C28.75 37.6277 28.5525 37.1508 28.2008 36.7992C27.8492 36.4475 27.3723 36.25 26.875 36.25H13.125Z" fill="black"/>
<path d="M36.875 30H3.125C2.71462 30 2.30826 29.9192 1.92911 29.7621C1.54997 29.6051 1.20547 29.3749 0.915291 29.0847C0.625108 28.7945 0.394922 28.45 0.237876 28.0709C0.0808302 27.6917 0 27.2854 0 26.875V3.125C0 2.2962 0.32924 1.50134 0.915291 0.915291C1.50134 0.32924 2.2962 0 3.125 0L36.875 0C37.2854 0 37.6917 0.0808305 38.0709 0.237876C38.45 0.394922 38.7945 0.625108 39.0847 0.915291C39.3749 1.20547 39.6051 1.54997 39.7621 1.92911C39.9192 2.30826 40 2.71462 40 3.125V26.875C40 27.2854 39.9192 27.6917 39.7621 28.0709C39.6051 28.45 39.3749 28.7945 39.0847 29.0847C38.7945 29.3749 38.45 29.6051 38.0709 29.7621C37.6917 29.9192 37.2854 30 36.875 30ZM3.125 1.25C2.62772 1.25 2.15081 1.44754 1.79917 1.79917C1.44754 2.15081 1.25 2.62772 1.25 3.125V26.875C1.25 27.3723 1.44754 27.8492 1.79917 28.2008C2.15081 28.5525 2.62772 28.75 3.125 28.75H36.875C37.3723 28.75 37.8492 28.5525 38.2008 28.2008C38.5525 27.8492 38.75 27.3723 38.75 26.875V3.125C38.75 2.62772 38.5525 2.15081 38.2008 1.79917C37.8492 1.44754 37.3723 1.25 36.875 1.25H3.125Z" fill="black"/>
<path d="M20 27.5C20.3452 27.5 20.625 27.2202 20.625 26.875C20.625 26.5298 20.3452 26.25 20 26.25C19.6548 26.25 19.375 26.5298 19.375 26.875C19.375 27.2202 19.6548 27.5 20 27.5Z" fill="black"/>
<path d="M15.625 13.125C15.9702 13.125 16.25 12.8452 16.25 12.5C16.25 12.1548 15.9702 11.875 15.625 11.875C15.2798 11.875 15 12.1548 15 12.5C15 12.8452 15.2798 13.125 15.625 13.125Z" fill="black"/>
<path d="M24.375 13.125C24.7202 13.125 25 12.8452 25 12.5C25 12.1548 24.7202 11.875 24.375 11.875C24.0298 11.875 23.75 12.1548 23.75 12.5C23.75 12.8452 24.0298 13.125 24.375 13.125Z" fill="black"/>
<path d="M15.625 16.25C15.9702 16.25 16.25 15.9702 16.25 15.625C16.25 15.2798 15.9702 15 15.625 15C15.2798 15 15 15.2798 15 15.625C15 15.9702 15.2798 16.25 15.625 16.25Z" fill="black"/>
<path d="M20 16.25C20.3452 16.25 20.625 15.9702 20.625 15.625C20.625 15.2798 20.3452 15 20 15C19.6548 15 19.375 15.2798 19.375 15.625C19.375 15.9702 19.6548 16.25 20 16.25Z" fill="black"/>
<path d="M20 13.125C20.3452 13.125 20.625 12.8452 20.625 12.5C20.625 12.1548 20.3452 11.875 20 11.875C19.6548 11.875 19.375 12.1548 19.375 12.5C19.375 12.8452 19.6548 13.125 20 13.125Z" fill="black"/>
<path d="M24.375 16.25C24.7202 16.25 25 15.9702 25 15.625C25 15.2798 24.7202 15 24.375 15C24.0298 15 23.75 15.2798 23.75 15.625C23.75 15.9702 24.0298 16.25 24.375 16.25Z" fill="black"/>
<path d="M21.8062 18.7501H13.85C13.6747 18.7526 13.5005 18.7204 13.3377 18.6554C13.1748 18.5904 13.0264 18.4939 12.9009 18.3713C12.7755 18.2488 12.6755 18.1027 12.6067 17.9413C12.5379 17.78 12.5016 17.6067 12.5 17.4314V6.31888C12.5016 6.14353 12.5379 5.97022 12.6067 5.80892C12.6755 5.64762 12.7755 5.5015 12.9009 5.37896C13.0264 5.25642 13.1748 5.15987 13.3377 5.09486C13.5005 5.02985 13.6747 4.99766 13.85 5.00013H26.15C26.3253 4.99766 26.4995 5.02985 26.6623 5.09486C26.8252 5.15987 26.9736 5.25642 27.0991 5.37896C27.2245 5.5015 27.3245 5.64762 27.3933 5.80892C27.4621 5.97022 27.4984 6.14353 27.5 6.31888V13.3814H26.25V6.31888C26.25 6.31888 26.2125 6.25013 26.15 6.25013H13.85C13.7875 6.25013 13.75 6.28763 13.75 6.31888V17.4314C13.75 17.4626 13.7875 17.5001 13.85 17.5001H21.8062V18.7501Z" fill="black"/>
<path d="M26.875 8.75H13.75V10H26.875V8.75Z" fill="black"/>
<path d="M23.3938 17.5562L27.0688 21.2313L31.875 13.875L27.0688 18.0062L23.3938 17.5562Z" fill="black"/>
</svg>
