<svg width="112" height="85" viewBox="0 0 112 85" fill="none" xmlns="http://www.w3.org/2000/svg">
<circle opacity="0.5" cx="87" cy="25" r="25" fill="#D7DF3B"/>
<path d="M63.2812 54.5312H1.17188V56.875H63.2812V54.5312Z" fill="#9498A9"/>
<path d="M31.6406 65.7344H29.2969V77.4531H31.6406V65.7344Z" fill="#9498A9"/>
<path d="M46.875 65.7344H44.5312V77.4531H46.875V65.7344Z" fill="#9498A9"/>
<path d="M53.9062 85H21.0938C20.4721 85 19.876 84.7531 19.4365 84.3135C18.9969 83.874 18.75 83.2779 18.75 82.6562V81.4844C18.75 79.9304 19.3673 78.44 20.4662 77.3412C21.565 76.2423 23.0554 75.625 24.6094 75.625H50.3906C51.9446 75.625 53.435 76.2423 54.5338 77.3412C55.6327 78.44 56.25 79.9304 56.25 81.4844V82.6562C56.25 83.2779 56.0031 83.874 55.5635 84.3135C55.124 84.7531 54.5279 85 53.9062 85ZM24.6094 77.9688C23.677 77.9688 22.7828 78.3391 22.1235 78.9985C21.4641 79.6578 21.0938 80.552 21.0938 81.4844V82.6562H53.9062V81.4844C53.9062 80.552 53.5359 79.6578 52.8765 78.9985C52.2172 78.3391 51.323 77.9688 50.3906 77.9688H24.6094Z" fill="#9498A9"/>
<path d="M63.2812 66.25H5.85938C5.08991 66.25 4.32798 66.0984 3.61709 65.804C2.9062 65.5095 2.26026 65.0779 1.71617 64.5338C1.17208 63.9897 0.740479 63.3438 0.446018 62.6329C0.151557 61.922 0 61.1601 0 60.3906V15.8594C0 14.3054 0.617325 12.815 1.71617 11.7162C2.81502 10.6173 4.30537 10 5.85938 10H69.1406C70.6946 10 72.185 10.6173 73.2838 11.7162C74.3827 12.815 75 14.3054 75 15.8594V33.4375H72.6562V15.8594C72.6562 14.927 72.2859 14.0328 71.6265 13.3735C70.9672 12.7141 70.073 12.3438 69.1406 12.3438H5.85938C4.92697 12.3438 4.03276 12.7141 3.37345 13.3735C2.71414 14.0328 2.34375 14.927 2.34375 15.8594V60.3906C2.34375 61.323 2.71414 62.2172 3.37345 62.8765C4.03276 63.5359 4.92697 63.9062 5.85938 63.9062H63.2812V66.25Z" fill="#9498A9"/>
<path d="M37.5 61.5625C38.1472 61.5625 38.6719 61.0378 38.6719 60.3906C38.6719 59.7434 38.1472 59.2188 37.5 59.2188C36.8528 59.2188 36.3281 59.7434 36.3281 60.3906C36.3281 61.0378 36.8528 61.5625 37.5 61.5625Z" fill="#9498A9"/>
<path d="M35.1562 43.9844H14.0625C13.4409 43.9844 12.8448 43.7374 12.4052 43.2979C11.9657 42.8584 11.7188 42.2622 11.7188 41.6406V26.4062C11.7188 25.7846 11.9657 25.1885 12.4052 24.749C12.8448 24.3094 13.4409 24.0625 14.0625 24.0625H35.1562C35.7779 24.0625 36.374 24.3094 36.8135 24.749C37.2531 25.1885 37.5 25.7846 37.5 26.4062V41.6406C37.5 42.2622 37.2531 42.8584 36.8135 43.2979C36.374 43.7374 35.7779 43.9844 35.1562 43.9844ZM14.0625 26.4062V41.6406H35.1562V26.4062H14.0625Z" fill="#9498A9"/>
<path d="M86.7188 56.875H72.6562C72.0346 56.875 71.4385 56.6281 70.999 56.1885C70.5594 55.749 70.3125 55.1529 70.3125 54.5312V45.1562C70.3125 44.5346 70.5594 43.9385 70.999 43.499C71.4385 43.0594 72.0346 42.8125 72.6562 42.8125H86.7188C87.3404 42.8125 87.9365 43.0594 88.376 43.499C88.8156 43.9385 89.0625 44.5346 89.0625 45.1562V54.5312C89.0625 55.1529 88.8156 55.749 88.376 56.1885C87.9365 56.6281 87.3404 56.875 86.7188 56.875ZM72.6562 45.1562V54.5312H86.7188V45.1562H72.6562Z" fill="#9498A9"/>
<path d="M62.1094 26.4062H43.3594C43.0486 26.4062 42.7505 26.2828 42.5307 26.063C42.311 25.8432 42.1875 25.5452 42.1875 25.2344C42.1875 24.9236 42.311 24.6255 42.5307 24.4057C42.7505 24.186 43.0486 24.0625 43.3594 24.0625H62.1094C62.4202 24.0625 62.7182 24.186 62.938 24.4057C63.1578 24.6255 63.2812 24.9236 63.2812 25.2344C63.2812 25.5452 63.1578 25.8432 62.938 26.063C62.7182 26.2828 62.4202 26.4062 62.1094 26.4062Z" fill="#9498A9"/>
<path d="M62.1094 33.4375H43.3594C43.0486 33.4375 42.7505 33.314 42.5307 33.0943C42.311 32.8745 42.1875 32.5764 42.1875 32.2656C42.1875 31.9548 42.311 31.6568 42.5307 31.437C42.7505 31.2172 43.0486 31.0938 43.3594 31.0938H62.1094C62.4202 31.0938 62.7182 31.2172 62.938 31.437C63.1578 31.6568 63.2812 31.9548 63.2812 32.2656C63.2812 32.5764 63.1578 32.8745 62.938 33.0943C62.7182 33.314 62.4202 33.4375 62.1094 33.4375Z" fill="#9498A9"/>
<path d="M52.7344 40.4688H43.3594C43.0486 40.4688 42.7505 40.3453 42.5307 40.1255C42.311 39.9057 42.1875 39.6077 42.1875 39.2969C42.1875 38.9861 42.311 38.688 42.5307 38.4682C42.7505 38.2485 43.0486 38.125 43.3594 38.125H52.7344C53.0452 38.125 53.3432 38.2485 53.563 38.4682C53.7828 38.688 53.9062 38.9861 53.9062 39.2969C53.9062 39.6077 53.7828 39.9057 53.563 40.1255C53.3432 40.3453 53.0452 40.4688 52.7344 40.4688Z" fill="#9498A9"/>
<path d="M87.8906 63.9062H71.4844C71.1736 63.9062 70.8755 63.7828 70.6557 63.563C70.436 63.3432 70.3125 63.0452 70.3125 62.7344C70.3125 62.4236 70.436 62.1255 70.6557 61.9057C70.8755 61.686 71.1736 61.5625 71.4844 61.5625H87.8906C88.2014 61.5625 88.4995 61.686 88.7193 61.9057C88.939 62.1255 89.0625 62.4236 89.0625 62.7344C89.0625 63.0452 88.939 63.3432 88.7193 63.563C88.4995 63.7828 88.2014 63.9062 87.8906 63.9062Z" fill="#9498A9"/>
<path d="M78.5156 70.9375H71.4844C71.1736 70.9375 70.8755 70.814 70.6557 70.5943C70.436 70.3745 70.3125 70.0764 70.3125 69.7656C70.3125 69.4548 70.436 69.1568 70.6557 68.937C70.8755 68.7172 71.1736 68.5938 71.4844 68.5938H78.5156C78.8264 68.5938 79.1245 68.7172 79.3443 68.937C79.564 69.1568 79.6875 69.4548 79.6875 69.7656C79.6875 70.0764 79.564 70.3745 79.3443 70.5943C79.1245 70.814 78.8264 70.9375 78.5156 70.9375Z" fill="#9498A9"/>
<path d="M87.8906 85H71.4844C69.9304 85 68.44 84.3827 67.3412 83.2838C66.2423 82.185 65.625 80.6946 65.625 79.1406V41.6406C65.625 40.0866 66.2423 38.5963 67.3412 37.4974C68.44 36.3986 69.9304 35.7812 71.4844 35.7812H87.8906C89.4446 35.7812 90.935 36.3986 92.0338 37.4974C93.1327 38.5963 93.75 40.0866 93.75 41.6406V79.1406C93.75 80.6946 93.1327 82.185 92.0338 83.2838C90.935 84.3827 89.4446 85 87.8906 85ZM71.4844 38.125C70.552 38.125 69.6578 38.4954 68.9985 39.1547C68.3391 39.814 67.9688 40.7082 67.9688 41.6406V79.1406C67.9688 80.073 68.3391 80.9672 68.9985 81.6265C69.6578 82.2859 70.552 82.6562 71.4844 82.6562H87.8906C88.823 82.6562 89.7172 82.2859 90.3766 81.6265C91.0359 80.9672 91.4062 80.073 91.4062 79.1406V41.6406C91.4062 40.7082 91.0359 39.814 90.3766 39.1547C89.7172 38.4954 88.823 38.125 87.8906 38.125H71.4844Z" fill="#9498A9"/>
</svg>
